<?xml version="1.0" encoding="utf-8"?>
<svg width="714" height="714" viewBox="0 0 714 714" version="1.1" xmlns="http://www.w3.org/2000/svg" xml:space="preserve" style="fill-rule: evenodd; clip-rule: evenodd; stroke-linejoin: round; stroke-miterlimit: 2;" preserveAspectRatio="xMidYMid meet" zoomAndPan="magnify" contentScriptType="application/ecmascript" contentStyleType="text/css">
  <g transform="matrix(1,0,0,1,57,57)">
    <circle cx="300" cy="300" r="300" style="fill: rgb(235, 232, 219);" />
    <path d="M300-57C102.966-57-57 102.966-57 300s159.966 357 357 357 357-159.966 357-357S497.034-57 300-57zm0 57c165.575 0 300 134.425 300 300S465.575 600 300 600 0 465.575 0 300 134.425 0 300 0z" style="fill: rgb(38, 36, 30);" />
  </g>
  <path d="M375 280c9-92-31-174-81-174-53 0-67 65-67 109 0 19 3 119 69 119 14 0 49-4 79-54zM189 493c155 1 176-141 176-141s-40 33-90 33c-113 0-156-148-111-229 34-61 71-91 132-91 113 0 160 118 160 203 0 37-17 255-268 265" style="fill: rgb(38, 36, 30); fill-rule: nonzero;" transform="matrix(1,0,0,1,57,57)" />
</svg>