<?xml version="1.0" encoding="utf-8"?>
<svg width="714" height="714" viewBox="0 0 714 714" version="1.1" xmlns="http://www.w3.org/2000/svg" xml:space="preserve" style="fill-rule: evenodd; clip-rule: evenodd; stroke-linejoin: round; stroke-miterlimit: 2;" preserveAspectRatio="xMidYMid meet" zoomAndPan="magnify" contentScriptType="application/ecmascript" contentStyleType="text/css">
  <circle cx="300" cy="300" r="300" style="fill: rgb(235, 232, 219);" transform="matrix(1,0,0,1,57,57)" />
  <path d="M300-57C102.966-57-57 102.966-57 300s159.966 357 357 357 357-159.966 357-357S497.034-57 300-57zm0 57c165.575 0 300 134.425 300 300S465.575 600 300 600 0 465.575 0 300 134.425 0 300 0z" style="fill: rgb(38, 36, 30);" transform="matrix(1,0,0,1,57,57)" />
  <path d="M474 358c-1 126-130 175-201 174-79-1-116-35-116-35l23-31s38 25 92 25c31 0 125-29 125-124 0-51-46-70-69-71-20 0-42 11-73 29l-17-37c110-67 127-87 127-118 0-29-26-48-49-48s-56 6-117 72l-32-26C246 57 316 62 337 63c47 2 103 27 104 87 0 24-8 52-62 93 46 5 96 46 95 115z" style="fill: rgb(38, 36, 30); fill-rule: nonzero;" transform="matrix(1,0,0,1,57,57)" />
</svg>