<?xml version="1.0" encoding="utf-8"?>
<svg width="600" height="600" viewBox="0 0 600 600" version="1.1" xmlns="http://www.w3.org/2000/svg" xml:space="preserve" style="fill-rule: evenodd; clip-rule: evenodd; stroke-linejoin: round; stroke-miterlimit: 2;" preserveAspectRatio="xMidYMid meet" zoomAndPan="magnify" contentScriptType="application/ecmascript" contentStyleType="text/css">
  <g id="layer1" transform="matrix(1,0,0,1,55.1373,192.501)">
    <circle cx="-265" cy="365.068" r="50" transform="matrix(6,0,0,6,1834.86,-2082.91)" />
    <path d="M299.997 0c165.575 0 300 134.424 300 300 0 165.574-134.425 300-300 300-165.574 0-300-134.426-300-300 0-165.576 134.426-300 300-300zm12.045 529.278c.985-24.01-2.46-47.45 3.403-70.56 1.893-7.456 2.316-27.37-10.005-27.37-14.605-3.754-14.657 14.73-16.897 25.49l-6.456 23.387c-.527 8.787-1.05 17.576-1.576 26.363.554 28.397 3.484 44.352-5.904 48.76-8.408 2.883-32.88 11.967-39.525 0-3.425-15.42-1.732-31.52-1.732-47.415-.158-7.202-.314-14.41-.473-21.614 1.887-10.187 5.557-24.412-3.384-32.46-1.522-.33-3.044-.66-4.567-.992-5.616 5.055-4.602 21.222-5.196 27.78-2.247 24.777-3.228 49.706-3.228 74.627-2.102 2.315-4.2 4.63-6.3 6.946-5.19 0-32.355 4.414-34.566-1.56-2.24-4.03-6.69-7.193-7.796-11.835-1.156-18.18.21-78.222 1.85-85.635 1.012-6.258 3.4-12.614 5.79-18.97 5.72-18.385 9.346-47.528 4.17-62.15-11.055-31.248-48.708-15.55-67.866-11.238-22.73 5.114-53.337-2.368-69.843-20.654-14.1-15.618-11.265-39.394-10.395-58.964 2.028-45.63 22.314-103.9 49.605-140.747 20.507-27.69 44.496-64.842 58.186-60.735 10.988 3.296 27.96 26.727 37.322 35.152 4.28 3.85 10.172 13.11 16.455 9.424 6.285-3.682-6.407-19.37-9.21-25.937-4.433-10.368-4.097-24.352-4.097-35.576 5.678-10.22 23.51-15.3 34.172-18.498 5.018-2.436 108.567-32.893 128.42-16.087 6.252 16.882-8.818 27.726-8.818 43.3l3.62.426c7.074-6.365 33.63-25.38 44.41-24.167l12.203 6.732c4.845 3.568 10.03 5.93 11.024 12.19 1.074 6.77-5.965 14.537-8.503 20.48-8.306 19.44-10.686 37.42-36.928 34.585-11.52-1.245-24.42-17.926-37.322-12.118-.366 3.47-.735 6.945-1.103 10.416 2.375 4.987 29.454 35.86 32.363 37.987l13.542 9.07c5.13 2.858 12.75 4.395 18.582 4.395 21.392-4.814 21.26-38.4 21.26-55.35 6.882-11.796 20.17-36.994 28.188-40.68 8.234 2.818 62.406 44.13 120.78 161.585 2.6 7.798 31.676 82.667-4.17 109.85-18.787 12.075-41.056 6.777-62.045 7.722-22.468 1.012-48.533 15.37-61.416 33.592-5.762 8.15-13.638 18.033-16.062 27.853-6.863 27.796 3.93 58.112 2.362 86.32-.582 10.486 3.455 26.38-1.26 35.93-3.81 7.72-44.664 23.723-52.36 16.796-3.615-9.76 2.21-20.07 4.016-29.41 2.324-12.032 4.5-26.122 4.5-38.347 0-5.16 1.202-17.594-13.205-17.606-13.998.848-14.25 24.47-14.303 27.51-.113 1.416-.072 5.002.045 9.673l1.01 32.366c.116 4.672.157 8.258.044 9.676-2.608 8.172-24.37 7.7-34.108 7.7l3.3-37.412zm-5.01-126.426c3.138 1.79 6.77.566 8.754-2.56 1.83-5.05 3.662-10.1 5.493-15.147 6.353-9.528 21.285-3.936 21.285-20.716 0-3.53-1.18-6.504-4.397-8.434-17.96-10.776-52.526-14.564-56.737 11.972-1.46 9.198 11.314 8.546 14.748 14.73 0 3.193-.434 12.51.695 15.562 3.426 2.055 6.26 4.172 10.16 4.592zm.334.023 1.133.07-.118.26-1.016-.33-.334-.023-.452-.234.786.257zM162.818 183.748c-7.16.793-14.868.064-21.505 3.55-15.838 8.31-35.393 36.384-38.06 53.974-1.192 7.888-6.395 14.607-2.427 22.64 3.95 8 19.42 12.36 26.663 15.773 22.085 10.412 44.32 13.632 68.478 14.99 11.505.648 24.435 3.857 34.992-2.082 18.553-10.433 11.245-29.307 7.172-45.44-25.007-68.513-52.73-62.285-75.314-63.405zm255.972 5.32c4.795-2.668 9.515-1.515 14.728-1.985 34.154-3.073 59.814 25.608 70.098 55.693 2.175 6.357 4.99 13.12 3.876 20.143-1.456 9.18-13.093 15.748-18.162 22.59-16.45 7.4-36.043 2.68-53.442 1.56-21.404-1.376-59.81 7.967-66.86-21.628-.405-7.166-.81-14.332-1.213-21.498 0-6.988.707-10.766 3.99-17.094 9.21-17.76 32.01-24.643 45.46-36.748.508-.346 1.016-.69 1.525-1.035z" style="fill: rgb(134, 144, 133);" transform="matrix(1,0,0,1,-55.1373,-192.501)" />
  </g>
</svg>