<?xml version="1.0" encoding="utf-8"?>
<svg width="600" height="600" viewBox="0 0 600 600" version="1.1" xmlns="http://www.w3.org/2000/svg" xml:space="preserve" style="fill-rule: evenodd; clip-rule: evenodd; stroke-linejoin: round; stroke-miterlimit: 2;" preserveAspectRatio="xMidYMid meet" zoomAndPan="magnify" contentScriptType="application/ecmascript" contentStyleType="text/css">
  <g id="layer1" transform="matrix(1,0,0,1,55.1373,192.501)">
    <circle cx="-265" cy="365.068" r="50" transform="matrix(6,0,0,6,1834.86,-2082.91)" />
    <path d="M299.997 0c165.575 0 300 134.424 300 300 0 165.574-134.425 300-300 300-165.574 0-300-134.426-300-300 0-165.576 134.426-300 300-300zm-5.394 34.285s-5.813 120.125 55.114 187.39c60.928 67.262 82.645 151.57 83.774 178.57 1.13 26.998.314 141.407-116.84 165.342-128.22 4.572-140.454-114.455-147.707-149.91-7.253-35.457-.576-116.27 35.273-176.367 30.317-61.018 36.14-76.738 39.682-97 5.388-22.106.915-41.638 50.705-108.025zm24.25 251.32s35.05 41.044 41.887 68.343c6.837 27.3 2.555 64.67-11.023 68.342-13.578 3.67-12.66-20.25-11.022-26.455 1.638-6.204-.46-53.24-2.205-57.32-1.748-4.077-21.13-38.936-17.637-52.91z" style="fill: rgb(210, 240, 241);" transform="matrix(1,0,0,1,-55.1373,-192.501)" />
  </g>
</svg>