<?xml version="1.0" encoding="utf-8"?>
<svg width="714" height="714" viewBox="0 0 714 714" version="1.1" xml:space="preserve" style="fill-rule: evenodd; clip-rule: evenodd; stroke-linejoin: round; stroke-miterlimit: 2;" id="svg3" sodipodi:docname="breakingNews5.svg" inkscape:version="1.3.2 (091e20e, 2023-11-25, custom)" xmlns:inkscape="http://www.inkscape.org/namespaces/inkscape" xmlns:sodipodi="http://sodipodi.sourceforge.net/DTD/sodipodi-0.dtd" xmlns="http://www.w3.org/2000/svg">
  <sodipodi:namedview id="namedview3" pagecolor="#ffffff" bordercolor="#000000" borderopacity="0.25" inkscape:showpageshadow="2" inkscape:pageopacity="0.0" inkscape:pagecheckerboard="0" inkscape:deskcolor="#d1d1d1" inkscape:zoom="1.1386555" inkscape:cx="357.87822" inkscape:cy="356.99999" inkscape:window-width="3440" inkscape:window-height="1369" inkscape:window-x="1912" inkscape:window-y="482" inkscape:window-maximized="1" inkscape:current-layer="g1" />
  <g id="g1" transform="scale(1.19)">
    <circle cx="300" cy="300" r="300" style="fill: rgb(64, 58, 61); fill-opacity: 1;" id="circle1" />
  </g>
  <g transform="matrix(1.19,0,0,1.19,1.785,0)" id="g3" style="fill: rgb(0, 0, 0);">
    <path d="M449 355c-1 126-111 177-198 177-50 0-100-18-100-18l15-36s35 12 72 12c41 0 131-30 131-122 0-51-34-103-105-103-37 0-70 22-80 32l-26-5 52-220h177c24 0 26-3 28-8h36l-17 77H233l-15 70s28-13 68-12c126 1 162 110 162 157z" style="fill: rgb(232, 224, 218); fill-rule: nonzero; fill-opacity: 1;" id="path2" />
  </g>
</svg>