<?xml version="1.0" encoding="utf-8"?>
<svg width="714" height="714" viewBox="0 0 714 714" version="1.1" xml:space="preserve" style="fill-rule: evenodd; clip-rule: evenodd; stroke-linejoin: round; stroke-miterlimit: 2;" id="svg3" sodipodi:docname="breakingNews3.svg" inkscape:version="1.3.2 (091e20e, 2023-11-25, custom)" xmlns:inkscape="http://www.inkscape.org/namespaces/inkscape" xmlns:sodipodi="http://sodipodi.sourceforge.net/DTD/sodipodi-0.dtd" xmlns="http://www.w3.org/2000/svg">
  <sodipodi:namedview id="namedview3" pagecolor="#ffffff" bordercolor="#000000" borderopacity="0.25" inkscape:showpageshadow="2" inkscape:pageopacity="0.0" inkscape:pagecheckerboard="0" inkscape:deskcolor="#d1d1d1" inkscape:zoom="1.1386555" inkscape:cx="357.87822" inkscape:cy="356.99999" inkscape:window-width="3440" inkscape:window-height="1369" inkscape:window-x="1912" inkscape:window-y="482" inkscape:window-maximized="1" inkscape:current-layer="g1" />
  <g id="g1" transform="scale(1.19)">
    <circle cx="300" cy="300" r="300" style="fill: rgb(64, 58, 61); fill-opacity: 1;" id="circle1" />
  </g>
  <g id="g3" transform="scale(1.19)">
    <path d="M474 358c-1 126-130 175-201 174-79-1-116-35-116-35l23-31s38 25 92 25c31 0 125-29 125-124 0-51-46-70-69-71-20 0-42 11-73 29l-17-37c110-67 127-87 127-118 0-29-26-48-49-48s-56 6-117 72l-32-26C246 57 316 62 337 63c47 2 103 27 104 87 0 24-8 52-62 93 46 5 96 46 95 115z" style="fill: rgb(232, 224, 218); fill-rule: nonzero; fill-opacity: 1;" id="path2" />
  </g>
</svg>