<?xml version="1.0" encoding="utf-8"?>
<svg width="135" height="135" viewBox="0 0 135 135" version="1.1" xmlns="http://www.w3.org/2000/svg" xml:space="preserve" style="fill-rule: evenodd; clip-rule: evenodd; stroke-linejoin: round; stroke-miterlimit: 2;" preserveAspectRatio="xMidYMid meet" zoomAndPan="magnify" contentScriptType="application/ecmascript" contentStyleType="text/css">
  <g transform="matrix(1,0,0,1,-515,-643) matrix(1,0,0,1,1177,-1730.64)">
    <g id="Shield" transform="matrix(0.992063,0,0,0.992063,-756.206,521.5)">
      <circle cx="163" cy="1935" r="63" style="fill: rgb(164, 166, 170);" />
      <clipPath id="_clip1">
        <circle cx="163" cy="1935" r="63" />
      </clipPath>
      <g clip-path="url(#_clip1)">
        <path d="M1338.14 1982.82c-30.43-15.23-43.21-41.9-40.14-78.82 13.89.44 27.34-3.67 40.5-11l.31.17c13.06 7.23 26.41 11.27 40.19 10.83 3.08 37.07-9.81 63.8-40.5 79l-.36-.18zM1309 1925c21.03 8.79 45.78 25.88 47 33 1 5.84-17.5 16-17.5 16-19.28-14.25-29.65-30.47-29.5-49zm56 19c4.91-7.76 6.53-19.18 6-33-10.8-.4-21.9-9.2-32.5-9-7.3.14-18.1 4.43-19.5 9-2.73 8.89 20.01 25.82 46 33z" transform="matrix(1.008,0,0,1.008,-1186.21,-13.968)" />
      </g>
      <path d="M163 1866.96c-37.552 0-68.04 30.49-68.04 68.04 0 37.55 30.488 68.04 68.04 68.04 37.552 0 68.04-30.49 68.04-68.04 0-37.55-30.488-68.04-68.04-68.04zm0 5.04c34.77 0 63 28.23 63 63s-28.23 63-63 63-63-28.23-63-63 28.23-63 63-63z" />
    </g>
  </g>
</svg>