<?xml version="1.0" encoding="utf-8"?>
<svg width="135" height="135" viewBox="0 0 135 135" version="1.1" xmlns="http://www.w3.org/2000/svg" xml:space="preserve" style="fill-rule: evenodd; clip-rule: evenodd; stroke-linejoin: round; stroke-miterlimit: 2;" preserveAspectRatio="xMidYMid meet" zoomAndPan="magnify" contentScriptType="application/ecmascript" contentStyleType="text/css">
  <g transform="matrix(1,0,0,1,-745,-629) matrix(1,0,0,1,1177,-1730.64) matrix(0.874126,0,0,0.874126,-1525.78,2258.87)">
    <circle cx="1328.5" cy="192.5" r="71.5" style="fill: rgb(154, 189, 73);" />
    <clipPath id="_clip1">
      <circle cx="1328.5" cy="192.5" r="71.5" />
    </clipPath>
    <g clip-path="url(#_clip1)">
      <path d="M829 703c3.972 10.758-15.862 17.292-16 1-.18-21.145 34.12-15.395 33.63 8.268-.306 14.867-11.71 27.892-32.13 27.982-43.107.188-50.968-40.198-40.5-63.25 2.154 27.292 16.037 48.71 40.5 49.216 15.924.328 27.557-16.368 14.5-23.216zm-33-13c-3.972-10.758 15.862-17.292 16-1 .18 21.145-34.12 15.395-33.63-8.268.306-14.867 11.71-27.892 32.13-27.982 43.107-.188 50.968 40.198 40.5 63.25-2.154-27.292-16.037-48.71-40.5-49.216-15.924-.328-27.557 16.368-14.5 23.216z" transform="matrix(1.144,0,0,1.144,399,-604.296)" />
    </g>
    <path d="M1328.5 115.28c-42.62 0-77.22 34.6-77.22 77.22 0 42.62 34.6 77.22 77.22 77.22 42.62 0 77.22-34.6 77.22-77.22 0-42.62-34.6-77.22-77.22-77.22zm0 5.72c39.46 0 71.5 32.038 71.5 71.5s-32.04 71.5-71.5 71.5-71.5-32.038-71.5-71.5 32.04-71.5 71.5-71.5z" />
  </g>
</svg>