<?xml version="1.0" encoding="utf-8"?>
<svg width="135" height="135" viewBox="0 0 135 135" version="1.1" xmlns="http://www.w3.org/2000/svg" xml:space="preserve" style="fill-rule: evenodd; clip-rule: evenodd; stroke-linejoin: round; stroke-miterlimit: 2;" preserveAspectRatio="xMidYMid meet" zoomAndPan="magnify" contentScriptType="application/ecmascript" contentStyleType="text/css">
  <g transform="matrix(1,0,0,1,-515,-982) matrix(1,0,0,1,1177,-1730.64)">
    <g id="Spear" transform="matrix(0.992063,0,0,0.992063,-756.206,860.5)">
      <circle cx="163" cy="1935" r="63" style="fill: rgb(248, 235, 78);" />
      <clipPath id="_clip1">
        <circle cx="163" cy="1935" r="63" />
      </clipPath>
      <g clip-path="url(#_clip1)">
        <path d="M163 2015v-37l-20-31.37 26-59.63 26 59.63-20 31.37v37h-12zm8-108v44l14-3-14-41z" transform="matrix(0.850999,-0.540246,0.540246,0.850999,-1026.27,383.643)" />
      </g>
      <path d="M163 1866.96c-37.552 0-68.04 30.49-68.04 68.04 0 37.55 30.488 68.04 68.04 68.04 37.552 0 68.04-30.49 68.04-68.04 0-37.55-30.488-68.04-68.04-68.04zm0 5.04c34.77 0 63 28.23 63 63s-28.23 63-63 63-63-28.23-63-63 28.23-63 63-63z" />
    </g>
  </g>
</svg>