<?xml version="1.0" encoding="utf-8"?>
<svg width="660" height="660" version="1.1" xmlns="http://www.w3.org/2000/svg" xml:space="preserve" style="fill-rule: evenodd; clip-rule: evenodd; stroke-linejoin: round; stroke-miterlimit: 2;" preserveAspectRatio="xMidYMid meet" zoomAndPan="magnify" contentScriptType="application/ecmascript" contentStyleType="text/css">
  <path d="M300-30C117.868-30-30 117.868-30 300s147.868 330 330 330 330-147.868 330-330S482.132-30 300-30zm0 30c165.575 0 300 134.425 300 300S465.575 600 300 600 0 465.575 0 300 134.425 0 300 0z" transform="matrix(1,0,0,1,30,30)" />
  <path d="M242 454h118c47 0 61-3 77-55l40-1-36 124H156l-1-34c214-209 218-240 220-271 5-68-44-90-70-90s-69 17-111 103l-37-16C213 57 307 64 337 65c74 2 122 72 120 131-2 80-37 92-215 258z" style="fill-rule: nonzero;" transform="matrix(1,0,0,1,30,30)" />
</svg>