<?xml version="1.0" encoding="utf-8"?>
<svg width="600" height="600" viewBox="0 0 600 600" version="1.1" xmlns="http://www.w3.org/2000/svg" xml:space="preserve" style="fill-rule: evenodd; clip-rule: evenodd; stroke-linejoin: round; stroke-miterlimit: 2;" preserveAspectRatio="xMidYMid meet" zoomAndPan="magnify" contentScriptType="application/ecmascript" contentStyleType="text/css">
  <g id="layer1" transform="matrix(1,0,0,1,55.1373,192.501)">
    <circle cx="-265" cy="365.068" r="50" transform="matrix(6,0,0,6,1834.86,-2082.91)" />
    <path d="M299.997 0c165.575 0 300 134.424 300 300 0 165.574-134.425 300-300 300-165.574 0-300-134.426-300-300 0-165.576 134.426-300 300-300zm-104.4 476.033c6.613 7.59 21.436 17.796 32.045 17.796 5.38-4.845 6.927-17.644 9.344-24.606 13.968-40.22 2.868-74.71-30.835-100.25-7.052-5.347-30.398-20.28-39.607-17.912-7.53 1.936-9.964 10.032-16.02 14.707-4.302 2.135-8.604 4.27-12.906 6.407-3.818 4.01-2.775 11.538-7.502 15.793-8.192 7.373-18.042 13.837-26.958 19.855-6.352 4.29-7.68 13.45-18.372 13.45-5.87-2.64-4.813-8.46-7.566-12.59l-9.73-5.38v-.4c0-7.294-5.36-11.214-8.138-17.052-2.054-7.42-4.11-14.84-6.166-22.258L38.5 343.967c-3.523-19.022 9.346-35.992 11.635-54.53.626-5.068-3.762-14.61-6.168-18.94 0-29.506-2.05-43.508 26.258-56.25.493-.666 11.57-7.838 11.57-7.838.478.572.957 1.142 1.433 1.715 0 0 4.085-7.414 6.13-11.12l4.51-.285c.235-.363.47-.725.7-1.087 0-9.923-12.2-17.908-10.997-34.162l5.34-17.736c2.238-3.02 45.153-47.332 48.32-49.326 8.232-5.186 19.223-6.294 28.483-6.294 0 8.62 18.143 12.303 23.904 12.303 0 0 6.378-.87 8.173-4.1 3.562-16.03 15.638-23.638 27.718-33.304 31.097-24.877 33.62-30.727 77.056-30.727 3.75 2.155 7.504 4.31 11.254 6.466l18.755 3.72c8.98 8.08-13.247 56.26-5.214 70.725h1.145c13.22-11.883 26.45-23.767 39.67-35.65 6.994-6.292 11.062-2.515 16.595-10.815 6.13-5.518 27.524.116 35.92.116l5.342-2.576c5.9 2.655 44.948 49.88 44.948 55.676l17.483 7.954c6 19.263 11.997 38.53 17.993 57.793.87.038 1.737.077 2.606.113 3.71-3.146 7.418-6.294 11.126-9.44.32 1.372.637 2.747.954 4.12 1.73 5.45 6.24 28.75 15.26 26.72l5.148-7.494c12.484 11.235 16.297 82.528 13.67 97.905-3.095 6.54-6.19 13.083-9.282 19.626.127.056.253.114.382.17 3.262.173 6.526.345 9.79.516-.386 2.454-2.03 7.56 2.848 5.276 0 0 12.284 41.343-11.654 45.146-56.63 8.994-143.104-34.138-186.28 24.146l-6.804 18.426c-7.7 36.964-17.302 56.636 7.815 89.238 24.605 31.935 52.296-11.634 71.486-9.6 7.614.803 30.297 14.906 25.22 23.13-20.707 19.373-57.107 48.998-73.127 51.168 0 0-48.1 1.624-72.582 2.848-7.473.374-86.108-13.98-94.03-18.14-9.218-4.84-10.215-10.852-16.53-16.535-11.438 0-48.09 1.185-57.982-4.75l-8.01-12.13c4.868 0 46.014-33.355 59.12-40.122zM415.383 305.98c5.426 1.765 7.2 6.428 11.162 8.21-.03.937-.057 1.876-.087 2.814-5.79 2.018-11.58 4.038-17.372 6.058-12.766 6.758-25.456 19.186-39.65 22.668-3.87.95-14.494 7.762-18.372 5.435-8.376-15.092 31.043-30.672 37.958-38.97 5.053-7.008 10.106-14.02 15.156-21.027 8.79 0 5.675 9.013 10.294 13.172l1.635 1.452c-.24.062-.48.126-.723.188zm-174.598 37.168c6.085-4.977 4.343-14.02 4.343-20.794-10.118-9.106-28.896-7.855-42.257-7.855-1.5 0-14.68 1.206-14.68 2.188-.1.78-.2 1.564-.302 2.344 0 3.612 4.034 8.334 6.95 10.24 4.59 3.007 33.135 1.892 33.135 9.576l.216.04 1.693.782.957 1.33c0 5.067 9.554 5.294 9.554 2.11l.122-.04c.088.027.178.053.268.078zm113.938-62.46c-3.152 3.17-15.71 11.166-17.154 2.073-.783-4.927 6.318-9.107 8.554-13.133-.838-5.89-1.68-11.778-2.517-17.667 1.273-1.445 2.547-2.89 3.82-4.338 4.732-7.663 7.99-12.233 18.067-12.233 2.297 2.066 4.9 2.935 5.906 6.253l.088.547-1.563 10.435c.412 4.465 3.99 7.28 1.91 12.43 0 0-15.81 15.435-16.47 15.82-.214-.06-.43-.124-.64-.186zm-174.387-13.203c17.48 14.42 15.12 3.236 29.75 6.058 5.217 1.006 14.684 3.63 19.196-.43 3.434-9.272-4.89-5.598-8.12-11.412l-.348-10.083c-6.897-10.343-41.04.19-41.04 14.93.39.376.777.75 1.168 1.13-.202-.066-.404-.128-.605-.192zm87.977-64.06c2.932 2.97-12.533 18.48-13.234 22.903-2.25 14.17 7.227 31.343 19.413 38.656 3.833 0 7.17-3.354 6.73-7.31l-3.255-6.917c0-3.856 3.153-5.6 3.474-9.342l-2.825-13.015v-16.77c-.487-2.776-7.47-13.538-10.303-8.204zM116.19 234.264l6.994 1.64c9.78-4.398 7.283-12.96 12.462-16.688 9.513-6.85 28.534 1.035 28.534-17.588-2.284-4.11-8.757-1.598-11.986-1.017-17.964 3.232-17.07 12.866-30.314 21.38-1.763 1.134-9.578 8.188-6.342 11.1l1.448.89c-.266.094-.53.19-.796.283zm152.122-30.837-.038-.05-.298.79a5.01 5.01 0 0 1 .336-.74zm5.718-69.02c8.377 2.355 6.442 11.256 15.503 11.256 4.91-2.945 3.824-17.38 3.824-22.982-3.56-5.336-9.132-5.84-13.854-9.38l-3.822-4.965c-1.1-.092-2.2-.182-3.302-.275-4.006 2.407-5.762 18.787-3.776 22.358l6.108 4.776-.68-.79z" style="fill: rgb(194, 227, 176);" transform="matrix(1,0,0,1,-55.1373,-192.501)" />
  </g>
</svg>