<?xml version="1.0" encoding="utf-8"?>
<svg width="600" height="600" viewBox="0 0 600 600" version="1.1" xmlns="http://www.w3.org/2000/svg" xml:space="preserve" style="fill-rule: evenodd; clip-rule: evenodd; stroke-linejoin: round; stroke-miterlimit: 2;" preserveAspectRatio="xMidYMid meet" zoomAndPan="magnify" contentScriptType="application/ecmascript" contentStyleType="text/css">
  <g id="layer1" transform="matrix(1,0,0,1,55.1373,192.501)">
    <circle cx="-265" cy="365.068" r="50" transform="matrix(6,0,0,6,1834.86,-2082.91)" />
    <path d="M299.997 0c165.575 0 300 134.424 300 300 0 165.574-134.425 300-300 300-165.574 0-300-134.426-300-300 0-165.576 134.426-300 300-300zm54.723 226.52s-21.83 41.087-46.183 54.583c-24.356 13.494-40.64 17.696-61.93 14.695-21.29-3.003-100.767 42.55-100.767 133.306 0 79.943 103.94 127.812 134.355 129.105 30.416 1.295 70.27-21.65 77.675-23.092 7.403-1.444 26.725 2.348 37.787-1.05 11.06-3.397 65.543-44.38 96.567-92.37-27.84 4.275-55.475 33.514-60.88 18.894-5.404-14.62 73.353-47.67 78.725-60.878-2.438 16.224-.636 25.776-6.3 34.637 13.43-10.562 51.768-47.99 24.143-150.098-3.133 15.396-4.893 32.746-18.893 52.482-2.5-5.263-1.302-7.69-5.25-10.496-3.948-2.807-8.034 4.008-10.496 0-2.46-4.01 10.256-36.518 36.738-78.724 10.657-17.192 2.274-48.388-5.248-66.128C517.242 163.646 462.912 79.66 419.8 56.48c12.146 25.47 48.372 66.463 50.382 89.22-10.003-7.883-33.135-21.175-37.787-26.244-4.653-5.067 1.66-14.09-4.2-20.992-5.86-6.9-22.588-7.466-28.34-16.795-5.75-9.33-23.232-32.31-51.43-36.74-28.202-4.426-96.373-13.74-229.875 50.385 14.263 1.053 26.806.71 26.24 12.595-.565 11.886-19.76 19.89-33.588 20.994-13.83 1.103-60.52 17.35-46.185 156.397 4.725-11.727 11.452-30.522 14.695-32.538 3.245-2.014 5.15 8.406 7.348 15.746 14.52-32.778 2.568-84.11 11.545-83.973 8.98.136 9.316 27.136 10.497 75.574 7.068-27.147 11.668-51.56 15.745-66.13-.523-4.424-1.904-24.53 11.546-29.388 18.397-11.924 30.395-26.41 34.64-27.292 4.242-.88 8.566 12.787 7.347 17.845 3.724-2.24 10.245-22.057 8.397-47.235.98-5.632 10.14-23.933 22.042-17.843 11.902 6.09 11.796 10.467 18.893 20.992 7.097 10.524 24.187 21.814 24.143 28.34-.046 6.527-21.092 1.202-28.34 0 3.955 3.05 19.2 15.418 16.792 18.894-2.407 3.476-35.687 1.05-35.687 1.05s23.17 11.123 22.044 14.694c-1.125 3.572-22.043-1.05-22.043-1.05s10.716 21.137 33.59 20.993c22.873-.14 67.616-14.562 75.574-14.692 7.958-.133 27.306 20.427 27.292 23.092-.016 2.664 20.257-9.71-37.79-51.434-7.817-8.883-16.134-14.13 0-30.44 16.138-16.308 25.17-18.93 40.937-12.596 15.77 6.334 48.54 30.01 32.54 46.186-15.998 16.172-44.638-19.2-48.284-26.242-3.647-7.043 14.522 84.598 92.37 67.178 20.278 17.354 43.664 42.454 15.743 81.873-13.238 1.938-6.98-12.023-10.497-22.043-3.514-10.02-22.695-30.768-26.24-30.44-3.547.327 29.47 93.17 22.042 125.96-7.43 32.784-23.505 56.74-32.538 59.828-15.846 5.412-12.845-1.78-24.143-5.25-11.298-3.467-11.918 4.19-17.844 1.05-5.926-3.137-14.746-12.353-15.745-22.04-1.77-21.667 46.014-50.88 47.235-74.526 1.22-23.646-9.14-46.764-15.746-51.433-6.603-4.668-8.783-26.853-8.397-31.49z" style="fill: rgb(234, 163, 117);" transform="matrix(1,0,0,1,-55.1373,-192.501)" />
  </g>
</svg>