<?xml version="1.0" encoding="utf-8"?>
<svg width="714" height="714" viewBox="0 0 714 714" version="1.1" xml:space="preserve" style="fill-rule: evenodd; clip-rule: evenodd; stroke-linejoin: round; stroke-miterlimit: 2;" id="svg3" sodipodi:docname="wanted0.svg" inkscape:version="1.3.2 (091e20e, 2023-11-25, custom)" xmlns:inkscape="http://www.inkscape.org/namespaces/inkscape" xmlns:sodipodi="http://sodipodi.sourceforge.net/DTD/sodipodi-0.dtd" xmlns:xlink="http://www.w3.org/1999/xlink" xmlns="http://www.w3.org/2000/svg">
  <defs id="defs3">
    <linearGradient id="swatch5" inkscape:swatch="solid">
      <stop style="stop-color: rgb(0, 0, 0); stop-opacity: 1;" offset="0" id="stop5" />
    </linearGradient>
    <linearGradient id="swatch4" inkscape:swatch="solid">
      <stop style="stop-color: rgb(214, 183, 147); stop-opacity: 1;" offset="0" id="stop4" />
    </linearGradient>
    <linearGradient id="swatch3" inkscape:swatch="solid">
      <stop style="stop-color: rgb(89, 76, 66); stop-opacity: 1;" offset="0" id="stop3" />
    </linearGradient>
    <linearGradient inkscape:collect="always" xlink:href="#swatch3" id="linearGradient3" x1="-57" y1="300" x2="657" y2="300" gradientUnits="userSpaceOnUse" />
    <linearGradient inkscape:collect="always" xlink:href="#swatch5" id="linearGradient5" x1="140.98985" y1="299" x2="462" y2="299" gradientUnits="userSpaceOnUse" />
  </defs>
  <sodipodi:namedview id="namedview3" pagecolor="#ffffff" bordercolor="#000000" borderopacity="0.25" inkscape:showpageshadow="2" inkscape:pageopacity="0.0" inkscape:pagecheckerboard="0" inkscape:deskcolor="#d1d1d1" inkscape:zoom="0.072604714" inkscape:cx="-2692.6626" inkscape:cy="1521.9397" inkscape:window-width="3440" inkscape:window-height="1369" inkscape:window-x="1912" inkscape:window-y="482" inkscape:window-maximized="1" inkscape:current-layer="g3" />
  <g transform="matrix(1,0,0,1,57,57)" id="g1">
    <circle cx="300" cy="300" r="300" style="fill: url(&quot;#swatch4&quot;); fill-opacity: 1;" id="circle1" />
  </g>
  <g transform="matrix(1,0,0,1,57,57)" id="g2">
    <path d="M300-57C102.966-57-57 102.966-57 300s159.966 357 357 357 357-159.966 357-357S497.034-57 300-57zm0 57c165.575 0 300 134.425 300 300S465.575 600 300 600 0 465.575 0 300 134.425 0 300 0z" style="fill: url(&quot;#linearGradient3&quot;); fill-opacity: 1;" id="path1" />
  </g>
  <g transform="matrix(1,0,0,1,57,57)" id="g3">
    <path d="M304 493c27 0 79-14 79-169 0-166-45-217-87-217-34 0-76 26-76 169 0 168 49 217 84 217m0 40c-91 0-164-88-163-225 0-111 60-243 155-243 101 0 166 94 166 219 0 213-123 249-159 249" style="fill: url(&quot;#linearGradient5&quot;); fill-rule: nonzero;" id="path2" />
  </g>
</svg>