<?xml version="1.0" encoding="utf-8"?>
<svg width="714" height="714" viewBox="0 0 714 714" version="1.1" xml:space="preserve" style="fill-rule: evenodd; clip-rule: evenodd; stroke-linejoin: round; stroke-miterlimit: 2;" id="svg3" sodipodi:docname="wanted3.svg" inkscape:version="1.3.2 (091e20e, 2023-11-25, custom)" xmlns:inkscape="http://www.inkscape.org/namespaces/inkscape" xmlns:sodipodi="http://sodipodi.sourceforge.net/DTD/sodipodi-0.dtd" xmlns="http://www.w3.org/2000/svg">
  <sodipodi:namedview id="namedview3" pagecolor="#ffffff" bordercolor="#000000" borderopacity="0.25" inkscape:showpageshadow="2" inkscape:pageopacity="0.0" inkscape:pagecheckerboard="0" inkscape:deskcolor="#d1d1d1" inkscape:zoom="1.1386555" inkscape:cx="357" inkscape:cy="357" inkscape:window-width="3440" inkscape:window-height="1369" inkscape:window-x="1912" inkscape:window-y="482" inkscape:window-maximized="1" inkscape:current-layer="svg3" />
  <g transform="matrix(1,0,0,1,57,57)" id="g1">
    <circle cx="300" cy="300" r="300" style="fill: rgb(214, 183, 147); fill-opacity: 1;" id="circle1" />
  </g>
  <g transform="matrix(1,0,0,1,57,57)" id="g2">
    <path d="M300-57C102.966-57-57 102.966-57 300s159.966 357 357 357 357-159.966 357-357S497.034-57 300-57zm0 57c165.575 0 300 134.425 300 300S465.575 600 300 600 0 465.575 0 300 134.425 0 300 0z" style="fill: rgb(89, 76, 66); fill-opacity: 1;" id="path1" />
  </g>
  <g transform="matrix(1,0,0,1,57,57)" id="g3">
    <path d="M474 358c-1 126-130 175-201 174-79-1-116-35-116-35l23-31s38 25 92 25c31 0 125-29 125-124 0-51-46-70-69-71-20 0-42 11-73 29l-17-37c110-67 127-87 127-118 0-29-26-48-49-48s-56 6-117 72l-32-26C246 57 316 62 337 63c47 2 103 27 104 87 0 24-8 52-62 93 46 5 96 46 95 115z" style="fill: rgb(0, 0, 0); fill-rule: nonzero;" id="path2" />
  </g>
</svg>