<?xml version="1.0" encoding="UTF-8"?><svg id="Layer_2" xmlns="http://www.w3.org/2000/svg" width="285.62646" height="319.55649" xmlns:xlink="http://www.w3.org/1999/xlink" viewBox="0 0 285.62646 319.55649"><defs><style>.cls-1{fill:none;}.cls-2{fill:url(#linear-gradient);}</style><linearGradient id="linear-gradient" x1="58.97473" y1="344.67525" x2="239.05826" y2="-22.90116" gradientUnits="userSpaceOnUse"><stop offset="0" stop-color="#d6c093"/><stop offset=".1084" stop-color="#d7c297"/><stop offset=".21928" stop-color="#dbc9a3"/><stop offset=".33132" stop-color="#e3d6b7"/><stop offset=".44349" stop-color="#ede7d4"/><stop offset=".50397" stop-color="#f4f3e7"/><stop offset=".65501" stop-color="#e8d8b5"/><stop offset=".76248" stop-color="#e1c896"/></linearGradient></defs><g id="Layer_1_copy_3"><path class="cls-1" d="M127.12368,19.03141c1.2345-2.49182-3.31445-4.65387-2.61951-5.23816l5.23273.39679c-.84363-1.50305-.90674-3.14026-.8031-4.82806.41461-.47009,3.30872,2.71545,3.89276,3.15125,2.41913,1.80511,5.52301,2.79852,7.77899,4.90332.69843-.75806-3.02502-3.13995-3.2406-3.50232-.56378-.94757-.51099-4.70764-.38281-5.9671.08789-.86316,1.00165-4.92316,1.62219-2.83038.95776,3.2298,2.42761,5.45117,4.21997,7.39252,2.02026,2.18817,4.45142,4.01953,7.04303,6.51868.17584-.75525-.41986-.9588-.80048-1.41089-1.10583-1.31348-4.9375-4.52496-6.24255-6.08496-.19086-.22815-.32916-.42194-.39545-.5683-.4917-1.08575-.27527-3.93359.14966-5.07123.0921-.24658.17285-.41772.24579-.53815.55731-.92029.59991,1.49261.79321,2.00262,2.29883,6.06427,10.8609,9.98553,12.19977,15.59229.22778.95374-.11505,1.99304.30103,2.92157.06403.14276,1.84637,2.39062,2.0022,2.40424.32941.02869,1.83948-1.6203,2.21838-1.18835.16382,2.98431-1.30048,7.24133-4.42529,8.05286.64386-4.03778-3.01312-4.13062-6.04218-4.43323,2.77844-5.09424-3.7453-3.49292-7.04712-3.24414-.21545.01624-.4176.02692-.60211.02942.01599.3186.27167.48822.60211.58917.67566.20642,1.69263.10028,1.81335.21503-.05444.9491-.63934,1.68604-.77289,2.64972-.4895,3.53284,1.06952,1.69873,1.58051,2.17944.20825.19592-.27246,2.66986.04523,3.17212.50989.80603,2.21912-.50867,1.97125.66174-.28253,1.33441-2.66486,2.76215-4.63745,3.26678-.68964.17645-1.33008.24213-1.81201.14868l1.60724-1.81415-2.008-.60089c.33868-1.28546,1.10419-1.94891,1.21423-3.43036.36627-4.92828-4.31702-5.14972-8.05975-4.22351-.64252-.59271,3.58795-4.75482,4.42566-5.03522l-2.8136-1.20123,1.45831-.96021,3.36847-1.25677c-2.77625-.01477-7.45496.62439-8.45239,3.61932l2.00946.00421c.8042.72607-2.90149,1.99963-3.48859,2.34717-.96515.57135-3.76367,2.70264-4.36975,2.88171-1.28888.3808-.25403-2.48517-.26331-3.02551-.03363-1.96722-1.63531-3.2359-3.55231-3.01196.78333,11.73767,10.70819,18.77051,20.73633,18.80438v.00836c9.88965-.04376,18.8504-6.95715,20.45599-18.47235.07343-.44165.12299-.96375.1311-1.0968.03088-.50629.03656-.65802.0459-1.15417l-.01239-.98389c-.52728-8.0155-5.38672-16.03693-13.38684-18.8562-2.48254-.87488-4.91779-1.26642-7.25592-1.26752v-.00848c-2.33142.00354-4.75897.39447-7.23376,1.2666-8.13123,2.86548-13.32367,10.43445-13.88293,18.93896.38824.39227,5.15784-2.24854,5.43823-2.81445Z"/><path class="cls-1" d="M6.12289,31.92923c-.96973,1.9411,3.56964,7.04785,4.96552,6.77563.50995-.09943,2.20007-2.20026,2.88879-2.74567,16.47559-13.047,39.91571-5.98486,59.51855-8.94116,7.55121-1.13885,16.52417-3.43115,22.41571-8.38879l-77.31708-.00635c-.06409,6.60144-5.88928,12.80005-12.4715,13.30634Z"/><path class="cls-1" d="M150.67459,25.06858c.39612-1.09552-2.64587-3.78503-3.21735-3.21863-.39612,1.09558,2.64587,3.7851,3.21735,3.21863Z"/><polygon class="cls-1" points="5.71023 48.03238 9.73043 40.20548 5.71023 37.1558 5.71023 48.03238"/><path class="cls-1" d="M122.48873,12.17978h-17.71814l-3.22144,4.83411h18.72479c.68384,0,1.5954-4.14813,2.21478-4.83411Z"/><path class="cls-1" d="M5.71023,295.37497c.57336.09192.58875-.71088.68872-1.11987,1.28619-5.26117,1.78558-10.82251,4.48407-15.67145l-5.17279-6.97614v23.76746Z"/><path class="cls-1" d="M4.09945,44.40683v-11.68225c-3.54199,3.04407-2.99695,8.46381,0,11.68225Z"/><path class="cls-1" d="M281.527,32.73398v11.68225c2.99695-3.21844,3.54199-8.63818,0-11.68225Z"/><polygon class="cls-1" points="279.91622 48.04178 279.91622 37.1652 275.89602 40.21488 279.91622 48.04178"/><path class="cls-1" d="M279.2275,294.2645c.09998.409.11536,1.21179.68872,1.11987v-23.76746l-5.17279,6.97614c2.69849,4.84894,3.19788,10.41028,4.48407,15.67145Z"/><path class="cls-1" d="M279.50357,31.93863c-6.58221-.50629-12.40741-6.7049-12.4715-13.30634l-77.31708.00635c5.89154,4.95764,14.8645,7.24994,22.41571,8.38879,19.60284,2.9563,43.04297-4.10583,59.51855,8.94116.68872.54541,2.37885,2.64624,2.88879,2.74567,1.39587.27222,5.93524-4.83453,4.96552-6.77563Z"/><path class="cls-1" d="M163.13772,12.18918c.61938.68597,1.53094,4.83411,2.21478,4.83411h18.72479l-3.22144-4.83411h-17.71814Z"/><path class="cls-1" d="M165.5538,18.63462l-.2453,5.78369c-.05591,1.31842-.22711,2.63507-.5495,3.91467-.67029,2.6604-1.67249,4.71497-2.35864,5.87897-4.38562,7.43958-12.01221,11.03815-19.59821,10.96265v-.00983c-7.57874.06836-15.1947-3.52991-19.57605-10.96222-.88843-1.50708-2.37402-4.50836-2.91571-8.38336l-.23773-7.19397c-.49878.08466-2.29877-.12604-2.41772-.0022-.13269.13818-.42303,3.35126-.41534,3.80914.11432,6.79266,3.27856,14.14777,8.25995,18.76129,4.73566,4.38593,12.05518,6.10382,17.25281,9.99854.01624-.01318.03314-.02545.0498-.03802v-.00751c.00159.00128.0033.0025.00494.00378.0058-.00433.0116-.00867.01721-.01318v.02631c.01666.01257.03357.02484.0498.03802,5.19763-3.89471,12.51715-5.61261,17.25281-9.99854,4.98138-4.61353,8.14563-11.96863,8.25995-18.76129.00769-.45789-.28265-3.67096-.41534-3.80914-.11896-.12384-1.91895.08685-2.41772.0022Z"/><path class="cls-2" d="M281.46353,30.58182c-1.58972-.4989-3.23633-.31909-5.04425-.9964-4.82355-1.80713-8.28607-7.43408-7.77625-12.56421l-81.13391-.0069c-2.54413-1.46417-4.28766-4.09882-6.11584-6.36987l-18.77606-.15015c-4.45386-5.25348-9.80231-9.7265-17.00275-10.38373-.9574-.08734-1.88269-.11017-2.79016-.09741V.00358c-.91455-.01349-1.84723.00952-2.81232.0976-7.20044.65723-12.54889,5.13025-17.00275,10.38373l-18.77606.15015c-1.82819,2.27106-3.57172,4.9057-6.11584,6.36987l-81.13391.0069c.50983,5.13013-2.9527,10.75708-7.77625,12.56421-1.80792.67731-3.45453.4975-5.04425.9964C.76193,31.63968-.24692,37.15714.04879,40.20395c.17926,1.84741,1.14935,2.28912,1.75049,3.88556,2.57166,6.82953,1.56238,7.90491,1.67584,15.09778.62433,39.57635.86353,202.50073.60773,241.60938-.04083,6.24872.06317,12.50647.01849,18.75043h1.60706c.18762-13.85852.78491-28.6571,6.83936-41.30426-2.91345-3.38196-5.0784-5.75976-6.2366-10.26721l-.18167-200.79181c.44537-12.71533-.71564-23.52045,11.13397-31.56268,19.11993-12.97656,51.28418-.08856,75.29987-12.49005,1.70575-.88086,5.63293-4.08167,6.86774-4.40918,1.36792-.36279,13.97974-.37939,15.60608-.09576.41101.07166.85321.1795.96191.6347.06659.27899-.43457,3.98737-.34949,5.19916.54395,7.74585,4.84973,15.41534,11.14172,19.8725,3.28693,2.32837,6.64758,3.31879,10.06171,5.24231,2.12378,1.19653,3.99811,2.58789,5.91663,4.06879.01331-.01471.02747-.0282.04132-.04211.02673.01288.03717.01801.06921.03351,1.9104-1.47418,3.77814-2.85913,5.89331-4.05078,3.41412-1.92352,6.77478-2.91394,10.06171-5.24231,6.29199-4.45715,10.59778-12.12665,11.14172-19.8725.08508-1.21179-.41608-4.92017-.34949-5.19916.1087-.4552.5509-.56305.96191-.6347,1.62634-.28363,14.23816-.26703,15.60608.09576,1.2348.32751,5.16199,3.52832,6.86774,4.40918,24.01569,12.40149,56.17993-.48651,75.29987,12.49005,11.84961,8.04224,10.6886,18.84735,11.13397,31.56268l.21696,198.28241c-1.1582,4.50745-3.72178,9.39465-6.63523,12.77661,6.05444,12.64716,6.65173,27.44574,6.83936,41.30426h1.60706c-.04468-6.24396.05933-12.50171.01849-18.75043-.2558-39.10864-.0166-202.03302.60773-241.60938.11346-7.19287-.89581-8.26825,1.67584-15.09778.60114-1.59644,1.57123-2.03815,1.75049-3.88556.29572-3.04681-.71313-8.56427-4.11414-9.63153ZM4.09945,44.40683c-2.99695-3.21844-3.54199-8.63818,0-11.68225v11.68225ZM10.88302,278.58365c-2.69849,4.84894-3.19788,10.41028-4.48407,15.67145-.09998.409-.11536,1.21179-.68872,1.11987v-23.76746l5.17279,6.97614ZM5.71023,48.03238v-10.87659l4.0202,3.04968-4.0202,7.8269ZM73.49575,27.01804c-19.60284,2.9563-43.04297-4.10583-59.51855,8.94116-.68872.54541-2.37885,2.64624-2.88879,2.74567-1.39587.27222-5.93524-4.83453-4.96552-6.77563,6.58221-.50629,12.40741-6.7049,12.4715-13.30634l77.31708.00635c-5.89154,4.95764-14.8645,7.24994-22.41571,8.38879ZM135.56839,2.9069c2.47479-.87213,4.90234-1.26306,7.23376-1.2666v.00848c2.33813.0011,4.77338.39264,7.25592,1.26752,8.00012,2.81927,12.85956,10.8407,13.38684,18.8562l.01239.98389c-.00934.49615-.01501.64789-.0459,1.15417-.00812.13306-.05768.65515-.1311,1.0968-1.60559,11.5152-10.56635,18.42859-20.45599,18.47235v-.00836c-10.02814-.03387-19.953-7.06671-20.73633-18.80438,1.91699-.22394,3.51868,1.04474,3.55231,3.01196.00928.54034-1.02557,3.40631.26331,3.02551.60608-.17908,3.4046-2.31036,4.36975-2.88171.5871-.34753,4.29279-1.62109,3.48859-2.34717l-2.00946-.00421c.99744-2.99493,5.67615-3.63409,8.45239-3.61932l-3.36847,1.25677-1.45831.96021,2.8136,1.20123c-.83771.2804-5.06818,4.4425-4.42566,5.03522,3.74274-.92621,8.42603-.70477,8.05975,4.22351-.11005,1.48145-.87555,2.1449-1.21423,3.43036l2.008.60089-1.60724,1.81415c.48193.09344,1.12238.02777,1.81201-.14868,1.9726-.50464,4.35492-1.93237,4.63745-3.26678.24786-1.17041-1.46136.14429-1.97125-.66174-.31769-.50226.16302-2.9762-.04523-3.17212-.51099-.48071-2.07001,1.35339-1.58051-2.17944.13354-.96368.71844-1.70062.77289-2.64972-.12073-.11475-1.1377-.00861-1.81335-.21503-.33044-.10095-.58612-.27057-.60211-.58917.18451-.0025.38666-.01318.60211-.02942,3.30182-.24878,9.82556-1.8501,7.04712,3.24414,3.02905.30261,6.68604.39545,6.04218,4.43323,3.12482-.81152,4.58911-5.06854,4.42529-8.05286-.37891-.43195-1.88898,1.21704-2.21838,1.18835-.15582-.01361-1.93817-2.26147-2.0022-2.40424-.41608-.92853-.07324-1.96783-.30103-2.92157-1.33887-5.60675-9.90094-9.52802-12.19977-15.59229-.1933-.51001-.2359-2.92291-.79321-2.00262-.07294.12042-.15369.29156-.24579.53815-.42493,1.13763-.64136,3.98547-.14966,5.07123.06628.14636.20459.34015.39545.5683,1.30505,1.56,5.13672,4.77148,6.24255,6.08496.38062.45209.97632.65564.80048,1.41089-2.59161-2.49915-5.02277-4.33051-7.04303-6.51868-1.79236-1.94135-3.26221-4.16272-4.21997-7.39252-.62054-2.09277-1.5343,1.96722-1.62219,2.83038-.12817,1.25946-.18097,5.01953.38281,5.9671.21558.36237,3.93903,2.74426,3.2406,3.50232-2.25598-2.1048-5.35986-3.09821-7.77899-4.90332-.58405-.43579-3.47815-3.62134-3.89276-3.15125-.10364,1.68781-.04053,3.32501.8031,4.82806l-5.23273-.39679c-.69495.58429,3.854,2.74634,2.61951,5.23816-.2804.56592-5.04999,3.20673-5.43823,2.81445.55927-8.50452,5.75171-16.07349,13.88293-18.93896ZM147.45724,21.84995c.57147-.56641,3.61346,2.12311,3.21735,3.21863-.57147.56647-3.61346-2.12305-3.21735-3.21863ZM101.54916,17.01389l3.22144-4.83411h17.71814c-.61938.68597-1.53094,4.83411-2.21478,4.83411h-18.72479ZM160.12692,41.20286c-4.73566,4.38593-12.05518,6.10382-17.25281,9.99854-.01624-.01318-.03314-.02545-.0498-.03802v-.02631c-.00562.00452-.01141.00885-.01721.01318-.00165-.00128-.00336-.0025-.00494-.00378v.00751c-.01666.01257-.03357.02484-.0498.03802-5.19763-3.89471-12.51715-5.61261-17.25281-9.99854-4.98138-4.61353-8.14563-11.96863-8.25995-18.76129-.00769-.45789.28265-3.67096.41534-3.80914.11896-.12384,1.91895.08685,2.41772.0022l.23773,7.19397c.54169,3.875,2.02728,6.87628,2.91571,8.38336,4.38135,7.43231,11.99731,11.03058,19.57605,10.96222v.00983c7.586.0755,15.21259-3.52307,19.59821-10.96265.68616-1.164,1.68835-3.21857,2.35864-5.87897.32239-1.2796.49359-2.59625.5495-3.91467l.2453-5.78369c.49878.08466,2.29877-.12604,2.41772-.0022.13269.13818.42303,3.35126.41534,3.80914-.11432,6.79266-3.27856,14.14777-8.25995,18.76129ZM165.3525,17.02329c-.68384,0-1.5954-4.14813-2.21478-4.83411h17.71814l3.22144,4.83411h-18.72479ZM271.64926,35.9686c-16.47559-13.047-39.91571-5.98486-59.51855-8.94116-7.55121-1.13885-16.52417-3.43115-22.41571-8.38879l77.31708-.00635c.06409,6.60144,5.88928,12.80005,12.4715,13.30634.96973,1.9411-3.56964,7.04785-4.96552,6.77563-.50995-.09943-2.20007-2.20026-2.88879-2.74567ZM279.91622,295.38437c-.57336.09192-.58875-.71088-.68872-1.11987-1.28619-5.26117-1.78558-10.82251-4.48407-15.67145l5.17279-6.97614v23.76746ZM279.91622,48.04178l-4.0202-7.8269,4.0202-3.04968v10.87659ZM281.527,44.41623v-11.68225c3.54199,3.04407,2.99695,8.46381,0,11.68225Z"/></g></svg>