<?xml version="1.0" encoding="UTF-8"?><svg xmlns="http://www.w3.org/2000/svg" viewBox="0 0 10 10"><g id="uuid-c8b4893a-9a58-45ec-8571-3743fb90bbf4" shape-rendering="crispEdges"><path d="M9,3v-1h-1v-1h-1V0H3v1h-1v1h-1v1H0v4h1v1h1v1h1v1h4v-1h1v-1h1v-1h1V3h-1Z" fill="#ccc2c0"/><polygon points="5 3 5 2 4 2 3 2 3 3 4 3 5 3"/><rect x="5" y="3" width="1" height="1"/><polygon points="2 5 2 6 3 6 3 5 3 4 3 3 2 3 2 4 2 5"/><polygon points="5 5 5 6 6 6 7 6 8 6 8 5 8 4 8 3 7 3 7 4 6 4 6 5 5 5"/><rect x="3" y="6" width="1" height="1"/><rect x="4" y="7" width="1" height="1"/></g></svg>