<?xml version="1.0" encoding="UTF-8"?><svg xmlns="http://www.w3.org/2000/svg" viewBox="0 0 10 10"><g id="uuid-1a70c41b-c1e7-41a4-b9f6-b39486287832" shape-rendering="crispEdges"><path d="M9,3v-1h-1v-1h-1V0H3v1h-1v1h-1v1H0v4h1v1h1v1h1v1h4v-1h1v-1h1v-1h1V3h-1Z" fill="#ccc2c0"/><polygon points="6 3 6 2 5 2 4 2 4 3 5 3 6 3"/><polygon points="7 4 7 3 6 3 6 4 6 5 6 6 6 7 7 7 7 6 7 5 7 4"/><polygon points="4 5 4 4 4 3 3 3 3 4 3 5 3 6 3 7 4 7 4 6 4 5"/><polygon points="4 7 4 8 5 8 6 8 6 7 5 7 4 7"/></g></svg>