<?xml version="1.0" encoding="UTF-8"?><svg xmlns="http://www.w3.org/2000/svg" viewBox="0 0 10 10"><g id="uuid-a47eaf8e-bec3-4b76-b5a8-3085c600ae14" shape-rendering="crispEdges"><polygon points="9 3 9 2 8.12 2 8 2 8 1 7 1 7 0 6 0 5 0 4 0 3 0 3 1 2 1 2 2 1.81 2 1 2 1 3 0 3 0 4 0 5 0 6 0 7 1 7 1 8 2 8 2 9 3 9 3 10 4 10 5 10 6 10 7 10 7 9 8 9 8 8 9 8 9 7 10 7 10 6 10 5 10 4 10 3 9 3" fill="#9059a0"/><polygon points="3 3 4 3 4 4 4 5 5 5 6 5 6 4 6 3 7 3 8 3 8 2 7 2 7 1 6 1 5 1 4 1 3 1 3 2 2 2 2 3 3 3"/><polygon points="7 7 8 7 8 6 9 6 9 5 9 4 9 3 8 3 8 4 8 5 7 5 6 5 6 6 6 7 5 7 4 7 4 6 4 5 3 5 2 5 2 4 2 3 1 3 1 4 1 5 1 6 2 6 2 7 3 7 3 8 3 9 4 9 5 9 6 9 7 9 7 8 7 7"/></g></svg>