<?xml version="1.0" encoding="UTF-8"?><svg xmlns="http://www.w3.org/2000/svg" viewBox="0 0 10 10"><g id="uuid-5ee4ccdd-d252-4be5-81e7-954246955fe3" shape-rendering="crispEdges"><path d="M9,3v-1h-1v-1h-1V0H3v1h-1v1h-1v1H0v4h1v1h1v1h1v1h4v-1h1v-1h1v-1h1V3h-1Z" fill="#d5ad5d"/><polygon points="7 5 7 4 6 4 6 3 6 2 6 1 5 1 5 2 5 3 4 3 4 4 3 4 2 4 1 4 1 5 2 5 3 5 3 6 4 6 4 7 4 8 4 9 5 9 5 8 5 7 6 7 6 6 7 6 8 6 9 6 9 5 8 5 7 5"/><rect x="3" y="2" width="1" height="1"/><rect x="7" y="3" width="1" height="1"/><rect x="2" y="6" width="1" height="1"/><rect x="6" y="7" width="1" height="1"/></g></svg>