<?xml version="1.0" encoding="UTF-8"?><svg xmlns="http://www.w3.org/2000/svg" viewBox="0 0 10 10"><g id="uuid-f65ffcf9-2b4d-4751-a345-4a12aab4dad7" shape-rendering="crispEdges"><polygon points="9 3 9 2 8 2 8 1 7 1 7 0 6 0 5 0 4 0 3 0 3 1 2 1 2 2 1 2 1 3 0 3 0 4 0 5 0 6 0 7 1 7 1 8 2 8 2 9 3 9 3 10 4 10 5 10 6 10 7 10 7 9 8 9 8 8 9 8 9 7 10 7 10 6 10 5 10 4 10 3 9 3" fill="#ff3730"/><rect x="3" y="1" width="1" height="1"/><polygon points="9 5 9 4 9 3 8 3 8 2 7 2 7 1 6 1 5 1 5 2 6 2 6 3 7 3 7 4 7 5 7 6 6 6 5 6 5 5 4 5 3 5 2 5 2 6 2 7 2 8 3 8 3 9 4 9 5 9 6 9 7 9 7 8 8 8 8 7 9 7 9 6 9 5"/></g></svg>