<?xml version="1.0" encoding="UTF-8"?><svg xmlns="http://www.w3.org/2000/svg" viewBox="0 0 10 10"><g id="uuid-a384f9c8-6f64-4527-907e-5788c37420d2" shape-rendering="crispEdges"><polygon points="9 3 9 2 8 2 8 1 7 1 7 0 6 0 5 0 4 0 3 0 3 1 2 1 2 2 1 2 1 3 0 3 0 4 0 5 0 6 0 7 1 7 1 8 2 8 2 9 3 9 3 10 4 10 5 10 6 10 7 10 7 9 8 9 8 8 9 8 9 7 10 7 10 6 10 5 10 4 10 3 9 3" fill="#00b74f"/><polygon points="6 8 6 7 6 6 6 5 6 4 7 4 7 5 8 5 9 5 9 4 9 3 8 3 8 2 7 2 7 1 6 1 5 1 4 1 3 1 3 2 2 2 2 3 1 3 1 4 1 5 2 5 3 5 3 4 4 4 4 5 5 5 5 6 5 7 4 7 4 8 3 8 3 9 4 9 5 9 6 9 7 9 7 8 6 8"/></g></svg>