<?xml version="1.0" encoding="UTF-8"?><svg xmlns="http://www.w3.org/2000/svg" viewBox="0 0 10 10"><g id="uuid-8d19b70f-6f44-426f-8cea-a8fe19514557" shape-rendering="crispEdges"><path d="M9,3v-1h-1v-1h-1V0H3v1h-1v1h-1v1H0v4h1v1h1v1h1v1h4v-1h1v-1h1v-1h1V3h-1Z" fill="#ccc2c0"/><polygon points="5 2 4 2 4 3 5 3 6 3 6 2 5 2"/><rect x="3" y="3" width="1" height="1"/><polygon points="7 4 7 3 6 3 6 4 6 5 7 5 7 4"/><polygon points="6 6 6 5 5 5 4 5 4 6 5 6 6 6"/><polygon points="6 7 5 7 4 7 4 6 3 6 3 7 3 8 4 8 5 8 6 8 7 8 7 7 6 7"/></g></svg>