<?xml version="1.0" encoding="UTF-8"?><svg xmlns="http://www.w3.org/2000/svg" viewBox="0 0 10 10"><g id="uuid-c0ef9861-2d4a-49bd-812f-bb558b6366e8" shape-rendering="crispEdges"><path d="M9,3v-1h-1v-1h-1V0H3v1h-1v1h-1v1H0v4h1v1h1v1h1v1h4v-1h1v-1h1v-1h1V3h-1Z" fill="#ccc2c0"/><polygon points="4 2 3 2 3 3 3 4 4 4 4 3 4 2"/><polygon points="7 3 7 2 6 2 6 3 6 4 7 4 7 3"/><polygon points="6 4 5 4 4 4 4 5 4 6 5 6 6 6 6 5 6 4"/><polygon points="3 7 3 8 4 8 4 7 4 6 3 6 3 7"/><polygon points="7 6 6 6 6 7 6 8 7 8 7 7 7 6"/></g></svg>