<?xml version="1.0" encoding="utf-8"?>
<svg width="135" height="135" viewBox="0 0 135 135" version="1.1" xmlns="http://www.w3.org/2000/svg" xml:space="preserve" style="fill-rule: evenodd; clip-rule: evenodd; stroke-linejoin: round; stroke-miterlimit: 2;" preserveAspectRatio="xMidYMid meet" zoomAndPan="magnify" contentScriptType="application/ecmascript" contentStyleType="text/css">
  <g transform="matrix(1,0,0,1,-745,-818) matrix(1,0,0,1,1177,-1730.64) matrix(0.874126,0,0,0.874126,-1525.78,2447.87)">
    <circle cx="1328.5" cy="192.5" r="71.5" style="fill: rgb(159, 207, 240);" />
    <clipPath id="_clip1">
      <circle cx="1328.5" cy="192.5" r="71.5" />
    </clipPath>
    <g clip-path="url(#_clip1)">
      <path d="M812.136 931.772C781.264 912.412 770.342 890.802 770 868c4.695 11.4 12.797 17.578 24 19 4.628 7.91 10.4 15.392 18.5 22l.19-.155c8-6.57 13.718-13.997 18.31-21.845 11.203-1.422 19.305-7.6 24-19-.343 22.89-11.35 44.58-42.5 64l-.364-.228zm.275-36.045c-3.803-11.545-9.908-22.463-18.41-32.727 7.03-4.506 13.204-11.156 18.5-20l.124.207c5.268 8.74 11.4 15.322 18.376 19.793-8.57 10.345-14.703 21.354-18.5 33l-.09-.273z" transform="matrix(1.144,0,0,1.144,399,-820.512)" />
    </g>
    <path d="M1328.5 115.28c-42.62 0-77.22 34.6-77.22 77.22 0 42.62 34.6 77.22 77.22 77.22 42.62 0 77.22-34.6 77.22-77.22 0-42.62-34.6-77.22-77.22-77.22zm0 5.72c39.46 0 71.5 32.038 71.5 71.5s-32.04 71.5-71.5 71.5-71.5-32.038-71.5-71.5 32.04-71.5 71.5-71.5z" />
  </g>
</svg>