<?xml version="1.0" encoding="utf-8"?>
<svg version="1.1" id="Layer_1" xmlns="http://www.w3.org/2000/svg" xmlns:xlink="http://www.w3.org/1999/xlink" x="0" y="0" width="325" height="350" viewBox="37 0 325 350" enable-background="new 37 0 325 350" xml:space="preserve" preserveAspectRatio="xMidYMid meet" zoomAndPan="magnify" contentScriptType="application/ecmascript" contentStyleType="text/css">
  <polygon points="63.763 254.903 63.763 97.405 200.162 18.653 336.561 97.405 336.561 254.903 200.162 333.652" />
  <linearGradient id="SVGID_1_" gradientUnits="userSpaceOnUse" x1="91.8887" y1="267.0059" x2="308.435" y2="85.3019" xlink:type="simple" xlink:show="other" xlink:actuate="onLoad">
    <stop offset="0" style="stop-color: rgb(141, 116, 47);" />
    <stop offset="0.0286" style="stop-color: rgb(146, 121, 52);" />
    <stop offset="0.1967" style="stop-color: rgb(170, 145, 75);" />
    <stop offset="0.3" style="stop-color: rgb(179, 154, 84);" />
    <stop offset="0.3145" style="stop-color: rgb(185, 160, 89);" />
    <stop offset="0.3681" style="stop-color: rgb(202, 176, 104);" />
    <stop offset="0.4268" style="stop-color: rgb(212, 186, 113);" />
    <stop offset="0.5" style="stop-color: rgb(215, 189, 116);" />
    <stop offset="0.5732" style="stop-color: rgb(212, 186, 113);" />
    <stop offset="0.6319" style="stop-color: rgb(202, 176, 104);" />
    <stop offset="0.6855" style="stop-color: rgb(185, 160, 89);" />
    <stop offset="0.7" style="stop-color: rgb(179, 154, 84);" />
    <stop offset="0.8033" style="stop-color: rgb(170, 145, 75);" />
    <stop offset="0.9714" style="stop-color: rgb(146, 121, 52);" />
    <stop offset="1" style="stop-color: rgb(141, 116, 47);" />
  </linearGradient>
  <polygon fill="url(#SVGID_1_)" points="200.162 32.631 75.869 104.394 75.869 247.914 200.162 319.675 324.455 247.914 324.455 104.394" />
  <path d="M180.81 114.424c-8.295-26.815 5.593-49.383 5.593-49.383s-1.543 14.466 8.68 27.778c10.224 13.312 33.76 32.215 46.877 46.106 13.118 13.89 21.412 26.62 21.412 26.62-.77-19.678-40.51-53.05-45.33-57.68-4.824-4.628-8.877-8.102-8.877-18.134 0-10.03 5.212-17.747 5.212-17.747-.194 3.667.383 15.047 9.45 27.01 9.067 11.96 40.897 40.314 51.12 50.347 10.225 10.033 12.088 28.102 12.088 31.444 0 3.344-.77 9.004-.77 9.004 13.117-.13 10.028 13.115 10.028 13.115 12.092-5.53 15.563-16.72 15.563-16.72 5.788 38.584-23.536 52.473-23.536 52.473 4.758-24.822-21.733-25.593-25.077-25.593-3.343 0-8.871.9-8.871.9 9.77-15.432-10.933-21.605-28.808-21.605-17.878 0-24.694 7.072-24.694 7.072 16.72-1.414 22.893 3.604 22.893 3.604s-7.718 6.17-7.718 14.273c0 11.962 14.276 8.746 14.276 8.746s-5.144 3.6-5.144 8.744c0 10.933 14.53 7.2 14.53 7.2-6.813 11.96 2.96 14.66 9.647 14.66 6.688 0 13.44-3.92 13.44-3.92-17.17 38.58-74.784 31.187-74.784 31.187 26.876-8.232 25.72-25.204 25.72-25.204-4.246 5.528-11.83 3.47-11.83 3.47s6.556-5.4 6.556-15.304c0-14.79-15.947-34.34-43.34-34.34-5.4 0-15.688 1.548-15.688 1.548 14.146-23.408 42.18-30.482 42.18-30.482-6.815-6.814-22.504-7.585-22.504-7.585 15.304-11.446 42.438-13.118 42.438-13.118C165.505 153.133 143 182.84 143 182.84c11.575-.385 18.262 3.472 18.262 3.472-28.293 6.56-45.655 27.267-45.655 27.267s3.86-20.71-5.015-30.48c-8.874-9.775-26.363-7.332-26.363-7.332 24.433-24.562 42.31-22.247 42.31-32.407 0-14.53-18.392-22.633-18.392-22.633 19.034-5.145 32.666 2.06 32.666 2.06-10.03-9.004-8.23-34.212-8.23-34.212 19.163 25.723 27.604 25.406 46.812 36.523 19.548 11.318 27.522 23.663 27.522 23.663-1.48-15.624-26.11-34.336-26.11-34.336zm67.387 68.29c5.018 4.113 13.245 2.312 13.245 2.312-2.312-12.858-14.917-22.89-19.16-25.72-4.242-2.828-6.688-1.93-6.688-1.93-3.858 9.26 7.59 21.223 12.603 25.337z" />
</svg>