<?xml version="1.0" encoding="utf-8"?>
<svg version="1.1" id="Layer_1" xmlns="http://www.w3.org/2000/svg" x="0" y="0" width="325" height="350" viewBox="37 0 325 350" enable-background="new 37 0 325 350" xml:space="preserve" preserveAspectRatio="xMidYMid meet" zoomAndPan="magnify" contentScriptType="application/ecmascript" contentStyleType="text/css">
  <polygon points="63.694 253.903 63.694 96.404 200.094 17.653 336.492 96.404 336.492 253.903 200.094 332.652" />
  <polygon fill="#FFFFFF" points="200.094 31.631 75.8 103.394 75.8 246.914 200.094 318.674 324.387 246.914 324.387 103.394" />
  <path d="M180.74 113.424c-8.295-26.815 5.595-49.383 5.595-49.383s-1.544 14.466 8.68 27.778 33.76 32.215 46.877 46.106c13.118 13.89 21.412 26.62 21.412 26.62-.77-19.678-40.51-53.05-45.333-57.68-4.82-4.628-8.872-8.102-8.872-18.134 0-10.03 5.208-17.748 5.208-17.748-.19 3.667.386 15.047 9.453 27.01 9.066 11.96 40.897 40.314 51.12 50.347 10.224 10.03 12.087 28.1 12.087 31.443 0 3.344-.77 9.004-.77 9.004 13.117-.13 10.03 13.115 10.03 13.115 12.09-5.53 15.562-16.72 15.562-16.72 5.787 38.584-23.536 52.473-23.536 52.473 4.757-24.82-21.734-25.593-25.078-25.593-3.343 0-8.875.9-8.875.9 9.774-15.433-10.928-21.605-28.805-21.605-17.878 0-24.692 7.07-24.692 7.07 16.717-1.413 22.893 3.605 22.893 3.605s-7.718 6.172-7.718 14.274c0 11.962 14.276 8.746 14.276 8.746s-5.145 3.6-5.145 8.743c0 10.934 14.53 7.203 14.53 7.203-6.816 11.96 2.958 14.658 9.647 14.658 6.687 0 13.44-3.92 13.44-3.92-17.172 38.58-74.786 31.188-74.786 31.188 26.877-8.233 25.72-25.205 25.72-25.205-4.243 5.526-11.83 3.47-11.83 3.47s6.56-5.4 6.56-15.305c0-14.79-15.95-34.34-43.34-34.34-5.403 0-15.69 1.548-15.69 1.548 14.146-23.408 42.183-30.482 42.183-30.482-6.816-6.812-22.506-7.583-22.506-7.583 15.304-11.447 42.438-13.118 42.438-13.118-46.04-9.776-68.545 19.93-68.545 19.93 11.574-.385 18.262 3.472 18.262 3.472-28.293 6.56-45.654 27.267-45.654 27.267s3.857-20.71-5.016-30.48c-8.874-9.775-26.363-7.332-26.363-7.332 24.434-24.562 42.31-22.247 42.31-32.407 0-14.53-18.39-22.634-18.39-22.634 19.032-5.145 32.665 2.06 32.665 2.06-10.03-9.003-8.23-34.21-8.23-34.21 19.16 25.722 27.604 25.405 46.81 36.522 19.55 11.318 27.522 23.663 27.522 23.663-1.476-15.624-26.106-34.336-26.106-34.336zm67.39 68.29c5.017 4.113 13.245 2.312 13.245 2.312-2.314-12.857-14.918-22.89-19.16-25.72-4.245-2.828-6.69-1.93-6.69-1.93-3.857 9.26 7.59 21.223 12.605 25.337z" />
</svg>