<?xml version="1.0" encoding="utf-8"?>
<svg version="1.1" id="Layer_1" xmlns="http://www.w3.org/2000/svg" x="0" y="0" width="325" height="350" viewBox="37 0 325 350" enable-background="new 37 0 325 350" xml:space="preserve" preserveAspectRatio="xMidYMid meet" zoomAndPan="magnify" contentScriptType="application/ecmascript" contentStyleType="text/css">
  <polygon fill="#808080" points="63.694 254.903 63.694 97.405 200.094 18.653 336.492 97.405 336.492 254.903 200.094 333.652" />
  <polygon points="200.094 32.631 75.8 104.394 75.8 247.914 200.094 319.675 324.387 247.914 324.387 104.394" />
  <path fill="#808080" d="M180.74 114.424c-8.295-26.815 5.595-49.383 5.595-49.383s-1.544 14.466 8.68 27.778c10.223 13.312 33.76 32.215 46.876 46.106 13.12 13.89 21.413 26.62 21.413 26.62-.77-19.678-40.51-53.05-45.333-57.68-4.82-4.628-8.873-8.102-8.873-18.134 0-10.03 5.21-17.747 5.21-17.747-.192 3.667.384 15.047 9.45 27.01 9.07 11.96 40.898 40.314 51.123 50.347 10.224 10.033 12.087 28.102 12.087 31.444 0 3.344-.77 9.004-.77 9.004 13.117-.13 10.03 13.115 10.03 13.115 12.09-5.53 15.562-16.72 15.562-16.72 5.787 38.584-23.536 52.473-23.536 52.473 4.757-24.822-21.734-25.593-25.077-25.593-3.344 0-8.876.9-8.876.9 9.775-15.432-10.928-21.605-28.805-21.605-17.878 0-24.692 7.072-24.692 7.072 16.717-1.414 22.893 3.604 22.893 3.604s-7.718 6.17-7.718 14.273c0 11.962 14.276 8.746 14.276 8.746s-5.145 3.6-5.145 8.744c0 10.933 14.53 7.2 14.53 7.2-6.816 11.96 2.958 14.66 9.647 14.66 6.687 0 13.44-3.92 13.44-3.92-17.172 38.58-74.786 31.187-74.786 31.187 26.877-8.232 25.72-25.204 25.72-25.204-4.243 5.528-11.83 3.47-11.83 3.47s6.56-5.4 6.56-15.304c0-14.79-15.948-34.34-43.34-34.34-5.403 0-15.69 1.548-15.69 1.548 14.146-23.408 42.183-30.482 42.183-30.482-6.816-6.814-22.506-7.585-22.506-7.585 15.304-11.446 42.438-13.118 42.438-13.118-46.04-9.776-68.545 19.93-68.545 19.93 11.574-.385 18.262 3.472 18.262 3.472-28.294 6.56-45.655 27.267-45.655 27.267s3.857-20.71-5.016-30.48c-8.873-9.775-26.362-7.332-26.362-7.332 24.435-24.562 42.31-22.247 42.31-32.407 0-14.53-18.39-22.633-18.39-22.633 19.033-5.145 32.667 2.06 32.667 2.06-10.03-9.004-8.232-34.212-8.232-34.212 19.163 25.723 27.606 25.406 46.812 36.523 19.548 11.318 27.52 23.663 27.52 23.663-1.474-15.624-26.104-34.336-26.104-34.336zm67.39 68.29c5.017 4.113 13.245 2.312 13.245 2.312-2.315-12.858-14.917-22.89-19.16-25.72-4.245-2.828-6.688-1.93-6.688-1.93-3.86 9.26 7.587 21.223 12.602 25.337z" />
</svg>