<?xml version="1.0" encoding="utf-8"?>
<svg xmlns="http://www.w3.org/2000/svg" version="1.1" id="Layer_1" x="0" y="0" width="648.9" height="634.622">
  <linearGradient id="SVGID_1_" gradientUnits="userSpaceOnUse" x1="461.917" y1="187.2422" x2="188.2522" y2="460.907">
    <stop offset="0.2" style="stop-color: rgb(191, 51, 28);" />
    <stop offset="0.5" style="stop-color: rgb(246, 151, 29);" />
    <stop offset="0.8" style="stop-color: rgb(191, 51, 28);" />
  </linearGradient>
  <polygon fill="#FFFFFF" points="326.95 595.604 74.95 347.604 324.22 49.544 579.95 344.604" id="polygon9" />
  <path d="M323.74.454c.82-1.27 1.76.47 2.36 1.02 98.34 117.64 196.76 235.21 295.13 352.83 9.19 11.1 18.59 22.02 27.67 33.21-55.71 55.8-111.98 111.04-167.58 166.95 2.65 20.62 8.52 41.24 20.06 58.73 5.49 8.4 12.71 15.55 20.91 21.3-106.78.25-213.56.04-320.33.11-22.03-.08-44.07.149-66.1-.11 14.32-9.181 24.22-23.82 30.71-39.28 3.86-9.21 6.62-18.87 8.58-28.65.21-1.82 1.18-4.18-.63-5.51-25.72-25.29-51.14-50.87-76.76-76.26-32.63-32.39-65.26-64.77-97.76-97.28 104.12-124.79 208.54-249.33 312.77-374.03 3.69-4.32 7.21-8.78 10.97-13.03zm.48 49.09c-18.94 23.14-38.35 45.91-57.46 68.91-63.31 75.68-126.64 151.35-189.93 227.04-1.1.86-.94 2.24.21 2.99 27.9 27.77 55.88 55.47 83.8 83.23 6.18 5.84 11.78 12.33 18.33 17.75.2-53.8-.08-107.61.14-161.41 11.68-9.09 24.94-15.88 38.6-21.47 1.52-7.13 2.88-14.41 5.99-21.09 8.55-19.9 26.37-34.39 45.8-43.07 4.51-1.91 9.03-4 13.91-4.8 5.96 16.72 7.78 34.54 10.15 52.028 23.6-1.85 47.3-1.61 70.92-.12 2.44-17.48 4.06-35.39 10.29-52.02 16.4 4.54 31.7 13.3 43.87 25.2 11.85 11.6 19.42 27.29 21.39 43.74 13.75 5.91 27.59 12.32 39.08 22.08-.09 50.46-.06 100.92-.01 151.38 2.53-1.75 4.6-4.04 6.76-6.2 28.73-28.64 57.62-57.11 86.31-85.78 1.27-.92-.19-2.18-.74-3-71.55-85.45-143.02-170.97-214.55-256.43-11-12.958-21.6-26.248-32.86-38.958zm-30.46 250.1c-.05 40.21.19 80.42.52 120.63.87 20.77 4.09 41.44 9.17 61.6 5.5 21.12 13.41 41.88 25.67 60.05 5.84-7.97 10.25-16.908 14.27-25.92 10.88-25.148 16.67-52.238 19.59-79.398 1.972-16.94 1.25-34 1.432-51 .11-28.62.1-57.23.25-85.84-23.192-5.512-47.683-5.292-70.902-.122z" />
</svg>