<?xml version="1.0" encoding="UTF-8"?>
<svg xmlns="http://www.w3.org/2000/svg" width="354.91" height="485" viewBox="0 0 354.91 485" xml:space="preserve">
  <path fill="gray" d="M187.22 57.1c43.3 0 59.06-49.354 59.06-49.354l118.39 93.204s-7.54 178.81-7.77 185.49c-.56 15.72-7.1 30.47-11.28 40.73-15.11 36.95-72.24 116.75-148.23 165.58h-20.34C101.06 443.92 43.93 364.12 28.83 327.17c-4.196-10.27-10.737-25.01-11.287-40.73-.237-6.68-7.777-185.49-7.777-185.49L128.15 7.746S143.91 57.1 187.22 57.1" transform="translate(-9.766 -7.746)"></path>
  <path d="M181.83 477.16C94.472 417.93 43.613 330.57 40.62 313.22c-1.994-11.56-1.2-21.74 2.396-30.52 8.374 26.32 24.728 56.25 49.063 89.75 26.04 34.73 51.89 59.11 77.54 73.14h35.2c25.64-14.03 51.5-38.41 77.54-73.14 24.33-33.5 40.69-63.43 49.06-89.75 3.58 8.78 4.39 18.95 2.39 30.52-2.99 17.35-53.85 104.71-141.21 163.94zm5.39-397.905-14.96 44.285-52.66 31.11-46.67-11.97 32.31 37.11v62.22l-32.31 37.11 47.27-12.58 51.46 31.71 15.56 49.07 15.56-49.07 51.46-31.71 47.27 12.58-32.32-37.1v-62.23l32.32-37.1-46.68 11.96-52.65-31.11zM26.258 127.73c37.517 50.94 39.847 96.61 6.99 136.99l-1.008 1.22zm321.912 0-5.98 138.21-1.01-1.22c-32.85-40.38-30.52-86.05 6.99-136.99M174.05 431.09C117.41 392 76.918 337.15 52.588 266.54c31.596-43.83 24.09-96.66-22.512-158.48l-1.425-1.87 93.95-74.203c13.42 27.65 34.67 41.215 63.73 40.704l.89-.01.89.01c29.06.512 50.3-13.053 63.73-40.703l93.95 74.203-1.42 1.87c-46.61 61.82-54.11 114.65-22.52 158.48-24.34 70.61-64.82 125.46-121.47 164.55z" transform="translate(-9.766 -7.746)"></path>
  <path fill="#fff" d="m187.22 135.5 63.42 38.3v73.6l-63.42 38.89-63.43-38.89v-73.6z" transform="translate(-9.766 -7.746)"></path>
</svg>
