<?xml version="1.0" encoding="utf-8"?>
<svg version="1.1" id="Layer_1" x="0" y="0" width="150" height="137.231" viewBox="0 0 150 137.231" enable-background="new 0 0 155 145" xml:space="preserve" xmlns="http://www.w3.org/2000/svg">
  <g id="g3" transform="translate(-2.126,-4.135)">
    <path fill="#5e5f62" d="M129.648 25.904V14.536l-28.138-10.4S96.54 22.51 77.126 22.51c-19.415 0-24.384-18.375-24.384-18.375l-28.14 10.4v11.37L2.127 34.18s7.46 13.85 9.707 22.65C14.607 67.694 15.416 81.1 15.416 81.1l18.028 6.55v9.86l43.683 43.856L120.81 97.51v-9.86l18.027-6.55s.81-13.405 3.582-24.268c2.247-8.8 9.706-22.65 9.706-22.65z" id="path1" />
    <path fill="#000000" d="M33.443 54.376v27.002L20.99 76.854c-.454-4.942-1.47-13.74-3.446-21.48-1.435-5.62-4.7-12.892-7.162-17.952l14.22-5.237v16.27zm96.205-22.19v16.268l-8.84 5.923V81.38l12.453-4.524c.456-4.942 1.472-13.74 3.448-21.48 1.434-5.62 4.7-12.892 7.16-17.952z" id="path2" />
    <polygon fill="#000000" points="55.631 69.241 39.337 58.324 39.337 95.075 77.126 133.015 114.916 95.075 114.916 58.324 98.621 69.241 98.621 97.679 77.126 119.412 55.631 97.679" id="polygon2" />
    <path fill="#000000" d="M77.126 33.14 98.62 54.87v7.275l25.136-16.84V18.642l-18.98-7.015c-4.135 7.716-12.873 16.778-27.65 16.778-14.775 0-23.514-9.063-27.647-16.778L30.497 18.64v26.67l25.135 16.838v-7.275z" id="path3" />
    <polygon fill="#ffffff" points="92.727 57.294 77.126 41.52 61.525 57.294 61.525 95.257 77.126 111.03 92.727 95.257" id="polygon3" />
  </g>
</svg>