<?xml version="1.0" encoding="utf-8"?>
<svg version="1.1" id="Layer_1" x="0" y="0" width="150" height="137.231" viewBox="0 0 150 137.231" enable-background="new 0 0 155 145" xml:space="preserve" xmlns="http://www.w3.org/2000/svg">
  <g id="g41" transform="translate(-2.453,-3.676)">
    <path fill="#000000" d="M129.976 25.445V14.077l-28.14-10.4S96.866 22.05 77.453 22.05C58.04 22.05 53.07 3.677 53.07 3.677l-28.14 10.4v11.37L2.453 33.722s7.46 13.85 9.707 22.65c2.774 10.862 3.583 24.268 3.583 24.268l18.028 6.55v9.86l43.684 43.857 43.683-43.856v-9.86l18.027-6.55s.81-13.404 3.582-24.267c2.247-8.8 9.707-22.65 9.707-22.65z" id="path1" />
    <linearGradient id="SVGID_1_" gradientUnits="userSpaceOnUse" x1="10.709" y1="56.3223" x2="144.1963" y2="56.3223">
      <stop offset="0" style="stop-color: rgb(98, 111, 120);" id="stop1" />
      <stop offset="0.0035" style="stop-color: rgb(100, 113, 122);" id="stop2" />
      <stop offset="0.0676" style="stop-color: rgb(132, 150, 161);" id="stop3" />
      <stop offset="0.1187" style="stop-color: rgb(153, 173, 185);" id="stop4" />
      <stop offset="0.15" style="stop-color: rgb(160, 183, 194);" id="stop5" />
      <stop offset="0.1547" style="stop-color: rgb(162, 184, 195);" id="stop6" />
      <stop offset="0.2545" style="stop-color: rgb(174, 199, 212);" id="stop7" />
      <stop offset="0.3638" style="stop-color: rgb(181, 205, 221);" id="stop8" />
      <stop offset="0.5" style="stop-color: rgb(183, 209, 225);" id="stop9" />
      <stop offset="0.6362" style="stop-color: rgb(181, 205, 221);" id="stop10" />
      <stop offset="0.7455" style="stop-color: rgb(174, 199, 212);" id="stop11" />
      <stop offset="0.8453" style="stop-color: rgb(162, 184, 195);" id="stop12" />
      <stop offset="0.85" style="stop-color: rgb(160, 183, 194);" id="stop13" />
      <stop offset="0.8813" style="stop-color: rgb(153, 173, 185);" id="stop14" />
      <stop offset="0.9324" style="stop-color: rgb(132, 150, 161);" id="stop15" />
      <stop offset="0.9965" style="stop-color: rgb(100, 113, 122);" id="stop16" />
      <stop offset="1" style="stop-color: rgb(98, 111, 120);" id="stop17" />
    </linearGradient>
    <path fill="url(#SVGID_1_)" d="M33.77 53.917V80.92l-12.454-4.524c-.454-4.942-1.47-13.74-3.446-21.48-1.435-5.62-4.7-12.892-7.162-17.952l14.22-5.237v16.27zm96.206-22.19v16.268l-8.84 5.923V80.92l12.453-4.523c.453-4.942 1.47-13.74 3.445-21.48 1.435-5.62 4.7-12.892 7.16-17.952z" id="path17" style="fill: url(&quot;#SVGID_1_&quot;);" />
    <linearGradient id="SVGID_2_" gradientUnits="userSpaceOnUse" x1="77.453102" y1="132.55569" x2="77.453102" y2="57.8657">
      <stop offset="0" style="stop-color: rgb(183, 209, 225);" id="stop18" />
      <stop offset="0.1354" style="stop-color: rgb(168, 192, 205);" id="stop19" />
      <stop offset="0.2" style="stop-color: rgb(160, 183, 194);" id="stop20" />
      <stop offset="0.45" style="stop-color: rgb(160, 183, 194);" id="stop21" />
      <stop offset="0.5128" style="stop-color: rgb(151, 171, 183);" id="stop22" />
      <stop offset="0.6152" style="stop-color: rgb(130, 146, 157);" id="stop23" />
      <stop offset="0.7439" style="stop-color: rgb(100, 112, 121);" id="stop24" />
      <stop offset="0.75" style="stop-color: rgb(98, 111, 120);" id="stop25" />
      <stop offset="1" style="stop-color: rgb(98, 111, 120);" id="stop26" />
    </linearGradient>
    <polygon fill="url(#SVGID_2_)" points="55.958 68.782 39.664 57.865 39.664 94.616 77.453 132.556 115.242 94.616 115.242 57.865 98.947 68.782 98.947 97.22 77.453 118.953 55.958 97.22" id="polygon26" style="fill: url(&quot;#SVGID_2_&quot;);" />
    <linearGradient id="SVGID_3_" gradientUnits="userSpaceOnUse" x1="30.8232" y1="36.4272" x2="124.082" y2="36.4272">
      <stop offset="0" style="stop-color: rgb(98, 111, 120);" id="stop27" />
      <stop offset="0.0061" style="stop-color: rgb(100, 112, 121);" id="stop28" />
      <stop offset="0.1348" style="stop-color: rgb(130, 146, 157);" id="stop29" />
      <stop offset="0.2372" style="stop-color: rgb(151, 171, 183);" id="stop30" />
      <stop offset="0.3" style="stop-color: rgb(160, 183, 194);" id="stop31" />
      <stop offset="0.3556" style="stop-color: rgb(172, 197, 210);" id="stop32" />
      <stop offset="0.4198" style="stop-color: rgb(181, 206, 221);" id="stop33" />
      <stop offset="0.5" style="stop-color: rgb(183, 209, 225);" id="stop34" />
      <stop offset="0.5802" style="stop-color: rgb(181, 206, 221);" id="stop35" />
      <stop offset="0.6444" style="stop-color: rgb(172, 197, 210);" id="stop36" />
      <stop offset="0.7" style="stop-color: rgb(160, 183, 194);" id="stop37" />
      <stop offset="0.7628" style="stop-color: rgb(151, 171, 183);" id="stop38" />
      <stop offset="0.8652" style="stop-color: rgb(130, 146, 157);" id="stop39" />
      <stop offset="0.9939" style="stop-color: rgb(100, 112, 121);" id="stop40" />
      <stop offset="1" style="stop-color: rgb(98, 111, 120);" id="stop41" />
    </linearGradient>
    <path fill="url(#SVGID_3_)" d="m77.453 32.68 21.495 21.733v7.275l25.135-16.84V18.183l-18.98-7.016c-4.135 7.716-12.873 16.778-27.65 16.778-14.775 0-23.514-9.063-27.647-16.778l-18.98 7.016V44.85L55.96 61.69v-7.276z" id="path41" style="fill: url(&quot;#SVGID_3_&quot;);" />
    <polygon fill="#ffffff" points="93.054 56.835 77.453 41.061 61.852 56.835 61.852 94.798 77.453 110.571 93.054 94.798" id="polygon41" />
  </g>
</svg>