<?xml version="1.0" encoding="utf-8"?>
<svg xmlns="http://www.w3.org/2000/svg" version="1.1" baseProfile="basic" id="Layer_1" x="0" y="0" width="181" height="300">
  <polygon points="10.52 170.741 90.724 10.438 174.02 170.072 89.474 217.973" />
  <path fill="#ffffff" d="M90.813 20.876 167.686 168.2 89.54 212.477l-72.8-43.55 74.073-148.05M90.635 0 4.3 172.556l85.11 50.913 90.943-51.527L90.635 0z" />
  <polygon points="40.81 295.25 8.892 203.718 89.635 250.653 171.598 203.01 136.421 295.25" />
  <path fill="#ffffff" d="M162.374 213.866 133.148 290.5H44.184l-26.58-76.223 67.257 39.096 4.775 2.775 4.774-2.775 67.964-39.507m18.447-21.712L89.635 245.16l-89.456-52L37.436 300h102.258l41.127-107.846z" />
</svg>