<?xml version="1.0" encoding="utf-8"?>
<svg xmlns="http://www.w3.org/2000/svg" version="1.1" id="Layer_1" x="0" y="0" width="328" height="300">
  <path fill="#FFFFFF" d="m182.537 299.98 145.287-5.872-57.67-75.1-87.617 80.97zM.177 294.106 145.53 300 57.9 219.05.175 294.106zm172.477-1.205 118.19-111.76-55.91-37.66L184.545.003l-11.89.014-.002 292.886zM93.1 143.482 37.24 181.18l118.187 111.708V0l-11.944.02L93.1 143.483z" />
  <polygon points="214.649 286.658 304.193 283.047 268.634 236.744" />
  <polygon points="23.829 283.02 113.423 286.66 59.385 236.765" />
  <polygon points="184.667 265.032 184.667 265.032 271.69 182.753 224.971 151.225 184.641 36.435" />
  <polygon points="103.092 151.221 56.378 182.738 143.391 265.072 143.4 36.417" />
</svg>