<?xml version="1.0" encoding="utf-8"?>
<svg version="1.1" id="Layer_1" x="0" y="0" width="138.807" height="150" viewBox="0 0 138.807 150" enable-background="new 0 0 150 156" xml:space="preserve" xmlns="http://www.w3.org/2000/svg">
  <g id="g7" transform="translate(-5.338,-2.643)">
    <polygon fill="#ffffff" points="5.338 38.309 38.454 22.451 50.338 2.643 99.143 2.643 111.025 22.451 144.145 38.309 139.417 69.258 139.417 95.229 74.74 152.643 10.064 95.229 10.064 69.258" id="polygon1" />
    <polygon points="12.152 41.911 42.805 27.232 53.844 8.836 95.637 8.836 106.676 27.232 137.328 41.911 133.223 68.788 133.223 92.445 74.74 144.363 16.257 92.445 16.257 68.788" id="polygon2" />
    <path fill="#ffffff" d="m101.837 32.545-10.1-16.83H57.742l-10.097 16.83-27.92 13.37 3.414 22.35v21.09l51.604 45.81 51.604-45.81v-21.09l3.414-22.35zm-42.15-13.39h30.105l8.68 14.466-23.728 31.97-23.72-31.988zm16.775 51.866 45.003 18.064-45.005 39.953zm-3.44 58.017L28.015 89.084 73.022 71.02zM48.485 35.955 72.03 67.712 26.577 85.955v-17.95l-3.068-20.09zm74.416 32.05v17.948l-45.45-18.24 23.563-31.747 24.957 11.95z" id="path2" />
    <path fill="#ffffff" d="M74.74 46.92c-5.21 0-9.446-4.236-9.446-9.445 0-5.207 4.237-9.444 9.446-9.444 5.21 0 9.445 4.238 9.445 9.445.003 5.21-4.236 9.446-9.445 9.446z" id="path3" />
    <path fill="#ffffff" d="M42.918 69.97c-5.208 0-9.445-4.235-9.445-9.444 0-5.21 4.237-9.445 9.445-9.445 5.21 0 9.445 4.237 9.445 9.446 0 5.206-4.236 9.445-9.445 9.445z" id="path4" />
    <path fill="#ffffff" d="M57.023 104.545c-5.21 0-9.447-4.236-9.447-9.445 0-5.21 4.238-9.447 9.447-9.447 5.207 0 9.444 4.238 9.444 9.447.002 5.21-4.235 9.445-9.444 9.445z" id="path5" />
    <path fill="#ffffff" d="M106.563 69.97c-5.21 0-9.444-4.235-9.444-9.444 0-5.21 4.234-9.445 9.443-9.445 5.21 0 9.446 4.237 9.446 9.446 0 5.206-4.24 9.445-9.447 9.445z" id="path6" />
    <path fill="#ffffff" d="M92.457 104.545c-5.21 0-9.445-4.236-9.445-9.445 0-5.21 4.236-9.447 9.445-9.447 5.21 0 9.447 4.238 9.447 9.447 0 5.21-4.238 9.445-9.447 9.445z" id="path7" />
  </g>
</svg>