<?xml version="1.0" encoding="utf-8"?>
<svg version="1.1" id="Layer_1" x="0" y="0" width="138.804" height="150" viewBox="0 0 138.804 150" enable-background="new 0 0 150 156" xml:space="preserve" xmlns="http://www.w3.org/2000/svg">
  <g id="g27" transform="translate(-5.513,-2.643)">
    <polygon points="5.513 38.309 38.629 22.451 50.513 2.643 99.317 2.643 111.201 22.451 144.317 38.309 139.592 69.258 139.592 95.229 74.915 152.643 10.238 95.229 10.238 69.258" id="polygon1" />
    <linearGradient id="SVGID_1_" gradientUnits="userSpaceOnUse" x1="12.3271" y1="76.599602" x2="137.5029" y2="76.599602">
      <stop offset="0" style="stop-color: rgb(187, 44, 38);" id="stop1" />
      <stop offset="0.0414" style="stop-color: rgb(191, 53, 38);" id="stop2" />
      <stop offset="0.1088" style="stop-color: rgb(203, 77, 37);" id="stop3" />
      <stop offset="0.1935" style="stop-color: rgb(222, 117, 35);" id="stop4" />
      <stop offset="0.2" style="stop-color: rgb(224, 120, 35);" id="stop5" />
      <stop offset="0.208" style="stop-color: rgb(225, 122, 35);" id="stop6" />
      <stop offset="0.2924" style="stop-color: rgb(238, 139, 31);" id="stop7" />
      <stop offset="0.3848" style="stop-color: rgb(245, 149, 30);" id="stop8" />
      <stop offset="0.5" style="stop-color: rgb(247, 152, 29);" id="stop9" />
      <stop offset="0.6152" style="stop-color: rgb(245, 149, 30);" id="stop10" />
      <stop offset="0.7076" style="stop-color: rgb(238, 139, 31);" id="stop11" />
      <stop offset="0.792" style="stop-color: rgb(225, 122, 35);" id="stop12" />
      <stop offset="0.8" style="stop-color: rgb(224, 120, 35);" id="stop13" />
      <stop offset="0.8476" style="stop-color: rgb(211, 93, 36);" id="stop14" />
      <stop offset="0.9069" style="stop-color: rgb(198, 66, 37);" id="stop15" />
      <stop offset="0.9597" style="stop-color: rgb(190, 50, 38);" id="stop16" />
      <stop offset="1" style="stop-color: rgb(187, 44, 38);" id="stop17" />
    </linearGradient>
    <polygon fill="url(#SVGID_1_)" points="12.327 41.911 42.979 27.232 54.02 8.836 95.811 8.836 106.851 27.232 137.503 41.911 133.398 68.788 133.398 92.446 74.915 144.363 16.432 92.446 16.432 68.788" id="polygon17" style="fill: url(&quot;#SVGID_1_&quot;);" />
    <path d="m102.012 32.545-10.098-16.83H57.916l-10.098 16.83-27.92 13.37 3.414 22.35v21.09l51.603 45.81 51.603-45.81v-21.09l3.414-22.35zm-42.15-13.39h30.104l8.68 14.466-23.73 31.97-23.72-31.99zm16.775 51.866 45.003 18.064-45.005 39.953zm-3.442 58.017L28.19 89.084 73.195 71.02zM48.66 35.955l23.546 31.757-45.454 18.243v-17.95l-3.068-20.09zm74.418 32.05v17.948l-45.45-18.24 23.563-31.747 24.956 11.95z" id="path17" />
    <path d="M74.915 48.742c-6.213 0-11.267-5.055-11.267-11.268 0-6.212 5.054-11.266 11.267-11.266 6.213 0 11.267 5.054 11.267 11.266 0 6.214-5.054 11.268-11.267 11.268z" id="path18" />
    <path fill="#ffffff" d="M74.915 45.302c-4.315 0-7.827-3.512-7.827-7.827 0-4.314 3.512-7.825 7.827-7.825s7.827 3.51 7.827 7.825c0 4.315-3.512 7.827-7.827 7.827z" id="path19" />
    <path d="M43.093 71.79c-6.213 0-11.266-5.053-11.266-11.265 0-6.213 5.053-11.268 11.266-11.268S54.36 54.312 54.36 60.525c0 6.212-5.054 11.266-11.267 11.266z" id="path20" />
    <path fill="#ffffff" d="M43.093 68.35c-4.315 0-7.827-3.51-7.827-7.824 0-4.315 3.512-7.827 7.827-7.827s7.827 3.51 7.827 7.826c0 4.314-3.512 7.825-7.827 7.825z" id="path21" />
    <path d="M57.198 106.366c-6.214 0-11.267-5.055-11.267-11.268S50.985 83.83 57.2 83.83c6.212 0 11.267 5.055 11.267 11.268s-5.055 11.268-11.267 11.268z" id="path22" />
    <path fill="#ffffff" d="M57.198 102.926c-4.315 0-7.827-3.512-7.827-7.827s3.513-7.827 7.828-7.827c4.314 0 7.826 3.512 7.826 7.826s-3.51 7.826-7.826 7.826z" id="path23" />
    <path d="M106.737 71.79c6.213 0 11.267-5.053 11.267-11.265 0-6.213-5.054-11.268-11.267-11.268-6.213 0-11.267 5.055-11.267 11.268 0 6.212 5.054 11.266 11.267 11.266z" id="path24" />
    <path fill="#ffffff" d="M106.737 68.35c4.315 0 7.827-3.51 7.827-7.824 0-4.315-3.512-7.827-7.827-7.827s-7.827 3.51-7.827 7.826c0 4.314 3.512 7.825 7.827 7.825z" id="path25" />
    <path d="M92.632 106.366c6.214 0 11.267-5.055 11.267-11.268S98.845 83.83 92.63 83.83c-6.212 0-11.267 5.055-11.267 11.268s5.055 11.268 11.267 11.268z" id="path26" />
    <path fill="#ffffff" d="M92.632 102.926c4.315 0 7.827-3.512 7.827-7.827s-3.513-7.827-7.828-7.827c-4.314 0-7.826 3.512-7.826 7.826s3.51 7.826 7.826 7.826z" id="path27" />
  </g>
</svg>