<?xml version="1.0" encoding="utf-8"?>
<svg version="1.1" id="Layer_1" x="0" y="0" width="138.805" height="150" viewBox="0 0 138.805 150" enable-background="new 0 0 150 156" xml:space="preserve" xmlns="http://www.w3.org/2000/svg">
  <g id="g25" transform="translate(-5.486,-2.643)">
    <polygon points="5.486 38.309 38.603 22.451 50.486 2.643 99.291 2.643 111.175 22.451 144.291 38.309 139.565 69.258 139.565 95.229 74.889 152.643 10.212 95.229 10.212 69.258" id="polygon1" />
    <linearGradient id="SVGID_1_" gradientUnits="userSpaceOnUse" x1="12.3008" y1="76.599602" x2="137.47659" y2="76.599602">
      <stop offset="0" style="stop-color: rgb(141, 116, 47);" id="stop1" />
      <stop offset="0.0689" style="stop-color: rgb(150, 125, 56);" id="stop2" />
      <stop offset="0.1809" style="stop-color: rgb(174, 149, 79);" id="stop3" />
      <stop offset="0.2" style="stop-color: rgb(179, 154, 84);" id="stop4" />
      <stop offset="0.2218" style="stop-color: rgb(185, 160, 89);" id="stop5" />
      <stop offset="0.3022" style="stop-color: rgb(202, 176, 104);" id="stop6" />
      <stop offset="0.3903" style="stop-color: rgb(212, 186, 113);" id="stop7" />
      <stop offset="0.5" style="stop-color: rgb(215, 189, 116);" id="stop8" />
      <stop offset="0.6097" style="stop-color: rgb(212, 186, 113);" id="stop9" />
      <stop offset="0.6978" style="stop-color: rgb(202, 176, 104);" id="stop10" />
      <stop offset="0.7782" style="stop-color: rgb(185, 160, 89);" id="stop11" />
      <stop offset="0.8" style="stop-color: rgb(179, 154, 84);" id="stop12" />
      <stop offset="0.8571" style="stop-color: rgb(163, 138, 69);" id="stop13" />
      <stop offset="0.938" style="stop-color: rgb(147, 122, 53);" id="stop14" />
      <stop offset="1" style="stop-color: rgb(141, 116, 47);" id="stop15" />
    </linearGradient>
    <polygon fill="url(#SVGID_1_)" points="12.301 41.911 42.953 27.232 53.993 8.836 95.784 8.836 106.824 27.232 137.477 41.911 133.372 68.788 133.372 92.446 74.889 144.363 16.405 92.446 16.405 68.788" id="polygon15" style="fill: url(&quot;#SVGID_1_&quot;);" />
    <path d="m101.985 32.545-10.097-16.83H57.89l-10.098 16.83-27.92 13.37 3.414 22.35v21.09l51.603 45.81 51.602-45.81v-21.09l3.414-22.35zm-42.15-13.39H89.94l8.68 14.466-23.73 31.97L51.17 33.6zM76.61 71.022l45.003 18.064-45.005 39.953zm-3.44 58.017L28.163 89.084 73.17 71.02zM48.633 35.955 72.18 67.712 26.726 85.955v-17.95l-3.068-20.09zm74.418 32.05v17.948l-45.45-18.24 23.563-31.747 24.955 11.95z" id="path15" />
    <path d="M74.89 48.742c-6.214 0-11.268-5.055-11.268-11.268 0-6.212 5.054-11.266 11.267-11.266 6.212 0 11.266 5.054 11.266 11.266 0 6.214-5.054 11.268-11.267 11.268z" id="path16" />
    <path fill="#ffffff" d="M74.89 45.302c-4.316 0-7.828-3.512-7.828-7.827 0-4.314 3.512-7.825 7.827-7.825 4.314 0 7.826 3.51 7.826 7.825 0 4.315-3.512 7.827-7.827 7.827z" id="path17" />
    <path d="M43.066 71.79c-6.213 0-11.266-5.053-11.266-11.265 0-6.213 5.053-11.268 11.266-11.268s11.267 5.055 11.267 11.268c0 6.212-5.054 11.266-11.267 11.266z" id="path18" />
    <path fill="#ffffff" d="M43.066 68.35c-4.315 0-7.827-3.51-7.827-7.824 0-4.315 3.51-7.827 7.826-7.827 4.315 0 7.827 3.51 7.827 7.826 0 4.314-3.51 7.825-7.827 7.825z" id="path19" />
    <path d="M57.172 106.366c-6.214 0-11.267-5.055-11.267-11.268S50.958 83.83 57.172 83.83c6.212 0 11.267 5.055 11.267 11.268s-5.056 11.268-11.268 11.268z" id="path20" />
    <path fill="#ffffff" d="M57.172 102.926c-4.315 0-7.827-3.512-7.827-7.827s3.512-7.827 7.827-7.827c4.314 0 7.826 3.512 7.826 7.826s-3.512 7.826-7.826 7.826z" id="path21" />
    <path d="M106.71 71.79c6.214 0 11.267-5.053 11.267-11.265 0-6.213-5.053-11.268-11.266-11.268-6.212 0-11.266 5.055-11.266 11.268 0 6.212 5.054 11.266 11.267 11.266z" id="path22" />
    <path fill="#ffffff" d="M106.71 68.35c4.316 0 7.827-3.51 7.827-7.824 0-4.315-3.51-7.827-7.826-7.827-4.314 0-7.826 3.51-7.826 7.826 0 4.314 3.512 7.825 7.827 7.825z" id="path23" />
    <path d="M92.605 106.366c6.214 0 11.267-5.055 11.267-11.268S98.82 83.83 92.605 83.83c-6.212 0-11.267 5.055-11.267 11.268s5.056 11.268 11.267 11.268z" id="path24" />
    <path fill="#ffffff" d="M92.605 102.926c4.315 0 7.827-3.512 7.827-7.827s-3.512-7.827-7.827-7.827c-4.314 0-7.826 3.512-7.826 7.826s3.51 7.826 7.825 7.826z" id="path25" />
  </g>
</svg>