<?xml version="1.0" encoding="utf-8"?>
<svg version="1.1" id="Layer_1" x="0" y="0" width="138.804" height="150" viewBox="0 0 138.804 150" enable-background="new 0 0 150 156" xml:space="preserve" xmlns="http://www.w3.org/2000/svg">
  <g id="g27" transform="translate(-5.513,-2.696)">
    <polygon points="5.513 38.362 38.629 22.505 50.513 2.696 99.317 2.696 111.201 22.505 144.317 38.362 139.592 69.312 139.592 95.283 74.915 152.696 10.238 95.283 10.238 69.312" id="polygon1" />
    <linearGradient id="SVGID_1_" gradientUnits="userSpaceOnUse" x1="12.3271" y1="76.653297" x2="137.5029" y2="76.653297">
      <stop offset="0" style="stop-color: rgb(97, 44, 117);" id="stop1" />
      <stop offset="0.0703" style="stop-color: rgb(103, 53, 124);" id="stop2" />
      <stop offset="0.1845" style="stop-color: rgb(120, 77, 141);" id="stop3" />
      <stop offset="0.2" style="stop-color: rgb(123, 81, 144);" id="stop4" />
      <stop offset="0.2344" style="stop-color: rgb(140, 99, 157);" id="stop5" />
      <stop offset="0.2911" style="stop-color: rgb(163, 123, 174);" id="stop6" />
      <stop offset="0.3516" style="stop-color: rgb(179, 140, 186);" id="stop7" />
      <stop offset="0.4177" style="stop-color: rgb(188, 150, 193);" id="stop8" />
      <stop offset="0.5" style="stop-color: rgb(191, 153, 195);" id="stop9" />
      <stop offset="0.5823" style="stop-color: rgb(188, 150, 193);" id="stop10" />
      <stop offset="0.6484" style="stop-color: rgb(179, 140, 186);" id="stop11" />
      <stop offset="0.7089" style="stop-color: rgb(163, 123, 174);" id="stop12" />
      <stop offset="0.7656" style="stop-color: rgb(140, 99, 157);" id="stop13" />
      <stop offset="0.8" style="stop-color: rgb(123, 81, 144);" id="stop14" />
      <stop offset="0.8547" style="stop-color: rgb(113, 66, 133);" id="stop15" />
      <stop offset="0.937" style="stop-color: rgb(101, 50, 121);" id="stop16" />
      <stop offset="1" style="stop-color: rgb(97, 44, 117);" id="stop17" />
    </linearGradient>
    <polygon fill="url(#SVGID_1_)" points="12.327 41.965 42.979 27.286 54.02 8.889 95.811 8.889 106.851 27.286 137.503 41.965 133.398 68.842 133.398 92.5 74.915 144.417 16.432 92.5 16.432 68.842" id="polygon17" style="fill: url(&quot;#SVGID_1_&quot;);" />
    <path d="M102.012 32.598 91.914 15.77H57.916L47.818 32.598l-27.92 13.37 3.414 22.35v21.09l51.603 45.81 51.603-45.81V68.32l3.414-22.35zM59.862 19.21h30.104l8.68 14.464-23.73 31.97-23.72-31.99zm16.775 51.865 45.003 18.063-45.005 39.953zm-3.442 58.016L28.19 89.14l45.005-18.063zM48.66 36.01l23.546 31.756L26.752 86.01V68.06l-3.068-20.09zm74.418 32.05v17.947l-45.45-18.24L101.19 36.02l24.956 11.95z" id="path17" />
    <path d="M74.915 48.796c-6.213 0-11.267-5.055-11.267-11.268 0-6.21 5.054-11.266 11.267-11.266 6.213 0 11.267 5.054 11.267 11.266 0 6.213-5.054 11.268-11.267 11.268z" id="path18" />
    <path fill="#ffffff" d="M74.915 45.355c-4.315 0-7.827-3.512-7.827-7.827s3.512-7.826 7.827-7.826 7.827 3.51 7.827 7.826-3.512 7.827-7.827 7.827z" id="path19" />
    <path d="M43.093 71.845c-6.213 0-11.266-5.054-11.266-11.266 0-6.214 5.053-11.27 11.266-11.27S54.36 54.367 54.36 60.58c0 6.21-5.054 11.265-11.267 11.265z" id="path20" />
    <path fill="#ffffff" d="M43.093 68.404c-4.315 0-7.827-3.51-7.827-7.825 0-4.316 3.512-7.828 7.827-7.828s7.827 3.512 7.827 7.827c0 4.314-3.512 7.824-7.827 7.824z" id="path21" />
    <path d="M57.198 106.42c-6.214 0-11.267-5.055-11.267-11.268S50.985 83.885 57.2 83.885c6.212 0 11.267 5.054 11.267 11.267 0 6.213-5.055 11.268-11.267 11.268z" id="path22" />
    <path fill="#ffffff" d="M57.198 102.98c-4.315 0-7.827-3.513-7.827-7.828 0-4.314 3.513-7.826 7.828-7.826 4.314 0 7.826 3.512 7.826 7.826 0 4.316-3.51 7.827-7.826 7.827z" id="path23" />
    <path d="M106.737 71.845c6.213 0 11.267-5.054 11.267-11.266 0-6.214-5.054-11.27-11.267-11.27-6.213 0-11.267 5.056-11.267 11.27 0 6.21 5.054 11.265 11.267 11.265z" id="path24" />
    <path fill="#ffffff" d="M106.737 68.404c4.315 0 7.827-3.51 7.827-7.825 0-4.316-3.512-7.828-7.827-7.828s-7.827 3.512-7.827 7.827c0 4.314 3.512 7.824 7.827 7.824z" id="path25" />
    <path d="M92.632 106.42c6.214 0 11.267-5.055 11.267-11.268S98.845 83.885 92.63 83.885c-6.212 0-11.267 5.054-11.267 11.267 0 6.213 5.055 11.268 11.267 11.268z" id="path26" />
    <path fill="#ffffff" d="M92.632 102.98c4.315 0 7.827-3.513 7.827-7.828 0-4.314-3.513-7.826-7.828-7.826-4.314 0-7.826 3.512-7.826 7.826 0 4.316 3.51 7.827 7.826 7.827z" id="path27" />
  </g>
</svg>