<?xml version="1.0" encoding="utf-8"?>
<svg version="1.1" id="Layer_1" x="0" y="0" width="138.806" height="150" viewBox="0 0 138.806 150" enable-background="new 0 0 150 156" xml:space="preserve" xmlns="http://www.w3.org/2000/svg">
  <g id="g27" transform="translate(-5.864,-2.643)">
    <polygon points="5.864 38.309 38.981 22.451 50.865 2.643 99.669 2.643 111.554 22.451 144.67 38.309 139.944 69.258 139.944 95.229 75.267 152.643 10.591 95.229 10.591 69.258" id="polygon1" />
    <linearGradient id="SVGID_1_" gradientUnits="userSpaceOnUse" x1="12.6792" y1="76.599602" x2="137.85451" y2="76.599602">
      <stop offset="0" style="stop-color: rgb(98, 110, 119);" id="stop1" />
      <stop offset="0.0418" style="stop-color: rgb(105, 119, 128);" id="stop2" />
      <stop offset="0.1099" style="stop-color: rgb(125, 142, 152);" id="stop3" />
      <stop offset="0.1954" style="stop-color: rgb(158, 180, 192);" id="stop4" />
      <stop offset="0.2" style="stop-color: rgb(160, 182, 194);" id="stop5" />
      <stop offset="0.2041" style="stop-color: rgb(161, 183, 195);" id="stop6" />
      <stop offset="0.2896" style="stop-color: rgb(173, 198, 212);" id="stop7" />
      <stop offset="0.3832" style="stop-color: rgb(181, 206, 222);" id="stop8" />
      <stop offset="0.5" style="stop-color: rgb(183, 209, 225);" id="stop9" />
      <stop offset="0.6168" style="stop-color: rgb(181, 206, 222);" id="stop10" />
      <stop offset="0.7104" style="stop-color: rgb(173, 198, 212);" id="stop11" />
      <stop offset="0.7959" style="stop-color: rgb(161, 183, 195);" id="stop12" />
      <stop offset="0.8" style="stop-color: rgb(160, 182, 194);" id="stop13" />
      <stop offset="0.8463" style="stop-color: rgb(139, 157, 168);" id="stop14" />
      <stop offset="0.9062" style="stop-color: rgb(116, 131, 141);" id="stop15" />
      <stop offset="0.9594" style="stop-color: rgb(103, 116, 125);" id="stop16" />
      <stop offset="1" style="stop-color: rgb(98, 110, 119);" id="stop17" />
    </linearGradient>
    <polygon fill="url(#SVGID_1_)" points="12.679 41.911 43.332 27.232 54.371 8.836 96.163 8.836 107.202 27.232 137.854 41.911 133.75 68.788 133.75 92.446 75.267 144.363 16.784 92.446 16.784 68.788" id="polygon17" style="fill: url(&quot;#SVGID_1_&quot;);" />
    <path d="m102.363 32.545-10.097-16.83H58.268L48.17 32.546l-27.92 13.37 3.414 22.35v21.09l51.603 45.81 51.602-45.81v-21.09l3.413-22.35zm-42.15-13.39H90.32l8.68 14.466-23.73 31.97-23.72-31.99zM76.99 71.022l45.003 18.064-45.004 39.953zm-3.44 58.017L28.54 89.084 73.547 71.02zM49.012 35.955l23.545 31.757-45.454 18.243v-17.95l-3.068-20.09zm74.417 32.05v17.948l-45.45-18.24 23.563-31.747 24.956 11.95z" id="path17" />
    <path d="M75.267 48.742C69.054 48.742 64 43.687 64 37.474c0-6.212 5.054-11.266 11.267-11.266 6.213 0 11.266 5.054 11.266 11.266 0 6.214-5.053 11.268-11.266 11.268z" id="path18" />
    <path fill="#ffffff" d="M75.267 45.302c-4.315 0-7.827-3.512-7.827-7.827 0-4.314 3.512-7.825 7.827-7.825s7.827 3.51 7.827 7.825c0 4.315-3.512 7.827-7.827 7.827z" id="path19" />
    <path d="M43.445 71.79c-6.213 0-11.266-5.053-11.266-11.265 0-6.213 5.052-11.268 11.265-11.268 6.213 0 11.266 5.055 11.266 11.268 0 6.212-5.052 11.266-11.265 11.266z" id="path20" />
    <path fill="#ffffff" d="M43.445 68.35c-4.315 0-7.827-3.51-7.827-7.824 0-4.315 3.512-7.827 7.827-7.827s7.827 3.51 7.827 7.826c0 4.314-3.512 7.825-7.827 7.825z" id="path21" />
    <path d="M57.55 106.366c-6.213 0-11.267-5.055-11.267-11.268S51.337 83.83 57.55 83.83c6.212 0 11.266 5.055 11.266 11.268s-5.054 11.268-11.266 11.268z" id="path22" />
    <path fill="#ffffff" d="M57.55 102.926c-4.316 0-7.828-3.512-7.828-7.827s3.512-7.827 7.828-7.827c4.314 0 7.826 3.512 7.826 7.826s-3.51 7.826-7.826 7.826z" id="path23" />
    <path d="M107.09 71.79c6.213 0 11.266-5.053 11.266-11.265 0-6.213-5.053-11.268-11.266-11.268s-11.267 5.055-11.267 11.268c0 6.212 5.054 11.266 11.267 11.266z" id="path24" />
    <path fill="#ffffff" d="M107.09 68.35c4.314 0 7.826-3.51 7.826-7.824 0-4.315-3.512-7.827-7.826-7.827-4.315 0-7.827 3.51-7.827 7.826 0 4.314 3.51 7.825 7.827 7.825z" id="path25" />
    <path d="M92.984 106.366c6.213 0 11.267-5.055 11.267-11.268S99.198 83.83 92.985 83.83 81.717 88.886 81.717 95.1s5.054 11.268 11.267 11.268z" id="path26" />
    <path fill="#ffffff" d="M92.984 102.926c4.315 0 7.827-3.512 7.827-7.827s-3.51-7.827-7.826-7.827c-4.314 0-7.826 3.512-7.826 7.826s3.512 7.826 7.826 7.826z" id="path27" />
  </g>
</svg>