<?xml version="1.0" encoding="utf-8"?>
<svg xmlns="http://www.w3.org/2000/svg" version="1.1" id="Layer_1" x="0" y="0" width="314" height="314">
  <path style="fill: rgb(255, 255, 255);" d="M313.817 156.925a6.998 6.998 0 0 0-2.047-4.875L161.95 2.23a6.974 6.974 0 0 0-4.876-2.047L157 .108l-.074.074c-1.767.02-3.528.7-4.876 2.047L2.23 152.05a7.002 7.002 0 0 0-2.047 4.876L.107 157l.075.074c.02 1.83.75 3.58 2.046 4.876L152.05 311.77a6.98 6.98 0 0 0 4.876 2.047l.074.074.074-.073a6.977 6.977 0 0 0 4.875-2.046l149.82-149.82a6.998 6.998 0 0 0 2.047-4.875l.075-.075-.075-.075z" />
  <polygon points="70.732 157 110.33 117.402 82.089 89.161 14.249 157 82.089 224.84 110.33 196.598" />
  <polygon points="157 70.733 196.598 110.331 224.839 82.089 157 14.25 89.16 82.089 117.401 110.331" />
  <polygon points="203.668 196.598 231.91 224.839 299.75 157 231.91 89.161 203.668 117.402 243.266 157" />
  <polygon points="117.401 203.669 89.16 231.911 157 299.75 224.839 231.911 196.598 203.669 157 243.267" />
  <rect x="106" y="106" transform="matrix(0.7071 -0.7071 0.7071 0.7071 -65.0317 157.0001)" width="102" height="102" />
</svg>