<?xml version="1.0" encoding="utf-8"?>
<svg version="1.1" id="Layer_1" x="0" y="0" width="487.1" height="428.132" xmlns="http://www.w3.org/2000/svg">
  <filter id="AI_GaussianBlur_7" x="-.037" y="-.043" width="1.074" height="1.085">
    <feGaussianBlur stdDeviation="7" id="feGaussianBlur1" />
  </filter>
  <filter id="AI_GaussianBlur_4" x="-.037" y="-.042" width="1.075" height="1.083">
    <feGaussianBlur stdDeviation="4" id="feGaussianBlur2" />
  </filter>
  <g id="g11" transform="translate(-6.4500004,-30.093)">
    <g id="g5">
      <g filter="url(#AI_GaussianBlur_7)" id="g2">
        <polygon fill="#fbd500" points="476.75 183.419 424.107 189.331 322.99 200.688 390.982 92.25 419.123 47.369 378.984 81.938 255.562 188.233 205.033 93.621 180.078 46.893 190.121 98.906 206.26 182.48 79.419 126.453 30.962 105.049 70.938 139.808 181.402 235.858 71.799 283.705 23.25 304.899 75.893 298.987 177.01 287.63 109.017 396.068 80.876 440.949 121.016 406.379 244.438 300.085 294.967 394.698 319.922 441.425 309.878 389.412 293.74 305.837 420.58 361.865 469.037 383.269 429.062 348.51 318.598 252.46 428.201 204.613" id="polygon2" />
      </g>
      <polygon fill="#ffffff" points="307.402 210.489 384.204 88 253.212 200.815 197.976 97.389 217.014 195.976 76.187 133.771 196.203 238.126 75 291.037 192.598 277.829 115.795 400.318 246.787 287.503 302.023 390.929 282.986 292.342 423.813 354.547 303.797 250.192 425 197.281" id="polygon3" />
      <g filter="url(#AI_GaussianBlur_4)" id="g4">
        <polygon fill="#fbd500" points="300.597 242.861 373.25 211.144 308.295 218.439 291.814 220.29 300.624 206.239 349.285 128.632 258.433 206.877 250.862 213.397 246.155 204.584 215.875 147.885 224.869 194.459 227.767 209.472 213.781 203.294 121.412 162.493 201.452 232.089 211.003 240.394 199.403 245.457 126.75 277.174 191.705 269.879 208.185 268.028 199.375 282.079 150.714 359.686 241.567 281.441 249.137 274.921 253.844 283.734 284.125 340.433 275.131 293.859 272.232 278.846 286.218 285.024 378.588 325.825 298.548 256.229 288.997 247.924" id="polygon4" />
      </g>
    </g>
    <g id="g10">
      <polygon fill="#ffffff" points="346.917 203.671 300.065 170.299 289.562 150.632 281.822 136.141 273.428 150.263 250 189.679 226.572 150.263 218.178 136.141 210.438 150.632 199.934 170.299 153.082 203.671 141.834 208.342 119.765 217.507 100 225.715 119.512 234.508 138.19 242.925 140.005 243.743 141.996 243.743 151.442 243.743 193.863 310.637 194.488 311.623 195.338 312.422 222.832 338.294 243.652 357.886 250 363.859 256.348 357.886 277.168 338.294 304.662 312.422 305.512 311.623 306.137 310.637 348.558 243.743 358.004 243.743 359.995 243.743 361.81 242.925 380.488 234.508 400 225.715 380.235 217.507 358.166 208.342" id="polygon5" />
      <linearGradient id="SVGID_1_" gradientUnits="userSpaceOnUse" x1="186.34731" y1="163.0321" x2="313.65271" y2="290.33759">
        <stop offset="0" style="stop-color: rgb(168, 33, 41);" id="stop5" />
        <stop offset="0.0719" style="stop-color: rgb(171, 44, 41);" id="stop6" />
        <stop offset="0.1892" style="stop-color: rgb(182, 67, 42);" id="stop7" />
        <stop offset="0.3372" style="stop-color: rgb(202, 98, 40);" id="stop8" />
        <stop offset="0.5" style="stop-color: rgb(232, 141, 31);" id="stop9" />
        <stop offset="1" style="stop-color: rgb(168, 33, 41);" id="stop10" />
      </linearGradient>
      <path fill="url(#SVGID_1_)" d="m376.683 226.062-18.68 8.417h-14.54l-45.15 71.196-27.493 25.872 7.436-65.794 41.87-69.792 22.27 15.863 12.216 5.073zm-140.775 30.032 5.49 9.153.74 6.527L250 341.35l7.864-69.577.738-6.527 5.491-9.153 32.55-54.257 23.484-5.876-27.207-19.38-11.53-21.585-31.39 52.814-31.39-52.813-11.53 21.586-27.207 19.38 23.484 5.875zm-56.035-60.133-22.27 15.864-12.216 5.073-22.07 9.165 18.68 8.417h14.54l45.15 71.196 27.494 25.872-7.435-65.794z" id="path10" style="fill: url(&quot;#SVGID_1_&quot;);" />
    </g>
  </g>
</svg>