<?xml version="1.0" encoding="utf-8"?>
<svg width="34" height="21" viewBox="0 0 34 21" version="1.1" xmlns="http://www.w3.org/2000/svg" xml:space="preserve" style="fill-rule: evenodd; clip-rule: evenodd; stroke-linejoin: round; stroke-miterlimit: 2;" preserveAspectRatio="xMidYMid meet" zoomAndPan="magnify" contentScriptType="application/ecmascript" contentStyleType="text/css">
  <g id="plus">
    <path d="M16.613 20.89C9.776 20.9 5.303 20.38 0 18.74c2.705-2.67 3.658-7.09 1.675-12.61L16.94 0l15.265 6.13c-1.983 5.52-1.03 9.94 1.675 12.61-5.386 1.66-9.918 2.18-16.94 2.15h-.327zm.336-2h-.132c-.076 0-.146.01-.21.02v-.02c-5.387.01-9.254-.32-13.278-1.3 1.443-2.68 1.883-6.18.802-10.3L16.94 2.15l12.808 5.14c-1.08 4.12-.64 7.62.8 10.3-4.102 1-8.043 1.32-13.6 1.3z" />
    <path d="M7.1 12.443V10.79h3.014V7.74h1.716v3.053h3.02v1.653h-3.02v3.053h-1.716v-3.053H7.1z" style="fill-rule: nonzero;" />
    <path d="m16.084 13.673 7.07-8.77h.076v8.676h1.5v.06l-1.29 1.1h-.21v2.537c-.36.01-.763.05-1.204.12a5.17 5.17 0 0 0-1.122.29h-.066V14.74h-3.545L16.1 13.727l-.016-.055zm1.418-.143.016.05h3.32V9.34h-.065l-3.27 4.19z" style="fill-rule: nonzero;" />
  </g>
</svg>