<?xml version="1.0" encoding="utf-8"?>
<svg width="34" height="21" viewBox="0 0 34 21" version="1.1" xmlns="http://www.w3.org/2000/svg" xml:space="preserve" style="fill-rule: evenodd; clip-rule: evenodd; stroke-linejoin: round; stroke-miterlimit: 2;" preserveAspectRatio="xMidYMid meet" zoomAndPan="magnify" contentScriptType="application/ecmascript" contentStyleType="text/css">
  <g id="plus">
    <path d="M16.613 20.89C9.776 20.9 5.303 20.38 0 18.74c2.705-2.67 3.658-7.09 1.675-12.61L16.94 0l15.265 6.13c-1.983 5.52-1.03 9.94 1.675 12.61-5.386 1.66-9.918 2.18-16.94 2.15h-.327zm.336-2h-.132c-.076 0-.146.01-.21.02v-.02c-5.387.01-9.254-.32-13.278-1.3 1.443-2.68 1.883-6.18.802-10.3L16.94 2.15l12.808 5.14c-1.08 4.12-.64 7.62.8 10.3-4.102 1-8.043 1.32-13.6 1.3z" />
    <path d="M6.78 12.443V10.79H9.79V7.74h1.716v3.053h3.02v1.653h-3.02v3.053H9.792v-3.053H6.78z" style="fill-rule: nonzero;" />
    <path d="M16.672 9.412c0-.706.18-1.355.536-1.95a3.907 3.907 0 0 1 1.406-1.395 3.63 3.63 0 0 1 1.853-.505c.43 0 .842.054 1.237.162.394.108.777.286 1.148.534.37.25.693.556.966.923.274.368.493.833.657 1.394.164.56.246 1.187.246 1.878 0 .926-.12 1.773-.366 2.54-.244.77-.584 1.425-1.02 1.97a6.11 6.11 0 0 1-1.558 1.376 6.97 6.97 0 0 1-1.974.83c-.71.18-1.47.27-2.276.27v-.653c1.338-.01 2.382-.378 3.134-1.102.752-.724 1.22-1.83 1.402-3.314l-1.482.645H20c-.994 0-1.797-.34-2.41-1.015-.612-.677-.918-1.54-.918-2.588zm2.393-.604c0 1.15.167 1.987.5 2.514.333.527.87.79 1.61.79h.92c.048-.61.072-1.053.072-1.334 0-1.515-.145-2.612-.435-3.293-.29-.68-.723-1.02-1.297-1.02-.29 0-.54.117-.754.353a2.176 2.176 0 0 0-.466.878c-.1.35-.15.72-.15 1.112z" style="fill-rule: nonzero;" />
  </g>
</svg>