<?xml version="1.0" encoding="utf-8"?>
<svg width="34" height="21" viewBox="0 0 34 21" version="1.1" xmlns="http://www.w3.org/2000/svg" xml:space="preserve" style="fill-rule: evenodd; clip-rule: evenodd; stroke-linejoin: round; stroke-miterlimit: 2;" preserveAspectRatio="xMidYMid meet" zoomAndPan="magnify" contentScriptType="application/ecmascript" contentStyleType="text/css">
  <g id="minus">
    <path d="M16.613 0C9.776-.01 5.303.51 0 2.15c2.705 2.67 3.658 7.09 1.675 12.61l15.265 6.13 15.265-6.13c-1.983-5.52-1.03-9.94 1.675-12.61C28.494.49 23.962-.03 16.94 0h-.327zm.336 2h-.132c-.076 0-.146-.01-.21-.02V2c-5.387-.01-9.254.32-13.278 1.3 1.443 2.68 1.883 6.18.802 10.3l12.808 5.14 12.808-5.14c-1.08-4.12-.64-7.62.8-10.3-4.102-1-8.043-1.32-13.6-1.3z" />
    <path d="M8.064 11.152v-.065L9.15 9.34h6.382v.063l-1.087 1.75h-6.38z" style="fill-rule: nonzero;" />
    <path d="M15.04 15.212c1.687-2.005 2.972-3.735 3.856-5.192.883-1.457 1.325-2.704 1.325-3.74 0-.598-.14-1.05-.422-1.356a1.397 1.397 0 0 0-1.075-.46c-.505 0-.888.18-1.148.54s-.39.802-.39 1.323c0 .312.044.592.136.84l-.048.055-1.836-2.314c.424-.4.927-.725 1.51-.973a4.717 4.717 0 0 1 1.873-.373c.5 0 .974.065 1.425.193.452.13.854.312 1.21.55a2.62 2.62 0 0 1 1.16 2.224c0 .45-.078.88-.23 1.285-.154.406-.4.825-.738 1.258-.338.433-.682.835-1.03 1.206-.35.37-.82.868-1.415 1.494a38.834 38.834 0 0 0-1.583 1.77h4.06l.048-.016.822-1.796h.064v3.545h-7.54l-.033-.065z" style="fill-rule: nonzero;" />
  </g>
</svg>