<?xml version="1.0" encoding="utf-8"?>
<svg width="34" height="21" viewBox="0 0 34 21" version="1.1" xmlns="http://www.w3.org/2000/svg" xml:space="preserve" style="fill-rule: evenodd; clip-rule: evenodd; stroke-linejoin: round; stroke-miterlimit: 2;" preserveAspectRatio="xMidYMid meet" zoomAndPan="magnify" contentScriptType="application/ecmascript" contentStyleType="text/css">
  <g id="minus">
    <path d="M16.613 0C9.776-.01 5.303.51 0 2.15c2.705 2.67 3.658 7.09 1.675 12.61l15.265 6.13 15.265-6.13c-1.983-5.52-1.03-9.94 1.675-12.61C28.494.49 23.962-.03 16.94 0h-.327zm.336 2h-.132c-.076 0-.146-.01-.21-.02V2c-5.387-.01-9.254.32-13.278 1.3 1.443 2.68 1.883 6.18.802 10.3l12.808 5.14 12.808-5.14c-1.08-4.12-.64-7.62.8-10.3-4.102-1-8.043-1.32-13.6-1.3z" />
    <path d="M8.136 11.152v-.065L9.224 9.34h6.38v.063l-1.087 1.75h-6.38z" style="fill-rule: nonzero;" />
    <path d="m15.854 14.22 1.427-1.747.05.016c0 .574.133 1.058.402 1.453.268.395.666.592 1.192.592.505 0 .89-.182 1.156-.547.266-.366.4-.887.4-1.563 0-.49-.057-.92-.17-1.29-.113-.37-.32-.68-.625-.93-.303-.25-.694-.375-1.172-.375l-.886-.838v-.064h.41a1.82 1.82 0 0 0 1.19-.404 2.3 2.3 0 0 0 .716-.988c.148-.39.222-.81.222-1.255 0-.607-.12-1.062-.36-1.363-.238-.302-.56-.452-.96-.452-.474 0-.83.185-1.073.557-.242.37-.363.817-.363 1.34l-.05.015-1.32-1.436c.78-.918 1.807-1.378 3.085-1.378.994 0 1.815.238 2.462.712.647.475.97 1.143.97 2.007 0 .695-.21 1.286-.628 1.776-.42.49-.914.823-1.483 1v.065c.762.19 1.37.518 1.825.988.453.47.68 1.092.68 1.865 0 1.075-.345 1.92-1.035 2.538-.69.62-1.653.928-2.888.928-1.306 0-2.364-.406-3.176-1.217z" style="fill-rule: nonzero;" />
  </g>
</svg>