<?xml version="1.0" encoding="utf-8"?>
<svg width="34" height="21" viewBox="0 0 34 21" version="1.1" xmlns="http://www.w3.org/2000/svg" xml:space="preserve" style="fill-rule: evenodd; clip-rule: evenodd; stroke-linejoin: round; stroke-miterlimit: 2;" preserveAspectRatio="xMidYMid meet" zoomAndPan="magnify" contentScriptType="application/ecmascript" contentStyleType="text/css">
  <g id="minus">
    <path d="M16.613 0C9.776-.01 5.303.51 0 2.15c2.705 2.67 3.658 7.09 1.675 12.61l15.265 6.13 15.265-6.13c-1.983-5.52-1.03-9.94 1.675-12.61C28.494.49 23.962-.03 16.94 0h-.327zm.336 2h-.132c-.076 0-.146-.01-.21-.02V2c-5.387-.01-9.254.32-13.278 1.3 1.443 2.68 1.883 6.18.802 10.3l12.808 5.14 12.808-5.14c-1.08-4.12-.64-7.62.8-10.3-4.102-1-8.043-1.32-13.6-1.3z" />
    <path d="M7.238 11.152v-.065L8.326 9.34h6.38v.063l-1.087 1.75H7.237z" style="fill-rule: nonzero;" />
    <path d="m15.286 11.673 7.072-8.77h.075v8.676h1.498v.06l-1.288 1.1h-.21v2.537c-.36.01-.762.05-1.204.12-.442.07-.816.167-1.12.29h-.068V12.74h-3.545l-1.192-1.012-.017-.055zm1.418-.143.017.05h3.32V7.34h-.065l-3.27 4.19z" style="fill-rule: nonzero;" />
  </g>
</svg>