<?xml version="1.0" encoding="utf-8"?>
<svg width="34" height="21" viewBox="0 0 34 21" version="1.1" xmlns="http://www.w3.org/2000/svg" xml:space="preserve" style="fill-rule: evenodd; clip-rule: evenodd; stroke-linejoin: round; stroke-miterlimit: 2;" preserveAspectRatio="xMidYMid meet" zoomAndPan="magnify" contentScriptType="application/ecmascript" contentStyleType="text/css">
  <g id="minus">
    <path d="M16.613 0C9.776-.01 5.303.51 0 2.15c2.705 2.67 3.658 7.09 1.675 12.61l15.265 6.13 15.265-6.13c-1.983-5.52-1.03-9.94 1.675-12.61C28.494.49 23.962-.03 16.94 0h-.327zm.336 2h-.132c-.076 0-.146-.01-.21-.02V2c-5.387-.01-9.254.32-13.278 1.3 1.443 2.68 1.883 6.18.802 10.3l12.808 5.14 12.808-5.14c-1.08-4.12-.64-7.62.8-10.3-4.102-1-8.043-1.32-13.6-1.3z" />
    <path d="M6.916 11.152v-.065L8.003 9.34h6.38v.063l-1.086 1.75h-6.38z" style="fill-rule: nonzero;" />
    <path d="M15.705 10.548c0-.958.19-1.87.568-2.734.38-.865.89-1.607 1.53-2.228A7.168 7.168 0 0 1 20.1 4.108a7.317 7.317 0 0 1 2.8-.546v.66c-.845.006-1.587.2-2.227.578-.64.38-1.148.892-1.522 1.538-.373.647-.632 1.408-.778 2.284l1.47-.637h.58c.996 0 1.8.34 2.417 1.015.614.677.922 1.54.922 2.588 0 1.085-.366 1.998-1.097 2.74-.73.74-1.63 1.11-2.7 1.11-.457 0-.89-.054-1.297-.162a3.785 3.785 0 0 1-2.105-1.46c-.266-.37-.475-.834-.628-1.39a7.08 7.08 0 0 1-.23-1.878zm2.554-.326c0 1.515.145 2.612.436 3.293.29.68.724 1.02 1.3 1.02.29 0 .543-.117.755-.353a2.18 2.18 0 0 0 .47-.878c.1-.35.15-.72.15-1.112 0-1.15-.17-1.987-.506-2.514-.336-.527-.876-.79-1.62-.79h-.904c-.054.466-.08.91-.08 1.334z" style="fill-rule: nonzero;" />
  </g>
</svg>