<?xml version="1.0" encoding="utf-8"?>
<svg xmlns="http://www.w3.org/2000/svg" xmlns:inkscape="http://www.inkscape.org/namespaces/inkscape" version="1.1" width="600" height="600" id="svg3797">
  <g transform="translate(-296.2912,166.78621)" id="layer1">
    <g transform="matrix(6,0,0,6,5966.2912,463.22578)" id="g117">
      <circle cx="-895" cy="-55.001999" r="50" id="circle119" style="fill: rgb(202, 197, 192);" />
    </g>
    <path d="M508.127-54.976v302.634c0 35.988 15.403 53.988 46.158 53.988h7.83v20.52H400.92v-20.52h10.361c29.587 0 44.401-18 44.401-53.988V49.178c.001-36.48-12.928-54.738-38.8-54.738h-15.96v-20.544h6.095c31.428 0 59.814-9.624 85.146-28.878l15.967.006zm58.56 199.968c0-47.142 9.877-90.492 29.64-130.008 24.852-49.158 58.83-73.758 101.892-73.758 41.585 0 74.531 21.048 98.855 63.096 19.776 34.488 29.67 74.286 29.67 119.388 0 47.154-9.888 90.234-29.67 129.27-24.846 48.174-58.542 72.246-101.118 72.246-41.051 0-73.758-20.79-98.112-62.37-20.784-34.968-31.158-74.256-31.158-117.864zm54.732-22.056c0 40.08 4.307 76.056 12.935 107.976 13.182 49.17 34.71 73.77 64.626 73.77 48.667 0 72.991-50.682 72.991-152.076.001-125.214-26.363-187.806-79.09-187.806-47.647 0-71.473 48.63-71.473 145.968v12.168z" inkscape:connector-curvature="0" id="path121" style="fill: rgb(13, 15, 15);" />
  </g>
</svg>