<?xml version="1.0" encoding="utf-8"?>
<svg xmlns="http://www.w3.org/2000/svg" xmlns:inkscape="http://www.inkscape.org/namespaces/inkscape" version="1.1" width="600" height="600" id="svg4031">
  <g transform="translate(-342.0055,1.0719234)" id="layer1">
    <g transform="matrix(6,0,0,6,1602.0055,628.94007)" id="g75">
      <circle cx="-160" cy="-55.001999" r="50" id="circle77" style="fill: rgb(202, 197, 192);" />
    </g>
    <path d="M544.272 113.852v295.842c0 35.274 14.58 52.884 43.71 52.884h6.888v19.932H437.742v-19.932h10.734c29.628 0 44.46-17.616 44.46-52.884V215.786c0-35.742-12.774-53.646-38.322-53.646H439.26v-19.92h6.138c30.654 0 58.266-9.456 82.782-28.362l16.092-.007v.001zm196.242 370.95h-53.67v-6.12c0-34.242 10.734-77.412 32.178-129.516 32.718-77.694 62.88-137.472 90.444-179.358l3.096-5.37H686.844c-18.396 0-32.322 3.834-41.766 11.472-9.444 7.674-16.758 20.46-21.87 38.334h-20.67l22.992-101.166h13.806c7.638 3.588 21.468 5.37 41.388 5.37h165.54v29.13c-6.12 8.694-13.782 22.476-22.992 41.376-17.904 34.77-34.242 75.126-49.056 121.092-21.984 68.49-33.21 126.756-33.702 174.756z" inkscape:connector-curvature="0" id="path79" style="fill: rgb(13, 15, 15);" />
  </g>
</svg>