<?xml version="1.0" encoding="utf-8"?>
<svg xmlns="http://www.w3.org/2000/svg" xmlns:inkscape="http://www.inkscape.org/namespaces/inkscape" version="1.1" width="600" height="600" id="svg4063">
  <g transform="translate(-187.71982,12.500493)" id="layer1">
    <g transform="matrix(6,0,0,6,817.71982,617.5115)" id="g69">
      <circle cx="-55" cy="-55.001999" r="50" id="circle71" style="fill: rgb(202, 197, 192);" />
    </g>
    <path d="M403.57 102.795v296.616c0 35.276 14.568 52.892 43.686 52.892h7.674v19.926H297.034v-19.926h9.984c30.126 0 45.222-17.622 45.222-52.89V204.747c0-35.773-12.798-53.635-38.334-53.635h-15.342v-19.932h6.138c30.654.001 58.254-9.443 82.77-28.373h16.098v-.01zm135.654 182.406-7.662-6.113c-24.012-16.344-39.858-29.376-47.496-39.078-9.198-12.787-13.818-27.6-13.818-44.473 0-28.098 12-51.084 36.012-68.982 21.456-16.842 47.04-25.296 76.662-25.296 27.6 0 52.116 7.17 73.572 21.455 23.508 16.375 35.274 38.083 35.274 65.148 0 32.712-22.488 59.034-67.464 78.96 51.624 25.044 77.412 60.036 77.412 105.006 0 32.184-12.516 57.726-37.56 76.626-21.444 16.877-48.798 25.29-82.02 25.29-31.674 0-58.746-7.92-81.234-23.767-26.04-17.869-39.084-41.629-39.084-71.257 0-30.156 14.04-54.672 42.162-73.608 7.152-5.064 18.906-11.712 35.244-19.914zm21.456 8.455c-37.29 17.37-55.944 44.436-55.944 81.24 0 23.514 7.674 42.54 22.98 57.103 15.354 14.568 34.5 21.834 57.516 21.834 21.456 0 39.576-5.736 54.42-17.244 14.814-11.478 22.206-27.444 22.206-47.904 0-31.152-19.932-56.196-59.79-75.097l-41.388-19.932zm42.162-36.798c33.222-14.814 49.806-36.768 49.806-65.892 0-19.926-7.008-36.024-21.048-48.312-14.064-12.258-31.314-18.372-51.738-18.372-16.878.001-31.932 4.837-45.222 14.533-13.314 9.732-19.92 23.022-19.92 39.864 0 20.454 9.444 36.798 28.35 49.056 4.08 2.556 20.952 10.728 50.58 24.546l9.192 4.577z" inkscape:connector-curvature="0" id="path73" style="fill: rgb(13, 15, 15);" />
  </g>
</svg>