<?xml version="1.0" encoding="utf-8"?>
<svg xmlns="http://www.w3.org/2000/svg" xmlns:inkscape="http://www.inkscape.org/namespaces/inkscape" version="1.1" width="600" height="600" id="svg4095">
  <g transform="translate(80.851611,161.07192)" id="layer1">
    <g transform="matrix(6,0,0,6,-80.851611,468.94007)" id="g63">
      <circle cx="50" cy="-55.001999" r="50" id="circle65" style="fill: rgb(202, 197, 192);" />
    </g>
    <path d="M142.12-49.616v301.23c0 35.772 15.06 53.634 45.223 53.634h7.662v20.706H34.06v-20.706h10.723c30.162 0 45.222-17.868 45.222-53.634V53.86C90.005 17.59 77.219-.56 51.67-.56H35.58v-20.676h6.137c31.158 0 59.508-9.45 85.08-28.374l15.324-.007zm244.5 214.626c-28.103 26.574-56.19 39.858-84.293 39.858-30.654 0-55.452-12.534-74.358-37.578-16.873-21.954-25.297-48.78-25.297-80.46 0-34.248 9.948-64.902 29.874-91.974 22.476-29.124 50.34-43.686 83.55-43.686 40.368 0 72.294 17.37 95.802 52.116 21.959 31.182 32.962 67.704 32.962 109.59 0 60.318-19.8 111.024-59.393 152.154-39.613 41.13-89.288 61.962-149.077 62.46v-19.926c18.395-1.026 32.964-3.09 43.686-6.138 60.827-18.408 96.31-63.876 106.54-136.416zm3.847-37.584c.492-8.136.774-15.81.774-22.98 0-29.628-5.111-56.7-15.341-81.24-13.795-32.184-33.211-48.282-58.267-48.282-21.948 0-38.076 10.98-48.27 32.964-8.706 17.874-13.044 38.832-13.044 62.844-.001 26.04 4.09 48.558 12.257 67.422 10.734 25.044 27.612 37.584 50.592 37.584 27.599 0 51.359-16.092 71.297-48.312z" inkscape:connector-curvature="0" id="path67" style="fill: rgb(13, 15, 15);" />
  </g>
</svg>