<?xml version="1.0" encoding="utf-8"?>
<svg xmlns="http://www.w3.org/2000/svg" xmlns:inkscape="http://www.inkscape.org/namespaces/inkscape" version="1.1" width="600" height="600" id="svg4138">
  <g transform="translate(-339.1483,169.64334)" id="layer1">
    <g transform="matrix(6,0,0,6,6009.1483,-169.63135)" id="g123">
      <circle cx="-895" cy="49.998001" r="50" id="circle125" style="fill: rgb(202, 197, 192);" />
    </g>
    <path d="m658.612 209.965-26.826 89.67H411.04v-18.408c10.735-12.246 34.5-36.516 71.298-72.786 21.456-21.96 42.913-44.975 64.375-68.987 11.225-12.252 19.428-22.734 24.54-31.44 13.254-18.396 19.896-37.548 19.896-57.468-.001-18.396-5.99-34.878-17.99-49.428-12.011-14.568-27.233-21.834-45.6-21.834-39.857 0-71.04 27.072-93.527 81.246l-20.682-7.675C440.424-23.28 482.844-61.343 540.57-61.343c28.625 0 53.015 9.69 73.192 29.124 20.202 19.429 30.283 43.44 30.283 72.037 0 36.306-21.21 71.79-63.625 106.536l-42.911 36.024c-27.601 23.52-50.335 45.222-68.203 65.142-1.536 1.03-4.093 4.09-7.674 9.209h114.984c17.873-.001 31.404-3.853 40.608-11.51 7.673-6.125 15.342-17.88 22.98-35.25h18.408v-.006zm-3.06-80.484c0-44.447 9.199-85.583 27.6-123.377 24.013-47.004 56.448-70.524 97.339-70.524 39.33-.001 70.758 20.177 94.279 60.539 18.365 32.717 27.563 70.51 27.563 113.423 0 44.97-9.198 85.866-27.565 122.664-24.048 45.954-56.237 68.946-96.588 68.946-38.825 0-70.02-19.644-93.503-59.016-19.429-33.204-29.125-70.752-29.125-112.656zm52.117-20.687c-.001 38.334 4.079 72.576 12.257 102.696 12.246 47.039 32.706 70.523 61.314 70.523 46.489 0 69.763-48.282 69.763-144.876 0-119.568-25.302-179.346-75.877-179.346-44.976 0-67.451 46.489-67.451 139.489v11.513z" inkscape:connector-curvature="0" id="path127" style="fill: rgb(13, 15, 15);" />
  </g>
</svg>