<?xml version="1.0" encoding="utf-8"?>
<svg xmlns="http://www.w3.org/2000/svg" xmlns:sodipodi="http://sodipodi.sourceforge.net/DTD/sodipodi-0.dtd" xmlns:inkscape="http://www.inkscape.org/namespaces/inkscape" version="1.1" width="600" height="600" id="svg4977" inkscape:version="0.91 r13725" sodipodi:docname="2b.svg">
  <sodipodi:namedview pagecolor="#ffffff" bordercolor="#666666" borderopacity="1" objecttolerance="10" gridtolerance="10" guidetolerance="10" inkscape:pageopacity="0" inkscape:pageshadow="2" inkscape:window-width="732" inkscape:window-height="480" id="namedview12" showgrid="false" inkscape:zoom="0.39333333" inkscape:cx="300" inkscape:cy="300" inkscape:window-x="0" inkscape:window-y="0" inkscape:window-maximized="0" inkscape:current-layer="svg4977" />
  <circle cx="300" cy="300" r="300" style="fill: rgb(204, 204, 204);" id="circle5" />
  <path inkscape:connector-curvature="0" style="fill: rgb(0, 0, 0);" d="M147.422 272.9h60.219c23.986 0 31.13-1.531 39.296-28.068l20.413-.51-18.373 63.28H103.534l-.51-17.351c109.21-106.658 111.251-122.478 112.272-138.298 2.551-34.702-22.455-45.93-35.723-45.93-13.269 0-35.213 8.676-56.646 52.564l-18.882-8.165c28.578-80.12 76.549-76.548 91.858-76.037 37.764 1.02 62.26 36.743 61.24 66.852-1.021 40.827-18.883 46.95-109.72 131.665z" id="path6" />
  <g transform="translate(-484.86267,155.35853)" id="layer1">
    <path d="M996.957-67.542c54.312 54.307 87.906 129.308 87.906 212.162 0 165.698-134.316 300.021-300.006 300.021-82.836.001-157.83-33.575-212.124-87.875" inkscape:connector-curvature="0" id="path289" style="fill: rgb(165, 151, 147);" />
    <path d="M1022.583 240.58c0 16.206-5.892 27.264-17.682 33.15-3.443 1.722-14.243 4.068-32.423 6.996-11.778 1.98-17.676 6.516-17.676 13.626v29.838c0 1.254.38 5.052 1.105 11.43l1.11 11.797c0 3.677-.864 9.702-2.586 18.048-4.663.978-10.07 2.088-16.207 3.33-1.968-7.38-2.946-12.414-2.946-15.12 0-1.218.302-3.072.918-5.526.612-2.45.924-4.298.924-5.534-.001-1.704-1.52-6.498-4.573-14.364h-5.718c-.757 1.23-1.003 2.826-.763 4.782.984 4.182 1.35 7.734 1.11 10.686-4.182 2.946-9.942 6.876-17.31 11.79-1.734-.491-2.334-.737-1.848-.737v-26.155c-.487-1.218-1.711-1.71-3.685-1.476h-4.422l-4.422 34.627c-3.437.245-7.607.245-12.515-.001-1.722-8.107-4.794-20.126-9.21-36.104h-2.958c-2.7 8.598-4.17 13.266-4.422 14.004 0 .978.312 2.874.93 5.706.605 2.832.918 4.722.918 5.707 0 .731-.252 2.58-.75 5.526l-1.104 8.849c-.5.473-1.1.719-1.837.719-7.368-.001-12.288-1.843-14.73-5.515-2.472-3.69-3.456-8.85-2.958-15.48l2.958-44.19c0-.74.235-1.723.726-2.953.49-1.218.737-2.088.737-2.568 0-1.968-2.088-5.904-6.258-11.808-.74-.24-4.543-1.11-11.425-2.586-4.17-.972-12.402-2.694-24.672-5.142-16.95-3.186-25.428-16.818-25.428-40.885 0-35.868 14.742-65.694 44.202-89.52 1.224 6.635 3.324 15.468 6.27 26.52 2.208.504 7.002 1.614 14.364 3.324 1.483.486 8.965 3.192 22.47 8.106-6.87-4.17-15.839-10.908-26.88-20.25-4.182-4.908-6.275-13.147-6.275-24.679 0-2.718 4.668-5.892 14.01-9.6 8.346-3.432 14.604-5.376 18.786-5.88 13.255-1.71 23.449-2.58 30.577-2.58 30.69 0 55.5 7.866 74.406 23.592-6.132 7.129-16.698 14.719-31.674 22.837 5.89.246 14.49-2.082 25.787-7.008 11.292-4.89 16.08-7.368 14.364-7.368 1.963 0 5.899 3.936 11.79 11.79 4.41 5.892 7.975 11.178 10.68 15.84 7.86 13.998 13.14 29.118 15.847 45.312 0 5.651.122 9.701.368 12.15v2.94zm-141.096 6.647c0-10.566-4.602-20.574-13.806-30.036-9.215-9.455-19.11-14.177-29.664-14.177-9.33 0-17.55 3.96-24.677 11.868-7.123 7.915-10.681 16.693-10.681 26.341-.001 8.401 4.049 13.856 12.155 16.316 5.16 1.488 12.395 2.352 21.726 2.604h20.263c16.458.21 24.684-4.092 24.684-12.913zm40.158 45.673v-11.406a371.277 371.277 0 0 1-5.148-9.96c-1.476-4.902-4.182-11.778-8.106-20.634l-4.055 43.104c0 3.456-.732 5.166-2.214 5.166-.977 0-1.72-.24-2.207-.738-1.722-26.028-2.574-37.332-2.574-33.876v-12.888c-.5-.757-1.111-1.128-1.85-1.128-8.345 8.622-12.515 22.488-12.515 41.628 0 10.566.978 17.07 2.94 19.542 1.974-.498 4.17-1.362 6.642-2.586.978-.498 3.798-.738 8.466-.738 4.65 0 10.32 1.47 16.938 4.41 2.46-.017 3.685-6.63 3.685-19.896zm83.256-51.337c0-9.876-3.683-18.714-11.051-26.508-7.37-7.782-15.84-11.67-25.405-11.67-10.32 0-19.968 4.722-28.926 14.166-8.971 9.457-13.453 19.345-13.453 29.671 0 8.594 4.182 12.884 12.528 12.884h42.354c15.97-.24 23.95-6.409 23.95-18.54z" inkscape:connector-curvature="0" id="path295" style="fill: rgb(0, 0, 0);" />
  </g>
</svg>