<?xml version="1.0" encoding="utf-8"?>
<svg xmlns="http://www.w3.org/2000/svg" xmlns:inkscape="http://www.inkscape.org/namespaces/inkscape" version="1.1" width="600" height="600" id="svg5014">
  <circle cx="300" cy="300" r="300" style="fill: rgb(203, 194, 191);" />
  <path inkscape:connector-curvature="0" style="fill: rgb(19, 12, 14);" d="M147.422 272.9h60.219c23.986 0 31.13-1.531 39.296-28.068l20.413-.51-18.373 63.28H103.534l-.51-17.351c109.21-106.658 111.251-122.478 112.272-138.298 2.551-34.702-22.455-45.93-35.723-45.93-13.269 0-35.213 8.676-56.646 52.564l-18.882-8.165c28.578-80.12 76.549-76.548 91.858-76.037 37.764 1.02 62.26 36.743 61.24 66.852-1.021 40.827-18.883 46.95-109.72 131.665z" id="path6" />
  <g transform="translate(-719.14839,181.07282)" id="layer1">
    <path d="M1231.242-93.256c54.312 54.307 87.906 129.307 87.906 212.162 0 165.698-134.322 300.021-300 300.021-82.842 0-157.83-33.576-212.124-87.877" inkscape:connector-curvature="0" id="path299" style="fill: rgb(228, 153, 119);" />
    <path d="M1248.948 265.56c-10.308 24.594-30.78 36.87-61.44 36.87-5.622 0-11.712.702-18.264 2.124-9.834 2.094-14.748 5.028-14.748 8.778 0 1.158.816 2.508 2.46 4.044 1.632 1.524 3.048 2.28 4.218 2.28-5.862 0-1.884.168 11.922.522 13.818.354 22.482.534 25.998.534-20.364 11.922-54.42 17.418-102.174 16.5-15.684-.234-29.142-7.14-40.374-20.724-11.01-12.876-16.506-27.246-16.506-43.182 0-16.849 5.676-31.177 17.034-43.009 11.34-11.82 25.452-17.73 42.306-17.73 3.738 0 8.719.822 14.916 2.46 6.204 1.638 10.362 2.46 12.462 2.46 8.664 0 19.434-3.576 32.31-10.722 12.877-7.128 18.96-10.698 18.259-10.698-2.346 24.588-10.536 41.082-24.582 49.512-10.068 5.855-15.096 11.58-15.096 17.202-.001 3.492 2.099 6.318 6.31 8.418 3.277 1.644 6.907 2.46 10.89 2.46 6.085 0 12.049-3.744 17.905-11.238 5.844-7.495 8.418-14.275 7.716-20.377-.695-7.02-.221-15.438 1.41-25.278.463-2.814 2.167-6.258 5.089-10.362 2.927-4.104 5.567-6.612 7.9-7.548 0 2.1-.761 5.616-2.28 10.53-1.523 4.914-2.28 8.562-2.28 10.878 0 5.148 1.404 9.126 4.218 11.94 4.207-1.638 7.945-6.912 11.233-15.804 2.809-6.785 4.44-13.343 4.92-19.655-9.84-.468-19.265-4.908-28.265-13.344-9.006-8.43-13.512-17.561-13.512-27.378 0-1.638.222-3.282.702-4.92 1.392 2.112 3.498 5.388 6.318 9.835 3.972 5.862 7.02 8.772 9.126 8.772 2.808-.001 4.212-2.911 4.212-8.773 0-7.489-1.991-14.28-5.97-20.37-4.457-7.255-10.193-10.879-17.201-10.879-3.29 0-8.197 1.746-14.75 5.262-6.557 3.498-12.527 5.262-17.897 5.262-1.638 0-8.904-2.112-21.774-6.324 22.698-3.732 34.056-7.128 34.056-10.176 0-7.944-15.564-13.344-46.698-16.146-3.048-.222-8.658-.696-16.854-1.404.93-1.158 7.608-2.448 20.016-3.87 10.529-1.152 17.897-1.746 22.109-1.746 55.71 0 91.05 27.048 106.038 81.127 2.586-2.136 3.87-5.712 3.87-10.68 0-6.42-1.872-14.485-5.622-24.21-1.41-3.799-3.642-9.493-6.678-17.083 19.188 24.45 28.8 47.629 28.8 69.505 0 11.526-2.706 21.984-8.088 31.386-3.5 6.343-10.07 14.45-19.657 24.35-9.6 9.876-16.146 17.52-19.662 22.92 12.877-3.498 21.307-6.204 25.285-8.082 8.886-3.972 16.968-9.949 24.222-17.893 0 3.03-1.29 7.609-3.858 13.675zm-153.084-137.978c0 4.206-2.346 6.888-7.02 8.076l-9.126 1.392c-3.282 1.632-8.082 8.088-14.388 19.32-.714-3.51-1.758-8.412-3.168-14.748-2.106.235-5.61 2.106-10.53 5.628-2.105 1.626-5.502 4.104-10.194 7.375 1.41-8.425 6.102-16.957 14.052-25.627 8.424-9.606 16.62-14.388 24.576-14.388 10.53-.023 15.798 4.314 15.798 12.972zm61.092 32.305c0 3.978-2.166 7.314-6.498 10.002-4.332 2.693-8.604 4.043-12.81 4.043-5.628 0-10.662-3.162-15.102-9.48-5.388-7.722-10.884-12.75-16.5-15.109 1.164-1.158 2.574-1.758 4.224-1.758 2.094 0 5.664 1.638 10.698 4.908 5.022 3.294 8.25 4.914 9.66 4.914 1.17 0 3.096-1.625 5.784-4.914 2.688-3.27 5.676-4.908 8.958-4.908 7.728 0 11.586 4.116 11.586 12.3z" inkscape:connector-curvature="0" id="path303" style="fill: rgb(32, 0, 0);" />
  </g>
</svg>