<?xml version="1.0" encoding="utf-8"?>
<svg xmlns="http://www.w3.org/2000/svg" xmlns:inkscape="http://www.inkscape.org/namespaces/inkscape" version="1.1" width="600" height="600" id="svg4940">
  <circle cx="300" cy="300" r="300" style="fill: rgb(203, 194, 191);" />
  <path inkscape:connector-curvature="0" style="fill: rgb(19, 12, 14);" d="M147.422 272.9h60.219c23.986 0 31.13-1.531 39.296-28.068l20.413-.51-18.373 63.28H103.534l-.51-17.351c109.21-106.658 111.251-122.478 112.272-138.298 2.551-34.702-22.455-45.93-35.723-45.93-13.269 0-35.213 8.676-56.646 52.564l-18.882-8.165c28.578-80.12 76.549-76.548 91.858-76.037 37.764 1.02 62.26 36.743 61.24 66.852-1.021 40.827-18.883 46.95-109.72 131.665z" id="path6" />
  <g transform="translate(-390.57696,9.64424)" id="layer1">
    <path d="M902.67 78.173c54.313 54.306 87.907 129.307 87.907 212.162 0 165.697-134.316 300.02-300.006 300.02-82.835 0-157.83-33.576-212.123-87.876" inkscape:connector-curvature="0" id="path279" style="fill: rgb(193, 215, 233);" />
    <path d="M850.909 492.405c-16.153 16.434-36.049 24.648-59.683 24.648-26.532 0-47.574-9.084-63.144-27.24-14.712-17.304-22.056-39.349-22.056-66.169 0-28.824 12.54-61.687 37.626-98.605 20.46-30.283 44.538-56.803 72.222-79.586-4.038 18.456-6.06 31.573-6.06 39.367 0 17.88 5.622 35.317 16.866 52.327 13.843 20.19 24.367 35.185 31.573 44.977 11.244 17.01 16.866 33.6 16.866 49.734 0 23.94-8.065 44.125-24.211 60.547zm-.433-92.33c-4.326-9.653-9.372-16.08-15.138-19.247.869 1.728 1.29 4.188 1.29 7.356 0 6.06-1.723 14.718-5.18 25.944l-5.627 17.31c0 10.08 5.034 15.132 15.132 15.132 10.662 0 16.008-7.062 16.008-21.192 0-7.206-2.16-15.648-6.486-25.302z" inkscape:connector-curvature="0" id="path283" style="fill: rgb(6, 25, 34);" />
  </g>
</svg>