<?xml version="1.0" encoding="utf-8"?>
<svg xmlns="http://www.w3.org/2000/svg" viewBox="0 0 100 100">
  <g fill="none" fill-rule="evenodd">
    <circle fill="#CAC5C0" cx="50" cy="50" r="50" />
    <path d="M85.35 14.637c9.05 9.05 14.65 21.55 14.65 35.36C100 77.613 77.614 100 50 100c-13.807 0-26.306-5.596-35.355-14.646" fill="#BAB1AB" />
    <path d="M89.62 65.99c0 2.7-.982 4.544-2.947 5.525-.574.287-2.374.678-5.404 1.166-1.964.33-2.947 1.087-2.947 2.272v4.973c0 .21.063.842.184 1.905l.185 1.966c0 .613-.144 1.617-.43 3.008-.778.163-1.68.348-2.702.555-.328-1.23-.49-2.07-.49-2.52 0-.204.05-.513.152-.922.102-.408.154-.716.154-.922 0-.284-.253-1.083-.762-2.394h-.953c-.125.205-.166.47-.126.797.164.696.225 1.288.185 1.78-.698.49-1.658 1.146-2.886 1.965-.29-.082-.39-.123-.308-.123v-4.36c-.08-.202-.285-.284-.614-.245h-.737l-.737 5.77c-.573.042-1.268.042-2.086 0-.287-1.35-.8-3.353-1.535-6.016h-.493c-.45 1.434-.695 2.212-.737 2.335 0 .163.052.48.155.95.1.473.153.788.153.952 0 .122-.042.43-.125.92l-.184 1.476a.425.425 0 0 1-.306.12c-1.228 0-2.048-.307-2.455-.92-.412-.614-.576-1.474-.493-2.58l.493-7.364c0-.124.04-.288.12-.493.083-.203.124-.348.124-.428 0-.33-.35-.985-1.044-1.97-.123-.04-.757-.184-1.904-.43-.695-.162-2.067-.45-4.112-.857-2.825-.53-4.238-2.803-4.238-6.814 0-5.98 2.457-10.95 7.367-14.92.203 1.105.553 2.577 1.044 4.42l2.394.553c.247.08 1.494.532 3.745 1.35-1.145-.694-2.64-1.817-4.48-3.374-.697-.82-1.046-2.192-1.046-4.114 0-.453.778-.982 2.335-1.6 1.39-.572 2.434-.896 3.13-.98 2.21-.285 3.91-.43 5.097-.43 5.114 0 9.25 1.31 12.4 3.932-1.022 1.188-2.783 2.453-5.28 3.806.983.04 2.416-.347 4.3-1.168 1.88-.815 2.68-1.228 2.393-1.228.327 0 .983.656 1.965 1.965.735.982 1.33 1.863 1.78 2.64a23.075 23.075 0 0 1 2.64 7.552c0 .942.02 1.617.062 2.025v.49zm-23.516 1.108c0-1.76-.767-3.43-2.3-5.006-1.537-1.576-3.186-2.363-4.945-2.363-1.556 0-2.926.66-4.114 1.977-1.187 1.32-1.78 2.782-1.78 4.39 0 1.4.675 2.31 2.026 2.72.86.247 2.066.39 3.62.433h3.378c2.743.035 4.114-.682 4.114-2.152zm6.693 7.612v-1.9a61.917 61.917 0 0 1-.858-1.66c-.247-.818-.698-1.964-1.352-3.44l-.676 7.184c0 .576-.122.86-.37.86-.162 0-.286-.04-.367-.122-.287-4.338-.43-6.222-.43-5.646v-2.148c-.082-.126-.184-.188-.307-.188-1.39 1.437-2.086 3.748-2.086 6.938 0 1.76.163 2.845.49 3.257a5.674 5.674 0 0 0 1.107-.43c.162-.084.632-.124 1.41-.124.775 0 1.72.246 2.823.736.41-.003.614-1.105.614-3.316zm13.876-8.556c0-1.646-.614-3.12-1.842-4.418-1.227-1.297-2.64-1.945-4.233-1.945-1.72 0-3.328.788-4.82 2.362-1.496 1.576-2.243 3.224-2.243 4.945 0 1.432.697 2.147 2.088 2.147h7.06c2.66-.04 3.99-1.068 3.99-3.09z" fill="#0D0F0F" />
    <path d="M33 8c1.577 3.134 3.508 6.18 5.798 9.133a58.592 58.592 0 0 0 3.35 3.88 57.477 57.477 0 0 0 4.11 4.002 45.35 45.35 0 0 0 4.944 3.754A45.556 45.556 0 0 0 57 32.005c-3.047 1.612-6.065 3.574-9.067 5.897a57.907 57.907 0 0 0-3.918 3.36 55.063 55.063 0 0 0-3.993 4.15 53.812 53.812 0 0 0-3.758 4.938A47.272 47.272 0 0 0 33 56c-1.526-2.966-3.428-5.897-5.712-8.806-1.96-2.48-4.437-5.085-7.433-7.837-2.99-2.75-6.612-5.198-10.855-7.35 3.053-1.57 6.07-3.508 9.067-5.82 2.557-1.995 5.194-4.487 7.91-7.475C28.7 15.724 31.037 12.16 33 8zm-3.595 33.508c1.436 1.808 2.618 3.638 3.552 5.492 1.217-2.575 2.675-4.783 4.376-6.636 1.707-1.865 3.367-3.42 4.965-4.68A39.334 39.334 0 0 1 48 31.99c-2.647-1.19-4.895-2.644-6.735-4.338-1.85-1.693-3.407-3.33-4.67-4.92A30.673 30.673 0 0 1 32.957 17c-1.21 2.62-2.664 4.863-4.336 6.716-1.683 1.865-3.32 3.41-4.918 4.68A34.24 34.24 0 0 1 18 32c2.646 1.362 4.9 2.895 6.775 4.588 1.874 1.694 3.42 3.34 4.63 4.92z" fill="#000" />
  </g>
</svg>