<?xml version="1.0" encoding="utf-8"?>
<svg xmlns="http://www.w3.org/2000/svg" xmlns:inkscape="http://www.inkscape.org/namespaces/inkscape" version="1.1" width="600" height="500.007" id="svg5614">
  <g transform="translate(-41.263568,-24.637031)" id="layer1">
    <path d="M421.972 24.637c-183.84 8.4 21.265 164.97-82.42 247.5 0 0-.014.028-.027.028a.075.075 0 0 0-.035-.05c-.51.203-.96.44-1.465.644-72.62 29.394-153.475-88.576-155.83 35.38 38.35-57.53 55.835-1.366 118.875-4.886-30.615 40.45-15.605 108.32-66.65 119.365-93.25 20.164-161.485-93.196-155.8-164.346C91.245 100.264 215.07 28.43 338.025 35.834 175.275 3.245 37.31 137.38 41.35 276.52c4.64 159.549 89.285 237.634 219.205 248.124 183.84-8.39-21.265-164.98 82.42-247.5.008 0 .014-.028.028-.028.014.028.02.04.034.05.51-.203.96-.44 1.47-.644 72.615-29.395 153.48 88.574 155.825-35.38-38.345 57.53-55.835 1.365-118.875 4.884 30.615-40.45 15.615-108.32 66.655-119.354 93.255-20.165 161.48 93.185 155.795 164.334-12.615 158.02-136.445 229.845-259.4 222.44 162.75 32.59 300.715-101.545 296.67-240.694-4.635-159.54-89.29-237.615-219.205-248.115z" inkscape:connector-curvature="0" id="path417" />
  </g>
</svg>