<?xml version="1.0" encoding="utf-8"?>
<svg xmlns="http://www.w3.org/2000/svg" viewBox="0 0 100 100">
  <g fill="none" fill-rule="evenodd">
    <circle fill="#CAC5C0" cx="50" cy="50" r="50" />
    <path d="M85.35 14.637c9.05 9.05 14.65 21.55 14.65 35.36C100 77.613 77.613 100 50 100c-13.807 0-26.305-5.596-35.354-14.646" fill="#E49977" />
    <path d="M88.3 74.44c-1.718 4.098-5.13 6.144-10.24 6.144-.937 0-1.952.117-3.044.354-1.64.35-2.458.838-2.458 1.463 0 .194.136.42.41.675.272.254.508.38.703.38-.976 0-.313.028 1.988.087 2.303.06 3.747.09 4.333.09-3.393 1.986-9.07 2.902-17.028 2.75-2.614-.04-4.857-1.19-6.73-3.455-1.834-2.146-2.75-4.54-2.75-7.197 0-2.808.946-5.196 2.84-7.168 1.89-1.97 4.24-2.955 7.05-2.955.623 0 1.453.137 2.486.41 1.034.273 1.727.41 2.077.41 1.444 0 3.24-.596 5.385-1.787 2.146-1.188 3.16-1.783 3.043-1.783-.39 4.098-1.756 6.847-4.097 8.252-1.678.975-2.516 1.93-2.516 2.866 0 .582.35 1.053 1.052 1.403.546.273 1.15.41 1.815.41 1.014 0 2.008-.625 2.984-1.874.975-1.25 1.404-2.38 1.287-3.396-.116-1.17-.037-2.573.235-4.213.077-.47.36-1.043.848-1.727.488-.684.928-1.102 1.317-1.258 0 .35-.127.936-.38 1.755-.254.82-.38 1.427-.38 1.813 0 .858.234 1.52.703 1.99.7-.273 1.324-1.152 1.872-2.634.468-1.13.74-2.224.82-3.276-1.64-.078-3.21-.818-4.71-2.224-1.502-1.405-2.253-2.927-2.253-4.563 0-.273.036-.547.116-.82.232.352.583.898 1.053 1.64.66.976 1.17 1.46 1.52 1.46.468 0 .702-.484.702-1.46 0-1.25-.332-2.38-.995-3.396-.743-1.21-1.7-1.813-2.867-1.813-.548 0-1.366.29-2.458.877-1.093.584-2.088.878-2.983.878-.274 0-1.485-.352-3.63-1.054 3.783-.622 5.676-1.188 5.676-1.696 0-1.324-2.594-2.224-7.783-2.69-.508-.038-1.443-.117-2.809-.235.155-.193 1.268-.408 3.336-.645 1.755-.192 2.983-.29 3.685-.29 9.285 0 15.175 4.507 17.673 13.52.43-.356.645-.952.645-1.78 0-1.07-.312-2.414-.937-4.035-.235-.633-.607-1.582-1.113-2.847 3.198 4.075 4.8 7.938 4.8 11.584 0 1.92-.45 3.664-1.348 5.23-.583 1.058-1.678 2.41-3.276 4.06-1.6 1.645-2.692 2.92-3.278 3.82 2.146-.584 3.55-1.035 4.214-1.348 1.48-.662 2.828-1.658 4.037-2.982 0 .505-.215 1.268-.643 2.28zM62.786 51.442c0 .7-.39 1.148-1.17 1.346l-1.52.23c-.548.273-1.348 1.35-2.4 3.22a142.32 142.32 0 0 0-.527-2.457c-.352.04-.936.35-1.756.938-.35.272-.917.685-1.7 1.23.236-1.404 1.018-2.826 2.343-4.27 1.404-1.602 2.77-2.4 4.096-2.4 1.755-.003 2.633.72 2.633 2.163zm10.182 5.384c0 .663-.36 1.22-1.083 1.667-.722.45-1.434.674-2.135.674-.938 0-1.777-.527-2.517-1.58-.898-1.287-1.814-2.125-2.75-2.518a.965.965 0 0 1 .704-.293c.35 0 .944.273 1.783.818.837.55 1.375.82 1.61.82.195 0 .516-.272.964-.82.448-.545.946-.818 1.493-.818 1.288 0 1.93.686 1.93 2.05z" fill="#0D0F0F" />
    <path d="M33 8c1.577 3.134 3.508 6.18 5.798 9.133a58.592 58.592 0 0 0 3.35 3.88 57.477 57.477 0 0 0 4.11 4.002 45.35 45.35 0 0 0 4.944 3.754A45.556 45.556 0 0 0 57 32.005c-3.047 1.612-6.065 3.574-9.067 5.897a57.907 57.907 0 0 0-3.918 3.36 55.063 55.063 0 0 0-3.993 4.15 53.812 53.812 0 0 0-3.758 4.938A47.272 47.272 0 0 0 33 56c-1.526-2.966-3.428-5.897-5.712-8.806-1.96-2.48-4.437-5.085-7.433-7.837-2.99-2.75-6.612-5.198-10.855-7.35 3.053-1.57 6.07-3.508 9.067-5.82 2.557-1.995 5.194-4.487 7.91-7.475C28.7 15.724 31.037 12.16 33 8zm-3.595 33.508c1.436 1.808 2.618 3.638 3.552 5.492 1.217-2.575 2.675-4.783 4.376-6.636 1.707-1.865 3.367-3.42 4.965-4.68A39.334 39.334 0 0 1 48 31.99c-2.647-1.19-4.895-2.644-6.735-4.338-1.85-1.693-3.407-3.33-4.67-4.92A30.673 30.673 0 0 1 32.957 17c-1.21 2.62-2.664 4.863-4.336 6.716-1.683 1.865-3.32 3.41-4.918 4.68A34.24 34.24 0 0 1 18 32c2.646 1.362 4.9 2.895 6.775 4.588 1.874 1.694 3.42 3.34 4.63 4.92z" fill="#000" />
  </g>
</svg>