<?xml version="1.0" encoding="utf-8"?>
<svg xmlns="http://www.w3.org/2000/svg" width="480" height="486.75" viewBox="0 0 480 486.75" xml:space="preserve">
  <path d="M234.896 485.03c-2.67-2.86-3.364-8.206-5.593-11.66-2.645-4.098-5.89-7.762-8.697-11.74-3.68-5.218-7.88-10.06-11.6-15.263-6.363-8.897-13.588-16.63-21.202-24.468-18.683-19.235-38.196-37.02-60.37-52.2-34.357-23.52-70.772-44.106-109.82-58.76-2.71-1.018 0 0-17.614-8.61 3.325-5.34 23.83-34.407 28.638-42.12 8.028-12.88 13.8-26.964 19.782-40.866 7.616-17.7 14.438-35.82 19.9-54.296 6.975-23.604 12.834-47.55 17.353-71.747C86.93 86.567 94.42 29.51 98.888.315c39.192 11.3 25.75 7.89 34.636 10.185 24.62 6.356 50.45 7.61 75.722 9.556 14.404 1.11 28.678 1 43.104.777 21.448-.33 42.94-1.344 64.203-4.293 10.585-1.468 21.127-3.467 31.478-6.126 8.193-2.104 13.47-3.29 31.033-10.1C381 7.847 400.96 145.3 427.827 208.5c10.624 24.99 42.674 79.875 52.745 92.263-14.32 5.362-71.933 31.84-101.85 49.63-36.742 21.847-71.48 48.622-100.155 80.445-13.532 15.02-24.152 32.606-35.086 49.537-4.265 6.604-5.91 7.5-8.584 4.654zm11.49-54.905c7.624-39.942 29.622-90.766 63.952-147.75 11.58-19.223 33.603-52.214 46.967-70.363 8.287-11.254 10.945-15.403 10.945-17.086 0-1.254-.476-2.405-1.093-2.642-.602-.23-5.917.457-11.813 1.53-36.192 6.577-73.02 8.764-101.648 6.035-12.956-1.236-22.442-2.795-23.514-3.866-.76-.76 2.172-19.29 4.56-28.822 9.984-39.88 33.303-81.786 63.094-113.384 4.59-4.866 8.156-9.034 7.93-9.26-.228-.227-3.052.433-6.277 1.467-37.806 12.116-79.838 13.334-110.1 3.19-4.134-1.385-7.626-2.413-7.763-2.286s.165 4.226.67 9.11c4.745 45.95-17.075 106.186-62.85 173.5-6.884 10.125-20.352 28.228-28.176 37.876-3.155 3.89-4.502 6.084-3.833 6.24.567.13 6.354-1.117 12.86-2.773 18.57-4.727 34.105-7.63 55.33-10.332 16.236-2.067 56.225-1.88 70.124.33 9.04 1.438 21.55 4.21 22.278 4.94.15.15-.213 1.75-.806 3.56-3.145 9.582-7.186 28.637-9.05 42.662-3.58 26.956-3.577 70.348.007 102.375 1.408 12.596 3.906 28.753 4.623 29.913.61.986.93-.272 3.582-14.165z"/>
</svg>
