<?xml version="1.0" encoding="utf-8"?>
<svg xmlns="http://www.w3.org/2000/svg" xmlns:inkscape="http://www.inkscape.org/namespaces/inkscape" version="1.1" width="600" height="600" id="svg5348">
  <g transform="translate(-639.1484,323.92908)" id="layer1">
    <g transform="matrix(6,0,0,6,4419.1484,-2213.917)" id="g357">
      <circle cx="-580" cy="364.99799" r="50" id="circle359" style="fill: rgb(202, 197, 192);" />
    </g>
    <path d="M952.99-286.417v163.476c0 19.56 8.227 29.333 24.703 29.333h4.29v11.19h-86.976v-11.19h5.46c15.936 0 23.88-9.774 23.88-29.334v-107.24c0-19.78-6.87-29.68-20.604-29.68H895v-10.83h3.139c16.99 0 32.369-5.25 46.127-15.727h8.724z" inkscape:connector-curvature="0" id="path361" style="fill: rgb(13, 15, 15);" />
    <path d="m1008.467 159.107-15.024 50.73h-124.92v-10.854c6.072-6.762 19.362-20.4 39.888-40.932 12.379-12.377 24.613-25.427 36.727-39.185 6.072-6.774 10.734-12.612 13.992-17.508 7.24-10.476 10.853-21.21 10.853-32.178 0-10.735-3.33-20.18-9.96-28.34-6.63-8.177-15.186-12.27-25.71-12.27-22.638 0-40.362 15.307-53.178 45.86l-11.202-4.207C885.095 27.323 908.98 5.85 941.65 5.85c16.105 0 29.79 5.47 41.13 16.427 11.323 10.968 16.968 24.492 16.968 40.608 0 20.532-11.79 40.596-35.345 60.174l-24.492 20.273c-15.63 13.104-28.595 25.35-38.837 36.774-.702.678-2.112 2.346-4.194 4.884h65.087c10.008 0 17.604-1.98 22.734-5.95 4.405-3.493 8.743-10.135 12.937-19.92h10.83v-.011z" inkscape:connector-curvature="0" id="path363" style="fill: rgb(13, 15, 15);" />
    <g transform="matrix(6,0,0,6,4419.1484,-2213.917)" id="g365">
      <path d="M-609.268 364.455v-2.91h58.328v2.91h-58.328z" inkscape:connector-curvature="0" id="path367" style="fill: rgb(13, 15, 15);" />
    </g>
  </g>
</svg>