<?xml version="1.0" encoding="utf-8"?>
<svg xmlns="http://www.w3.org/2000/svg" xmlns:inkscape="http://www.inkscape.org/namespaces/inkscape" version="1.1" width="600" height="600" id="svg5311">
  <g transform="translate(-676.2912,132.50048)" id="layer1">
    <g transform="matrix(6,0,0,6,5086.2912,-2022.4884)" id="g349">
      <circle cx="-685" cy="364.99799" r="50" id="circle351" style="fill: rgb(202, 197, 192);" />
    </g>
    <g transform="matrix(6,0,0,6,5086.2912,-2022.4884)" id="g353">
      <path d="M-685.064 360.258c7.19-10.043 15.2-15.068 24.03-15.068 5.886 0 10.593 1.803 14.09 5.393 3.509 3.594 5.265 8.334 5.265 14.225 0 5.895-1.755 10.697-5.263 14.42-3.498 3.725-8.164 5.586-13.965 5.586-8.658 0-16.715-5.02-24.156-15.068-7.621 10.047-15.592 15.068-23.902 15.068-5.89 0-10.592-1.838-14.092-5.518-3.51-3.686-5.264-8.47-5.264-14.355 0-5.89 1.754-10.65 5.264-14.288 3.5-3.635 8.203-5.46 14.092-5.46 8.489-.003 16.45 5.023 23.902 15.066zm-3.764 4.812c-6.756-9.266-13.563-13.902-20.402-13.902-4.07 0-7.316 1.28-9.738 3.832-2.43 2.553-3.635 5.867-3.635 9.938 0 4.068 1.205 7.426 3.635 10.068 2.422 2.643 5.668 3.96 9.738 3.96 6.5 0 13.298-4.632 20.402-13.896zm7.4 0c7.02 9.264 13.9 13.895 20.658 13.895 3.973 0 7.164-1.273 9.543-3.832 2.38-2.553 3.574-5.867 3.574-9.938 0-4.238-1.195-7.643-3.574-10.195-2.379-2.552-5.654-3.832-9.809-3.832-4.156 0-8.057 1.475-11.69 4.418-2.253 1.818-5.149 4.98-8.702 9.484z" inkscape:connector-curvature="0" id="path355" style="fill: rgb(13, 15, 15);" />
    </g>
  </g>
</svg>