<?xml version="1.0" encoding="utf-8"?>
<svg xmlns="http://www.w3.org/2000/svg" xmlns:inkscape="http://www.inkscape.org/namespaces/inkscape" version="1.1" width="600" height="600" id="svg5426">
  <g transform="translate(-664.86264,143.92905)" id="layer1">
    <circle cx="-369.99899" cy="365.13901" r="50" transform="matrix(6,0,0,6,3184.8566,-2034.7631)" id="circle457" style="fill: rgb(201, 196, 190);" />
    <path d="M961.197 422.435c-19.452 19.44-50.988 19.44-70.446 0L698.494 230.177c-19.434-19.452-19.434-51 0-70.452l270.042-270.036c19.458-19.441 51-19.441 70.446-.001L1231.24 81.946c19.445 19.452 19.445 50.988-.001 70.44L961.196 422.435z" inkscape:connector-curvature="0" id="path459" style="fill: rgb(13, 15, 15);" />
    <path d="M1170.453 203.309h-216.03l79.098-56.311c-29.375-23.323-63.383-34.97-101.903-34.97-19.254 0-32.472 3.667-39.528 11.017-7.117 7.362-10.657 20.658-10.657 39.924 0 53.239 27.372 110.04 82.128 170.377l-62.333 63.138c-72.54-88.23-108.774-167.088-108.774-236.568 0-41.556 12.504-74.67 37.614-99.27 25.086-24.588 58.482-36.876 100.002-36.876 50.717 0 105.989 19.279 165.857 57.799l46.356-79.081 28.17 200.819z" inkscape:connector-curvature="0" id="path461" style="fill: rgb(255, 255, 255);" />
  </g>
</svg>