<?xml version="1.0" encoding="utf-8"?>
<svg width="600" height="600" viewBox="0 0 600 600" version="1.1" xmlns="http://www.w3.org/2000/svg" xml:space="preserve" style="fill-rule: evenodd; clip-rule: evenodd; stroke-linejoin: round; stroke-miterlimit: 2;" preserveAspectRatio="xMidYMid meet" zoomAndPan="magnify" contentScriptType="application/ecmascript" contentStyleType="text/css">
  <circle cx="300" cy="300" r="300" style="fill: rgb(171, 139, 215);" />
  <g transform="matrix(1,0,0,1,-156.29,92.5)">
    <path d="M639.8 178.2c54.3 54.3 87.9 129.3 87.9 212.2 0 165.7-134.3 300-300 300-82.8 0-157.8-33.6-212.1-87.9" style="fill: rgb(248, 246, 216); fill-rule: nonzero;" transform="matrix(1,0,0,1,28.57,-182.86)" />
    <path d="M655.7 529c-14.6-13.6-24.3-20.9-29.1-22.1-3.5-.8-6.8 1.2-10 6-3.2 4.8-7.7 6.6-13.6 5.1-2.4-.6-7-2.6-14-6.1-5.6 5.3-8.6 8.8-9.1 10.5-.6 2.4.5 5.6 3.3 9.7s5.4 6.4 7.8 7c1.5.4 3.7.5 6.5.5s4.7.1 5.6.3c2.7.6 2.8 5.8.5 15.6-2.2 9.3-7.8 23.1-16.8 41.4-.4-23.5-3.7-35.9-9.9-37.4-.9-.2-2.8 0-5.8.7-3 .6-5.2.8-6.5.5-6.3-1.5-10.5-8.6-12.8-21.3-10.3-.9-16.5 3-18.6 11.7-1 4.4.1 8.3 3.5 11.9 3.4 3.6 4.9 5.9 4.7 7-1.4 5.9-12.1 12.8-32.1 20.8-10.7 4.3-18 7.4-22.1 9.1 4-3.2 8.2-7.5 12.8-13.1 5.2-6.3 8.2-11.4 9.2-15.4.5-2.2-1.3-5.8-5.3-10.9-4.1-5.1-5.6-9.8-4.5-14.1.9-3.7 3.3-7.9 7.2-12.7-2-3.9-5-6.4-8.9-7.3-8.7-2.1-13.7-.3-15 5.3.9-3.9.2-1-2.1 8.8-1.5 7.2-7.8 9.5-18.8 6.8-8.5-2-22.2-7.4-41.2-16 23.9-.2 36.7-4 38.5-11.4-.2.9 0-1.8.6-8.1.7-6.9 7-11.9 18.6-14.8.4-10.4-3.6-16.7-12-18.7-1.3-.3-4.2 1.4-8.8 5.1-4.6 3.7-8.4 5.2-11.4 4.5-5.2-1.2-10.6-8.5-16.1-21.7-2.6-6.6-6.5-16.3-11.9-29.3 4.4 3.8 8.7 7.6 13.1 11.4 5.8 4.6 10.6 7.4 14.5 8.3 3 .7 6.6-1.2 10.8-5.8 4.2-4.6 8.7-6.3 13.4-5.2.7.2 4.7 2.5 12.1 7 5.6-5.3 8.8-9.5 9.5-12.5.6-2.6-.2-6-2.6-10.1-2.3-4.1-4.8-6.5-7.4-7.1-1.1-.3-2.8-.3-5.3-.2-2.4.1-4.2 0-5.3-.2-3.9-.9-4.7-6.3-2.4-16 .6-2.6 6.7-16.9 18.1-42.7-1 3.2-1 9.6-.1 19.2 1.1 11.7 4.1 18.2 9.1 19.4.9.2 2.8 0 5.7-.7 2.9-.7 5.1-.8 6.6-.5 5 1.2 8.4 5 10.3 11.4l2.8 9.9c4.5 1.1 8.7.4 12.5-2.1 3.8-2.5 6.3-6.1 7.4-10.6 1.1-4.8 0-8.9-3.4-12.3-3.4-3.5-5-5.8-4.6-7.1 1.1-4.5 10.1-10.5 27-17.9 13.6-5.9 22.3-9.2 26.1-9.9-12.3 10.4-19.2 18.4-20.6 24.3-.7 3 .3 6.7 3.2 11.1 3.6 5.2 5.5 8.8 5.7 10.6 1 5.5-.9 12.3-5.5 20.3 4.9 5.5 8.8 8.6 11.9 9.4 6.3 1.5 10.2-1 11.7-7.5.2-.7.4-2.8.7-6.4.3-3.6.6-5.6.9-6 1.6-2.8 7.9-2.9 19-.3 6.9 1.7 20.9 7.1 41.8 16.2-5.1.2-12.7.4-22.9.7-9.3.5-14.3 2.4-15.1 5.7-.4 1.5-.4 4.2-.2 8.2.2 3.9.1 6.8-.3 8.5-.7 3-3.4 5.4-7.9 7.1l-12.9 5.2c1.5 5.4 2.5 8.6 3.2 9.7 1.6 3.1 4.2 5.1 7.8 6 2.6.6 5.5-1.1 8.8-5.1 3.3-4 7.3-5.5 12-4.3 5.9 1.4 11.2 8.4 15.9 21 2.7 7.1 6.9 17.8 12.6 32.2m-67.6-36.1c3.3-13.9 1.1-27.1-6.6-39.7-7.8-12.6-18.6-20.6-32.4-23.9-14.1-3.4-27.4-1.2-40 6.4-12.6 7.6-20.7 18.5-24.3 32.5-3.5 13.8-1.3 27 6.8 39.6 8.1 12.6 19.1 20.6 33 23.9 14.7 3.5 28.2 1.6 40.4-5.6 12.2-7.3 19.9-18.3 23.2-33.1m-4.9-1.2c-3.2 13.2-10.2 23.1-21.2 29.6-11 6.5-23.1 8.2-36.3 5.1-12.8-3.1-22.7-10.1-29.6-21.2-7-11.1-8.9-23-5.9-35.8 3-12.6 10.2-22.3 21.6-29 11.4-6.8 23.3-8.7 35.9-5.7 12.6 3 22.4 10.2 29.4 21.5s9.1 23.2 6.1 35.5" style="fill: rgb(33, 29, 21); fill-rule: nonzero;" transform="matrix(1,0,0,1,28.57,-182.86)" />
    <path d="M-52.703 176.592c-.486-.084-2.298-.33-4.028-.545-7.018-.876-15.807-3.768-23.124-7.61-6.187-3.246-7.292-4.45-2.992-3.258 13.726 3.805 31.992-1.64 46.58-13.884 7.953-6.674 12.396-13.07 14.398-20.72 2.89-11.042 1.786-18.535-3.828-26.004-2.158-2.87-4.536-4.726-8.818-6.878-2.944-1.48-3.404-1.82-2.87-2.12.377-.21 1.526-.26 2.802-.12 6.94.764 12.7 3.824 18.424 9.79 6.27 6.534 10.745 15.45 12.162 24.222.54 3.34.457 10.03-.16 12.93-2.764 12.99-11.01 23.936-22.266 29.547-6.198 3.09-12.223 4.492-20.108 4.677-2.91.07-5.688.056-6.173-.028zM-81.63 150.64c-3.6-.272-5.225-.636-9.373-2.1-14.745-5.2-24.403-16.283-27.726-31.816-1-4.683-1.102-14.833-.2-20.014a75.808 75.808 0 0 1 7.55-22.212c3.248-6.187 4.452-7.292 3.26-2.99-3.22 11.61.112 26.466 8.965 39.978 7.095 10.827 15.772 18.18 24.4 20.67 11.476 3.314 19.558 2.276 27.242-3.5 2.87-2.158 4.726-4.536 6.878-8.818 1.515-3.012 1.816-3.413 2.134-2.844.55.983-.283 6.53-1.4 9.327-1.685 4.22-3.645 7.09-7.512 10.996-4.167 4.21-7.63 6.68-12.843 9.164-7.076 3.37-14 4.718-21.376 4.16zm92.166-8.334c.095-.533.448-2.16.784-3.616 1.4-6.054.603-15.13-2-22.754-4.634-13.578-15.35-27.458-25.687-33.27-4.794-2.695-12.937-4.487-19.15-4.215-6.598.29-11.656 2.537-16.487 7.324-2.188 2.167-3.03 3.348-4.655 6.526-1.8 3.522-2.005 3.792-2.224 2.92-.387-1.54.43-6.37 1.58-9.354 4.234-10.98 16.786-20.598 30.736-23.555 8.395-1.778 16.814-.55 25.47 3.717 16.698 8.232 25.4 25.56 23.164 46.13-1.094 10.07-5.22 21.892-10.582 30.326-.69 1.084-1.157.998-.948-.177zM-64.17 115.86c-6.167-.852-12.233-4.3-17.6-10.005-5.99-6.368-10.09-14.46-11.696-23.08-.89-4.777-.572-12.32.7-16.58 3.797-12.727 11.453-21.948 22.57-27.187 14.716-6.935 34.473-5.44 52.404 3.966 6.186 3.245 7.293 4.45 2.992 3.258-9.684-2.685-21.143-.956-32.974 4.974-11.774 5.902-22.232 15.58-26.134 24.188-1.31 2.888-2.67 8.14-3.17 12.252-.876 7.16.803 13.44 5.128 19.193 2.157 2.868 4.536 4.725 8.81 6.873 2.553 1.284 3.36 1.843 2.997 2.073-.5.318-2.06.346-4.026.075z" style="fill: rgb(33, 29, 21); fill-rule: nonzero;" transform="matrix(1.63436,0,0,1.67005,444.927,-87.0378)" />
  </g>
</svg>