<?xml version="1.0" encoding="utf-8"?>
<svg id="Layer_1" data-name="Layer 1" xmlns="http://www.w3.org/2000/svg" viewBox="0 0 200.651 200">
  <defs>
    <style>.cls-1 { fill: rgb(165, 207, 197); }.cls-2 { fill: rgb(155, 194, 185); }.cls-3 { fill: rgb(157, 197, 188); }.cls-4 { fill: rgb(156, 196, 187); }.cls-5 { fill: rgb(186, 186, 186); }.cls-6 { fill: rgb(160, 200, 190); }.cls-7 { fill: rgb(252, 252, 216); }.cls-8 { fill: none; }.cls-9 { fill: rgb(151, 189, 180); }.cls-10 { fill: rgb(183, 183, 183); }</style>
  </defs>
  <path d="M121.741 22.98c-.183.31-5.818 1.86-5.984 4.008 7.524.323 7.095-6.356 12.809.692 5.286 6.52 9.587 18.892 6.407 27.06-2.722 6.992-15.857 4.999-17.728 8.25-2.096 3.644 1.265 20.675-1.413 22.583-8.26 5.033-2.075-15.762-8.062-10.565-.39.339 2.546 6.881-4.99 6.986l-.517-8c-4.902 1.034.293 12.326-5.966 11.014-1.744-.365-1.446-10.054-4.496-11.007-1.92 3.685 1.608 14.155-3.998 11.49-6.611-3.144.739-17.461-2.07-21.841-3.263-5.09-15.87-.649-18.44-10.624-2.858-11.093 3.417-24.073 12.017-31.02 1.486 6.683 1.936 8.83 9.482 8.983-25.84-23.296 38.215-16.89 32.951-8.01zM79.516 39.219c-6.823 1.583-11.773 14.445-.205 15.772 28.608 3.28 12.6-18.652.205-15.773zm49.982 14.54c6.29-6.325-6.25-22.456-17.388-11.41-15.759 15.625 14.358 14.458 17.387 11.41zm-28.71 12.233-1.505-13.987c-4.056 4.592-4.15 11.334-3.033 17.051l10.512.945c.449-5.91-.066-12.227-3.979-16.996l-1.996 12.987z" />
  <path d="M175.993 102.702c.35.472 2.54.352 3.634 1.886 1.616 2.265-.235 4.502.164 5.24.272.502 4.358 1.602 5.424 5.12 1.186 3.913-.32 6.603-.038 9.559.214 2.236 3.201 3.45 1.768 7.19-2.95 7.695-8.892.458-11.663.218-8.21-.712-16.808 1.33-17.573 10.582-1.12 13.56 3.37 9.506 12.68 12.353 1.644.504 2.783-.732 2.293 2.144l-4.983.018 1.986 2.982c-1.787.857-8.41-1.47-8.979-.994-.467.392 1.147 3.67-1.51 3.02-3.588-.192-6.408-7.936-8.502-.028-2.519 1.525-3.121-7.901-8.956.007.557-8.4-8.185-3.997-13.99-5.012 6.94-8.05 17.055-.392 14.992-13.513-.771-4.904-5.14-8.565-9.98-9.108-3.269-.367-7 10.216-15.092 4.217-7.47-5.538-1.409-10.456-1.079-13.26.179-1.516-3.067-3.943-1.391-9.415.95-3.106 3.37-1.86 4.63-3.593 3.052-4.197-.045-10.534 3.33-14.415 4.835-5.559 9.863-.504 11.975-1.028 2.056-.51 3.042-10.203 14.748-9.308 5.848.447 7.293 4.736 9.55 5.294 3.146.776 5.033-2.13 10.174.736 4.02 2.242 4.24 6.21 6.391 9.106zm-27.283 10.293c-2.3-2.494-4.535 2.548-.489 5 .836-.518.66-4.816.49-5zm13.992 2.025-4.987-2.02v9c2.867-1.25 4.03-4.244 4.987-6.98zm-20.978 5.968c-1.519-3.49-3.869-3.225-6.983-1.973l6.984 1.973zm24.963 4.008-6.98 3.992c3.97-.878 9.653.685 6.98-3.992zM143.71 134c.766-7.268-6.432-7.428-11.968-6.988L143.71 134z" />
  <path class="cls-8" d="M48.593 110.234c-17.643 2.604-15.892 33.423 7.503 28.53 15.528-3.25 12.49-31.48-7.503-28.53z" />
  <path class="cls-8" d="M77.467 117.097c-.517.179-6.803 8.566-8.544 1.22-.84-3.549 4.038-3.345 4.76-6.027.633-2.355-1.79-4.984-.426-7.296 1.373-2.329 7.236-1.75 8.535-3.983-3.624.918-15.32-3.443-16.836.626-.657 1.765.448 4.927-.273 6.217-1.04 1.864-6.516.328-7.33-1.784-.43-1.118.856-3.57.063-6.107C55.937 95.228 50.14 95.586 54.82 87c-.505-.62-12.328 8.567-10.96 10.967.36.632 6.113.814 3.46 7.002-3.37 7.861-7.367-1.304-9.18-1.834-2.487-.727-4.418 1.406-6.813-.02-3.134-1.867-2.184-6.3-4.45-8.11.74 4.33-3.234 10.817-1.344 14.774.912 1.911 12.232.82 8.605 7.954-2.293 4.511-5.732.283-8.576 2.159-1.533 1.01-.98 3.75-2.361 4.165-3.28.983-8.648-2.594-9.318-2.047 1.903 3.575 6.648 12.067 11.26 10.848 3.142-.83 5.188-8.83 9.603.822.333 1.933-3.134 1.872-4.184 4.614-1.494 3.905 1.73 9.233-7.688 9.718-1.633 1.898 13.254 4.054 14.863 1.875.831-1.126-.946-6.06 1.052-7.45.907-.63 6.81-.687 7.059-.435.674.687-.991 5.248-.573 7.047.962 4.13 8.703 5.672 1.576 13.457.03 2.466 12.657-7.5 12.052-10.904-.094-.525-7.75-4.991-2.382-8.671 5.046-3.46 5.277 3.208 8.006 3.947 2.354.637 4.155-1.806 6.836.02 2.467 1.678 2.336 6.513 4.431 8.094.03-2.719 2.793-14.508.902-15.887-1.046-.763-11.493.696-8.146-6.854 1.641-3.705 4.297-.287 7.576-1.395 2.016-.682 2.016-4.52 5.209-4.885 3.218-.37 5.49 3.556 8.447 2.533-2.824-2.868-7.521-13.066-12.315-11.409zM44.16 140.185c-16.792-7.064-10.783-32.64 7.176-32.638 26.202.004 19.948 44.049-7.176 32.638z" />
  <path class="cls-7" d="M13.882 50C7.31 61.434 2.832 73.58.898 87c-1.025 7.111-1.358 16.889 0 26 5.44 34.99 27.617 63.764 58.386 78.032 12.295 5.702 25.715 8.566 39.263 8.911l2.227.057V100L13.882 50zm67.453 75.973c-3.193.366-3.193 4.203-5.21 4.885-3.278 1.108-5.934-2.31-7.576 1.395-3.348 7.55 7.099 6.091 8.145 6.854 1.89 1.38-.871 13.168-.902 15.887-2.095-1.58-1.964-6.416-4.43-8.095-2.682-1.826-4.483.617-6.837-.02-2.729-.74-2.96-7.407-8.006-3.948-5.369 3.68 2.288 8.146 2.382 8.67.605 3.404-12.022 13.37-12.053 10.905 7.126-7.785-.615-9.327-1.577-13.458-.418-1.8 1.247-6.36.573-7.048-.248-.252-6.152-.196-7.06.435-1.997 1.39-.22 6.324-1.05 7.45-1.61 2.179-16.497.023-14.864-1.875 9.418-.485 6.194-5.813 7.689-9.718 1.05-2.742 4.518-2.681 4.185-4.614-4.415-9.653-6.46-1.652-9.603-.822-4.612 1.219-9.357-7.273-11.26-10.847.67-.546 6.037 3.031 9.319 2.048 1.383-.414.83-3.154 2.362-4.165 2.844-1.876 6.283 2.352 8.576-2.16 3.627-7.134-7.693-6.042-8.605-7.953-1.89-3.957 2.084-10.443 1.344-14.774 2.266 1.81 1.316 6.243 4.45 8.11 2.395 1.426 4.326-.707 6.813.02 1.813.53 5.81 9.695 9.18 1.833 2.653-6.189-3.1-6.371-3.46-7.003-1.368-2.4 10.455-11.586 10.96-10.966-4.681 8.586 1.117 8.228 2.596 12.963.793 2.538-.494 4.99-.063 6.106.814 2.11 6.29 3.647 7.33 1.783.72-1.29-.384-4.452.273-6.217 1.516-4.069 13.212.292 16.836-.625-1.299 2.235-7.162 1.655-8.535 3.984-1.363 2.312 1.06 4.94.426 7.296-.722 2.682-5.6 2.478-4.76 6.026 1.741 7.347 8.027-1.04 8.544-1.219 4.794-1.657 9.49 8.54 12.315 11.409-2.958 1.023-5.229-2.903-8.447-2.533z" />
  <path class="cls-7" d="M51.336 107.547c-17.96-.002-23.968 25.574-7.176 32.638 27.124 11.41 33.378-32.634 7.176-32.638zm4.76 31.216c-23.395 4.894-25.146-25.925-7.503-28.529 19.993-2.95 23.031 25.28 7.503 28.53z" />
  <path class="cls-8" d="M115.756 26.989c.166-2.15 5.801-3.7 5.985-4.01 5.265-8.88-58.79-15.286-32.951 8.009-7.547-.154-7.997-2.3-9.483-8.984-8.6 6.947-14.875 19.927-12.017 31.02 2.57 9.975 15.177 5.534 18.44 10.623 2.809 4.379-4.541 18.696 2.07 21.84 5.606 2.665 2.078-7.805 3.998-11.489 3.05.954 2.752 10.643 4.496 11.008 6.26 1.312 1.064-9.98 5.967-11.014l.518 8c7.536-.105 4.6-6.647 4.99-6.986 5.987-5.197-.198 15.598 8.063 10.565 2.68-1.908-.682-18.94 1.414-22.583 1.871-3.251 15.006-1.258 17.728-8.25 3.18-8.168-1.12-20.54-6.407-27.06-5.714-7.048-5.285-.37-12.809-.691zM79.31 54.99c-11.568-1.327-6.618-14.189.205-15.773 12.396-2.88 28.404 19.053-.205 15.772zm27.452 15.01-10.513-.945c-1.118-5.717-1.024-12.459 3.032-17.051l1.505 13.987 1.996-12.987c3.914 4.77 4.428 11.086 3.979 16.996zm22.735-16.241c-3.03 3.048-33.146 4.215-17.388-11.41 11.138-11.046 23.676 5.085 17.387 11.41z" />
  <path class="cls-5" d="M103.087 0h-3.769c-25.913 0-50.914 10.157-69.07 28.645-6.52 6.638-12.1 13.935-16.366 21.355l86.892 50 86.893-50c-8.777-15.267-20.058-27.106-33.74-35.711-15.184-9.551-32.902-14.29-50.84-14.29zm31.885 54.74c-2.722 6.992-15.857 4.999-17.728 8.25-2.096 3.644 1.265 20.675-1.413 22.583-8.26 5.033-2.075-15.762-8.062-10.565-.39.339 2.546 6.881-4.99 6.986l-.517-8c-4.902 1.034.293 12.326-5.966 11.014-1.744-.365-1.446-10.054-4.496-11.007-1.92 3.685 1.608 14.155-3.998 11.49-6.611-3.143.739-17.461-2.07-21.841-3.263-5.09-15.87-.649-18.44-10.624-2.858-11.093 3.417-24.073 12.017-31.02 1.486 6.683 1.936 8.83 9.482 8.983-25.84-23.296 38.215-16.89 32.951-8.01-.183.31-5.818 1.86-5.984 4.009 7.524.321 7.095-6.358 12.809.69 5.286 6.52 9.587 18.892 6.407 27.06z" />
  <path class="cls-5" d="M112.11 42.35c-15.759 15.625 14.358 14.458 17.387 11.41 6.29-6.325-6.25-22.456-17.388-11.41z" />
  <path class="cls-5" d="M79.515 39.219c-6.823 1.583-11.773 14.445-.205 15.772 28.609 3.28 12.6-18.652.205-15.773z" />
  <path class="cls-10" d="m100.787 65.993-1.505-13.987c-4.056 4.592-4.15 11.334-3.033 17.051l10.512.945c.449-5.91-.065-12.227-3.979-16.996l-1.996 12.987z" />
  <path class="cls-8" d="M185.214 114.948c-1.067-3.518-5.152-4.618-5.423-5.12-.397-.738 1.453-2.975-.163-5.24-1.093-1.534-3.283-1.414-3.634-1.886-2.152-2.897-2.37-6.864-6.39-9.106-5.142-2.867-7.03.04-10.175-.736-2.257-.558-3.702-4.847-9.55-5.294-11.706-.895-12.692 8.799-14.747 9.308-2.11.524-7.139-4.53-11.973 1.028-3.376 3.881-.28 10.218-3.331 14.415-1.26 1.733-3.68.487-4.63 3.592-1.676 5.471 1.57 7.898 1.391 9.414-.33 2.804-6.39 7.722 1.08 13.26 8.09 6 11.822-4.584 15.092-4.217 4.839.543 9.207 4.204 9.978 9.108 2.063 13.121-8.05 5.463-14.991 13.513 5.804 1.015 14.546-3.39 13.99 5.01 5.834-7.907 6.436 1.519 8.955-.006 2.094-7.908 4.914-.164 8.502.027 2.657.65 1.043-2.628 1.51-3.02.568-.476 7.191 1.851 8.98.994l-1.987-2.982 4.983-.018c.49-2.876-.649-1.64-2.294-2.144-9.308-2.847-13.8 1.206-12.679-12.353.765-9.252 9.363-11.294 17.574-10.582 2.772.24 8.714 7.477 11.664-.219 1.433-3.738-1.554-4.953-1.768-7.19-.282-2.955 1.224-5.645.038-9.558zm-43.49 6.04-6.983-1.973c3.115-1.252 5.465-1.517 6.984 1.973zM143.71 134l-11.968-6.988c5.536-.44 12.734-.28 11.968 6.988zm4.511-16.005c-4.045-2.452-1.81-7.494.49-5 .17.184.346 4.482-.489 5zm9.495 4.005v-9l4.987 2.02c-.957 2.736-2.12 5.73-4.987 6.98zm1.992 6.988 6.98-3.992c2.673 4.677-3.01 3.114-6.98 3.992z" />
  <path class="cls-1" d="m187.667 50-86.893 50v100h.157c18.419 0 36.607-4.857 52.22-14.626 13.535-8.468 24.942-19.996 33.432-33.617 9.36-15.016 14.069-32.468 14.069-50.162V98.34c0-16.67-4.292-33.064-12.533-47.554a195.05 195.05 0 0 0-.45-.786zm-.723 81.696c-2.95 7.696-8.892.459-11.663.219-8.21-.712-16.808 1.33-17.573 10.582-1.12 13.56 3.37 9.506 12.68 12.353 1.644.504 2.783-.732 2.293 2.144l-4.983.018 1.986 2.982c-1.788.857-8.41-1.47-8.979-.994-.467.392 1.147 3.67-1.51 3.02-3.588-.192-6.408-7.936-8.502-.028-2.519 1.525-3.121-7.901-8.956.007.557-8.4-8.185-3.997-13.99-5.012 6.941-8.05 17.055-.392 14.992-13.513-.771-4.904-5.14-8.565-9.98-9.108-3.269-.367-7 10.216-15.092 4.217-7.47-5.538-1.409-10.456-1.079-13.26.179-1.516-3.067-3.943-1.391-9.415.95-3.106 3.37-1.86 4.63-3.593 3.052-4.197-.045-10.534 3.33-14.415 4.835-5.559 9.863-.504 11.975-1.028 2.056-.51 3.042-10.203 14.748-9.308 5.848.447 7.293 4.736 9.55 5.294 3.146.776 5.033-2.13 10.174.736 4.02 2.242 4.24 6.21 6.391 9.106.35.472 2.54.352 3.634 1.886 1.616 2.265-.234 4.502.164 5.24.272.502 4.358 1.602 5.424 5.12 1.186 3.913-.32 6.603-.038 9.559.214 2.236 3.201 3.45 1.768 7.19z" />
  <path class="cls-9" d="M131.742 127.012 143.71 134c.766-7.268-6.432-7.428-11.968-6.988z" />
  <path class="cls-4" d="M157.715 113v9c2.867-1.25 4.03-4.244 4.987-6.98l-4.987-2.02z" />
  <path class="cls-6" d="M159.707 128.988c3.97-.878 9.653.685 6.98-3.992l-6.98 3.992z" />
</svg>