<?xml version="1.0" encoding="utf-8"?>
<svg id="Layer_1" data-name="Layer 1" xmlns="http://www.w3.org/2000/svg" viewBox="0 0 200.387 200">
  <defs>
    <style>.cls-1 { fill: rgb(168, 223, 248); }.cls-2 { fill: rgb(157, 197, 188); }.cls-3 { fill: rgb(183, 183, 183); }</style>
  </defs>
  <path d="M156.43 93c-8.814 22.38 25.047 33.913 11.834 55.337-10.2 16.539-34.759 11.416-37.525-8.098-2.6-18.332 12.896-36.117 25.69-47.24zm6.982 32.01c-.145-.117-2.097-.368-1.983.493l-1.565 14.557c10.893 5.581 7.645-11.74 3.547-15.05z" />
  <path d="M125.791 27.702c.352.472 2.542.352 3.635 1.886 1.616 2.265-.235 4.502.163 5.24.272.502 4.357 1.602 5.424 5.12 1.185 3.913-.32 6.603-.038 9.559.213 2.236 3.2 3.45 1.768 7.19-2.95 7.695-8.892.458-11.664.218-8.21-.712-16.808 1.33-17.573 10.582-1.121 13.56 3.37 9.506 12.679 12.353 1.645.504 2.784-.732 2.293 2.144l-4.982.018 1.986 2.982c-1.787.857-8.41-1.47-8.978-.994-.467.392 1.147 3.67-1.51 3.02-3.589-.192-6.408-7.936-8.502-.028-2.52 1.525-3.121-7.901-8.956.007.557-8.4-8.185-3.997-13.99-5.012 6.94-8.05 17.055-.392 14.992-13.513-.772-4.904-5.14-8.565-9.98-9.108-3.27-.367-7 10.216-15.092 4.217-7.47-5.538-1.409-10.456-1.079-13.26.178-1.516-3.067-3.943-1.392-9.415.951-3.106 3.37-1.86 4.63-3.593 3.052-4.197-.044-10.534 3.332-14.415 4.834-5.559 9.862-.504 11.974-1.028 2.054-.51 3.04-10.203 14.746-9.308 5.848.447 7.293 4.736 9.55 5.294 3.146.776 5.033-2.13 10.174.736 4.02 2.242 4.24 6.21 6.391 9.106zM98.51 37.995c-2.3-2.494-4.535 2.548-.49 5 .835-.518.66-4.816.49-5zM112.5 40.02 107.513 38v9c2.867-1.25 4.03-4.244 4.987-6.98zM91.52 45.988c-1.517-3.49-3.867-3.225-6.981-1.973l6.981 1.973zm24.965 4.008-6.98 3.992c3.97-.878 9.652.685 6.98-3.992zM93.508 59c.765-7.268-6.433-7.428-11.968-6.988L93.508 59z" />
  <path d="M71.539 97.98c-.185.31-5.82 1.86-5.986 4.008 7.524.323 7.095-6.356 12.809.692 5.286 6.52 9.587 18.892 6.407 27.06-2.722 6.992-15.857 4.999-17.728 8.25-2.096 3.644 1.265 20.675-1.413 22.583-8.262 5.033-2.077-15.762-8.064-10.565-.39.339 2.545 6.881-4.99 6.986l-.517-8c-4.904 1.034.291 12.326-5.968 11.014-1.744-.365-1.446-10.054-4.496-11.007-1.92 3.685 1.608 14.155-3.998 11.49-6.611-3.144.738-17.461-2.07-21.841-3.263-5.09-15.87-.649-18.44-10.624-2.858-11.093 3.417-24.073 12.016-31.02 1.487 6.683 1.936 8.83 9.483 8.983-25.839-23.296 38.216-16.89 32.952-8.01zm-42.227 16.239c-6.824 1.583-11.773 14.445-.205 15.772 28.608 3.28 12.6-18.652.205-15.773zm49.982 14.54c6.289-6.325-6.25-22.456-17.388-11.41-15.758 15.625 14.358 14.458 17.388 11.41zm-28.71 12.233-1.505-13.987c-4.056 4.592-4.15 11.334-3.033 17.051l10.513.945c.448-5.91-.066-12.227-3.979-16.996l-1.995 12.987z" />
  <path class="cls-1" d="m187.403 50-86.893 50v100l2.68-.1c16.654-.617 33.026-5.028 47.43-13.409 14.476-8.42 26.647-20.268 35.598-34.573 9.455-15.11 14.169-32.705 14.169-50.53v-2.853c0-16.797-4.312-33.325-12.631-47.918l-.353-.616zm-19.14 98.337c-10.199 16.539-34.758 11.416-37.524-8.098-2.6-18.332 12.896-36.117 25.69-47.24-8.814 22.38 25.047 33.913 11.834 55.337z" />
  <path class="cls-1" d="M163.412 125.01c-.145-.117-2.097-.368-1.983.493l-1.565 14.557c10.893 5.581 7.645-11.74 3.547-15.05z" />
  <path class="cls-2" d="M102.672 0h-3.499C73.183 0 48.091 10.168 29.9 28.73 23.417 35.345 17.866 42.612 13.618 50l86.892 50 86.893-50c-8.284-14.41-18.798-25.765-31.457-34.23C140.228 5.258 121.58 0 102.672 0zm34.07 56.696c-2.95 7.696-8.892.459-11.663.219-8.212-.712-16.81 1.33-17.575 10.582-1.121 13.56 3.37 9.506 12.679 12.353 1.645.504 2.784-.732 2.293 2.144l-4.982.018 1.986 2.982c-1.787.857-8.41-1.47-8.978-.994-.467.392 1.147 3.67-1.51 3.02-3.589-.192-6.408-7.936-8.502-.028-2.52 1.525-3.121-7.901-8.956.007.557-8.4-8.185-3.997-13.99-5.012 6.94-8.05 17.055-.392 14.992-13.513-.772-4.904-5.14-8.565-9.98-9.108-3.27-.367-7 10.217-15.092 4.217-7.47-5.538-1.409-10.456-1.079-13.26.178-1.516-3.067-3.943-1.392-9.415.951-3.106 3.37-1.86 4.63-3.593 3.052-4.197-.044-10.534 3.332-14.415 4.834-5.559 9.862-.504 11.974-1.028 2.054-.51 3.04-10.203 14.746-9.308 5.848.447 7.293 4.736 9.55 5.294 3.146.776 5.033-2.13 10.174.736 4.02 2.242 4.24 6.21 6.391 9.106.352.472 2.542.352 3.635 1.886 1.616 2.265-.235 4.502.163 5.24.272.502 4.357 1.602 5.424 5.12 1.185 3.913-.32 6.603-.038 9.559.213 2.236 3.2 3.45 1.768 7.19z" />
  <path class="cls-2" d="M81.54 52.012 93.508 59c.765-7.268-6.433-7.428-11.968-6.988z" />
  <path class="cls-2" d="M107.513 38v9c2.867-1.25 4.03-4.244 4.987-6.98L107.513 38z" />
  <path class="cls-2" d="M109.505 53.988c3.97-.878 9.652.685 6.98-3.992l-6.98 3.992z" />
  <path class="cls-2" d="m84.539 44.015 6.981 1.973c-1.517-3.49-3.867-3.225-6.981-1.973z" />
  <path class="cls-2" d="M98.019 42.995c.833-.518.658-4.816.488-5-2.3-2.494-4.535 2.548-.49 5z" />
  <path class="cls-3" d="M13.618 50C7.045 61.434 1.898 73.5.634 87c-.774 8.272-.914 18.667 0 26 5.293 34.045 26.43 62.063 55.91 76.633 12.66 6.257 26.573 9.56 40.68 10.215l3.286.152V100L13.618 50zm71.152 79.74c-2.722 6.992-15.857 4.999-17.728 8.25-2.096 3.644 1.265 20.675-1.413 22.583-8.262 5.033-2.077-15.762-8.064-10.565-.39.339 2.545 6.881-4.99 6.986l-.517-8c-4.904 1.034.291 12.326-5.968 11.014-1.744-.365-1.446-10.054-4.496-11.007-1.92 3.685 1.608 14.155-3.998 11.49-6.611-3.144.738-17.461-2.07-21.841-3.263-5.09-15.87-.649-18.44-10.624-2.858-11.093 3.417-24.073 12.016-31.02 1.487 6.683 1.936 8.83 9.483 8.983-25.839-23.296 38.216-16.89 32.952-8.01-.185.31-5.82 1.86-5.986 4.009 7.524.32 7.095-6.358 12.809.69 5.286 6.52 9.587 18.892 6.407 27.06z" />
  <path class="cls-3" d="M61.907 117.35c-15.758 15.625 14.358 14.458 17.388 11.41 6.289-6.325-6.25-22.456-17.388-11.41z" />
  <path class="cls-3" d="M29.313 114.219c-6.824 1.583-11.773 14.445-.205 15.772 28.608 3.28 12.6-18.652.205-15.773z" />
  <path class="cls-3" d="m50.585 140.993-1.505-13.987c-4.056 4.592-4.15 11.334-3.033 17.051l10.513.945c.448-5.91-.066-12.227-3.979-16.996l-1.995 12.987z" />
</svg>