<?xml version="1.0" encoding="utf-8"?>
<svg id="Layer_1" data-name="Layer 1" xmlns="http://www.w3.org/2000/svg" viewBox="0 0 200.409 200">
  <defs>
    <style>.cls-1 { fill: rgb(168, 223, 248); }.cls-2 { fill: rgb(157, 197, 188); }.cls-3 { fill: rgb(252, 252, 216); }</style>
  </defs>
  <path d="M56.575 93c-8.814 22.38 25.047 33.913 11.834 55.337-10.2 16.539-34.76 11.416-37.526-8.098-2.599-18.332 12.898-36.117 25.691-47.24zm6.982 32.01c-.144-.117-2.097-.368-1.983.493L60.01 140.06c10.893 5.581 7.646-11.74 3.547-15.05z" />
  <path d="M125.813 27.702c.35.472 2.54.352 3.634 1.886 1.615 2.265-.235 4.502.163 5.24.271.502 4.357 1.602 5.423 5.12 1.186 3.913-.32 6.603-.037 9.559.213 2.236 3.2 3.45 1.767 7.19-2.95 7.695-8.89.458-11.663.218-8.21-.712-16.808 1.33-17.573 10.582-1.121 13.56 3.37 9.506 12.679 12.353 1.645.504 2.784-.732 2.293 2.144l-4.983.018 1.986 2.982c-1.788.857-8.411-1.47-8.98-.994-.467.392 1.147 3.67-1.51 3.02-3.588-.192-6.407-7.936-8.501-.028-2.52 1.525-3.122-7.901-8.956.007.557-8.4-8.185-3.997-13.99-5.012 6.94-8.05 17.055-.392 14.991-13.513-.77-4.904-5.139-8.565-9.979-9.108-3.27-.367-7 10.216-15.092 4.217-7.47-5.538-1.41-10.456-1.08-13.26.18-1.516-3.066-3.943-1.39-9.415.95-3.106 3.37-1.86 4.63-3.593 3.051-4.197-.045-10.534 3.33-14.415 4.835-5.559 9.863-.504 11.975-1.028 2.056-.51 3.041-10.203 14.748-9.308 5.847.447 7.293 4.736 9.55 5.294 3.146.776 5.032-2.13 10.174.736 4.02 2.242 4.24 6.21 6.39 9.106zM98.53 37.995c-2.301-2.494-4.535 2.548-.49 5 .835-.518.66-4.816.49-5zm13.991 2.025L107.536 38v9c2.867-1.25 4.03-4.244 4.986-6.98zm-20.977 5.968c-1.518-3.49-3.868-3.225-6.982-1.973l6.983 1.973zm24.964 4.008-6.98 3.992c3.97-.878 9.652.685 6.98-3.992zM93.53 59c.765-7.268-6.433-7.428-11.969-6.988L93.531 59z" />
  <path class="cls-1" d="M13.64 50C7.066 61.434 1.92 73.5.656 87c-.774 8.272-.97 18.111 0 26 5.44 34.99 27.617 63.574 58.385 77.756 11.848 5.46 24.71 8.369 37.738 9.048l3.754.196V100L13.64 50zm54.77 98.337c-10.2 16.539-34.76 11.416-37.526-8.098-2.599-18.332 12.898-36.117 25.691-47.24-8.814 22.38 25.047 33.913 11.834 55.337z" />
  <path class="cls-1" d="M63.557 125.01c-.144-.117-2.096-.368-1.983.493L60.01 140.06c10.893 5.581 7.646-11.74 3.547-15.05z" />
  <path class="cls-3" d="m187.425 50-86.893 50v100l1.353-.033c20.702-.507 40.933-6.988 57.636-19.228 9.945-7.288 18.526-16.328 25.366-26.713 10.334-15.693 15.523-34.217 15.523-53.007v-2.213c-.001-16.976-4.34-33.693-12.769-48.43-.07-.125-.143-.25-.215-.377zm-8.32 75.933c-1.399.396-.942 4.114-3.345 4.93-3.346 1.135-7.225-2.9-8.149 2.892-1.137 7.137 7.992 4.447 8.835 5.24.98.923-.974 13.486-1.017 16-2.207-1.777-1.576-7.194-5.025-8.537-2.318-.904-4.156.97-6.243.422-2.292-.603-3.953-8.12-8.438-3.62-4.022 4.037 2.917 8.37 2.662 10.096-.27 1.826-8.895 8.168-10.898 9.644 5.002-9.136-1.552-9.593-2.586-13.958-.837-3.535 3.747-6.077-.934-7.047-8.917-1.846-5.156 4.163-6.94 7.037-1.877 3.022-16.062.744-14.52-1.02 9.354-.456 6.303-5.847 7.715-9.748 1.135-3.133 5.137-2.328 4.11-5.56-2.702-8.505-8.29 1.113-12.092.148-1.738-.44-8.557-9.071-7.716-9.847 9.117 4.86 8.785-2.36 11.994-3.542 2.131-.785 8.433 2.926 7.668-4.798-.613-6.188-7.492-3.062-8.574-3.746-2.934-1.857 1.98-12.71.901-15.914 2.176 1.683 1.625 7.294 5.005 8.52 1.862.676 3.984-1.05 6.263-.395 2.81.81 1.642 5.655 6.97 3.66 7.641-2.861-1.25-9.65-1.25-10.29-.001-.726 8.945-9.123 10.956-9.5-5.338 8.036 1.96 9.355 2.824 13.772.434 2.221-1.317 5.19-.74 6.119.13.21 4.087 1.779 4.583 1.82 5.404.46 2.416-4.243 3.47-7.074 1.516-4.069 13.212.292 16.837-.625-1.3 2.242-7.137 1.635-8.515 3.98-1.544 2.627.867 5.318.386 7.33-.61 2.546-5.58 2.46-4.74 5.996 1.742 7.347 8.026-1.04 8.543-1.219 4.658-1.603 9.988 8.672 12.322 11.892-1.057.855-6.762-4.064-10.317-3.057z" />
  <path class="cls-3" d="M150.23 107.279c-20.203.825-22.287 30.514-2.817 34.273 26.165 5.05 27.273-35.274 2.816-34.274zm5.5 31.483c-22.686 4.752-25.545-25.866-7.503-28.529 20.178-2.977 22.76 25.332 7.502 28.529z" />
  <path class="cls-2" d="M102.604 0h-3.378C73.216 0 48.1 10.17 29.9 28.752 23.426 35.362 17.883 42.62 13.64 50l86.892 50 86.893-50c-7.797-13.562-17.57-24.418-29.246-32.706C141.992 5.804 122.452 0 102.603 0zm34.16 56.696c-2.95 7.696-8.892.459-11.664.219-8.21-.712-16.808 1.33-17.573 10.582-1.121 13.56 3.37 9.506 12.679 12.353 1.645.504 2.784-.732 2.293 2.144l-4.983.018 1.986 2.982c-1.788.857-8.411-1.47-8.98-.994-.467.392 1.147 3.67-1.51 3.02-3.588-.192-6.408-7.936-8.501-.028-2.52 1.525-3.122-7.901-8.956.007.557-8.4-8.185-3.997-13.99-5.012 6.94-8.05 17.055-.392 14.991-13.513-.77-4.904-5.139-8.565-9.979-9.108-3.27-.367-7 10.217-15.092 4.217-7.47-5.538-1.41-10.456-1.08-13.26.18-1.516-3.066-3.943-1.39-9.415.95-3.106 3.37-1.86 4.63-3.593 3.051-4.197-.045-10.534 3.33-14.415 4.835-5.559 9.863-.504 11.975-1.028 2.056-.51 3.041-10.203 14.748-9.308 5.847.447 7.293 4.736 9.55 5.294 3.146.776 5.032-2.13 10.174.736 4.02 2.242 4.24 6.21 6.39 9.106.351.472 2.542.352 3.635 1.886 1.615 2.265-.235 4.502.163 5.24.271.502 4.357 1.602 5.423 5.12 1.186 3.913-.32 6.603-.037 9.559.213 2.236 3.2 3.45 1.767 7.19z" />
  <path class="cls-2" d="M81.561 52.012 93.531 59c.765-7.268-6.433-7.428-11.969-6.988z" />
  <path class="cls-2" d="M107.535 38v9c2.867-1.25 4.03-4.244 4.986-6.98L107.536 38z" />
  <path class="cls-2" d="M109.527 53.988c3.97-.878 9.652.685 6.98-3.992l-6.98 3.992z" />
  <path class="cls-2" d="m84.56 44.015 6.983 1.973c-1.518-3.49-3.868-3.225-6.983-1.973z" />
  <path class="cls-2" d="M98.04 42.995c.835-.518.66-4.816.49-5-2.301-2.494-4.535 2.548-.49 5z" />
  <path d="M177.1 117.097c-.516.178-6.8 8.566-8.543 1.22-.838-3.537 4.131-3.45 4.74-5.998.482-2.012-1.929-4.703-.385-7.33 1.378-2.345 7.214-1.738 8.515-3.979-3.625.918-15.32-3.443-16.837.626-1.054 2.83 1.934 7.534-3.47 7.075-.495-.041-4.452-1.61-4.582-1.82-.577-.928 1.174-3.897.74-6.118-.863-4.417-8.162-5.736-2.824-13.772-2.01.377-10.957 8.774-10.957 9.5 0 .64 8.892 7.429 1.25 10.29-5.327 1.995-4.158-2.85-6.969-3.659-2.28-.654-4.4 1.072-6.263.396-3.38-1.226-2.829-6.837-5.004-8.52 1.08 3.205-3.834 14.057-.9 15.913 1.082.683 7.961-2.443 8.574 3.745.765 7.724-5.537 4.013-7.668 4.798-3.209 1.181-2.877 8.4-11.994 3.542-.84.776 5.978 9.406 7.716 9.847 3.803.965 9.39-8.653 12.092-.148 1.027 3.232-2.975 2.427-4.109 5.56-1.411 3.901 1.64 9.292-7.714 9.748-1.542 1.764 12.643 4.042 14.52 1.02 1.784-2.874-1.977-8.883 6.94-7.036 4.68.969.097 3.51.934 7.046 1.034 4.365 7.588 4.822 2.586 13.958 2.003-1.476 10.628-7.818 10.898-9.644.255-1.726-6.684-6.06-2.662-10.095 4.485-4.5 6.146 3.017 8.438 3.62 2.087.548 3.925-1.326 6.243-.422 3.45 1.343 2.818 6.76 5.025 8.536.043-2.513 1.997-15.076 1.017-15.999-.843-.793-9.972 1.897-8.834-5.24.925-5.792 4.804-1.757 8.15-2.893 2.403-.815 1.946-4.533 3.345-4.93 3.555-1.006 9.26 3.913 10.317 3.057-2.334-3.221-7.664-13.496-12.321-11.893zm-29.687 24.456c-19.47-3.759-17.386-33.448 2.816-34.274 24.456-1.001 23.348 39.323-2.817 34.273z" />
  <path d="M148.227 110.234c-18.042 2.663-15.183 33.28 7.502 28.529 15.257-3.197 12.675-31.506-7.503-28.529z" />
</svg>