<?xml version="1.0" encoding="utf-8"?>
<svg id="Layer_1" data-name="Layer 1" xmlns="http://www.w3.org/2000/svg" viewBox="0 0 200.42 200">
  <defs>
    <style>.cls-1 { fill: rgb(254, 187, 187); }.cls-2 { fill: rgb(252, 252, 216); }.cls-3 { fill: rgb(183, 183, 183); }.cls-4 { fill: rgb(3, 2, 2); }</style>
  </defs>
  <path class="cls-1" d="M100.543 100v100l-3.683-.188c-13.051-.665-25.94-3.573-37.808-9.044C28.284 176.582 6.107 147.99.667 113c-.997-7.917-.774-17.728 0-26C1.93 73.5 7.077 61.434 13.65 50l86.893 50zM75.59 112.997c-4.082-18.918-21.733-27.354-39.96-22.984 2.062 1.798 18.38 1.703 14.97 6.97-.564.873-7.38.242-7.984 3.005 6.037 3.432 11.954-4.473 16.513-2.063 3.854 2.038 5.136 8.034 4.453 12.07L58.607 107c-2.212 7.044 11.861 10.659 11.997 11.538.96 6.251-9.544 18.753-6.028 1.462-5.237 3.627-1.602 10.554-4.216 16.267-2.97 6.49-12.858 6.48-12.596 1.411.124-2.419 14.896-11.16 11.824-18.672-13.052 10.85-30.869-3.869-38.842 14.6-2.767 6.41-2.41 10.112.403 16.386 7.468 16.66 29.616 10.247 43.43 6.994-1.36-2.124-14.736.753-10.534-5.04 1.812-2.5 29.889-.968 28.026-15.94-3.682 3.815-8.68 5.232-13.478 6.994 10.453-13.795 19.059-22.06 8.963-39.991-3.007 1.675 3.252 10.552-1.967 9.987zm-49.95-8.993 9.544-5.97c-1.089-12.168-13.82-.255-15.54 5.955 1.614 1.398 7.214-6.866 5.996.014zm27.86.094c-2.065-2.677-6.012 1.82-7.367 1.897-1.969.112-3.756-2.954-5.51-1.5 3.072 9.957 17.605 5.73 12.877-.397z" />
  <path class="cls-4" d="M82.072 136.006c-3.682 3.815-8.68 5.232-13.478 6.994 10.453-13.795 19.059-22.06 8.963-39.991-3.007 1.675 3.252 10.552-1.967 9.987-4.082-18.918-21.733-27.354-39.96-22.984 2.062 1.798 18.38 1.703 14.97 6.971-.564.872-7.38.24-7.984 3.004 6.037 3.432 11.954-4.473 16.513-2.063 3.854 2.038 5.136 8.034 4.453 12.07L58.607 107c-2.212 7.044 11.861 10.659 11.997 11.538.96 6.251-9.544 18.753-6.028 1.462-5.237 3.627-1.602 10.554-4.216 16.267-2.97 6.49-12.858 6.48-12.596 1.411.124-2.419 14.896-11.16 11.824-18.672-13.053 10.85-30.869-3.869-38.842 14.6-2.767 6.41-2.41 10.112.403 16.386 7.468 16.66 29.616 10.247 43.43 6.994-1.36-2.124-14.736.753-10.534-5.04 1.812-2.5 29.889-.968 28.026-15.94z" />
  <path class="cls-4" d="m25.64 104.004 9.544-5.97c-1.089-12.168-13.82-.255-15.54 5.955 1.614 1.398 7.214-6.866 5.996.014z" />
  <path class="cls-4" d="M53.5 104.098c-2.065-2.677-6.012 1.82-7.367 1.897-1.969.112-3.756-2.954-5.51-1.5 3.072 9.957 17.605 5.73 12.877-.397z" />
  <path d="M171.448 97.98c-.184.31-5.82 1.86-5.985 4.008 7.524.323 7.095-6.356 12.809.692 5.286 6.52 9.587 18.892 6.407 27.06-2.723 6.992-15.858 4.999-17.729 8.25-2.095 3.644 1.266 20.675-1.412 22.583-8.261 5.033-2.076-15.762-8.063-10.565-.39.339 2.546 6.881-4.99 6.986l-.517-8c-4.903 1.034.292 12.326-5.967 11.014-1.743-.365-1.445-10.054-4.495-11.007-1.92 3.685 1.608 14.155-3.998 11.49-6.611-3.144.739-17.461-2.07-21.841-3.263-5.09-15.87-.649-18.44-10.624-2.858-11.093 3.417-24.073 12.017-31.02 1.486 6.683 1.936 8.83 9.482 8.983-25.839-23.296 38.216-16.89 32.952-8.01zm-42.226 16.239c-6.823 1.583-11.773 14.445-.205 15.772 28.608 3.28 12.6-18.652.205-15.773zm49.982 14.54c6.29-6.325-6.25-22.456-17.388-11.41-15.758 15.625 14.359 14.458 17.388 11.41zm-28.71 12.233-1.505-13.987c-4.057 4.592-4.15 11.334-3.034 17.051l10.513.945c.448-5.91-.067-12.227-3.98-16.996l-1.996 12.987z" />
  <path class="cls-2" d="M102.615 0h-3.378C73.227 0 48.111 10.17 29.911 28.752 23.438 35.362 17.895 42.62 13.65 50l86.893 50 86.893-50c-7.797-13.562-17.57-24.418-29.246-32.706C142.004 5.804 122.464 0 102.615 0zm28.427 50.973c-3.193.366-3.193 4.203-5.21 4.885-3.278 1.108-5.934-2.31-7.576 1.395-3.347 7.55 7.1 6.091 8.146 6.854 1.89 1.38-.871 13.168-.902 15.887-2.095-1.58-1.964-6.416-4.43-8.095-2.682-1.826-4.483.617-6.837-.02-2.729-.74-2.96-7.407-8.006-3.948-5.369 3.68 2.288 8.146 2.382 8.67.604 3.404-12.023 13.37-12.054 10.905 7.127-7.785-.614-9.327-1.576-13.458-.419-1.8 1.247-6.36.573-7.048-.248-.252-6.152-.196-7.06.435-1.997 1.39-.22 6.324-1.05 7.45-1.61 2.179-16.497.023-14.864-1.875 9.417-.485 6.193-5.813 7.688-9.718 1.05-2.742 4.517-2.681 4.184-4.614-4.415-9.653-6.46-1.652-9.603-.822-4.613 1.219-9.358-7.273-11.26-10.847.669-.546 6.036 3.031 9.318 2.048 1.382-.414.828-3.154 2.361-4.165 2.843-1.876 6.282 2.352 8.575-2.16 3.627-7.134-7.693-6.042-8.605-7.953-1.89-3.957 2.084-10.443 1.344-14.774 2.266 1.81 1.316 6.243 4.45 8.11 2.395 1.426 4.326-.707 6.812.02 1.814.53 5.81 9.695 9.181 1.833 2.653-6.189-3.1-6.371-3.46-7.003-1.368-2.4 10.455-11.586 10.96-10.966-4.681 8.586 1.117 8.228 2.596 12.963.793 2.538-.494 4.99-.063 6.106.814 2.11 6.29 3.647 7.33 1.783.72-1.29-.384-4.452.273-6.217 1.516-4.069 13.212.292 16.836-.625-1.3 2.235-7.163 1.655-8.537 3.984-1.362 2.312 1.06 4.94.427 7.296-.722 2.682-5.6 2.478-4.76 6.026 1.741 7.347 8.027-1.04 8.544-1.219 4.794-1.657 9.49 8.54 12.315 11.409-2.96 1.023-5.23-2.903-8.448-2.533z" />
  <path class="cls-2" d="M101.043 32.547c-17.96-.002-23.968 25.574-7.176 32.638 27.124 11.41 33.378-32.634 7.176-32.638zm4.76 31.216C82.408 68.657 80.657 37.838 98.3 35.234c19.993-2.95 23.031 25.28 7.503 28.53z" />
  <path class="cls-3" d="m187.436 50-86.893 50v100l4.376-.245c10.72-.6 21.338-2.673 31.355-6.538 20.053-7.736 36.896-21.385 48.622-39.19 10.338-15.7 15.523-34.234 15.523-53.03v-2.19c0-16.976-4.339-33.693-12.768-48.43l-.216-.377zm-2.757 79.74c-2.723 6.992-15.858 4.999-17.729 8.25-2.095 3.644 1.266 20.675-1.412 22.583-8.261 5.033-2.076-15.762-8.063-10.565-.39.339 2.546 6.881-4.99 6.986l-.517-8c-4.903 1.034.292 12.326-5.967 11.014-1.743-.365-1.445-10.054-4.495-11.007-1.92 3.685 1.608 14.155-3.998 11.49-6.611-3.144.739-17.461-2.07-21.841-3.263-5.09-15.87-.649-18.44-10.624-2.858-11.093 3.417-24.073 12.017-31.02 1.486 6.683 1.936 8.83 9.482 8.983-25.839-23.296 38.216-16.89 32.952-8.01-.184.31-5.82 1.86-5.985 4.009 7.524.32 7.095-6.358 12.809.69 5.286 6.52 9.587 18.892 6.407 27.06z" />
  <path class="cls-3" d="M161.816 117.35c-15.758 15.625 14.359 14.458 17.388 11.41 6.29-6.325-6.25-22.456-17.388-11.41z" />
  <path class="cls-3" d="M129.222 114.219c-6.823 1.583-11.773 14.445-.205 15.772 28.608 3.28 12.6-18.652.205-15.773z" />
  <path class="cls-3" d="m150.494 140.993-1.505-13.987c-4.057 4.592-4.15 11.334-3.034 17.051l10.513.945c.448-5.91-.067-12.227-3.98-16.996l-1.996 12.987z" />
  <path d="M127.174 42.097c-.517.179-6.803 8.566-8.544 1.22-.84-3.549 4.038-3.345 4.76-6.027.633-2.355-1.79-4.984-.427-7.296 1.374-2.329 7.237-1.75 8.536-3.983-3.625.918-15.321-3.443-16.837.626-.657 1.765.448 4.927-.273 6.217-1.04 1.864-6.516.328-7.33-1.784-.43-1.118.856-3.57.063-6.107-1.479-4.735-7.277-4.377-2.596-12.962-.505-.62-12.328 8.567-10.96 10.967.36.632 6.113.814 3.46 7.002-3.37 7.861-7.367-1.304-9.18-1.834-2.487-.727-4.418 1.406-6.813-.02-3.134-1.867-2.184-6.3-4.45-8.11.74 4.33-3.234 10.817-1.344 14.774.912 1.912 12.232.82 8.605 7.954-2.293 4.512-5.732.283-8.576 2.159-1.534 1.01-.98 3.75-2.362 4.165-3.282.983-8.65-2.594-9.318-2.047 1.902 3.575 6.647 12.067 11.26 10.848 3.14-.83 5.187-8.83 9.602.822.333 1.933-3.134 1.872-4.184 4.614-1.495 3.905 1.729 9.233-7.689 9.718-1.634 1.898 13.253 4.054 14.862 1.875.831-1.126-.946-6.06 1.052-7.45.907-.63 6.81-.687 7.059-.435.674.687-.992 5.248-.573 7.047.962 4.13 8.703 5.672 1.576 13.457.031 2.466 12.658-7.5 12.053-10.904-.095-.525-7.752-4.991-2.383-8.671 5.046-3.46 5.277 3.208 8.006 3.947 2.354.637 4.155-1.806 6.836.02 2.466 1.678 2.335 6.513 4.43 8.094.03-2.719 2.793-14.508.902-15.886-1.046-.764-11.493.695-8.146-6.855 1.642-3.705 4.298-.287 7.577-1.395 2.016-.681 2.016-4.52 5.209-4.885 3.218-.37 5.49 3.556 8.447 2.533-2.825-2.868-7.522-13.066-12.316-11.409zM93.867 65.185c-16.792-7.064-10.783-32.64 7.176-32.638 26.202.004 19.948 44.049-7.176 32.638z" />
  <path d="M98.3 35.234c-17.643 2.604-15.892 33.423 7.503 28.53 15.528-3.25 12.49-31.48-7.503-28.53z" />
</svg>