<?xml version="1.0" encoding="utf-8"?>
<svg id="Layer_1" data-name="Layer 1" xmlns="http://www.w3.org/2000/svg" viewBox="0 0 200.613 200">
  <defs>
    <style>.cls-1 { fill: rgb(168, 223, 248); }.cls-2 { fill: rgb(186, 186, 186); }.cls-3 { fill: rgb(252, 252, 216); }.cls-4 { fill: none; }.cls-5 { fill: rgb(183, 183, 183); }</style>
  </defs>
  <path d="M156.656 93c-8.814 22.38 25.047 33.913 11.834 55.337-10.2 16.539-34.758 11.416-37.525-8.098-2.599-18.332 12.898-36.117 25.691-47.24zm6.982 32.01c-.144-.117-2.096-.368-1.983.493l-1.563 14.557c10.892 5.581 7.645-11.74 3.546-15.05z" />
  <path d="M71.765 97.98c-.183.31-5.819 1.86-5.985 4.008 7.525.323 7.095-6.356 12.81.692 5.286 6.52 9.586 18.892 6.407 27.06-2.722 6.992-15.857 4.999-17.728 8.25-2.098 3.644 1.264 20.675-1.414 22.583-8.262 5.033-2.076-15.762-8.063-10.565-.39.339 2.545 6.881-4.99 6.986l-.518-8c-4.903 1.034.293 12.326-5.967 11.014-1.744-.365-1.445-10.054-4.496-11.007-1.92 3.685 1.608 14.155-3.998 11.49-6.61-3.144.74-17.461-2.07-21.841-3.262-5.09-15.87-.649-18.44-10.624-2.858-11.093 3.418-24.073 12.017-31.02 1.488 6.683 1.937 8.83 9.483 8.983-25.838-23.296 38.216-16.89 32.952-8.01zM29.54 114.219c-6.824 1.583-11.774 14.445-.206 15.772 28.609 3.28 12.601-18.652.206-15.773zm49.982 14.54c6.288-6.325-6.25-22.456-17.388-11.41-15.758 15.625 14.358 14.458 17.388 11.41zm-28.71 12.233-1.506-13.987c-4.056 4.592-4.15 11.334-3.032 17.051l10.512.945c.449-5.91-.065-12.227-3.978-16.996l-1.996 12.987z" />
  <path class="cls-4" d="M156.656 93c-12.793 11.123-28.29 28.908-25.69 47.24 2.766 19.513 27.325 24.636 37.525 8.097 13.213-21.424-20.648-32.958-11.834-55.337zm5 32.503c-.114-.861 1.838-.61 1.982-.493 4.099 3.31 7.346 20.631-3.546 15.05l1.563-14.557z" />
  <path class="cls-1" d="m187.63 50-86.893 50v100l5.807-.223c5.62-.215 11.223-.905 16.69-2.227 25.854-6.255 47.565-21.87 61.797-43.433 10.375-15.717 15.583-34.282 15.583-53.114V98.81c0-16.978-4.338-33.697-12.768-48.435l-.216-.375zm-19.14 98.337c-10.2 16.539-34.758 11.416-37.525-8.098-2.599-18.332 12.898-36.117 25.691-47.24-8.814 22.38 25.047 33.913 11.835 55.337z" />
  <path class="cls-1" d="M163.638 125.01c-.144-.117-2.096-.368-1.983.493l-1.563 14.557c10.892 5.581 7.645-11.74 3.546-15.05z" />
  <path class="cls-4" d="M98.493 35.234c-17.642 2.604-15.89 33.423 7.503 28.53 15.53-3.25 12.49-31.48-7.503-28.53z" />
  <path class="cls-4" d="M127.367 42.097c-.516.179-6.802 8.566-8.543 1.22-.84-3.549 4.038-3.345 4.76-6.027.633-2.355-1.79-4.984-.427-7.296 1.373-2.329 7.237-1.75 8.536-3.983-3.624.918-15.32-3.443-16.836.626-.657 1.765.448 4.927-.273 6.217-1.04 1.864-6.516.328-7.33-1.784-.43-1.118.855-3.57.063-6.107-1.479-4.735-7.278-4.377-2.596-12.962-.504-.62-12.327 8.567-10.958 10.967.36.632 6.112.814 3.46 7.002-3.371 7.861-7.368-1.304-9.182-1.834-2.486-.727-4.417 1.406-6.812-.02-3.135-1.867-2.184-6.3-4.45-8.11.74 4.33-3.234 10.817-1.344 14.774.912 1.912 12.232.82 8.605 7.954-2.295 4.512-5.733.283-8.577 2.159-1.533 1.01-.98 3.75-2.361 4.165-3.282.983-8.65-2.594-9.319-2.047 1.902 3.575 6.648 12.067 11.26 10.848 3.142-.83 5.188-8.83 9.602.822.334 1.933-3.134 1.872-4.183 4.614-1.496 3.905 1.728 9.233-7.69 9.718-1.632 1.898 13.255 4.054 14.864 1.875.831-1.126-.946-6.06 1.052-7.45.906-.63 6.81-.687 7.059-.435.674.687-.992 5.248-.573 7.047.962 4.13 8.703 5.672 1.575 13.457.03 2.466 12.658-7.5 12.053-10.904-.094-.525-7.751-4.991-2.382-8.671 5.047-3.46 5.278 3.208 8.007 3.947 2.354.637 4.154-1.806 6.836.02 2.467 1.678 2.336 6.513 4.431 8.094.03-2.719 2.793-14.508.902-15.886-1.046-.764-11.493.695-8.146-6.855 1.642-3.705 4.298-.287 7.577-1.395 2.016-.681 2.016-4.52 5.208-4.885 3.22-.37 5.49 3.556 8.448 2.533-2.825-2.868-7.522-13.066-12.316-11.409zM94.061 65.185c-16.791-7.064-10.783-32.64 7.176-32.638 26.203.004 19.949 44.049-7.175 32.638z" />
  <path class="cls-3" d="M103.104 0h-3.935C74.043 0 49.699 9.51 31.757 27.098 24.573 34.141 18.444 41.998 13.845 50l86.892 50 86.892-50c-8.787-15.284-20.083-27.132-33.786-35.74C138.684 4.737 121.006 0 103.104 0zm28.131 50.973c-3.192.366-3.192 4.203-5.208 4.885-3.279 1.108-5.935-2.31-7.577 1.395-3.347 7.55 7.1 6.091 8.146 6.854 1.89 1.38-.872 13.168-.902 15.887-2.095-1.58-1.964-6.416-4.431-8.095-2.682-1.826-4.482.617-6.836-.02-2.729-.74-2.96-7.407-8.006-3.948-5.368 3.68 2.29 8.146 2.383 8.67.605 3.404-12.022 13.37-12.054 10.905 7.127-7.785-.614-9.327-1.576-13.458-.419-1.8 1.247-6.36.573-7.048-.248-.252-6.153-.196-7.06.435-1.997 1.39-.22 6.324-1.051 7.45-1.609 2.179-16.496.023-14.863-1.875 9.417-.485 6.193-5.813 7.689-9.718 1.05-2.742 4.517-2.681 4.183-4.614-4.414-9.653-6.46-1.652-9.602-.822-4.612 1.219-9.358-7.273-11.26-10.847.67-.546 6.037 3.031 9.319 2.048 1.382-.414.828-3.154 2.361-4.165 2.844-1.876 6.282 2.352 8.576-2.16 3.626-7.134-7.694-6.042-8.606-7.953-1.89-3.957 2.083-10.443 1.344-14.774 2.266 1.81 1.315 6.243 4.45 8.11 2.395 1.426 4.326-.707 6.812.02 1.814.53 5.81 9.695 9.181 1.833 2.654-6.189-3.099-6.371-3.458-7.003-1.369-2.4 10.454-11.586 10.96-10.966-4.683 8.586 1.116 8.228 2.595 12.963.792 2.538-.494 4.99-.063 6.106.814 2.11 6.29 3.647 7.33 1.783.72-1.29-.384-4.452.273-6.217 1.516-4.069 13.212.292 16.836-.625-1.299 2.235-7.163 1.655-8.536 3.984-1.363 2.312 1.06 4.94.426 7.296-.721 2.682-5.6 2.478-4.76 6.026 1.742 7.347 8.028-1.04 8.544-1.219 4.794-1.657 9.492 8.54 12.316 11.409-2.958 1.023-5.229-2.903-8.448-2.533z" />
  <path class="cls-3" d="M101.236 32.547c-17.958-.002-23.967 25.574-7.175 32.638 27.125 11.41 33.379-32.634 7.176-32.638zm4.76 31.216c-23.394 4.894-25.145-25.925-7.503-28.529 19.994-2.95 23.032 25.28 7.503 28.53z" />
  <path class="cls-4" d="M65.78 101.989c.166-2.15 5.802-3.7 5.985-4.01 5.264-8.88-58.79-15.286-32.952 8.009-7.546-.154-7.995-2.3-9.482-8.984-8.598 6.947-14.874 19.927-12.016 31.02 2.57 9.975 15.178 5.534 18.44 10.623 2.81 4.379-4.54 18.697 2.07 21.84 5.606 2.665 2.078-7.805 3.998-11.489 3.05.954 2.752 10.643 4.496 11.008 6.26 1.312 1.064-9.98 5.967-11.014l.517 8c7.536-.105 4.6-6.647 4.99-6.986 5.988-5.197-.198 15.598 8.064 10.565 2.678-1.908-.684-18.94 1.413-22.583 1.87-3.251 15.005-1.258 17.727-8.25 3.18-8.168-1.121-20.54-6.408-27.06-5.715-7.048-5.285-.37-12.81-.691zM29.334 129.99c-11.568-1.327-6.618-14.189.206-15.773 12.395-2.88 28.403 19.053-.206 15.772zm27.452 15.01-10.512-.945c-1.117-5.717-1.024-12.459 3.032-17.051l1.506 13.987 1.996-12.987c3.913 4.77 4.427 11.086 3.978 16.996zm22.736-16.242c-3.03 3.048-33.146 4.215-17.388-11.41 11.138-11.046 23.677 5.085 17.388 11.41z" />
  <path class="cls-2" d="M13.845 50C7.27 61.434 2.124 73.5.86 87c-.773 8.272-1.469 17.111 0 26 6.031 38.786 32.495 69.518 68.523 81.617 8.292 2.784 16.945 4.347 25.67 4.974l5.684.41V100L13.845 50zm71.152 79.74c-2.722 6.992-15.857 4.999-17.728 8.25-2.098 3.644 1.264 20.675-1.414 22.583-8.262 5.033-2.076-15.762-8.063-10.565-.39.339 2.545 6.881-4.99 6.986l-.518-8c-4.903 1.034.293 12.326-5.967 11.014-1.744-.365-1.445-10.054-4.496-11.007-1.92 3.685 1.608 14.155-3.998 11.49-6.61-3.144.74-17.461-2.07-21.841-3.262-5.09-15.87-.649-18.44-10.624-2.858-11.093 3.418-24.073 12.017-31.02 1.488 6.683 1.937 8.83 9.483 8.983-25.838-23.296 38.216-16.89 32.952-8.01-.183.31-5.819 1.86-5.985 4.009 7.525.32 7.095-6.358 12.81.69 5.286 6.52 9.586 18.892 6.407 27.06z" />
  <path class="cls-2" d="M62.134 117.35c-15.758 15.625 14.358 14.458 17.388 11.41 6.289-6.325-6.25-22.456-17.388-11.41z" />
  <path class="cls-2" d="M29.54 114.219c-6.824 1.583-11.774 14.445-.206 15.772 28.609 3.28 12.601-18.652.206-15.773z" />
  <path class="cls-5" d="m50.812 140.993-1.506-13.987c-4.056 4.592-4.15 11.334-3.032 17.051l10.512.945c.449-5.91-.065-12.227-3.978-16.996l-1.996 12.987z" />
  <path class="cls-4" d="M101.236 32.547c-17.958-.002-23.967 25.574-7.175 32.638 27.125 11.41 33.379-32.634 7.176-32.638zm4.76 31.216c-23.394 4.894-25.145-25.925-7.503-28.529 19.994-2.95 23.032 25.28 7.503 28.53z" />
  <path d="M127.367 42.097c-.516.179-6.802 8.566-8.543 1.22-.84-3.549 4.038-3.345 4.76-6.027.633-2.355-1.79-4.984-.427-7.296 1.373-2.329 7.237-1.75 8.536-3.983-3.624.918-15.32-3.443-16.836.626-.657 1.765.448 4.927-.273 6.217-1.04 1.864-6.516.328-7.33-1.784-.43-1.118.855-3.57.063-6.107-1.479-4.735-7.278-4.377-2.596-12.962-.504-.62-12.327 8.567-10.958 10.967.36.632 6.112.814 3.46 7.002-3.371 7.861-7.368-1.304-9.182-1.834-2.486-.727-4.417 1.406-6.812-.02-3.135-1.867-2.184-6.3-4.45-8.11.74 4.33-3.234 10.817-1.344 14.774.912 1.912 12.232.82 8.605 7.954-2.295 4.512-5.733.283-8.577 2.159-1.533 1.01-.98 3.75-2.361 4.165-3.282.983-8.65-2.594-9.319-2.047 1.902 3.575 6.648 12.067 11.26 10.848 3.142-.83 5.188-8.83 9.602.822.334 1.933-3.134 1.872-4.183 4.614-1.496 3.905 1.728 9.233-7.69 9.718-1.632 1.898 13.255 4.054 14.864 1.875.831-1.126-.946-6.06 1.052-7.45.906-.63 6.81-.687 7.059-.435.674.687-.992 5.248-.573 7.047.962 4.13 8.703 5.672 1.575 13.457.03 2.466 12.658-7.5 12.053-10.904-.094-.525-7.751-4.991-2.382-8.671 5.047-3.46 5.278 3.208 8.007 3.947 2.354.637 4.154-1.806 6.836.02 2.467 1.678 2.336 6.513 4.431 8.094.03-2.719 2.793-14.508.902-15.886-1.046-.764-11.493.695-8.146-6.855 1.642-3.705 4.298-.287 7.577-1.395 2.016-.681 2.016-4.52 5.208-4.885 3.22-.37 5.49 3.556 8.448 2.533-2.825-2.868-7.522-13.066-12.316-11.409zM94.061 65.185c-16.791-7.064-10.783-32.64 7.176-32.638 26.203.004 19.949 44.049-7.175 32.638z" />
  <path d="M98.493 35.234c-17.642 2.604-15.89 33.423 7.503 28.53 15.53-3.25 12.49-31.48-7.503-28.53z" />
</svg>