<?xml version="1.0" encoding="utf-8"?>
<svg width="34" height="21" viewBox="0 0 34 21" version="1.1" xmlns="http://www.w3.org/2000/svg" xml:space="preserve" style="fill-rule: evenodd; clip-rule: evenodd; stroke-linejoin: round; stroke-miterlimit: 2;" preserveAspectRatio="xMidYMid meet" zoomAndPan="magnify" contentScriptType="application/ecmascript" contentStyleType="text/css">
  <g id="neutral">
    <path d="M34 2.222c-4.533 5.47-4.44 11.07 0 16.787-11.157 1.58-22.35 1.615-34 0C4.03 13.472 4.206 7.88 0 2.22c11.467-1.947 22.656-1.865 34 0zm-3.48 1.5c-1.283 2.253-1.895 4.528-1.885 6.81.01 2.277.642 4.583 1.924 6.902-8.948 1.028-17.944 1.04-27.214-.017 2.357-4.527 2.422-9.087-.02-13.685 9.145-1.272 18.133-1.23 27.195-.01z" />
    <path d="M13.834 14.837c-.803-1.068-1.205-2.513-1.205-4.337 0-1.824.4-3.27 1.204-4.337.803-1.067 1.858-1.6 3.166-1.6 1.308 0 2.363.533 3.166 1.6.803 1.068 1.205 2.513 1.205 4.337 0 1.824-.4 3.27-1.204 4.337-.803 1.067-1.858 1.6-3.166 1.6-1.308 0-2.363-.533-3.166-1.6zm1.39-6.185c-.027.503-.04 1.118-.04 1.848s.013 1.345.04 1.848c.026.502.08.967.157 1.395.08.428.185.767.32 1.015.135.25.308.44.52.575.213.135.473.202.78.202.307 0 .567-.067.78-.202.212-.135.385-.326.52-.575.135-.248.24-.587.32-1.015.077-.428.13-.893.156-1.395.027-.503.04-1.118.04-1.848s-.013-1.345-.04-1.848c-.026-.502-.08-.967-.157-1.395-.08-.428-.185-.767-.32-1.015a1.518 1.518 0 0 0-.52-.575c-.213-.135-.473-.202-.78-.202-.307 0-.567.067-.78.202a1.518 1.518 0 0 0-.52.575c-.135.248-.24.587-.32 1.015-.077.428-.13.893-.156 1.395z" style="fill-rule: nonzero;" />
  </g>
</svg>