<?xml version="1.0" encoding="utf-8"?>
<svg width="34" height="21" viewBox="0 0 34 21" version="1.1" xmlns="http://www.w3.org/2000/svg" xml:space="preserve" style="fill-rule: evenodd; clip-rule: evenodd; stroke-linejoin: round; stroke-miterlimit: 2;" preserveAspectRatio="xMidYMid meet" zoomAndPan="magnify" contentScriptType="application/ecmascript" contentStyleType="text/css">
  <g id="plus">
    <path d="M16.613 20.89C9.776 20.9 5.303 20.38 0 18.74c2.705-2.67 3.658-7.09 1.675-12.61L16.94 0l15.265 6.13c-1.983 5.52-1.03 9.94 1.675 12.61-5.386 1.66-9.918 2.18-16.94 2.15h-.327zm.336-2h-.132c-.076 0-.146.01-.21.02v-.02c-5.387.01-9.254-.32-13.278-1.3 1.443-2.68 1.883-6.18.802-10.3L16.94 2.15l12.808 5.14c-1.08 4.12-.64 7.62.8 10.3-4.102 1-8.043 1.32-13.6 1.3z" />
    <path d="M8.414 12.443V10.79h3.013V7.74h1.716v3.053h3.022v1.653h-3.022v3.053h-1.716v-3.053H8.414z" style="fill-rule: nonzero;" />
    <path d="M17.808 17.277v-.162l1.652-.628V7.923l-.03-.048h-1.622v-.17c.553-.134 1.21-.41 1.97-.825.763-.417 1.395-.856 1.9-1.318h.175v9.104c0 .73.135 1.29.407 1.676.27.387.686.645 1.244.773v.162h-5.696z" style="fill-rule: nonzero;" />
  </g>
</svg>