<?xml version="1.0" encoding="utf-8"?>
<svg width="34" height="21" viewBox="0 0 34 21" version="1.1" xmlns="http://www.w3.org/2000/svg" xml:space="preserve" style="fill-rule: evenodd; clip-rule: evenodd; stroke-linejoin: round; stroke-miterlimit: 2;" preserveAspectRatio="xMidYMid meet" zoomAndPan="magnify" contentScriptType="application/ecmascript" contentStyleType="text/css">
  <g id="plus">
    <path d="M16.613 20.89C9.776 20.9 5.303 20.38 0 18.74c2.705-2.67 3.658-7.09 1.675-12.61L16.94 0l15.265 6.13c-1.983 5.52-1.03 9.94 1.675 12.61-5.386 1.66-9.918 2.18-16.94 2.15h-.327zm.336-2h-.132c-.076 0-.146.01-.21.02v-.02c-5.387.01-9.254-.32-13.278-1.3 1.443-2.68 1.883-6.18.802-10.3L16.94 2.15l12.808 5.14c-1.08 4.12-.64 7.62.8 10.3-4.102 1-8.043 1.32-13.6 1.3z" />
    <path d="M7.35 12.443V10.79h3.014V7.74h1.716v3.053h3.02v1.653h-3.02v3.053h-1.716v-3.053H7.35z" style="fill-rule: nonzero;" />
    <path d="M16.414 17.212c1.687-2.005 2.972-3.735 3.856-5.192.883-1.457 1.325-2.704 1.325-3.74 0-.598-.14-1.05-.423-1.356a1.4 1.4 0 0 0-1.076-.46c-.505 0-.887.18-1.148.54-.26.36-.39.802-.39 1.323 0 .312.045.592.136.84l-.048.055-1.837-2.314c.424-.4.927-.725 1.51-.973a4.717 4.717 0 0 1 1.873-.373c.5 0 .975.065 1.426.193.45.13.853.312 1.208.55a2.638 2.638 0 0 1 1.16 2.223c0 .452-.077.88-.23 1.286-.153.406-.4.825-.737 1.258-.338.433-.68.835-1.03 1.206-.35.37-.82.868-1.414 1.494a37.67 37.67 0 0 0-1.583 1.77h4.06l.048-.016.823-1.796h.065v3.545h-7.54l-.034-.065z" style="fill-rule: nonzero;" />
  </g>
</svg>