<?xml version="1.0" encoding="utf-8"?>
<svg width="34" height="21" viewBox="0 0 34 21" version="1.1" xmlns="http://www.w3.org/2000/svg" xml:space="preserve" style="fill-rule: evenodd; clip-rule: evenodd; stroke-linejoin: round; stroke-miterlimit: 2;" preserveAspectRatio="xMidYMid meet" zoomAndPan="magnify" contentScriptType="application/ecmascript" contentStyleType="text/css">
  <g id="plus">
    <path d="M16.613 20.89C9.776 20.9 5.303 20.38 0 18.74c2.705-2.67 3.658-7.09 1.675-12.61L16.94 0l15.265 6.13c-1.983 5.52-1.03 9.94 1.675 12.61-5.386 1.66-9.918 2.18-16.94 2.15h-.327zm.336-2h-.132c-.076 0-.146.01-.21.02v-.02c-5.387.01-9.254-.32-13.278-1.3 1.443-2.68 1.883-6.18.802-10.3L16.94 2.15l12.808 5.14c-1.08 4.12-.64 7.62.8 10.3-4.102 1-8.043 1.32-13.6 1.3z" />
    <path d="M7.754 12.443V10.79h3.013V7.74h1.716v3.053h3.02v1.653h-3.02v3.053h-1.716v-3.053H7.754z" style="fill-rule: nonzero;" />
    <path d="m16.898 16.22 1.426-1.747.048.016c0 .574.134 1.058.403 1.453.27.395.666.592 1.192.592.505 0 .89-.182 1.157-.547.265-.366.398-.887.398-1.563 0-.49-.056-.92-.17-1.29-.112-.37-.32-.68-.623-.93-.305-.25-.695-.375-1.173-.375l-.887-.838v-.064h.41c.463 0 .86-.135 1.19-.404.33-.27.57-.598.717-.988.147-.39.22-.81.22-1.255 0-.607-.118-1.062-.357-1.363-.24-.302-.56-.452-.963-.452-.473 0-.83.185-1.072.557-.24.37-.362.817-.362 1.34l-.05.015-1.32-1.436c.78-.918 1.808-1.378 3.086-1.378.992 0 1.813.238 2.46.712.647.475.97 1.143.97 2.007 0 .695-.21 1.286-.627 1.776-.42.49-.914.823-1.483 1v.065c.763.19 1.37.518 1.825.988.454.47.68 1.092.68 1.865 0 1.075-.344 1.92-1.035 2.538-.69.62-1.653.928-2.888.928-1.305 0-2.363-.406-3.174-1.217z" style="fill-rule: nonzero;" />
  </g>
</svg>