<?xml version="1.0" encoding="utf-8"?>
<svg width="34" height="21" viewBox="0 0 34 21" version="1.1" xmlns="http://www.w3.org/2000/svg" xml:space="preserve" style="fill-rule: evenodd; clip-rule: evenodd; stroke-linejoin: round; stroke-miterlimit: 2;" preserveAspectRatio="xMidYMid meet" zoomAndPan="magnify" contentScriptType="application/ecmascript" contentStyleType="text/css">
  <g id="plus">
    <path d="M16.613 20.89C9.776 20.9 5.303 20.38 0 18.74c2.705-2.67 3.658-7.09 1.675-12.61L16.94 0l15.265 6.13c-1.983 5.52-1.03 9.94 1.675 12.61-5.386 1.66-9.918 2.18-16.94 2.15h-.327zm.336-2h-.132c-.076 0-.146.01-.21.02v-.02c-5.387.01-9.254-.32-13.278-1.3 1.443-2.68 1.883-6.18.802-10.3L16.94 2.15l12.808 5.14c-1.08 4.12-.64 7.62.8 10.3-4.102 1-8.043 1.32-13.6 1.3z" />
    <path d="M7.596 12.443V10.79h3.014V7.74h1.716v3.053h3.02v1.653h-3.02v3.053H10.61v-3.053H7.596z" style="fill-rule: nonzero;" />
    <path d="m17.16 16.214 1.232-1.842.05.016c0 .61.188 1.107.567 1.488.377.38.87.57 1.477.57.634 0 1.128-.175 1.482-.526.354-.35.53-.83.53-1.436 0-.268-.05-.533-.152-.796a2.407 2.407 0 0 0-.528-.784c-.25-.26-.558-.49-.926-.688-.368-.198-.843-.36-1.426-.483a9.445 9.445 0 0 0-1.946-.185l.648-5.825h4.815l.556-.82h.065v2.553H19.02l-.267 2.118c.748.01 1.43.097 2.045.258.615.16 1.132.374 1.55.64.416.266.77.578 1.06.938.29.36.5.736.63 1.13.13.395.195.807.195 1.236 0 .506-.084.976-.253 1.412-.17.435-.415.822-.738 1.16-.322.34-.743.606-1.264.8-.52.193-1.11.29-1.765.29a4.418 4.418 0 0 1-1.7-.325 4 4 0 0 1-1.353-.9z" style="fill-rule: nonzero;" />
  </g>
</svg>