<?xml version="1.0" encoding="utf-8"?>
<svg width="34" height="21" viewBox="0 0 34 21" version="1.1" xmlns="http://www.w3.org/2000/svg" xml:space="preserve" style="fill-rule: evenodd; clip-rule: evenodd; stroke-linejoin: round; stroke-miterlimit: 2;" preserveAspectRatio="xMidYMid meet" zoomAndPan="magnify" contentScriptType="application/ecmascript" contentStyleType="text/css">
  <g id="plus">
    <path d="M16.613 20.89C9.776 20.9 5.303 20.38 0 18.74c2.705-2.67 3.658-7.09 1.675-12.61L16.94 0l15.265 6.13c-1.983 5.52-1.03 9.94 1.675 12.61-5.386 1.66-9.918 2.18-16.94 2.15h-.327zm.336-2h-.132c-.076 0-.146.01-.21.02v-.02c-5.387.01-9.254-.32-13.278-1.3 1.443-2.68 1.883-6.18.802-10.3L16.94 2.15l12.808 5.14c-1.08 4.12-.64 7.62.8 10.3-4.102 1-8.043 1.32-13.6 1.3z" />
    <path d="M6.78 12.443V10.79H9.79V7.74h1.716v3.053h3.02v1.653h-3.02v3.053H9.792v-3.053H6.78z" style="fill-rule: nonzero;" />
    <path d="M16.503 12.548c0-.958.19-1.87.568-2.734.38-.865.89-1.607 1.532-2.228a7.168 7.168 0 0 1 2.296-1.478 7.317 7.317 0 0 1 2.8-.546v.66c-.845.006-1.588.2-2.228.578a4.21 4.21 0 0 0-1.52 1.538c-.375.647-.635 1.408-.78 2.284l1.47-.637h.58c.996 0 1.8.34 2.416 1.015.616.677.924 1.54.924 2.588 0 1.085-.366 1.998-1.097 2.74-.73.74-1.632 1.11-2.702 1.11-.455 0-.887-.054-1.295-.162a3.8 3.8 0 0 1-2.105-1.46c-.265-.37-.475-.834-.628-1.39a7.124 7.124 0 0 1-.23-1.878zm2.554-.326c0 1.515.145 2.612.436 3.293.29.68.724 1.02 1.3 1.02.292 0 .543-.117.756-.353.212-.236.368-.528.467-.878.1-.35.15-.72.15-1.112 0-1.15-.168-1.987-.505-2.514-.337-.527-.876-.79-1.62-.79h-.904c-.054.466-.08.91-.08 1.334z" style="fill-rule: nonzero;" />
  </g>
</svg>