<?xml version="1.0" encoding="utf-8"?>
<svg width="34" height="21" viewBox="0 0 34 21" version="1.1" xmlns="http://www.w3.org/2000/svg" xml:space="preserve" style="fill-rule: evenodd; clip-rule: evenodd; stroke-linejoin: round; stroke-miterlimit: 2;" preserveAspectRatio="xMidYMid meet" zoomAndPan="magnify" contentScriptType="application/ecmascript" contentStyleType="text/css">
  <g id="plus">
    <path d="M16.613 20.89C9.776 20.9 5.303 20.38 0 18.74c2.705-2.67 3.658-7.09 1.675-12.61L16.94 0l15.265 6.13c-1.983 5.52-1.03 9.94 1.675 12.61-5.386 1.66-9.918 2.18-16.94 2.15h-.327zm.336-2h-.132c-.076 0-.146.01-.21.02v-.02c-5.387.01-9.254-.32-13.278-1.3 1.443-2.68 1.883-6.18.802-10.3L16.94 2.15l12.808 5.14c-1.08 4.12-.64 7.62.8 10.3-4.102 1-8.043 1.32-13.6 1.3z" />
    <path d="M7.72 12.443V10.79h3.014V7.74h1.717v3.053h3.022v1.653h-3.02v3.053h-1.718v-3.053H7.72z" style="fill-rule: nonzero;" />
    <path d="M16.954 9.607V5.723h7.557l.017.057-3.778 11.497c-1.075 0-1.967.137-2.676.41l-.032-.048L22.78 7.455h-3.37c-1.18 0-1.978.717-2.39 2.15h-.066z" style="fill-rule: nonzero;" />
  </g>
</svg>