<?xml version="1.0" encoding="utf-8"?>
<svg width="34" height="21" viewBox="0 0 34 21" version="1.1" xmlns="http://www.w3.org/2000/svg" xml:space="preserve" style="fill-rule: evenodd; clip-rule: evenodd; stroke-linejoin: round; stroke-miterlimit: 2;" preserveAspectRatio="xMidYMid meet" zoomAndPan="magnify" contentScriptType="application/ecmascript" contentStyleType="text/css">
  <g id="plus">
    <path d="M16.613 20.89C9.776 20.9 5.303 20.38 0 18.74c2.705-2.67 3.658-7.09 1.675-12.61L16.94 0l15.265 6.13c-1.983 5.52-1.03 9.94 1.675 12.61-5.386 1.66-9.918 2.18-16.94 2.15h-.327zm.336-2h-.132c-.076 0-.146.01-.21.02v-.02c-5.387.01-9.254-.32-13.278-1.3 1.443-2.68 1.883-6.18.802-10.3L16.94 2.15l12.808 5.14c-1.08 4.12-.64 7.62.8 10.3-4.102 1-8.043 1.32-13.6 1.3z" />
    <path d="M6.714 12.443V10.79h3.013V7.74h1.716v3.053h3.022v1.653h-3.022v3.053H9.727v-3.053H6.714z" style="fill-rule: nonzero;" />
    <path d="M16.44 14.133c0-1.565.796-2.54 2.39-2.926v-.064a3.203 3.203 0 0 1-1.453-.9c-.384-.42-.576-.987-.576-1.7 0-.89.368-1.61 1.1-2.158.734-.548 1.638-.823 2.712-.823 1.074 0 1.978.275 2.71.823.734.55 1.1 1.268 1.1 2.157 0 .714-.19 1.28-.575 1.7a3.2 3.2 0 0 1-1.455.9v.065c1.596.386 2.393 1.36 2.393 2.926 0 .995-.386 1.795-1.16 2.4-.773.603-1.778.905-3.013.905s-2.24-.302-3.013-.906c-.775-.604-1.16-1.404-1.16-2.4zm2.472.127c0 .68.142 1.23.427 1.65.284.417.708.625 1.272.625.564 0 .988-.208 1.273-.626.285-.42.427-.97.427-1.65 0-1.502-.567-2.46-1.7-2.87-1.133.417-1.7 1.373-1.7 2.87zm.282-5.83c0 .7.128 1.286.383 1.762.255.475.6.793 1.035.95.435-.157.78-.475 1.035-.95.255-.476.383-1.063.383-1.76 0-.635-.128-1.122-.383-1.46a1.23 1.23 0 0 0-1.035-.507c-.435 0-.78.17-1.035.507-.255.338-.383.825-.383 1.46z" style="fill-rule: nonzero;" />
  </g>
</svg>