<?xml version="1.0" encoding="utf-8"?>
<svg width="34" height="21" viewBox="0 0 34 21" version="1.1" xmlns="http://www.w3.org/2000/svg" xml:space="preserve" style="fill-rule: evenodd; clip-rule: evenodd; stroke-linejoin: round; stroke-miterlimit: 2;" preserveAspectRatio="xMidYMid meet" zoomAndPan="magnify" contentScriptType="application/ecmascript" contentStyleType="text/css">
  <g id="minus">
    <path d="M16.613 0C9.776-.01 5.303.51 0 2.15c2.705 2.67 3.658 7.09 1.675 12.61l15.265 6.13 15.265-6.13c-1.983-5.52-1.03-9.94 1.675-12.61C28.494.49 23.962-.03 16.94 0h-.327zm.336 2h-.132c-.076 0-.146-.01-.21-.02V2c-5.387-.01-9.254.32-13.278 1.3 1.443 2.68 1.883 6.18.802 10.3l12.808 5.14 12.808-5.14c-1.08-4.12-.64-7.62.8-10.3-4.102-1-8.043-1.32-13.6-1.3z" />
    <path d="M7.733 11.152v-.065L8.82 9.34h6.382v.063l-1.088 1.75h-6.38z" style="fill-rule: nonzero;" />
    <path d="m16.362 14.214 1.233-1.842.048.016c0 .61.19 1.107.568 1.488.38.38.873.57 1.48.57.633 0 1.127-.175 1.482-.526.354-.35.532-.83.532-1.436 0-.268-.05-.533-.153-.796a2.423 2.423 0 0 0-.527-.784c-.25-.26-.56-.49-.927-.688-.368-.198-.843-.36-1.426-.483a9.435 9.435 0 0 0-1.945-.185l.647-5.825h4.815l.556-.82h.064v2.553h-4.584l-.267 2.118c.748.01 1.43.097 2.045.258.616.16 1.132.374 1.55.64a4.34 4.34 0 0 1 1.06.938c.29.36.5.736.63 1.13.13.395.196.807.196 1.236 0 .506-.085.976-.254 1.412-.17.435-.415.822-.737 1.16-.322.34-.744.606-1.265.8-.52.193-1.11.29-1.764.29a4.414 4.414 0 0 1-1.7-.325 3.995 3.995 0 0 1-1.354-.9z" style="fill-rule: nonzero;" />
  </g>
</svg>