<?xml version="1.0" encoding="utf-8"?>
<svg width="34" height="21" viewBox="0 0 34 21" version="1.1" xmlns="http://www.w3.org/2000/svg" xml:space="preserve" style="fill-rule: evenodd; clip-rule: evenodd; stroke-linejoin: round; stroke-miterlimit: 2;" preserveAspectRatio="xMidYMid meet" zoomAndPan="magnify" contentScriptType="application/ecmascript" contentStyleType="text/css">
  <g id="minus">
    <path d="M16.613 0C9.776-.01 5.303.51 0 2.15c2.705 2.67 3.658 7.09 1.675 12.61l15.265 6.13 15.265-6.13c-1.983-5.52-1.03-9.94 1.675-12.61C28.494.49 23.962-.03 16.94 0h-.327zm.336 2h-.132c-.076 0-.146-.01-.21-.02V2c-5.387-.01-9.254.32-13.278 1.3 1.443 2.68 1.883 6.18.802 10.3l12.808 5.14 12.808-5.14c-1.08-4.12-.64-7.62.8-10.3-4.102-1-8.043-1.32-13.6-1.3z" />
    <path d="M6.85 11.152v-.065L7.94 9.34h6.38v.063l-1.088 1.75h-6.38z" style="fill-rule: nonzero;" />
    <path d="M15.64 12.133c0-1.565.8-2.54 2.394-2.926v-.064a3.197 3.197 0 0 1-1.454-.9c-.384-.42-.576-.987-.576-1.7 0-.89.366-1.61 1.1-2.158.732-.548 1.636-.823 2.71-.823 1.075 0 1.978.275 2.71.823.735.55 1.1 1.268 1.1 2.157 0 .714-.19 1.28-.575 1.7-.385.42-.87.72-1.455.9v.065c1.595.386 2.393 1.36 2.393 2.926 0 .995-.387 1.795-1.16 2.4-.774.603-1.778.905-3.014.905-1.235 0-2.24-.302-3.013-.906-.772-.604-1.16-1.404-1.16-2.4zm2.474.127c0 .68.143 1.23.427 1.65.286.417.71.625 1.274.625.564 0 .99-.208 1.273-.626.285-.42.427-.97.427-1.65 0-1.502-.566-2.46-1.7-2.87-1.133.417-1.7 1.373-1.7 2.87zm.282-5.83c0 .7.128 1.286.383 1.762.254.475.6.793 1.034.95.435-.157.78-.475 1.036-.95.255-.476.382-1.063.382-1.76 0-.635-.127-1.122-.382-1.46a1.232 1.232 0 0 0-1.036-.507c-.435 0-.78.17-1.035.507-.256.338-.384.825-.384 1.46z" style="fill-rule: nonzero;" />
  </g>
</svg>