<?xml version="1.0" encoding="utf-8"?>
<svg width="34" height="21" viewBox="0 0 34 21" version="1.1" xmlns="http://www.w3.org/2000/svg" xml:space="preserve" style="fill-rule: evenodd; clip-rule: evenodd; stroke-linejoin: round; stroke-miterlimit: 2;" preserveAspectRatio="xMidYMid meet" zoomAndPan="magnify" contentScriptType="application/ecmascript" contentStyleType="text/css">
  <g id="minus">
    <path d="M16.613 0C9.776-.01 5.303.51 0 2.15c2.705 2.67 3.658 7.09 1.675 12.61l15.265 6.13 15.265-6.13c-1.983-5.52-1.03-9.94 1.675-12.61C28.494.49 23.962-.03 16.94 0h-.327zm.336 2h-.132c-.076 0-.146-.01-.21-.02V2c-5.387-.01-9.254.32-13.278 1.3 1.443 2.68 1.883 6.18.802 10.3l12.808 5.14 12.808-5.14c-1.08-4.12-.64-7.62.8-10.3-4.102-1-8.043-1.32-13.6-1.3z" />
    <path d="M7.08 11.152v-.065L8.17 9.34h6.38v.063l-1.086 1.75h-6.38z" style="fill-rule: nonzero;" />
    <path d="M15.71 7.412c0-.706.178-1.355.535-1.95a3.907 3.907 0 0 1 1.406-1.395 3.63 3.63 0 0 1 1.854-.505c.43 0 .842.054 1.237.162.396.108.778.286 1.15.534.37.25.692.556.966.923.274.368.493.833.656 1.394.164.56.246 1.187.246 1.878 0 .926-.122 1.773-.367 2.54-.243.77-.583 1.425-1.018 1.97a6.093 6.093 0 0 1-1.56 1.376 6.97 6.97 0 0 1-1.973.83c-.712.18-1.47.27-2.277.27v-.653c1.338-.01 2.383-.378 3.135-1.102.75-.724 1.22-1.83 1.4-3.314l-1.48.645h-.58c-.995 0-1.798-.34-2.41-1.015-.612-.677-.92-1.54-.92-2.588zm2.392-.604c0 1.15.167 1.987.5 2.514.333.527.87.79 1.61.79h.92c.048-.61.072-1.053.072-1.334 0-1.515-.145-2.612-.435-3.293-.29-.68-.723-1.02-1.298-1.02-.29 0-.54.117-.753.353a2.178 2.178 0 0 0-.47.878c-.098.35-.148.72-.148 1.112z" style="fill-rule: nonzero;" />
  </g>
</svg>