<?xml version="1.0" encoding="utf-8"?>
<svg xmlns="http://www.w3.org/2000/svg" xmlns:inkscape="http://www.inkscape.org/namespaces/inkscape" version="1.1" width="600" height="600" id="svg3829">
  <g transform="translate(-130.5769,306.78621)" id="layer1">
    <g transform="matrix(6,0,0,6,5170.5769,323.22578)" id="g111">
      <circle cx="-790" cy="-55.001999" r="50" id="circle113" style="fill: rgb(202, 197, 192);" />
    </g>
    <path d="M369.564-196.854v305.04c0 36.294 15.095 54.42 45.215 54.42h7.673V183.3H259.967v-20.694h10.728c30.654 0 46.002-18.126 46.002-54.42v-200.04c0-36.798-13.038-55.17-39.108-55.17H261.49v-20.694h6.145c31.68 0 60.282-9.702 85.824-29.13l16.104-.007zm194.693 0v305.04c0 36.294 15.067 54.42 45.222 54.42h7.667V183.3H454.63v-20.694h10.73c30.69 0 46.001-18.126 46.001-54.42v-200.04c.001-36.798-13.037-55.17-39.077-55.17h-16.092v-20.694h6.115c31.68 0 60.282-9.702 85.86-29.13l16.092-.007z" inkscape:connector-curvature="0" id="path115" style="fill: rgb(13, 15, 15);" />
  </g>
</svg>