<?xml version="1.0" encoding="utf-8"?>
<svg xmlns="http://www.w3.org/2000/svg" xmlns:inkscape="http://www.inkscape.org/namespaces/inkscape" version="1.1" width="600" height="600" id="svg3935">
  <g transform="translate(-204.8627,26.786213)" id="layer1">
    <g transform="matrix(6,0,0,6,3354.8627,603.22578)" id="g93">
      <circle cx="-475" cy="-55.001999" r="50" id="circle95" style="fill: rgb(202, 197, 192);" />
    </g>
    <path d="M422.71 90.052V384.37c0 34.734 14.563 52.104 43.657 52.104h6.924v19.932H316.92v-19.932h9.977c29.628 0 44.442-17.37 44.442-52.104V191.224c-.001-35.274-12.541-52.896-37.555-52.896h-15.342v-19.92h6.138c30.127 0 57.475-9.444 81.99-28.35l16.14-.007v.001zm258.283 262.122v30.654c0 34.242 11.976 51.366 36.018 51.366h9.949v19.896h-146.39v-19.896h11.509c24.017 0 36.023-16.878 36.023-50.58v-31.44H480.935V321.52L636.527 94.636h44.472v231.468h3.833c14.82 0 25.794-11.718 32.934-35.238h18.396l-9.198 61.314-45.972-.007zm-40.638-30.654V128.386L510.059 321.52h130.295z" inkscape:connector-curvature="0" id="path97" style="fill: rgb(13, 15, 15);" />
  </g>
</svg>