<?xml version="1.0" encoding="utf-8"?>
<svg width="32" height="32" viewBox="0 0 32 32" version="1.1" xmlns="http://www.w3.org/2000/svg" xml:space="preserve" style="fill-rule: evenodd; clip-rule: evenodd; stroke-linejoin: round; stroke-miterlimit: 2;" preserveAspectRatio="xMidYMid meet" zoomAndPan="magnify" contentScriptType="application/ecmascript" contentStyleType="text/css">
  <path d="M28.544.04c.053.062.035.03.06.09.486 1.333.8 2.776 2.167 3.918.25.284-.27.71-.453.875-.26.234-.613.502-.88.7-.673.504-1.37.98-2.017 1.516.333 1.56-.005 3.175.39 4.73 1.96 3.028 4.724 8.44 1.777 11.704-.994.964-2.366 1.305-3.72 1.245a4.66 4.66 0 0 0 .793-2.235c0-1.203-.584-2.858-1.227-3.847a44.85 44.85 0 0 0-5.14-6.47c-1.814-1.79-3.744-3.38-5.798-4.894-1.39-1.024-4.174-2.49-5.97-2.11-.636.177-1.193.52-1.752.854-.12-1.582.143-2.93 1.226-4.13 3.44-3.054 9.012.016 12.14 2.064.762.317 1.63.164 2.428.14.782 0 1.62-.036 2.36.257 1.137-1.18 1.914-2.644 2.944-3.907.14-.17.345-.465.583-.522.03-.006.06.013.088.02zM11.03 9.882c.404.476 1.15 1.475.4 1.988-6.908 3.557-8.85 12.975-8.85 12.975S-.854 16.547 7.686 9.57c1.163-.95 2.31-.675 3.342.313zm8.013 3.622c-1.71-1.686-3.45-3.336-5.394-4.753-1.317-.96-3.605-2.59-5.336-2.192C4.488 7.814 1.164 13.1.17 17.88c-.52 2.497.263 5.714.743 8.31.49 2.66.376 4.517.376 4.517s1.342-.3 3.887.125c2.597.435 6.42 1.59 8.75.972 4.61-1.223 11.068-5.3 11.35-9.03.022-1.156-.73-2.365-1.328-3.304-1.39-2.175-3.133-4.103-4.91-5.965h.003z" style="fill-rule: nonzero;" transform="matrix(1,0,0,1,0.5,0)" />
</svg>