<?xml version="1.0" encoding="utf-8"?>
<svg width="100%" height="100%" viewBox="0 0 32 12" version="1.1" xmlns="http://www.w3.org/2000/svg" xml:space="preserve" style="fill-rule: evenodd; clip-rule: evenodd; stroke-linejoin: round; stroke-miterlimit: 2;" preserveAspectRatio="xMidYMid meet" zoomAndPan="magnify" contentScriptType="application/ecmascript" contentStyleType="text/css">
  <path d="M24.408 13.11c.304.007.608 0 .91.02 1.068.076 2.107.342 3.135.612-1.182.25-2.387.267-3.58.39-1.057.11-1.79.69-2.84.5-.366-.068-.353-.293-.264-.49.385-.855 1.538-.988 2.638-1.03zm-4.21 1.534c.092 0 .055.017.104.026.137.052.103.47-.02.668-.116.188-2.434.482-2.57.416-.138-.066-.478-.28-.377-.6.092-.135.638-.217.727-.234a16.15 16.15 0 0 1 2.135-.276z" style="fill: white;" transform="matrix(1,0,0,1.034658,0,-8.578133)" />
  <path d="M24.247 12.196c1.074.043.61.006 1.39.085 2.335.285 3.295.996 6.102.108.07-.015.156-.05.22.02.078.082.022.282 0 .352-.138.464-.433.878-.708 1.27.364-.13.186-.06.534-.21.05-.02.134-.047.158.03.055.175-.17.48-.252.59a3.997 3.997 0 0 1-2.252 1.47c-3.06 1.66-4.907 1.898-7.55 2.062-.273-.168-.5-.39-.722-.618-.332-.09-.68-.04-1.015 0L3.09 19.698c-.095.025-.006 0-.273.05-1.43.22-2.686-.232-2.806-1.01-.12-.78.942-1.59 2.372-1.81h.002l-.002-.014 13.58-1.982c.64-.51 1.94-.68 2.72-.804.715-.116 1.432-.21 2.148-.31l.01-.08c.007-.104-.002-.062.018-.13.06-.21.06-.268.184-.45.608-.895 2.24-.918 3.207-.963h-.003zm-4.05 2.377c-.76.05-1.386.137-2.135.286-.09.017-.635.1-.727.24-.1.332.24.554.376.622.138.068 2.456-.236 2.573-.43.122-.204.156-.638.02-.692-.05-.01-.013-.025-.106-.026zm4.21-1.586c-1.1.044-2.252.182-2.638 1.067-.09.204-.103.437.262.506 1.05.198 1.784-.402 2.84-.515 1.194-.13 2.4-.145 3.58-.405-1.027-.28-2.066-.554-3.133-.632-.304-.022-.61-.014-.913-.02z" style="fill-rule: nonzero;" transform="matrix(1,0,0,1,0,-8)" />
</svg>