<?xml version="1.0" encoding="utf-8"?>
<svg xmlns="http://www.w3.org/2000/svg" viewBox="0 0 100 100">
  <g fill="none" fill-rule="evenodd">
    <circle fill="#CAC5C0" cx="50" cy="50" r="50" />
    <path d="M85.35 14.636c9.05 9.05 14.65 21.55 14.65 35.36C100 77.612 77.613 100 50 100c-13.807 0-26.305-5.597-35.354-14.647" fill="#A3C095" />
    <path d="M88.518 66.617c0 .758-.293 1.437-.88 2.043-.585.604-1.256.905-2.014.905-1.208 0-2.098-.566-2.663-1.7l-2.666-.113c-.568 0-1.684.246-3.346.737-1.777.49-2.798.887-3.063 1.188-.415.455-.755 1.514-1.02 3.178-.23 1.36-.34 2.363-.34 3.006 0 1.02.16 1.768.48 2.24.322.473.985.87 1.985 1.19 1 .317 1.616.5 1.844.538.15 0 .396-.018.737-.057h.682a5.6 5.6 0 0 1 1.533.227c.755.227 1.078.527.965.907-.53-.074-1.456.038-2.78.34l1.587.795c0 .454-.642.68-1.928.68-.343 0-.806-.073-1.39-.226-.587-.154-.975-.23-1.163-.23h-.737c-.04.38-.15.944-.34 1.702-.645-.037-1.4-.416-2.27-1.133-.87-.72-1.418-1.08-1.643-1.08-.228 0-.55.36-.965 1.08-.417.717-.625 1.207-.625 1.475-.49-.268-.905-.758-1.25-1.475a22.89 22.89 0 0 0-.508-1.48c-.38.04-1.078.837-2.1 2.386h-.283c-.077-.112-.36-.905-.853-2.384-1.172-.375-2.267-.563-3.288-.563-.49 0-1.25.112-2.27.34l-1.587-.112c.224-.227.887-.66 1.983-1.304 1.285-.758 2.27-1.137 2.95-1.137.11 0 .262.02.453.058.188.04.34.058.454.058.262 0 .69-.142 1.276-.427.586-.284.926-.54 1.018-.767.098-.23.145-.813.145-1.76 0-2.152-.57-3.762-1.704-4.818-.984-.945-2.608-1.625-4.876-2.043-.605 2.154-2.307 3.234-5.104 3.234-.91 0-1.815-.55-2.723-1.646-.905-1.098-1.36-2.1-1.36-3.006 0-1.4.585-2.552 1.757-3.46-.944-.98-1.417-1.983-1.417-3.006 0-.944.292-1.776.88-2.496.585-.716 1.352-1.133 2.295-1.248-.074-1.208.32-2.042 1.19-2.495-.415-.415-.622-1.15-.622-2.212 0-1.246.415-2.287 1.248-3.12.83-.83 1.872-1.247 3.117-1.247 1.364 0 2.48.476 3.348 1.42 1.098-3.743 3.46-5.614 7.09-5.614 1.89 0 3.553.756 4.99 2.27.53.565.793.868.793.905-.452 0-.224-.085.682-.253.908-.17 1.568-.257 1.985-.257 1.474 0 2.78.55 3.915 1.646.983.984 1.664 2.23 2.042 3.742.264.04.68.15 1.246.34.832.418 1.25 1.136 1.25 2.156 0 .188-.153.55-.455 1.08 2.42 1.36 3.63 3.25 3.63 5.67 0 .68-.266 1.626-.794 2.835.987.568 1.478 1.4 1.478 2.497zm-23.366 2.495v-.736c0-.87-.425-1.664-1.275-2.382-.85-.72-1.71-1.077-2.58-1.077-1.06 0-2.043.246-2.95.734 2.003-.11 4.272 1.042 6.805 3.462zm-1.02-7.03a14.482 14.482 0 0 1-1.475-1.985c-1.59.414-2.382.89-2.382 1.416.453-.037 1.116.047 1.984.256.867.208 1.493.312 1.87.312zm3.46-1.76v-2.496c-.91-.15-1.458-.226-1.645-.226v.85l1.646 1.87zm7.373-1.587A107.01 107.01 0 0 1 72.41 57.6v4.877c1.78-1.022 2.63-2.268 2.555-3.742zm3.116 6.692-1.245-1.53c-.754.53-1.52 1.067-2.298 1.616a10.32 10.32 0 0 0-2.01 1.844c1.698-.91 3.554-1.55 5.554-1.93z" fill="#0D0F0F" />
    <path d="M33 8c1.577 3.134 3.508 6.18 5.798 9.133a58.592 58.592 0 0 0 3.35 3.88 57.477 57.477 0 0 0 4.11 4.002 45.35 45.35 0 0 0 4.944 3.754A45.556 45.556 0 0 0 57 32.005c-3.047 1.612-6.065 3.574-9.067 5.897a57.907 57.907 0 0 0-3.918 3.36 55.063 55.063 0 0 0-3.993 4.15 53.812 53.812 0 0 0-3.758 4.938A47.272 47.272 0 0 0 33 56c-1.526-2.966-3.428-5.897-5.712-8.806-1.96-2.48-4.437-5.085-7.433-7.837-2.99-2.75-6.612-5.198-10.855-7.35 3.053-1.57 6.07-3.508 9.067-5.82 2.557-1.995 5.194-4.487 7.91-7.475C28.7 15.724 31.037 12.16 33 8zm-3.595 33.508c1.436 1.808 2.618 3.638 3.552 5.492 1.217-2.575 2.675-4.783 4.376-6.636 1.707-1.865 3.367-3.42 4.965-4.68A39.334 39.334 0 0 1 48 31.99c-2.647-1.19-4.895-2.644-6.735-4.338-1.85-1.693-3.407-3.33-4.67-4.92A30.673 30.673 0 0 1 32.957 17c-1.21 2.62-2.664 4.863-4.336 6.716-1.683 1.865-3.32 3.41-4.918 4.68A34.24 34.24 0 0 1 18 32c2.646 1.362 4.9 2.895 6.775 4.588 1.874 1.694 3.42 3.34 4.63 4.92z" fill="#000" />
  </g>
</svg>