<?xml version="1.0" encoding="utf-8"?>
<svg xmlns="http://www.w3.org/2000/svg" viewBox="0 0 100 100">
  <g fill="none" fill-rule="evenodd">
    <circle fill="#CAC5C0" cx="50" cy="50" r="50" />
    <path d="M85.35 14.637c9.05 9.05 14.65 21.55 14.65 35.36C100 77.613 77.614 100 50 100c-13.807 0-26.306-5.596-35.355-14.646" fill="#C1D7E9" />
    <path d="M76.722 83.675c-2.692 2.74-6.008 4.108-9.947 4.108-4.422 0-7.93-1.514-10.524-4.54-2.45-2.884-3.675-6.558-3.675-11.028 0-4.804 2.09-10.28 6.27-16.434 3.41-5.046 7.424-9.466 12.038-13.263-.673 3.076-1.01 5.262-1.01 6.56 0 2.98.937 5.887 2.81 8.722 2.308 3.364 4.062 5.863 5.263 7.495 1.874 2.835 2.81 5.6 2.81 8.29.002 3.99-1.343 7.353-4.034 10.09zm-.072-15.388c-.72-1.61-1.562-2.68-2.523-3.208.145.287.215.697.215 1.225 0 1.01-.287 2.453-.863 4.324l-.94 2.884c0 1.68.84 2.522 2.523 2.522 1.777 0 2.668-1.177 2.668-3.532 0-1.2-.36-2.608-1.08-4.217z" fill="#0D0F0F" />
    <path d="M33 8c1.577 3.134 3.508 6.18 5.798 9.133a58.592 58.592 0 0 0 3.35 3.88 57.477 57.477 0 0 0 4.11 4.002 45.35 45.35 0 0 0 4.944 3.754A45.556 45.556 0 0 0 57 32.005c-3.047 1.612-6.065 3.574-9.067 5.897a57.907 57.907 0 0 0-3.918 3.36 55.063 55.063 0 0 0-3.993 4.15 53.812 53.812 0 0 0-3.758 4.938A47.272 47.272 0 0 0 33 56c-1.526-2.966-3.428-5.897-5.712-8.806-1.96-2.48-4.437-5.085-7.433-7.837-2.99-2.75-6.612-5.198-10.855-7.35 3.053-1.57 6.07-3.508 9.067-5.82 2.557-1.995 5.194-4.487 7.91-7.475C28.7 15.724 31.037 12.16 33 8zm-3.595 33.508c1.436 1.808 2.618 3.638 3.552 5.492 1.217-2.575 2.675-4.783 4.376-6.636 1.707-1.865 3.367-3.42 4.965-4.68A39.334 39.334 0 0 1 48 31.99c-2.647-1.19-4.895-2.644-6.735-4.338-1.85-1.693-3.407-3.33-4.67-4.92A30.673 30.673 0 0 1 32.957 17c-1.21 2.62-2.664 4.863-4.336 6.716-1.683 1.865-3.32 3.41-4.918 4.68A34.24 34.24 0 0 1 18 32c2.646 1.362 4.9 2.895 6.775 4.588 1.874 1.694 3.42 3.34 4.63 4.92z" fill="#000" />
  </g>
</svg>