<?xml version="1.0" encoding="utf-8"?>
<svg xmlns="http://www.w3.org/2000/svg" viewBox="0 0 100 100">
  <g fill="none" fill-rule="evenodd" opacity=".963">
    <circle fill="#CAC5C0" cx="50" cy="50" r="50" />
    <path d="M85.35 14.636c9.05 9.05 14.65 21.55 14.65 35.36C100 77.612 77.614 100 50 100c-13.807 0-26.306-5.597-35.355-14.647" fill="#F8F6D8" />
    <path d="M88 73.11c-2.436-2.264-4.054-3.49-4.847-3.682-.577-.138-1.135.198-1.672 1.006-.536.808-1.29 1.092-2.268.858-.396-.095-1.175-.435-2.333-1.017-.94.885-1.442 1.47-1.51 1.758-.096.398.087.938.55 1.622.46.684.893 1.07 1.3 1.17.257.062.62.09 1.09.09.467-.002.777.015.926.05.444.104.47.97.078 2.598-.37 1.552-1.302 3.852-2.793 6.892-.057-3.91-.608-5.99-1.655-6.24-.145-.034-.47.005-.972.112-.504.107-.864.137-1.08.085-1.047-.25-1.758-1.433-2.13-3.546-1.723-.145-2.757.506-3.103 1.95-.173.725.024 1.382.59 1.975.563.593.823.98.782 1.16-.233.98-2.02 2.134-5.355 3.474a228.49 228.49 0 0 0-3.688 1.522c.657-.528 1.368-1.256 2.125-2.182.863-1.057 1.372-1.906 1.53-2.56.085-.358-.21-.966-.884-1.813-.675-.848-.925-1.633-.752-2.354.146-.614.543-1.32 1.193-2.12-.34-.653-.833-1.06-1.485-1.215-1.444-.346-2.278-.05-2.503.892l-.35 1.462c-.25 1.2-1.295 1.58-3.137 1.14-1.41-.337-3.696-1.228-6.864-2.673 3.983-.038 6.12-.673 6.412-1.9-.032.146-.003-.308.096-1.353.123-1.154 1.16-1.977 3.11-2.465.07-1.738-.594-2.777-2.004-3.113-.216-.054-.706.23-1.463.852-.76.62-1.393.87-1.897.748-.867-.205-1.762-1.413-2.684-3.62a260.93 260.93 0 0 0-1.984-4.885l2.18 1.896c.964.767 1.77 1.226 2.42 1.384.506.12 1.108-.205 1.808-.974.698-.77 1.445-1.058 2.24-.866.11.026.78.414 2.012 1.168.937-.883 1.466-1.576 1.587-2.082.102-.435-.04-.994-.43-1.68-.39-.686-.802-1.078-1.236-1.184-.18-.043-.472-.057-.877-.04-.405.02-.698.007-.88-.036-.648-.155-.78-1.045-.39-2.672.1-.434 1.11-2.81 3.022-7.122-.166.53-.173 1.6-.02 3.202.18 1.953.686 3.027 1.517 3.228.143.033.457-.005.944-.118.484-.113.853-.14 1.104-.078.83.197 1.404.832 1.722 1.9l.463 1.654c.757.184 1.454.064 2.09-.356a2.836 2.836 0 0 0 1.226-1.77c.188-.794 0-1.478-.57-2.054-.57-.576-.828-.972-.774-1.188.18-.76 1.68-1.755 4.495-2.99 2.26-.985 3.71-1.536 4.35-1.65-2.054 1.724-3.2 3.07-3.43 4.046-.123.507.054 1.12.53 1.848.595.867.91 1.46.95 1.77.16.92-.146 2.048-.925 3.39.81.92 1.47 1.44 1.977 1.563 1.044.25 1.698-.168 1.958-1.25.026-.11.063-.463.112-1.063.046-.6.1-.932.15-.995.268-.472 1.32-.487 3.163-.045 1.156.276 3.48 1.175 6.972 2.698-.847.027-2.116.065-3.81.12-1.548.087-2.387.402-2.52.943-.058.254-.073.71-.04 1.365.035.656.02 1.132-.052 1.42-.12.507-.558.897-1.31 1.176l-2.157.86c.246.898.42 1.438.53 1.615.26.52.693.854 1.308 1.002.434.104.922-.18 1.465-.854.543-.672 1.213-.913 2.007-.722.976.233 1.86 1.4 2.657 3.5A390.378 390.378 0 0 0 88 73.11zm-11.275-6.02c.552-2.312.184-4.52-1.108-6.622-1.292-2.103-3.094-3.433-5.404-3.986-2.348-.56-4.574-.205-6.672 1.07-2.097 1.27-3.446 3.077-4.044 5.416-.59 2.303-.21 4.504 1.14 6.604 1.35 2.098 3.18 3.425 5.493 3.978 2.454.587 4.697.274 6.724-.94 2.028-1.215 3.318-3.056 3.87-5.52zm-.813-.195c-.527 2.203-1.703 3.85-3.53 4.94-1.827 1.09-3.843 1.372-6.045.845-2.13-.51-3.778-1.687-4.94-3.53-1.164-1.845-1.49-3.83-.98-5.962.503-2.096 1.7-3.71 3.593-4.842 1.896-1.13 3.89-1.445 5.982-.943 2.094.5 3.73 1.693 4.9 3.576 1.172 1.886 1.512 3.857 1.02 5.915z" fill="#0D0F0F" />
    <path d="M33 8c1.577 3.134 3.508 6.18 5.798 9.133a58.592 58.592 0 0 0 3.35 3.88 57.477 57.477 0 0 0 4.11 4.002 45.35 45.35 0 0 0 4.944 3.754A45.556 45.556 0 0 0 57 32.005c-3.047 1.612-6.065 3.574-9.067 5.897a57.907 57.907 0 0 0-3.918 3.36 55.063 55.063 0 0 0-3.993 4.15 53.812 53.812 0 0 0-3.758 4.938A47.272 47.272 0 0 0 33 56c-1.526-2.966-3.428-5.897-5.712-8.806-1.96-2.48-4.437-5.085-7.433-7.837-2.99-2.75-6.612-5.198-10.855-7.35 3.053-1.57 6.07-3.508 9.067-5.82 2.557-1.995 5.194-4.487 7.91-7.475C28.7 15.724 31.037 12.16 33 8zm-3.595 33.508c1.436 1.808 2.618 3.638 3.552 5.492 1.217-2.575 2.675-4.783 4.376-6.636 1.707-1.865 3.367-3.42 4.965-4.68A39.334 39.334 0 0 1 48 31.99c-2.647-1.19-4.895-2.644-6.735-4.338-1.85-1.693-3.407-3.33-4.67-4.92A30.673 30.673 0 0 1 32.957 17c-1.21 2.62-2.664 4.863-4.336 6.716-1.683 1.865-3.32 3.41-4.918 4.68A34.24 34.24 0 0 1 18 32c2.646 1.362 4.9 2.895 6.775 4.588 1.874 1.694 3.42 3.34 4.63 4.92z" fill="#000" />
  </g>
</svg>