<?xml version="1.0" encoding="utf-8"?>
<svg xmlns="http://www.w3.org/2000/svg" xmlns:inkscape="http://www.inkscape.org/namespaces/inkscape" version="1.1" width="600" height="600" id="svg5391">
  <g transform="translate(-284.8627,49.643341)" id="layer1">
    <circle cx="-475.125" cy="365.06799" r="50" transform="matrix(6,0,0,6,3435.6127,-1940.0513)" id="circle447" style="fill: rgb(201, 196, 190);" />
    <path d="m853.519 285.445-63.421 76.374-15.541-15.53c6.04-15.245 9.869-29.273 11.44-42.083 1.573-12.798.925-24.654-1.943-35.604-.288-1.428-.636-2.802-1.08-4.092a25.35 25.35 0 0 0-1.512-3.677c-2.298-6.888-5.754-13.374-10.362-19.404-4.602-6.061-11.208-13.381-19.836-22.01l-45.312-46.17L495.39 383.828c-18.413 18.396-28.343 34.374-29.777 47.874-1.446 13.537 5.178 27.63 19.854 42.307l6.042 5.166-16.4 16.392L337.04 357.493l16.39-16.392 6.9 6.889c14.383 14.963 28.333 21.737 41.857 20.285 13.518-1.428 29.346-11.226 47.466-29.346l210.99-210.997-47.028-47.028c-13.23-12.654-24.522-21.504-33.87-26.532-9.354-5.04-20.22-7.128-32.574-6.258-1.733 0-3.54.072-5.4.21-1.871.15-3.815.366-5.825.642-3.744.294-7.05.714-9.918 1.302-2.88.575-5.616.995-8.202 1.289a18.28 18.28 0 0 1-2.37.64c-.72.139-1.656.223-2.808.21-3.168.87-6.768 1.879-10.788 3.025-4.04 1.134-9.067 2.448-15.11 3.876l-14.237-15.107 74.64-65.142 306.366 306.385z" inkscape:connector-curvature="0" id="path451" style="fill: rgb(13, 15, 15);" />
  </g>
</svg>