<?xml version="1.0" encoding="utf-8"?>
<svg width="600" height="600" viewBox="0 0 600 600" version="1.1" xml:space="preserve" style="fill-rule: evenodd; clip-rule: evenodd; stroke-linejoin: round; stroke-miterlimit: 2;" id="svg4960" sodipodi:docname="purpleg.svg" inkscape:version="1.2.2 (732a01da63, 2022-12-09)" xmlns:inkscape="http://www.inkscape.org/namespaces/inkscape" xmlns:sodipodi="http://sodipodi.sourceforge.net/DTD/sodipodi-0.dtd" xmlns="http://www.w3.org/2000/svg">
  <sodipodi:namedview id="namedview4962" pagecolor="#ffffff" bordercolor="#000000" borderopacity="0.25" inkscape:showpageshadow="2" inkscape:pageopacity="0.0" inkscape:pagecheckerboard="0" inkscape:deskcolor="#d1d1d1" showgrid="false" inkscape:zoom="0.18" inkscape:cx="308.33333" inkscape:cy="308.33333" inkscape:window-width="1920" inkscape:window-height="1051" inkscape:window-x="-9" inkscape:window-y="-9" inkscape:window-maximized="1" inkscape:current-layer="svg4960" />
  <circle cx="300" cy="300" r="300" style="fill: rgb(171, 139, 215);" id="circle4944" />
  <g transform="translate(-224.86,209.64)" id="g4948" style="fill: rgb(155, 211, 174); fill-opacity: 1;">
    <path d="M737-121.8c54.3 54.3 87.9 129.3 87.9 212.2 0 165.7-134.3 300-300 300-82.8 0-157.8-33.6-212.1-87.9" style="fill: rgb(155, 211, 174); fill-rule: nonzero; fill-opacity: 1;" id="path4946" />
  </g>
  <g transform="translate(-224.86,209.64)" id="g4952">
    <path d="M762 196.1c0 4.5-1.8 8.6-5.3 12.3-3.5 3.6-7.5 5.4-12.1 5.4-7.2 0-12.6-3.4-16-10.2l-16-.7c-3.4 0-10.1 1.5-20.1 4.4-10.7 2.9-16.8 5.3-18.4 7.1-2.5 2.7-4.5 9.1-6.1 19.1-1.4 8.2-2 14.2-2 18 0 6.1 1 10.6 2.9 13.4 1.9 2.8 5.9 5.2 11.9 7.1 6 1.9 9.7 3 11.1 3.2.9 0 2.4-.1 4.4-.3h4.1c2.9 0 6 .5 9.2 1.4 4.5 1.4 6.5 3.2 5.8 5.4-3.2-.4-8.7.2-16.7 2l9.5 4.8c0 2.7-3.9 4.1-11.6 4.1-2.1 0-4.8-.4-8.3-1.3s-5.9-1.4-7-1.4h-4.4c-.2 2.3-.9 5.7-2 10.2-3.9-.2-8.4-2.5-13.6-6.8-5.2-4.3-8.5-6.5-9.9-6.5-1.4 0-3.3 2.2-5.8 6.5-2.5 4.3-3.7 7.2-3.7 8.9-2.9-1.6-5.4-4.5-7.5-8.8-.9-3-1.9-5.9-3.1-8.9-2.3.2-6.5 5-12.6 14.3H617c-.5-.7-2.2-5.4-5.1-14.3-7-2.2-13.6-3.4-19.7-3.4-2.9 0-7.5.7-13.6 2l-9.5-.7c1.4-1.4 5.3-4 11.9-7.8 7.7-4.5 13.6-6.8 17.7-6.8.7 0 1.6.1 2.7.4 1.1.2 2 .3 2.7.3 1.6 0 4.1-.9 7.7-2.6 3.5-1.7 5.6-3.2 6.1-4.6.6-1.4.9-4.9.9-10.6 0-12.9-3.4-22.6-10.2-28.9-5.9-5.7-15.6-9.7-29.3-12.3-3.6 12.9-13.8 19.4-30.6 19.4-5.5 0-10.9-3.3-16.3-9.9-5.4-6.6-8.2-12.6-8.2-18 0-8.4 3.5-15.3 10.5-20.8-5.7-5.9-8.5-11.9-8.5-18 0-5.7 1.8-10.7 5.3-15 3.5-4.3 8.1-6.8 13.8-7.5-.4-7.2 1.9-12.3 7.1-15-2.5-2.5-3.7-6.9-3.7-13.3 0-7.5 2.5-13.7 7.5-18.7 5-5 11.2-7.5 18.7-7.5 8.2 0 14.9 2.9 20.1 8.5 6.6-22.5 20.8-33.7 42.5-33.7 11.3 0 21.3 4.5 29.9 13.6 3.2 3.4 4.8 5.2 4.8 5.4-2.7 0-1.3-.5 4.1-1.5 5.5-1 9.4-1.5 11.9-1.5 8.8 0 16.7 3.3 23.5 9.9 5.9 5.9 10 13.4 12.3 22.5 1.6.2 4.1.9 7.5 2 5 2.5 7.5 6.8 7.5 12.9 0 1.1-.9 3.3-2.7 6.5 14.5 8.2 21.8 19.5 21.8 34 0 4.1-1.6 9.8-4.8 17 5.9 3.4 8.9 8.4 8.9 15m-140.2 15v-4.4c0-5.2-2.5-10-7.6-14.3s-10.3-6.5-15.5-6.5c-6.4 0-12.3 1.5-17.7 4.4 12-.7 25.6 6.2 40.8 20.8m-6.1-42.2c-3.4-3.9-6.3-7.8-8.8-11.9-9.5 2.5-14.3 5.3-14.3 8.5 2.7-.2 6.7.3 11.9 1.5 5.2 1.3 9 1.9 11.2 1.9m20.8-10.6v-15c-5.5-.9-8.8-1.4-9.9-1.4v5.1l9.9 11.2m44.2-9.5c-2.7-1.1-7.8-3.4-15.3-6.8v29.3c10.7-6.1 15.8-13.6 15.3-22.5m18.7 40.2-7.5-9.2c-4.5 3.2-9.1 6.4-13.8 9.7-4.6 3.3-8.7 7-12.1 11.1 10.2-5.5 21.3-9.3 33.3-11.6" style="fill: rgb(0, 22, 11); fill-rule: nonzero;" id="path4950" />
  </g>
  <g transform="matrix(1.63436,0,0,1.67005,288.637,5.4622)" id="g4956">
    <path d="M-52.703 176.592c-.486-.084-2.298-.33-4.028-.545-7.018-.876-15.807-3.768-23.124-7.61-6.187-3.246-7.292-4.45-2.992-3.258 13.726 3.805 31.992-1.64 46.58-13.884 7.953-6.674 12.396-13.07 14.398-20.72 2.89-11.042 1.786-18.535-3.828-26.004-2.158-2.87-4.536-4.726-8.818-6.878-2.944-1.48-3.404-1.82-2.87-2.12.377-.21 1.526-.26 2.802-.12 6.94.764 12.7 3.824 18.424 9.79 6.27 6.534 10.745 15.45 12.162 24.222.54 3.34.457 10.03-.16 12.93-2.764 12.99-11.01 23.936-22.266 29.547-6.198 3.09-12.223 4.492-20.108 4.677-2.91.07-5.688.056-6.173-.028zM-81.63 150.64c-3.6-.272-5.225-.636-9.373-2.1-14.745-5.2-24.403-16.283-27.726-31.816-1-4.683-1.102-14.833-.2-20.014a75.808 75.808 0 0 1 7.55-22.212c3.248-6.187 4.452-7.292 3.26-2.99-3.22 11.61.112 26.466 8.965 39.978 7.095 10.827 15.772 18.18 24.4 20.67 11.476 3.314 19.558 2.276 27.242-3.5 2.87-2.158 4.726-4.536 6.878-8.818 1.515-3.012 1.816-3.413 2.134-2.844.55.983-.283 6.53-1.4 9.327-1.685 4.22-3.645 7.09-7.512 10.996-4.167 4.21-7.63 6.68-12.843 9.164-7.076 3.37-14 4.718-21.376 4.16zm92.166-8.334c.095-.533.448-2.16.784-3.616 1.4-6.054.603-15.13-2-22.754-4.634-13.578-15.35-27.458-25.687-33.27-4.794-2.695-12.937-4.487-19.15-4.215-6.598.29-11.656 2.537-16.487 7.324-2.188 2.167-3.03 3.348-4.655 6.526-1.8 3.522-2.005 3.792-2.224 2.92-.387-1.54.43-6.37 1.58-9.354 4.234-10.98 16.786-20.598 30.736-23.555 8.395-1.778 16.814-.55 25.47 3.717 16.698 8.232 25.4 25.56 23.164 46.13-1.094 10.07-5.22 21.892-10.582 30.326-.69 1.084-1.157.998-.948-.177zM-64.17 115.86c-6.167-.852-12.233-4.3-17.6-10.005-5.99-6.368-10.09-14.46-11.696-23.08-.89-4.777-.572-12.32.7-16.58 3.797-12.727 11.453-21.948 22.57-27.187 14.716-6.935 34.473-5.44 52.404 3.966 6.186 3.245 7.293 4.45 2.992 3.258-9.684-2.685-21.143-.956-32.974 4.974-11.774 5.902-22.232 15.58-26.134 24.188-1.31 2.888-2.67 8.14-3.17 12.252-.876 7.16.803 13.44 5.128 19.193 2.157 2.868 4.536 4.725 8.81 6.873 2.553 1.284 3.36 1.843 2.997 2.073-.5.318-2.06.346-4.026.075z" style="fill: rgb(33, 29, 21); fill-rule: nonzero;" id="path4954" />
  </g>
</svg>