<?xml version="1.0" encoding="utf-8"?>
<svg width="100" height="100" viewBox="0 0 100 100" version="1.1" xmlns="http://www.w3.org/2000/svg" xml:space="preserve" style="fill-rule: evenodd; clip-rule: evenodd; stroke-linejoin: round; stroke-miterlimit: 2;" preserveAspectRatio="xMidYMid meet" zoomAndPan="magnify" contentScriptType="application/ecmascript" contentStyleType="text/css">
  <path d="M85.35 14.637c9.053 9.05 14.65 21.55 14.65 35.36C100 77.613 77.613 100 50 100c-13.807 0-26.305-5.596-35.354-14.646" style="fill: rgb(233, 227, 177);" />
  <path d="M14.646 85.354C5.596 76.307 0 63.804 0 49.997 0 22.384 22.387 0 50 0c13.803 0 26.3 5.593 35.35 14.637" style="fill: rgb(222, 129, 102);" />
  <path d="M14.125 33.956a13.554 13.554 0 0 1 3.4-9.14c1.1-1.084 2.008-2.32 3.174-3.344 2.57-2.28 6.42-2.432 9.515-3.87.18-1.442.77-2.886.414-4.342-.11-.485-.27-.975.02-1.438.812-1.673.112-3.49.257-5.233.108-.91.04-2.027 1.01-2.59.227 1.897 1.007 3.66 1.64 5.46.29 1.403.29 2.863.967 4.185-.43 1.34.42 2.468 1.338 3.457 2.033.93 4.45 1.152 6.217 2.516 1.26.957 2.62 1.795 4.03 2.573 1.06 1.185 2.23 2.326 2.702 3.82 1.892 2.043 2.115 4.784 3.188 7.175.02 3.55-.785 7.374-3.322 10.22-1.815 1.34-3.083 3.14-4.896 4.48-1.74.93-3.596 1.692-5.393 2.527-1.17.245-2.38.365-3.545.65-.945 4.352-1.59 8.81-3.487 12.938-.63-1.695-.553-3.512-1.096-5.224-.766-2.532.805-5.167-.08-7.653-1.327-1.06-3.54-.372-5.013-1.283-2.803-1.544-5.77-3.05-7.802-5.412-.757-1.358-2.346-2.374-2.346-4.003-.013-2.194-1.445-4.25-.897-6.47zM35.9 46c1.713-.393 3.31-1.167 4.745-2.11 1.547-.973 2.124-2.787 3.65-3.783 1.43-1.608 1.12-3.806 1.705-5.712-.235-1.33-.51-2.65-.658-3.995-.697-1.066-1.772-1.917-2.07-3.2-1.023-1.382-2.577-2.338-3.826-3.535-.908-.99-2.354-.57-3.548-.61.118 1.09.212 2.22-.077 3.294-.14.66-.456 1.313-.35 2.004.24 1.472-.344 2.95.07 4.404.833 3.04-.076 6.113-.155 9.18.12 1.357.186 2.725.514 4.062zm-15.024-5.57c1.27.775 2.354 1.724 3.463 2.65 1.927 1.142 3.833 2.35 6.127 2.92-.206-1.4-.408-2.842.113-4.214 1.28-3.098-.287-6.34-.553-9.473.234-1.863.01-3.85 1.01-5.566.13-1.29-.522-2.534-.962-3.747-1.516.518-2.943 1.217-4.204 2.116-1.523.978-3.857 1.61-4.2 3.434-.172 1.196-1.703 1.92-1.66 3.145.096 2.91-.373 5.956.866 8.735zm67 24.526a13.554 13.554 0 0 0-3.402-9.14c-1.1-1.084-2.007-2.32-3.173-3.344-2.57-2.28-6.42-2.432-9.515-3.87-.18-1.442-.77-2.886-.414-4.342.11-.485.27-.975-.02-1.438-.812-1.673-.112-3.49-.257-5.233-.108-.91-.04-2.027-1.01-2.59-.227 1.897-1.007 3.66-1.64 5.46-.29 1.403-.29 2.863-.967 4.185.43 1.34-.42 2.468-1.338 3.457-2.033.93-4.45 1.152-6.217 2.516-1.26.957-2.62 1.795-4.03 2.573-1.06 1.185-2.23 2.326-2.702 3.82-1.892 2.043-2.115 4.784-3.188 7.175-.02 3.55.785 7.374 3.322 10.22 1.815 1.34 3.083 3.14 4.896 4.48 1.74.93 3.596 1.692 5.393 2.527 1.17.245 2.38.365 3.545.65.945 4.352 1.59 8.81 3.487 12.938.63-1.695.553-3.512 1.096-5.224.766-2.532-.805-5.167.08-7.653 1.327-1.06 3.54-.372 5.013-1.283 2.803-1.544 5.77-3.05 7.802-5.412.757-1.358 2.346-2.374 2.346-4.003.013-2.194 1.445-4.25.897-6.47zM66.1 77c-1.713-.393-3.31-1.167-4.745-2.11-1.547-.973-2.124-2.787-3.65-3.783-1.43-1.608-1.12-3.806-1.705-5.712.235-1.33.51-2.65.658-3.995.697-1.066 1.772-1.917 2.07-3.2 1.023-1.382 2.577-2.338 3.826-3.535.908-.99 2.354-.57 3.548-.61-.118 1.09-.212 2.22.077 3.294.14.66.456 1.313.35 2.004-.24 1.472.344 2.95-.07 4.404-.833 3.04.076 6.113.155 9.18-.12 1.357-.186 2.725-.514 4.062zm15.024-5.57c-1.27.775-2.354 1.724-3.463 2.65-1.927 1.142-3.833 2.35-6.127 2.92.206-1.4.408-2.842-.113-4.214-1.28-3.098.287-6.34.553-9.473-.234-1.863-.01-3.85-1.01-5.566-.13-1.29.522-2.534.962-3.747 1.516.518 2.943 1.217 4.204 2.116 1.523.978 3.857 1.61 4.2 3.434.172 1.196 1.703 1.92 1.66 3.145-.096 2.91.373 5.956-.866 8.735z" style="fill: rgb(17, 18, 18);" />
</svg>