<?xml version="1.0" encoding="utf-8"?>
<svg xmlns="http://www.w3.org/2000/svg" viewBox="0 0 27 34">
  <path d="M14.178 1.37c1.282.44 2.107 1.67 2.008 2.976l-.003.083a1.523 1.523 0 0 0 1.042 1.446c.663.23 1.388-.01 1.76-.565l.063-.09c.745-1.027 2.108-1.448 3.353-1.02l2.166.746c1.548.53 2.386 2.178 1.868 3.67l-7.902 22.95c-.513 1.497-2.185 2.28-3.733 1.746l-2.167-.746c-1.282-.442-2.107-1.67-2.01-2.977l.005-.084a1.523 1.523 0 0 0-1.042-1.448c-.664-.228-1.39.012-1.76.565l-.064.092c-.744 1.026-2.107 1.448-3.353 1.02l-1.973-.68C.887 28.525.052 26.88.567 25.38l7.9-22.946C8.982.937 10.654.154 12.202.688zm-.29.957-1.96-.675c-1.054-.363-2.194.17-2.544 1.193L1.542 25.622c-.352 1.022.218 2.144 1.273 2.505l1.956.674c.843.29 1.765.01 2.275-.68l.055-.078c.595-.888 1.748-1.27 2.804-.906 1.024.352 1.687 1.31 1.657 2.338l-.004.103c-.068.893.495 1.73 1.368 2.03l2.147.74c1.056.364 2.196-.17 2.546-1.192l7.843-22.78c.353-1.017-.218-2.14-1.273-2.502l-2.146-.74c-.84-.29-1.763-.007-2.273.683l-.055.078c-.595.887-1.748 1.27-2.804.905-1.024-.353-1.687-1.31-1.657-2.34l.006-.102c.068-.892-.495-1.73-1.368-2.03zm-.29.84c.477.164.783.622.746 1.11-.108 1.446.796 2.854 2.275 3.363 1.476.508 3.054-.044 3.86-1.25.258-.386.74-.56 1.196-.438l.075.023 2.15.74c.55.19.858.757.713 1.292l-.022.07-7.842 22.78c-.183.535-.76.824-1.315.672l-.072-.023-2.147-.74a1.095 1.095 0 0 1-.745-1.108c.108-1.448-.796-2.855-2.274-3.365-1.478-.508-3.056.045-3.863 1.25-.256.386-.74.56-1.194.44l-.075-.025-1.957-.674c-.55-.19-.86-.758-.715-1.295l.022-.07 7.842-22.778c.183-.534.76-.823 1.315-.67l.072.02 1.96.676z" fill="#000" fill-rule="nonzero" />
</svg>