<?xml version="1.0" encoding="utf-8"?>
<svg xmlns="http://www.w3.org/2000/svg" xmlns:inkscape="http://www.inkscape.org/namespaces/inkscape" version="1.1" width="600" height="600" id="svg4171">
  <g transform="translate(-2.0055,38.21478)" id="layer1">
    <g transform="matrix(6,0,0,6,5042.0055,-38.21478)" id="g159">
      <path d="M-740 49.998C-740 77.613-762.383 100-790 100c-27.613 0-50-22.387-50-50.002C-840 22.385-817.613 0-790 0c27.617 0 50 22.385 50 49.998z" inkscape:connector-curvature="0" id="path161" style="fill: rgb(202, 197, 192);" />
    </g>
    <g transform="matrix(6,0,0,6,5042.0055,-38.21478)" id="g163">
      <path d="M-783.36 80v-3.297c4.704-.52 7.06-1.887 7.06-4.082 0-1.58-.63-3.163-1.883-4.745l-13.008-16.01-10.274 12.11c-2.57 2.974-3.863 5.433-3.863 7.355 0 2.976 2.354 4.77 7.07 5.387V80h-25.05v-3.287c3.17-.61 5.866-1.752 8.1-3.416 1.54-1.223 3.638-3.37 6.286-6.438l15.448-17.916-17.867-21.66c-2.314-2.797-4.12-4.633-5.4-5.51-1.724-1.225-4.121-2.012-7.203-2.36V16h29.539v3.285c-4.453.877-6.676 2.234-6.676 4.074 0 1.23.594 2.585 1.793 4.07l11.816 14.323 9.507-11.69c1.71-2.105 2.57-3.942 2.57-5.52 0-2.63-2.105-4.34-6.301-5.13V16h23.512v3.29c-2.055.44-3.473.835-4.23 1.19-2.57 1.228-6.496 4.868-11.797 10.92-.85.968-4.452 5.392-10.788 13.284l18.977 23.363c4.112 5.078 8.304 7.97 12.585 8.666V80h-29.924z" inkscape:connector-curvature="0" id="path165" style="fill: rgb(13, 15, 15);" />
    </g>
  </g>
</svg>