<?xml version="1.0" encoding="utf-8"?>
<svg id="Layer_1" data-name="Layer 1" xmlns="http://www.w3.org/2000/svg" viewBox="0 0 200.42 200">
  <defs>
    <style>.cls-1 { fill: rgb(157, 197, 188); }.cls-2 { fill: rgb(254, 187, 187); }.cls-3 { fill: rgb(2, 1, 1); }.cls-4 { fill: rgb(183, 183, 183); }</style>
  </defs>
  <path class="cls-2" d="M200.42 98.81v2.215c0 18.842-5.224 37.414-15.61 53.134-7.823 11.837-17.893 21.91-29.665 29.624-15.66 10.26-34.014 15.644-52.728 16.164l-1.874.052V100l86.893-50 .215.375c8.43 14.738 12.77 31.457 12.77 48.435zm-24.954 14.187c-4.07-18.763-21.831-27.416-39.959-22.984 2.142 1.467 18.346 1.828 14.97 6.972-.467.713-7.494.727-7.98 3.003 11.55 1.46 20.984-10.597 20.962 10.006L158.482 107c-2.288 6.686 11.865 10.662 11.997 11.537.952 6.286-9.544 18.732-6.027 1.463-5.238 3.627-1.602 10.554-4.217 16.267-2.982 6.516-12.879 6.453-12.6 1.409.15-2.692 14.623-10.962 11.829-18.67-4.401 1.649-8.226 4.844-13.132 5.317-7.564.73-10.672-4.11-19.328 1.672-10.264 6.855-10.466 21.628-1.877 29.89 7.955 7.653 29.304 3.977 39.328 1.1-1.36-2.123-14.735.754-10.533-5.04 1.812-2.499 29.89-.968 28.025-15.94-3.639 4.203-9.322 5.658-14.487 6.984 11.871-12.446 19.482-22.658 9.974-39.981-2.585 1.656 3.152 10.564-1.968 9.987zm-49.98-11.994c.148.08.486 2.597 1.524 2.976.977-4.505 9.572-4.52 8.41-8.386-2.334-7.775-14.985 3.162-15.893 7.913 1.674 1.64 4.97-3.039 5.96-2.504zm27.988 3c-1.542-1.57-6.238 1.898-7.492 1.95-2.056.087-3.71-2.887-5.483-1.458 1.917.904 3.486 4.85 4.695 5.557 6.088 3.559 10.504-3.788 8.28-6.05z" />
  <path class="cls-3" d="M181.948 136.005c-3.639 4.203-9.322 5.658-14.487 6.984 11.871-12.446 19.482-22.658 9.974-39.982-2.585 1.658 3.152 10.566-1.968 9.989-4.07-18.763-21.831-27.416-39.959-22.984 2.142 1.467 18.346 1.828 14.97 6.972-.467.713-7.494.727-7.98 3.003 11.55 1.46 20.984-10.597 20.962 10.006L158.482 107c-2.288 6.686 11.865 10.661 11.997 11.537.952 6.286-9.544 18.732-6.027 1.463-5.238 3.627-1.602 10.554-4.217 16.267-2.982 6.516-12.879 6.453-12.6 1.409.15-2.692 14.623-10.962 11.829-18.67-4.401 1.649-8.226 4.844-13.132 5.317-7.564.73-10.672-4.11-19.328 1.672-10.264 6.855-10.466 21.628-1.877 29.89 7.955 7.653 29.304 3.977 39.328 1.1-1.36-2.123-14.735.754-10.533-5.04 1.812-2.499 29.89-.968 28.025-15.94z" />
  <path class="cls-3" d="M125.487 101.003c.147.08.485 2.597 1.523 2.976.977-4.505 9.572-4.52 8.41-8.386-2.334-7.775-14.985 3.162-15.893 7.913 1.674 1.64 4.97-3.039 5.96-2.504z" />
  <path class="cls-3" d="M145.195 110.052c6.088 3.559 10.504-3.788 8.28-6.05-1.543-1.568-6.24 1.9-7.493 1.952-2.056.086-3.71-2.888-5.483-1.46 1.917.905 3.486 4.851 4.695 5.558z" />
  <path d="M121.51 22.98c-.184.31-5.82 1.86-5.985 4.008 7.524.323 7.095-6.356 12.809.692 5.286 6.52 9.587 18.892 6.407 27.06-2.72 6.992-15.856 4.999-17.727 8.25-2.096 3.644 1.265 20.675-1.413 22.583-8.261 5.033-2.076-15.762-8.063-10.565-.39.339 2.545 6.881-4.99 6.986l-.517-8c-4.903 1.034.292 12.326-5.967 11.014-1.744-.365-1.446-10.054-4.496-11.007-1.92 3.685 1.608 14.155-3.998 11.49-6.612-3.144.737-17.461-2.07-21.841-3.264-5.09-15.871-.649-18.441-10.624-2.86-11.093 3.416-24.073 12.015-31.02 1.487 6.683 1.936 8.83 9.483 8.983-25.839-23.296 38.216-16.89 32.952-8.01zM79.284 39.219c-6.824 1.583-11.773 14.445-.205 15.772 28.607 3.28 12.6-18.652.204-15.773zm49.982 14.54c6.289-6.325-6.25-22.456-17.388-11.41-15.758 15.625 14.358 14.458 17.388 11.41zm-28.71 12.233-1.505-13.987c-4.055 4.592-4.15 11.334-3.032 17.051l10.513.945c.45-5.91-.065-12.227-3.978-16.996l-1.996 12.987z" />
  <path d="M75.886 102.702c.35.472 2.54.352 3.634 1.886 1.615 2.265-.235 4.502.163 5.24.271.502 4.357 1.602 5.423 5.12 1.186 3.913-.32 6.603-.038 9.559.214 2.236 3.202 3.45 1.768 7.19-2.95 7.695-8.891.458-11.663.218-8.21-.712-16.808 1.33-17.573 10.582-1.122 13.56 3.37 9.506 12.678 12.353 1.645.504 2.785-.732 2.294 2.144l-4.982.018 1.986 2.982c-1.788.857-8.412-1.47-8.98-.994-.467.392 1.147 3.67-1.51 3.02-3.588-.192-6.408-7.936-8.501-.028-2.52 1.525-3.122-7.901-8.956.007.556-8.4-8.187-3.997-13.99-5.012 6.94-8.05 17.054-.392 14.99-13.513-.77-4.904-5.139-8.565-9.98-9.108-3.268-.367-7 10.216-15.092 4.217-7.47-5.538-1.408-10.456-1.078-13.26.178-1.516-3.068-3.943-1.392-9.415.95-3.106 3.37-1.86 4.63-3.593 3.052-4.197-.044-10.534 3.331-14.415 4.834-5.559 9.862-.504 11.974-1.028 2.054-.51 3.04-10.203 14.746-9.308 5.848.447 7.294 4.736 9.55 5.294 3.146.776 5.033-2.13 10.175.736 4.02 2.242 4.239 6.21 6.39 9.106zm-27.283 10.293c-2.301-2.494-4.536 2.548-.49 5 .835-.518.66-4.816.49-5zm13.991 2.025L57.608 113v9c2.867-1.25 4.03-4.244 4.986-6.98zm-20.978 5.968c-1.518-3.49-3.868-3.225-6.983-1.973l6.983 1.973zm24.964 4.008-6.98 3.992c3.97-.878 9.652.685 6.98-3.992zM43.602 134c.766-7.268-6.432-7.428-11.968-6.988L43.602 134z" />
  <path class="cls-4" d="M158.19 17.294C142.004 5.804 122.464 0 102.615 0h-3.378C73.227 0 48.111 10.17 29.911 28.752 23.438 35.362 17.895 42.62 13.65 50l86.893 50 86.893-50c-7.797-13.562-17.57-24.418-29.246-32.706zM134.74 54.74c-2.72 6.992-15.856 4.999-17.727 8.25-2.096 3.644 1.265 20.675-1.413 22.583-8.261 5.033-2.076-15.762-8.063-10.565-.39.339 2.545 6.881-4.99 6.986l-.517-8c-4.903 1.034.292 12.326-5.967 11.014-1.744-.365-1.446-10.054-4.496-11.007-1.92 3.685 1.608 14.155-3.998 11.49-6.612-3.144.737-17.461-2.07-21.841-3.264-5.09-15.871-.649-18.441-10.624-2.86-11.093 3.416-24.073 12.015-31.02 1.487 6.683 1.936 8.83 9.483 8.983-25.839-23.296 38.216-16.89 32.952-8.01-.184.31-5.82 1.86-5.985 4.009 7.524.32 7.095-6.358 12.809.69 5.286 6.52 9.587 18.892 6.407 27.06z" />
  <path class="cls-4" d="M111.878 42.35c-15.758 15.625 14.358 14.458 17.388 11.41 6.289-6.325-6.25-22.456-17.388-11.41z" />
  <path class="cls-4" d="M79.284 39.219c-6.824 1.583-11.773 14.445-.205 15.772 28.607 3.28 12.6-18.652.204-15.773z" />
  <path class="cls-4" d="m100.556 65.993-1.505-13.987c-4.055 4.592-4.15 11.334-3.032 17.051l10.513.945c.45-5.91-.065-12.227-3.978-16.996l-1.996 12.987z" />
  <path class="cls-1" d="M13.65 50C7.078 61.434 1.93 73.5.668 87c-.774 8.272-.997 18.111 0 26 5.881 37.827 31.324 68.07 66.035 80.788 9.309 3.41 19.114 5.273 29.008 5.904l4.833.308V100L13.651 50zm73.186 81.696c-2.95 7.696-8.891.459-11.663.219-8.21-.712-16.808 1.33-17.573 10.582-1.122 13.56 3.37 9.506 12.678 12.353 1.645.504 2.785-.732 2.294 2.144l-4.982.018 1.986 2.982c-1.788.857-8.412-1.47-8.98-.994-.467.392 1.147 3.67-1.51 3.02-3.588-.192-6.408-7.936-8.501-.028-2.52 1.525-3.122-7.901-8.956.007.556-8.4-8.187-3.997-13.99-5.012 6.94-8.05 17.054-.392 14.99-13.513-.77-4.904-5.139-8.565-9.98-9.108-3.268-.367-7 10.216-15.092 4.217-7.47-5.538-1.408-10.456-1.078-13.26.178-1.516-3.067-3.943-1.392-9.415.95-3.106 3.37-1.86 4.63-3.593 3.052-4.197-.044-10.534 3.331-14.415 4.834-5.559 9.862-.504 11.974-1.028 2.054-.51 3.04-10.203 14.746-9.308 5.848.447 7.294 4.736 9.55 5.294 3.146.776 5.033-2.13 10.175.736 4.02 2.242 4.239 6.21 6.39 9.106.351.472 2.541.352 3.635 1.886 1.615 2.265-.235 4.502.163 5.24.271.502 4.357 1.602 5.423 5.12 1.186 3.913-.32 6.603-.038 9.559.214 2.236 3.202 3.45 1.768 7.19z" />
  <path class="cls-1" d="M31.634 127.012 43.602 134c.766-7.268-6.432-7.428-11.968-6.988z" />
  <path class="cls-1" d="M57.608 113v9c2.867-1.25 4.03-4.244 4.986-6.98L57.608 113z" />
  <path class="cls-1" d="M59.6 128.988c3.97-.878 9.652.685 6.98-3.992l-6.98 3.992z" />
  <path class="cls-1" d="m34.633 119.015 6.983 1.973c-1.518-3.49-3.868-3.225-6.983-1.973z" />
  <path class="cls-1" d="M48.114 117.995c.834-.518.659-4.816.489-5-2.301-2.494-4.536 2.548-.49 5z" />
</svg>