<?xml version="1.0" encoding="utf-8"?>
<svg id="Layer_1" data-name="Layer 1" xmlns="http://www.w3.org/2000/svg" viewBox="0 0 200.532 200">
  <defs>
    <style>.cls-1 { fill: rgb(157, 197, 188); }.cls-2 { fill: rgb(254, 187, 187); }.cls-3 { fill: rgb(252, 252, 216); }.cls-4 { fill: rgb(2, 1, 1); }</style>
  </defs>
  <path class="cls-2" d="M156.092 15.77c12.658 8.465 23.173 19.82 31.456 34.23l-86.892 50-86.893-50c4.248-7.388 9.8-14.655 16.282-21.27C48.236 10.168 73.33 0 99.32 0h3.497c18.909 0 37.557 5.258 53.275 15.77zM125.64 37.997c-4.069-18.763-21.83-27.416-39.958-22.984 2.141 1.467 18.346 1.828 14.97 6.972-.467.713-7.494.727-7.98 3.003 11.55 1.46 20.984-10.597 20.962 10.006L108.657 32c-2.288 6.686 11.865 10.662 11.998 11.537.951 6.286-9.544 18.732-6.028 1.463-5.237 3.627-1.602 10.554-4.216 16.267-2.981 6.516-12.878 6.453-12.6 1.409.15-2.692 14.623-10.962 11.83-18.67-4.402 1.649-8.226 4.844-13.133 5.317-7.564.73-10.672-4.11-19.327 1.672-10.265 6.855-10.467 21.628-1.878 29.89 7.956 7.653 29.305 3.977 39.328 1.1-1.36-2.123-14.735.754-10.533-5.04 1.812-2.499 29.89-.968 28.025-15.94-3.638 4.203-9.322 5.658-14.487 6.984 11.87-12.446 19.482-22.658 9.973-39.981-2.584 1.656 3.153 10.564-1.968 9.987zM75.661 26.003c.148.08.487 2.597 1.525 2.976.977-4.505 9.571-4.52 8.41-8.386-2.335-7.775-14.985 3.162-15.893 7.913 1.673 1.64 4.97-3.039 5.96-2.504zm27.989 3c-1.544-1.57-6.24 1.898-7.494 1.95-2.055.087-3.71-2.887-5.482-1.458 1.918.904 3.487 4.85 4.695 5.557 6.087 3.559 10.503-3.788 8.279-6.05z" />
  <path class="cls-4" d="M132.122 61.005c-3.638 4.203-9.322 5.658-14.487 6.984 11.87-12.446 19.482-22.658 9.973-39.982-2.584 1.658 3.153 10.566-1.968 9.989-4.069-18.763-21.83-27.416-39.958-22.984 2.141 1.467 18.346 1.828 14.97 6.972-.467.713-7.494.727-7.98 3.003 11.55 1.46 20.984-10.597 20.962 10.006L108.657 32c-2.288 6.686 11.865 10.661 11.998 11.537.951 6.286-9.544 18.732-6.028 1.463-5.237 3.627-1.602 10.554-4.216 16.267-2.981 6.516-12.878 6.453-12.6 1.409.15-2.692 14.623-10.962 11.83-18.67-4.402 1.649-8.226 4.844-13.132 5.317-7.565.73-10.673-4.11-19.328 1.672-10.265 6.855-10.467 21.628-1.878 29.89 7.956 7.653 29.305 3.977 39.328 1.1-1.36-2.123-14.735.754-10.533-5.04 1.812-2.499 29.89-.968 28.025-15.94z" />
  <path class="cls-4" d="M75.661 26.003c.148.08.487 2.597 1.525 2.976.977-4.505 9.571-4.52 8.41-8.386-2.335-7.775-14.986 3.162-15.893 7.913 1.673 1.64 4.97-3.039 5.96-2.504z" />
  <path class="cls-4" d="M95.37 35.052c6.087 3.559 10.503-3.788 8.279-6.05-1.544-1.568-6.24 1.9-7.494 1.952-2.055.086-3.71-2.888-5.482-1.46 1.918.905 3.487 4.851 4.695 5.558z" />
  <path d="M175.875 102.702c.35.472 2.54.352 3.634 1.886 1.614 2.265-.236 4.502.162 5.24.271.502 4.357 1.602 5.423 5.12 1.186 3.913-.32 6.603-.037 9.559.213 2.236 3.2 3.45 1.767 7.19-2.95 7.695-8.891.458-11.663.218-8.21-.712-16.808 1.33-17.573 10.582-1.122 13.56 3.37 9.506 12.677 12.353 1.646.504 2.785-.732 2.294 2.144l-4.981.018 1.985 2.982c-1.788.857-8.411-1.47-8.98-.994-.467.392 1.147 3.67-1.51 3.02-3.588-.192-6.408-7.936-8.501-.028-2.52 1.525-3.122-7.901-8.956.007.557-8.4-8.185-3.997-13.99-5.012 6.94-8.05 17.055-.392 14.991-13.513-.772-4.904-5.14-8.565-9.98-9.108-3.27-.367-7 10.216-15.093 4.217-7.469-5.538-1.408-10.456-1.078-13.26.177-1.516-3.068-3.943-1.393-9.415.95-3.106 3.37-1.86 4.63-3.593 3.052-4.197-.044-10.534 3.331-14.415 4.835-5.559 9.863-.504 11.975-1.028 2.054-.51 3.04-10.203 14.747-9.308 5.847.447 7.293 4.736 9.55 5.294 3.145.776 5.032-2.13 10.174.736 4.02 2.242 4.239 6.21 6.39 9.106zm-27.283 10.293c-2.301-2.494-4.535 2.548-.49 5 .835-.518.66-4.816.49-5zm13.991 2.025-4.986-2.02v9c2.867-1.25 4.03-4.244 4.986-6.98zm-20.978 5.968c-1.518-3.49-3.868-3.225-6.983-1.973l6.983 1.973zm24.964 4.008-6.981 3.992c3.969-.878 9.651.685 6.979-3.992zM143.59 134c.767-7.268-6.43-7.428-11.967-6.988L143.591 134z" />
  <path class="cls-3" d="M13.763 50C7.19 61.434 2.043 73.5.78 87c-.775 8.272-1.275 19.333 0 26 4.705 30.262 21.972 55.84 46.475 71.417 15.4 9.79 33.295 14.937 51.534 15.523l1.866.06V100L13.763 50zm67.453 75.973c-3.193.366-3.192 4.203-5.209 4.885-3.278 1.108-5.934-2.31-7.577 1.395-3.346 7.55 7.1 6.091 8.147 6.854 1.89 1.38-.872 13.168-.902 15.887-2.096-1.58-1.965-6.416-4.431-8.095-2.682-1.826-4.483.617-6.836-.02-2.73-.74-2.96-7.407-8.006-3.948-5.37 3.68 2.288 8.146 2.381 8.67.606 3.404-12.021 13.37-12.053 10.905 7.128-7.785-.613-9.327-1.575-13.458-.42-1.8 1.247-6.36.572-7.048-.248-.252-6.152-.196-7.059.435-1.998 1.39-.22 6.324-1.051 7.45-1.61 2.179-16.497.023-14.863-1.875 9.417-.485 6.193-5.813 7.688-9.718 1.05-2.742 4.517-2.681 4.184-4.614-4.414-9.653-6.46-1.652-9.602-.822-4.613 1.219-9.358-7.273-11.26-10.847.67-.546 6.037 3.031 9.318 2.048 1.382-.414.829-3.154 2.362-4.165 2.843-1.876 6.282 2.352 8.576-2.16 3.627-7.134-7.693-6.042-8.606-7.953-1.89-3.957 2.084-10.443 1.345-14.774 2.265 1.81 1.314 6.243 4.449 8.11 2.393 1.426 4.325-.707 6.81.02 1.815.53 5.811 9.695 9.182 1.833 2.653-6.189-3.1-6.371-3.46-7.003-1.368-2.4 10.455-11.586 10.96-10.966-4.682 8.586 1.117 8.228 2.596 12.963.792 2.538-.494 4.99-.064 6.106.815 2.11 6.29 3.647 7.33 1.783.721-1.29-.384-4.452.274-6.217 1.515-4.069 13.212.292 16.836-.625-1.3 2.235-7.163 1.655-8.536 3.984-1.363 2.312 1.06 4.94.426 7.296-.722 2.682-5.6 2.478-4.76 6.026 1.742 7.347 8.028-1.04 8.544-1.219 4.794-1.657 9.491 8.54 12.316 11.409-2.958 1.023-5.23-2.903-8.448-2.533z" />
  <path class="cls-3" d="M51.217 107.547c-17.959-.002-23.968 25.574-7.175 32.638 27.123 11.41 33.377-32.634 7.175-32.638zm4.76 31.216c-23.394 4.894-25.146-25.925-7.503-28.529 19.993-2.95 23.032 25.28 7.503 28.53z" />
  <path class="cls-1" d="m187.764 50.375-.216-.375-86.892 50v100l1.687-.04c17.008-.395 33.763-4.807 48.447-13.398 13.738-8.037 25.405-19.16 34.2-32.505 10.346-15.7 15.542-34.236 15.542-53.038v-2.21c0-16.978-4.338-33.697-12.768-48.435zm-.939 81.321c-2.95 7.696-8.891.459-11.663.219-8.21-.712-16.808 1.33-17.573 10.582-1.122 13.56 3.37 9.506 12.677 12.353 1.646.504 2.785-.732 2.294 2.144l-4.981.018 1.985 2.982c-1.788.857-8.411-1.47-8.98-.994-.467.392 1.147 3.67-1.51 3.02-3.588-.192-6.408-7.936-8.501-.028-2.52 1.525-3.122-7.901-8.956.007.557-8.4-8.185-3.997-13.99-5.012 6.94-8.05 17.055-.392 14.991-13.513-.772-4.904-5.14-8.565-9.98-9.108-3.27-.367-7 10.216-15.093 4.217-7.469-5.538-1.408-10.456-1.078-13.26.177-1.516-3.068-3.943-1.393-9.415.95-3.106 3.37-1.86 4.63-3.593 3.052-4.197-.044-10.534 3.331-14.415 4.835-5.559 9.863-.504 11.975-1.028 2.054-.51 3.04-10.203 14.747-9.308 5.847.447 7.293 4.736 9.55 5.294 3.145.776 5.032-2.13 10.174.736 4.02 2.242 4.239 6.21 6.39 9.106.351.472 2.541.352 3.635 1.886 1.614 2.265-.236 4.502.162 5.24.271.502 4.357 1.602 5.423 5.12 1.186 3.913-.32 6.603-.038 9.559.214 2.236 3.202 3.45 1.768 7.19z" />
  <path class="cls-1" d="M131.623 127.012 143.591 134c.767-7.268-6.43-7.428-11.967-6.988z" />
  <path class="cls-1" d="M157.597 113v9c2.867-1.25 4.03-4.244 4.986-6.98l-4.986-2.02z" />
  <path class="cls-1" d="M159.589 128.988c3.969-.878 9.651.685 6.979-3.992l-6.981 3.992z" />
  <path class="cls-1" d="m134.622 119.015 6.983 1.973c-1.518-3.49-3.868-3.225-6.983-1.973z" />
  <path class="cls-1" d="M148.103 117.995c.834-.518.66-4.816.489-5-2.301-2.494-4.535 2.548-.49 5z" />
  <path d="M77.348 117.097c-.516.179-6.802 8.566-8.543 1.22-.84-3.549 4.037-3.345 4.76-6.027.633-2.355-1.79-4.984-.427-7.296 1.373-2.329 7.237-1.75 8.536-3.983-3.625.918-15.32-3.443-16.836.626-.658 1.765.447 4.927-.273 6.217-1.041 1.864-6.516.328-7.33-1.784-.431-1.118.855-3.57.063-6.107-1.48-4.735-7.278-4.377-2.596-12.962-.505-.62-12.328 8.567-10.96 10.967.36.632 6.113.814 3.46 7.002-3.37 7.861-7.367-1.304-9.18-1.834-2.487-.727-4.419 1.406-6.813-.02-3.136-1.867-2.185-6.3-4.451-8.11.738 4.33-3.235 10.817-1.346 14.774.913 1.911 12.233.82 8.606 7.954-2.294 4.511-5.733.283-8.576 2.159-1.533 1.01-.98 3.75-2.362 4.165-3.281.983-8.649-2.594-9.318-2.047 1.902 3.575 6.647 12.067 11.26 10.848 3.141-.83 5.188-8.83 9.602.822.333 1.933-3.134 1.872-4.184 4.614-1.495 3.905 1.73 9.233-7.688 9.718-1.634 1.898 13.254 4.054 14.862 1.875.832-1.126-.946-6.06 1.052-7.45.907-.63 6.811-.687 7.06-.435.674.687-.992 5.248-.573 7.047.961 4.13 8.703 5.672 1.575 13.457.032 2.466 12.659-7.5 12.053-10.904-.093-.525-7.75-4.991-2.381-8.671 5.045-3.46 5.277 3.208 8.006 3.947 2.353.637 4.154-1.806 6.836.02 2.466 1.678 2.335 6.513 4.43 8.094.031-2.719 2.793-14.508.903-15.887-1.047-.763-11.493.696-8.147-6.854 1.643-3.705 4.299-.287 7.577-1.395 2.017-.682 2.016-4.52 5.21-4.885 3.218-.37 5.489 3.556 8.447 2.533-2.825-2.868-7.522-13.066-12.316-11.409zm-33.306 23.088c-16.793-7.064-10.784-32.64 7.175-32.638 26.202.004 19.948 44.049-7.175 32.638z" />
  <path d="M48.474 110.234c-17.643 2.604-15.891 33.423 7.503 28.53 15.529-3.25 12.49-31.48-7.503-28.53z" />
</svg>