<?xml version="1.0" encoding="utf-8"?>
<svg id="Layer_1" data-name="Layer 1" xmlns="http://www.w3.org/2000/svg" viewBox="0 0 200.521 200">
  <defs>
    <style>.cls-1 { fill: rgb(168, 223, 248); }.cls-2 { fill: rgb(254, 187, 187); }.cls-3 { fill: rgb(252, 252, 216); }.cls-4 { fill: rgb(2, 1, 1); }</style>
  </defs>
  <path class="cls-2" d="M153.752 14.26c13.702 8.608 24.999 20.456 33.785 35.74l-86.893 50-86.892-50c4.6-8 10.729-15.859 17.914-22.902C49.608 9.511 73.952 0 99.076 0h3.935c17.904 0 35.582 4.737 50.742 14.26zm-28.123 23.737c-4.07-18.763-21.832-27.416-39.96-22.984 2.142 1.467 18.346 1.828 14.971 6.972-.467.713-7.494.727-7.98 3.003 11.55 1.46 20.984-10.597 20.962 10.006L108.646 32c-2.288 6.686 11.865 10.662 11.997 11.537.952 6.286-9.544 18.732-6.027 1.463-5.238 3.627-1.602 10.554-4.217 16.267-2.983 6.516-12.88 6.453-12.6 1.409.149-2.692 14.622-10.962 11.828-18.67-4.401 1.649-8.226 4.844-13.132 5.317-7.564.73-10.672-4.11-19.328 1.672-10.264 6.855-10.466 21.628-1.877 29.89 7.956 7.653 29.305 3.977 39.329 1.1-1.361-2.123-14.736.754-10.534-5.04 1.812-2.499 29.89-.968 28.025-15.94-3.638 4.203-9.321 5.658-14.486 6.984 11.87-12.446 19.481-22.658 9.973-39.981-2.585 1.656 3.152 10.564-1.968 9.987zM75.65 26.003c.147.08.485 2.597 1.523 2.976.977-4.505 9.572-4.52 8.41-8.386-2.334-7.775-14.985 3.162-15.893 7.913 1.674 1.64 4.97-3.039 5.96-2.504zm27.987 3c-1.542-1.57-6.238 1.898-7.492 1.95-2.056.087-3.71-2.887-5.483-1.458 1.918.904 3.487 4.85 4.696 5.557 6.088 3.559 10.504-3.788 8.28-6.05z" />
  <path d="M56.688 93c-8.815 22.38 25.046 33.913 11.834 55.337-10.2 16.539-34.76 11.416-37.526-8.098-2.599-18.332 12.898-36.117 25.692-47.24zm6.981 32.01c-.145-.117-2.097-.368-1.984.493l-1.563 14.557c10.892 5.581 7.645-11.74 3.546-15.05z" />
  <path class="cls-4" d="M132.11 61.005c-3.638 4.203-9.321 5.658-14.486 6.984 11.87-12.446 19.481-22.658 9.973-39.982-2.585 1.658 3.152 10.566-1.968 9.989-4.07-18.763-21.832-27.416-39.96-22.984 2.142 1.467 18.346 1.828 14.971 6.972-.467.713-7.494.727-7.98 3.003 11.55 1.46 20.984-10.597 20.962 10.006L108.646 32c-2.288 6.686 11.865 10.661 11.997 11.537.952 6.286-9.544 18.732-6.027 1.463-5.238 3.627-1.602 10.554-4.217 16.267-2.983 6.516-12.88 6.453-12.6 1.409.149-2.692 14.622-10.962 11.828-18.67-4.401 1.649-8.226 4.844-13.132 5.317-7.564.73-10.672-4.11-19.328 1.672-10.264 6.855-10.466 21.628-1.877 29.89 7.956 7.653 29.305 3.977 39.329 1.1-1.361-2.123-14.736.754-10.534-5.04 1.812-2.499 29.89-.968 28.025-15.94z" />
  <path class="cls-4" d="M75.65 26.003c.147.08.485 2.597 1.523 2.976.977-4.505 9.572-4.52 8.41-8.386-2.334-7.775-14.985 3.162-15.893 7.913 1.674 1.64 4.97-3.039 5.96-2.504z" />
  <path class="cls-4" d="M95.358 35.052c6.088 3.559 10.504-3.788 8.28-6.05-1.543-1.568-6.24 1.9-7.493 1.952-2.056.086-3.71-2.888-5.483-1.46 1.918.905 3.487 4.851 4.696 5.558z" />
  <path class="cls-1" d="M13.752 50C7.18 61.434 2.032 73.5.768 87c-.774 8.272-1.247 18.444 0 26 4.852 31.208 23.018 57.417 48.718 72.821 14.775 8.857 31.691 13.503 48.906 14.102l2.252.078V100L13.752 50zm54.77 98.337c-10.2 16.539-34.76 11.416-37.526-8.098-2.599-18.332 12.898-36.117 25.692-47.24-8.815 22.38 25.046 33.913 11.833 55.337z" />
  <path class="cls-1" d="M63.67 125.01c-.145-.117-2.097-.368-1.984.493l-1.563 14.557c10.892 5.581 7.645-11.74 3.546-15.05z" />
  <path class="cls-3" d="m187.537 50-86.893 50v100l2.093-.058c17.73-.489 35.152-5.35 50.236-14.68 12.687-7.848 23.5-18.39 31.815-30.918 10.461-15.762 15.733-34.402 15.733-53.319V98.81c0-16.978-4.338-33.697-12.768-48.435l-.215-.375zm-8.32 75.933c-1.338.383-1.095 3.71-2.647 4.588-2.222 1.26-5.506-.55-7.51 1.475-6.978 7.054 7 6.527 7.497 7 .986.941-.978 13.478-1.017 16-2.207-1.777-1.576-7.194-5.025-8.537-2.318-.904-4.155.97-6.242.422-2.293-.603-3.954-8.12-8.439-3.62-4.022 4.037 2.917 8.37 2.662 10.096-.27 1.826-8.895 8.168-10.898 9.644 5-9.14-1.544-9.583-2.586-13.96-.594-2.498 1.788-5.762 1.575-6.028-.252-.316-6.846-1.486-8.06-.59-1.666 1.23-.316 4.884-1.389 6.61-1.878 3.022-16.061.744-14.52-1.02 9.354-.456 6.303-5.847 7.715-9.748 1.135-3.133 5.137-2.328 4.11-5.56-2.703-8.505-8.29 1.113-12.093.148-1.737-.44-8.557-9.071-7.716-9.847 9.117 4.86 8.786-2.36 11.995-3.542 2.13-.785 8.431 2.926 7.666-4.798-.612-6.188-7.492-3.062-8.573-3.746-2.935-1.857 1.978-12.71.9-15.915 2.267 1.81 1.316 6.244 4.45 8.11 2.396 1.428 4.328-.707 6.813.02 3.181.932 3.382 9.396 9.758.327.741-4.201-4.032-6.184-4.035-6.962-.004-.726 8.946-9.122 10.957-9.5-5.34 8.034 1.964 9.36 2.823 13.774.412 2.115-1.307 5.435-.764 6.162.15.199 4.407 1.721 4.654 1.75 5.26.618 2.42-4.357 3.423-7.05 1.514-4.068 13.212.292 16.836-.625-1.302 2.242-7.138 1.635-8.516 3.98-1.544 2.627.867 5.318.386 7.33-.61 2.546-5.58 2.46-4.74 5.996 1.742 7.347 8.026-1.041 8.543-1.219 4.657-1.603 9.988 8.672 12.32 11.892-1.06.859-6.768-4.075-10.316-3.057z" />
  <path class="cls-3" d="M150.342 107.279c-20.202.825-22.287 30.514-2.816 34.273 26.164 5.05 27.273-35.274 2.816-34.274zm5.5 31.483c-22.686 4.752-25.545-25.866-7.503-28.529 20.177-2.977 22.76 25.332 7.502 28.529z" />
  <path d="M177.213 117.097c-.517.178-6.8 8.566-8.543 1.22-.84-3.537 4.13-3.45 4.74-5.998.481-2.012-1.93-4.703-.386-7.33 1.378-2.345 7.214-1.738 8.515-3.979-3.625.918-15.323-3.442-16.837.626-1.003 2.693 1.838 7.668-3.423 7.05-.247-.029-4.505-1.551-4.654-1.75-.543-.727 1.176-4.047.764-6.162-.86-4.415-8.163-5.74-2.823-13.774-2.01.378-10.96 8.774-10.958 9.5.002.778 4.775 2.76 4.034 6.962-6.376 9.069-6.577.605-9.758-.326-2.485-.728-4.417 1.407-6.812-.02-3.135-1.867-2.184-6.3-4.45-8.11 1.077 3.205-3.836 14.057-.901 15.913 1.081.683 7.96-2.443 8.573 3.745.765 7.724-5.536 4.013-7.667 4.798-3.21 1.181-2.879 8.401-11.996 3.542-.84.776 5.979 9.406 7.716 9.847 3.803.965 9.39-8.653 12.092-.148 1.028 3.232-2.974 2.427-4.109 5.56-1.412 3.901 1.64 9.292-7.714 9.748-1.543 1.764 12.64 4.042 14.518 1.02 1.073-1.726-.277-5.38 1.389-6.61 1.214-.896 7.808.274 8.06.59.213.266-2.17 3.53-1.575 6.029 1.042 4.377 7.585 4.82 2.586 13.96 2.003-1.476 10.628-7.818 10.898-9.644.255-1.726-6.684-6.06-2.662-10.095 4.485-4.5 6.146 3.017 8.439 3.62 2.087.548 3.924-1.326 6.242-.422 3.45 1.343 2.818 6.76 5.025 8.536.04-2.521 2.003-15.058 1.017-15.999-.496-.473-14.475.054-7.496-7 2.004-2.024 5.288-.216 7.51-1.474 1.552-.877 1.31-4.204 2.647-4.587 3.548-1.018 9.257 3.916 10.317 3.056-2.333-3.221-7.663-13.496-12.32-11.893zm-29.687 24.456c-19.47-3.759-17.386-33.448 2.816-34.274 24.457-1.001 23.348 39.323-2.816 34.273z" />
  <path d="M148.34 110.234c-18.043 2.663-15.184 33.28 7.502 28.529 15.258-3.197 12.675-31.506-7.503-28.529z" />
</svg>