<?xml version="1.0" encoding="utf-8"?>
<svg id="Layer_1" data-name="Layer 1" xmlns="http://www.w3.org/2000/svg" viewBox="0 0 200.475 200">
  <defs>
    <style>.cls-1 { fill: rgb(168, 223, 248); }.cls-2 { fill: rgb(254, 187, 187); }.cls-3 { fill: rgb(183, 183, 183); }.cls-4 { fill: rgb(3, 2, 2); }</style>
  </defs>
  <path class="cls-2" d="M100.6 100v100l-4.42-.261c-10.959-.649-21.806-2.835-32.008-6.888C30.786 179.59 6.457 149.882.722 113c-1.135-8.848-.773-17.728 0-26 1.264-13.5 6.411-25.566 12.985-37l86.892 50zm-24.955 12.997c-4.081-18.918-21.732-27.354-39.959-22.984 2.061 1.798 18.38 1.703 14.97 6.97-.564.873-7.38.242-7.984 3.005 6.037 3.432 11.953-4.473 16.512-2.063 3.856 2.038 5.138 8.034 4.455 12.07L58.66 107c-2.212 7.044 11.862 10.659 11.997 11.538.96 6.251-9.544 18.753-6.028 1.462-5.238 3.627-1.602 10.554-4.217 16.267-2.97 6.49-12.857 6.48-12.596 1.411.124-2.419 14.895-11.16 11.823-18.672-13.052 10.85-30.868-3.869-38.84 14.6-2.768 6.41-2.412 10.112.401 16.386 7.47 16.66 29.618 10.247 43.431 6.994-1.36-2.124-14.735.753-10.533-5.04 1.812-2.5 29.889-.968 28.026-15.94-3.682 3.815-8.68 5.232-13.478 6.994 10.453-13.795 19.058-22.06 8.963-39.991-3.007 1.675 3.252 10.552-1.968 9.987zm-49.95-8.993 9.545-5.97c-1.089-12.168-13.82-.255-15.54 5.955 1.614 1.398 7.214-6.866 5.996.014zm27.861.094c-2.065-2.677-6.013 1.82-7.368 1.897-1.968.112-3.755-2.954-5.51-1.5 3.073 9.957 17.606 5.73 12.878-.397z" />
  <path d="M106.58 18c-8.814 22.38 25.047 33.913 11.834 55.337-10.2 16.539-34.758 11.416-37.525-8.098-2.6-18.332 12.897-36.117 25.69-47.24zm6.982 32.01c-.144-.117-2.097-.368-1.983.493l-1.565 14.557c10.893 5.581 7.645-11.74 3.547-15.05z" />
  <path class="cls-4" d="M82.128 136.006c-3.682 3.815-8.68 5.232-13.478 6.994 10.453-13.795 19.058-22.06 8.963-39.991-3.007 1.675 3.252 10.552-1.968 9.987-4.081-18.918-21.732-27.354-39.959-22.984 2.061 1.798 18.38 1.703 14.97 6.971-.564.872-7.38.24-7.984 3.004 6.037 3.432 11.953-4.473 16.512-2.063 3.856 2.038 5.138 8.034 4.455 12.07L58.66 107c-2.212 7.044 11.862 10.659 11.997 11.538.96 6.251-9.544 18.753-6.028 1.462-5.238 3.627-1.602 10.554-4.217 16.267-2.97 6.49-12.857 6.48-12.596 1.411.124-2.419 14.895-11.16 11.823-18.672-13.052 10.85-30.868-3.869-38.84 14.6-2.768 6.41-2.412 10.112.401 16.386 7.47 16.66 29.618 10.247 43.43 6.994-1.36-2.124-14.734.753-10.532-5.04 1.812-2.5 29.889-.968 28.026-15.94z" />
  <path class="cls-4" d="m25.696 104.004 9.544-5.97c-1.089-12.168-13.82-.255-15.54 5.955 1.614 1.398 7.214-6.866 5.996.014z" />
  <path class="cls-4" d="M53.556 104.098c-2.065-2.677-6.013 1.82-7.368 1.897-1.968.112-3.755-2.954-5.51-1.5 3.073 9.957 17.606 5.73 12.878-.397z" />
  <path d="M171.504 97.98c-.184.31-5.82 1.86-5.985 4.008 7.523.323 7.094-6.356 12.808.692 5.286 6.52 9.587 18.892 6.407 27.06-2.722 6.992-15.857 4.999-17.728 8.25-2.096 3.644 1.265 20.675-1.413 22.583-8.261 5.033-2.076-15.762-8.063-10.565-.39.339 2.546 6.881-4.99 6.986l-.516-8c-4.903 1.034.292 12.326-5.967 11.014-1.744-.365-1.446-10.054-4.496-11.007-1.92 3.685 1.609 14.155-3.997 11.49-6.611-3.144.738-17.461-2.07-21.841-3.263-5.09-15.87-.649-18.44-10.624-2.858-11.093 3.417-24.073 12.016-31.02 1.486 6.683 1.935 8.83 9.482 8.983-25.839-23.296 38.216-16.89 32.952-8.01zm-42.226 16.239c-6.824 1.583-11.773 14.445-.205 15.772 28.608 3.28 12.6-18.652.205-15.773zm49.982 14.54c6.289-6.325-6.25-22.456-17.388-11.41-15.758 15.625 14.358 14.458 17.388 11.41zm-28.71 12.233-1.505-13.987c-4.056 4.592-4.15 11.334-3.033 17.051l10.513.945c.448-5.91-.066-12.227-3.979-16.996l-1.996 12.987z" />
  <path class="cls-1" d="M102.67 0h-3.377C73.283 0 48.167 10.17 29.967 28.752 23.493 35.362 17.949 42.62 13.707 50l86.892 50 86.892-50c-7.797-13.562-17.57-24.418-29.246-32.706C142.06 5.804 122.52 0 102.67 0zm15.744 73.337c-10.2 16.539-34.758 11.416-37.525-8.098-2.6-18.332 12.897-36.117 25.69-47.24-8.814 22.38 25.047 33.913 11.834 55.337z" />
  <path class="cls-1" d="M113.562 50.01c-.144-.117-2.097-.368-1.983.493l-1.565 14.557c10.893 5.581 7.645-11.74 3.547-15.05z" />
  <path class="cls-3" d="m187.491 50-86.89 50v100l4.068-.219c11.72-.63 23.316-3.04 34.151-7.552 18.99-7.907 34.96-21.195 46.193-38.294 10.3-15.676 15.462-34.174 15.462-52.93V98.81c0-16.978-4.338-33.697-12.768-48.435L187.49 50zm-2.755 79.74c-2.722 6.992-15.857 4.999-17.728 8.25-2.096 3.644 1.265 20.675-1.413 22.583-8.262 5.033-2.076-15.762-8.063-10.565-.39.339 2.546 6.881-4.99 6.986l-.516-8c-4.903 1.034.292 12.326-5.967 11.014-1.744-.365-1.446-10.054-4.496-11.007-1.92 3.685 1.609 14.155-3.997 11.49-6.611-3.144.738-17.461-2.07-21.841-3.263-5.09-15.87-.649-18.44-10.624-2.858-11.093 3.417-24.073 12.016-31.02 1.486 6.683 1.935 8.83 9.482 8.983-25.839-23.296 38.216-16.89 32.952-8.01-.184.31-5.82 1.86-5.985 4.009 7.523.32 7.094-6.358 12.808.69 5.286 6.52 9.587 18.892 6.407 27.06z" />
  <path class="cls-3" d="M161.872 117.35c-15.758 15.625 14.358 14.458 17.388 11.41 6.289-6.325-6.25-22.456-17.388-11.41z" />
  <path class="cls-3" d="M129.278 114.219c-6.824 1.583-11.773 14.445-.205 15.772 28.608 3.28 12.6-18.652.205-15.773z" />
  <path class="cls-3" d="m150.55 140.993-1.505-13.987c-4.056 4.592-4.15 11.334-3.033 17.051l10.513.945c.448-5.91-.066-12.227-3.979-16.996l-1.996 12.987z" />
</svg>