<?xml version="1.0" encoding="utf-8"?>
<svg id="Layer_1" data-name="Layer 1" xmlns="http://www.w3.org/2000/svg" viewBox="0 0 200.59 200">
  <defs>
    <style>.cls-1 { fill: rgb(168, 223, 248); }.cls-2 { fill: rgb(157, 197, 188); }.cls-3 { fill: rgb(254, 187, 187); }.cls-4 { fill: rgb(2, 1, 1); }</style>
  </defs>
  <path class="cls-3" d="M200.59 98.865v3.682c0 15.539-3.75 30.905-11.29 44.491a106.43 106.43 0 0 1-8.944 13.564c-19.035 24.549-48.498 38.747-79.555 39.396l-.086.002V100l86.892-50 .188.328c8.452 14.766 12.796 31.523 12.796 48.537zm-24.954 14.132c-4.069-18.763-21.83-27.416-39.958-22.984 2.141 1.467 18.346 1.828 14.97 6.972-.467.713-7.494.727-7.98 3.003 11.55 1.46 20.984-10.597 20.962 10.006L158.654 107c-2.289 6.686 11.864 10.662 11.997 11.537.952 6.286-9.543 18.732-6.027 1.463-5.237 3.627-1.602 10.554-4.216 16.267-2.982 6.516-12.88 6.453-12.6 1.409.15-2.692 14.622-10.962 11.828-18.67-4.4 1.649-8.225 4.844-13.131 5.317-7.565.73-10.673-4.11-19.328 1.672-10.265 6.855-10.467 21.628-1.878 29.89 7.956 7.653 29.305 3.977 39.328 1.1-1.36-2.123-14.735.754-10.533-5.04 1.812-2.499 29.89-.968 28.025-15.94-3.638 4.203-9.322 5.658-14.487 6.984 11.872-12.446 19.483-22.658 9.974-39.981-2.584 1.656 3.153 10.564-1.968 9.987zm-49.98-11.994c.148.08.487 2.597 1.525 2.976.978-4.505 9.572-4.52 8.41-8.386-2.334-7.775-14.984 3.162-15.892 7.913 1.673 1.64 4.97-3.039 5.96-2.504zm27.989 3c-1.543-1.57-6.239 1.898-7.493 1.95-2.055.087-3.71-2.887-5.482-1.458 1.918.904 3.487 4.85 4.695 5.557 6.088 3.559 10.504-3.788 8.28-6.05z" />
  <path d="M106.695 18c-8.814 22.38 25.047 33.913 11.834 55.337-10.2 16.539-34.76 11.416-37.526-8.098-2.6-18.332 12.897-36.117 25.69-47.24zm6.982 32.01c-.144-.117-2.097-.368-1.983.493L110.13 65.06c10.893 5.581 7.645-11.74 3.547-15.05z" />
  <path class="cls-4" d="M182.118 136.005c-3.638 4.203-9.322 5.658-14.487 6.984 11.872-12.446 19.483-22.658 9.974-39.982-2.584 1.658 3.153 10.566-1.968 9.989-4.069-18.763-21.83-27.416-39.958-22.984 2.141 1.467 18.346 1.828 14.97 6.972-.467.713-7.494.727-7.98 3.003 11.55 1.46 20.983-10.597 20.962 10.006L158.653 107c-2.288 6.686 11.865 10.661 11.998 11.537.952 6.286-9.543 18.732-6.027 1.463-5.237 3.627-1.602 10.554-4.216 16.267-2.982 6.516-12.88 6.453-12.6 1.409.15-2.692 14.622-10.962 11.828-18.67-4.4 1.649-8.225 4.844-13.132 5.317-7.564.73-10.672-4.11-19.327 1.672-10.265 6.855-10.467 21.628-1.878 29.89 7.956 7.653 29.305 3.977 39.328 1.1-1.36-2.123-14.735.754-10.533-5.04 1.812-2.499 29.89-.968 28.025-15.94z" />
  <path class="cls-4" d="M125.657 101.003c.147.08.486 2.597 1.524 2.976.978-4.505 9.572-4.52 8.41-8.386-2.334-7.775-14.984 3.162-15.892 7.913 1.673 1.64 4.97-3.039 5.96-2.504z" />
  <path class="cls-4" d="M145.365 110.052c6.088 3.559 10.504-3.788 8.28-6.05-1.543-1.568-6.239 1.9-7.493 1.952-2.055.086-3.71-2.888-5.482-1.46 1.918.905 3.487 4.851 4.695 5.558z" />
  <path d="M76.056 102.702c.35.472 2.54.352 3.634 1.886 1.616 2.265-.235 4.502.163 5.24.272.502 4.357 1.602 5.424 5.12 1.186 3.913-.32 6.603-.038 9.559.212 2.236 3.2 3.45 1.767 7.19-2.95 7.695-8.892.458-11.663.218-8.211-.712-16.81 1.33-17.574 10.582-1.121 13.56 3.37 9.506 12.679 12.353 1.644.504 2.783-.732 2.292 2.144l-4.982.018 1.986 2.982c-1.788.857-8.41-1.47-8.979-.994-.467.392 1.147 3.67-1.51 3.02-3.589-.192-6.408-7.936-8.502-.028-2.52 1.525-3.121-7.901-8.956.007.556-8.4-8.186-3.997-13.99-5.012 6.94-8.05 17.054-.392 14.99-13.513-.77-4.904-5.138-8.565-9.979-9.108-3.268-.367-7 10.216-15.091 4.217-7.47-5.538-1.41-10.456-1.08-13.26.179-1.516-3.067-3.943-1.392-9.415.951-3.106 3.37-1.86 4.63-3.593 3.053-4.197-.044-10.534 3.332-14.415 4.834-5.559 9.862-.504 11.974-1.028 2.055-.51 3.04-10.203 14.747-9.308 5.849.447 7.294 4.736 9.551 5.294 3.147.776 5.034-2.13 10.175.736 4.02 2.242 4.24 6.21 6.391 9.106zm-27.283 10.293c-2.3-2.494-4.535 2.548-.49 5 .836-.518.66-4.816.49-5zm13.992 2.025L57.778 113v9c2.867-1.25 4.03-4.244 4.987-6.98zm-20.979 5.968c-1.518-3.49-3.868-3.225-6.982-1.973l6.982 1.973zm24.964 4.008-6.98 3.992c3.97-.878 9.652.685 6.98-3.992zM43.773 134c.765-7.268-6.433-7.428-11.968-6.988L43.773 134z" />
  <path class="cls-1" d="M102.875 0h-3.498c-25.99 0-51.083 10.168-69.274 28.73C23.62 35.345 18.07 42.612 13.821 50l86.894 50 86.892-50c-8.283-14.41-18.798-25.765-31.457-34.23C140.43 5.258 121.782 0 102.874 0zm15.654 73.337c-10.2 16.539-34.76 11.416-37.526-8.098-2.6-18.332 12.897-36.117 25.69-47.24-8.813 22.38 25.048 33.913 11.835 55.337z" />
  <path class="cls-1" d="M113.677 50.01c-.144-.117-2.097-.368-1.983.493L110.13 65.06c10.893 5.581 7.645-11.74 3.547-15.05z" />
  <path class="cls-2" d="M13.821 50C7.25 61.434 2.101 73.5.838 87c-.774 8.272-1.414 17.556 0 26 5.882 37.827 31.324 68.11 66.035 80.84 9.387 3.442 19.28 5.3 29.262 5.89l4.58.27V100L13.82 50zm73.187 81.696c-2.95 7.696-8.892.459-11.663.219-8.211-.712-16.81 1.33-17.574 10.582-1.121 13.56 3.37 9.506 12.679 12.353 1.644.504 2.783-.732 2.292 2.144l-4.982.018 1.986 2.982c-1.788.857-8.411-1.47-8.979-.994-.467.392 1.147 3.67-1.51 3.02-3.588-.192-6.408-7.936-8.502-.028-2.52 1.525-3.121-7.901-8.956.007.556-8.4-8.186-3.997-13.99-5.012 6.94-8.05 17.054-.392 14.99-13.513-.77-4.904-5.138-8.565-9.979-9.108-3.268-.367-7 10.216-15.091 4.217-7.47-5.538-1.41-10.456-1.08-13.26.179-1.516-3.067-3.943-1.392-9.415.951-3.106 3.37-1.86 4.63-3.593 3.053-4.197-.044-10.534 3.332-14.415 4.834-5.559 9.862-.504 11.974-1.028 2.055-.51 3.04-10.203 14.747-9.308 5.849.447 7.294 4.736 9.551 5.294 3.147.776 5.034-2.13 10.175.736 4.02 2.242 4.24 6.21 6.391 9.106.35.472 2.54.352 3.634 1.886 1.616 2.265-.235 4.502.164 5.24.27.502 4.356 1.602 5.423 5.12 1.186 3.913-.32 6.603-.038 9.559.212 2.236 3.2 3.45 1.767 7.19z" />
  <path class="cls-2" d="M31.805 127.012 43.773 134c.765-7.268-6.433-7.428-11.968-6.988z" />
  <path class="cls-2" d="M57.778 113v9c2.867-1.25 4.03-4.244 4.987-6.98L57.778 113z" />
  <path class="cls-2" d="M59.77 128.988c3.97-.878 9.652.685 6.98-3.992l-6.98 3.992z" />
  <path class="cls-2" d="m34.804 119.015 6.982 1.973c-1.518-3.49-3.868-3.225-6.982-1.973z" />
  <path class="cls-2" d="M48.284 117.995c.835-.518.66-4.816.49-5-2.302-2.494-4.536 2.548-.49 5z" />
</svg>