<?xml version="1.0" encoding="utf-8"?>
<svg xmlns="http://www.w3.org/2000/svg" xmlns:inkscape="http://www.inkscape.org/namespaces/inkscape" version="1.1" width="600" height="600" id="svg4210">
  <g transform="translate(-1109.4396,-140.20826)" id="layer1">
    <g transform="matrix(6,0,0,6,5519.4396,140.20826)" id="g465">
      <path d="M-635 49.998C-635 77.61-657.383 100-685 100c-27.613 0-50-22.387-50-50 0-27.616 22.387-50 50-50 27.617 0 50 22.384 50 49.998z" inkscape:connector-curvature="0" id="path467" style="fill: rgb(201, 196, 190);" />
    </g>
    <g transform="matrix(6,0,0,6,5519.4396,140.20826)" id="g469">
      <path d="M-680.09 65.695c0 3.988.654 6.793 1.963 8.414 1.31 1.62 3.52 2.43 6.64 2.43l.747-.095V80h-28.796v-3.553h.934c3.117.063 5.33-.717 6.639-2.338 1.309-1.62 1.963-4.395 1.963-8.32V53.26l-18.325-26.833-1.964-2.618c-.56-.75-1.09-1.34-1.588-1.777-.811-.686-1.668-1.17-2.571-1.45-.903-.28-2.072-.514-3.505-.7v-3.648H-690v3.553c-2.805.25-4.708.64-5.703 1.168-.998.53-1.496 1.512-1.496 2.945a5 5 0 0 0 .374 1.87c.25.625.592 1.28 1.03 1.964l14.21 20.57 10.38-15.24c.995-1.372 1.712-2.556 2.15-3.554.434-.996.714-1.93.84-2.804v-.749c0-1.93-.53-3.366-1.59-4.3-1.06-.936-2.898-1.527-5.515-1.776v-3.646h23.092v3.553c-.748.125-1.435.296-2.056.514a7.92 7.92 0 0 0-1.777.89c-1 .56-2.027 1.45-3.086 2.665-1.06 1.215-2.337 2.915-3.833 5.096l-17.11 24.31v12.436z" inkscape:connector-curvature="0" id="path471" style="fill: rgb(13, 15, 15);" />
    </g>
  </g>
</svg>