<?xml version="1.0" encoding="utf-8"?>
<svg xmlns="http://www.w3.org/2000/svg" xmlns:inkscape="http://www.inkscape.org/namespaces/inkscape" version="1.1" width="600" height="600" id="svg4260">
  <g transform="translate(-122.0055,-78.92808)" id="layer1">
    <g transform="matrix(6,0,0,6,3902.0055,78.92808)" id="g475">
      <path d="M-530 49.998C-530 77.613-552.384 100-580 100c-27.613 0-50-22.387-50-50.002C-630 22.385-607.613 0-580 0c27.616 0 50 22.385 50 49.998z" inkscape:connector-curvature="0" id="path477" style="fill: rgb(201, 196, 190);" />
    </g>
    <g transform="matrix(6,0,0,6,3902.0055,78.92808)" id="g479">
      <path d="M-555.645 80h-53.76v-2.712l42.635-57.22h-18.98c-3.117.063-5.516.39-7.2.98-1.682.595-3.24 1.73-4.674 3.414-.125.126-.233.25-.327.374-.094.126-.204.25-.328.373-.25.374-.483.7-.702.98-.22.28-.42.578-.607.89a2.39 2.39 0 0 1-.28.56c-.125.19-.25.376-.374.563-.127.374-.282.765-.468 1.168-.188.407-.407.89-.654 1.45l-3.367-.094v-14.49h51.05v2.523l-43.007 57.405h18.605c2.805.063 5.033 0 6.685-.188 1.65-.187 3.193-.59 4.628-1.213.188-.063.359-.125.515-.188.156-.063.295-.124.42-.188a20.574 20.574 0 0 0 2.525-1.496c.809-.56 1.62-1.215 2.43-1.963a32.85 32.85 0 0 0 1.684-1.823 55.516 55.516 0 0 0 1.777-2.197l2.432-3.46h3.552l-4.21 16.55z" inkscape:connector-curvature="0" id="path481" style="fill: rgb(13, 15, 15);" />
    </g>
  </g>
</svg>