<?xml version="1.0" encoding="utf-8"?>
<svg width="714" height="714" viewBox="0 0 714 714" version="1.1" xml:space="preserve" style="fill-rule: evenodd; clip-rule: evenodd; stroke-linejoin: round; stroke-miterlimit: 2;" id="svg2" sodipodi:docname="wantedx.svg" inkscape:version="1.3.2 (091e20e, 2023-11-25, custom)" xmlns:inkscape="http://www.inkscape.org/namespaces/inkscape" xmlns:sodipodi="http://sodipodi.sourceforge.net/DTD/sodipodi-0.dtd" xmlns="http://www.w3.org/2000/svg">
  <sodipodi:namedview id="namedview2" pagecolor="#ffffff" bordercolor="#000000" borderopacity="0.25" inkscape:showpageshadow="2" inkscape:pageopacity="0.0" inkscape:pagecheckerboard="0" inkscape:deskcolor="#d1d1d1" inkscape:zoom="1.1386555" inkscape:cx="357" inkscape:cy="357" inkscape:window-width="3440" inkscape:window-height="1369" inkscape:window-x="1912" inkscape:window-y="482" inkscape:window-maximized="1" inkscape:current-layer="svg2" />
  <g transform="matrix(1,0,0,1,57,57)" id="g1">
    <circle cx="300" cy="300" r="300" style="fill: rgb(214, 183, 147); fill-opacity: 1;" id="circle1" />
    <path d="M300-57C102.966-57-57 102.966-57 300s159.966 357 357 357 357-159.966 357-357S497.034-57 300-57zm0 57c165.575 0 300 134.425 300 300S465.575 600 300 600 0 465.575 0 300 134.425 0 300 0z" style="fill: rgb(89, 76, 66); fill-opacity: 1;" id="path1" />
  </g>
  <g id="path165" transform="matrix(6,0,0,6,5097,57)">
    <path d="M-783.36 80v-3.297c4.704-.52 7.06-1.887 7.06-4.082 0-1.58-.63-3.163-1.883-4.745l-13.008-16.01-10.274 12.11c-2.57 2.974-3.863 5.433-3.863 7.355 0 2.976 2.354 4.77 7.07 5.387V80h-25.05v-3.287c3.17-.61 5.866-1.752 8.1-3.416 1.54-1.223 3.638-3.37 6.286-6.438l15.448-17.916-17.867-21.66c-2.314-2.797-4.12-4.633-5.4-5.51-1.724-1.225-4.12-2.012-7.203-2.36V16h29.54v3.285c-4.454.877-6.677 2.234-6.677 4.074 0 1.23.594 2.585 1.793 4.07l11.816 14.323 9.507-11.69c1.71-2.105 2.57-3.942 2.57-5.52 0-2.63-2.105-4.34-6.3-5.13V16h23.51v3.29c-2.054.44-3.472.835-4.23 1.19-2.57 1.228-6.495 4.868-11.796 10.92-.85.968-4.452 5.392-10.788 13.284l18.977 23.363c4.112 5.078 8.304 7.97 12.585 8.666V80h-29.924z" style="fill: rgb(0, 0, 0); fill-rule: nonzero;" id="path2" />
  </g>
</svg>