<?xml version="1.0" encoding="utf-8"?>
<svg width="714" height="714" viewBox="0 0 714 714" version="1.1" xml:space="preserve" style="fill-rule: evenodd; clip-rule: evenodd; stroke-linejoin: round; stroke-miterlimit: 2;" id="svg3" sodipodi:docname="wanted1.svg" inkscape:version="1.3.2 (091e20e, 2023-11-25, custom)" xmlns:inkscape="http://www.inkscape.org/namespaces/inkscape" xmlns:sodipodi="http://sodipodi.sourceforge.net/DTD/sodipodi-0.dtd" xmlns:xlink="http://www.w3.org/1999/xlink" xmlns="http://www.w3.org/2000/svg">
  <defs id="defs3">
    <linearGradient id="swatch5" inkscape:swatch="solid">
      <stop style="stop-color: rgb(0, 0, 0); stop-opacity: 1;" offset="0" id="stop5" />
    </linearGradient>
    <linearGradient id="swatch4" inkscape:swatch="solid">
      <stop style="stop-color: rgb(214, 183, 147); stop-opacity: 1;" offset="0" id="stop4" />
    </linearGradient>
    <linearGradient id="swatch3" inkscape:swatch="solid">
      <stop style="stop-color: rgb(89, 76, 66); stop-opacity: 1;" offset="0" id="stop3" />
    </linearGradient>
    <linearGradient inkscape:collect="always" xlink:href="#swatch3" id="linearGradient3" x1="-57" y1="300" x2="657" y2="300" gradientUnits="userSpaceOnUse" />
    <linearGradient inkscape:collect="always" xlink:href="#swatch4" id="linearGradient4" x1="0" y1="300" x2="600" y2="300" gradientUnits="userSpaceOnUse" />
    <linearGradient inkscape:collect="always" xlink:href="#swatch5" id="linearGradient5" x1="193" y1="287.5" x2="411" y2="287.5" gradientUnits="userSpaceOnUse" />
  </defs>
  <sodipodi:namedview id="namedview3" pagecolor="#ffffff" bordercolor="#000000" borderopacity="0.25" inkscape:showpageshadow="2" inkscape:pageopacity="0.0" inkscape:pagecheckerboard="0" inkscape:deskcolor="#d1d1d1" inkscape:zoom="1.1386555" inkscape:cx="356.56089" inkscape:cy="357" inkscape:window-width="3440" inkscape:window-height="1369" inkscape:window-x="1912" inkscape:window-y="482" inkscape:window-maximized="1" inkscape:current-layer="svg3" />
  <g transform="matrix(1,0,0,1,57,57)" id="g1">
    <circle cx="300" cy="300" r="300" style="fill: url(&quot;#linearGradient4&quot;); fill-opacity: 1;" id="circle1" />
  </g>
  <g transform="matrix(1,0,0,1,57,57)" id="g2">
    <path d="M300-57C102.966-57-57 102.966-57 300s159.966 357 357 357 357-159.966 357-357S497.034-57 300-57zm0 57c165.575 0 300 134.425 300 300S465.575 600 300 600 0 465.575 0 300 134.425 0 300 0z" style="fill: url(&quot;#linearGradient3&quot;); fill-opacity: 1;" id="path1" />
  </g>
  <g transform="matrix(1,0,0,1,57,57)" id="g3">
    <path d="M347 52v373c0 49 29 48 48 48h16v50H193v-50h20c18 0 47 0 47-48V186c0-47-15-51-47-50h-18V85h20c36 0 57-32 93-33h39z" style="fill: url(&quot;#linearGradient5&quot;); fill-rule: nonzero;" id="path2" />
  </g>
</svg>