<?xml version="1.0" encoding="utf-8"?>
<svg width="714" height="714" viewBox="0 0 714 714" version="1.1" xmlns="http://www.w3.org/2000/svg" xml:space="preserve" style="fill-rule: evenodd; clip-rule: evenodd; stroke-linejoin: round; stroke-miterlimit: 2;" preserveAspectRatio="xMidYMid meet" zoomAndPan="magnify" contentScriptType="application/ecmascript" contentStyleType="text/css">
  <circle cx="300" cy="300" r="300" transform="matrix(1,0,0,1,57,57)" />
  <path d="M300-57C102.966-57-57 102.966-57 300s159.966 357 357 357 357-159.966 357-357S497.034-57 300-57zm0 57c165.575 0 300 134.425 300 300S465.575 600 300 600 0 465.575 0 300 134.425 0 300 0z" style="fill: white;" transform="matrix(1,0,0,1,57,57)" />
  <path d="M449 355c-1 126-111 177-198 177-50 0-100-18-100-18l15-36s35 12 72 12c41 0 131-30 131-122 0-51-34-103-105-103-37 0-70 22-80 32l-26-5 52-220h177c24 0 26-3 28-8h36l-17 77H233l-15 70s28-13 68-12c126 1 162 110 162 157l1-1z" style="fill: white; fill-rule: nonzero;" transform="matrix(1,0,0,1,58.5,57)" />
</svg>