<?xml version="1.0" encoding="utf-8"?>
<svg width="714" height="714" viewBox="0 0 714 714" version="1.1" xml:space="preserve" style="fill-rule: evenodd; clip-rule: evenodd; stroke-linejoin: round; stroke-miterlimit: 2;" id="svg2" sodipodi:docname="breakingNewsc.svg" inkscape:version="1.3.2 (091e20e, 2023-11-25, custom)" xmlns:inkscape="http://www.inkscape.org/namespaces/inkscape" xmlns:sodipodi="http://sodipodi.sourceforge.net/DTD/sodipodi-0.dtd" xmlns="http://www.w3.org/2000/svg">
  <sodipodi:namedview id="namedview2" pagecolor="#ffffff" bordercolor="#000000" borderopacity="0.25" inkscape:showpageshadow="2" inkscape:pageopacity="0.0" inkscape:pagecheckerboard="0" inkscape:deskcolor="#d1d1d1" inkscape:zoom="1.1386555" inkscape:cx="357.87822" inkscape:cy="356.99999" inkscape:window-width="3440" inkscape:window-height="1369" inkscape:window-x="1912" inkscape:window-y="482" inkscape:window-maximized="1" inkscape:current-layer="g2" />
  <g transform="matrix(1,0,0,1,57,57)" id="g1">
    <circle cx="300" cy="300" style="fill: rgb(64, 58, 61); fill-opacity: 1; stroke-width: 1.19;" id="circle1" r="357" />
  </g>
  <g id="g2" transform="scale(1.19)">
    <path d="M300 60a500.11 500.11 0 0 0 240 240 500.11 500.11 0 0 0-240 240A500.11 500.11 0 0 0 60 300 500.11 500.11 0 0 0 300 60m0 90a300.078 300.078 0 0 1-150 150 300.078 300.078 0 0 1 150 150 300.078 300.078 0 0 1 150-150 300.078 300.078 0 0 1-150-150" style="fill: rgb(232, 224, 218); fill-rule: nonzero; fill-opacity: 1;" id="path2" />
  </g>
</svg>