<?xml version="1.0" encoding="utf-8"?>
<svg width="660" height="660" viewBox="0 0 660 660" version="1.1" xmlns="http://www.w3.org/2000/svg" xml:space="preserve" style="fill-rule: evenodd; clip-rule: evenodd; stroke-linejoin: round; stroke-miterlimit: 2;" preserveAspectRatio="xMidYMid meet" zoomAndPan="magnify" contentScriptType="application/ecmascript" contentStyleType="text/css">
  <path d="M300-30C117.868-30-30 117.868-30 300s147.868 330 330 330 330-147.868 330-330S482.132-30 300-30zm0 30c165.575 0 300 134.425 300 300S465.575 600 300 600 0 465.575 0 300 134.425 0 300 0z" style="fill: rgb(77, 69, 61);" transform="matrix(1,0,0,1,30,30)" />
  <path d="M300 60a500.11 500.11 0 0 0 240 240 500.11 500.11 0 0 0-240 240A500.11 500.11 0 0 0 60 300 500.11 500.11 0 0 0 300 60m0 90a300.078 300.078 0 0 1-150 150 300.078 300.078 0 0 1 150 150 300.078 300.078 0 0 1 150-150 300.078 300.078 0 0 1-150-150" style="fill: rgb(77, 69, 61); fill-rule: nonzero;" transform="matrix(1,0,0,1,30,30)" />
</svg>