<?xml version="1.0" encoding="utf-8"?>
<svg version="1.1" id="Layer_1" xmlns="http://www.w3.org/2000/svg" xmlns:xlink="http://www.w3.org/1999/xlink" x="0" y="0" width="325" height="350" viewBox="37 0 325 350" enable-background="new 37 0 325 350" xml:space="preserve" preserveAspectRatio="xMidYMid meet" zoomAndPan="magnify" contentScriptType="application/ecmascript" contentStyleType="text/css">
  <polygon fill="#FFFFFF" points="63.297 254.903 63.297 97.405 199.696 18.653 336.095 97.405 336.095 254.903 199.696 333.652" />
  <polygon points="70.312 250.854 70.312 101.455 199.696 26.751 329.08 101.455 329.08 250.854 199.696 325.555" />
  <linearGradient id="SVGID_1_" gradientUnits="userSpaceOnUse" x1="95.1348" y1="263.8906" x2="304.2576" y2="88.4158" xlink:type="simple" xlink:show="other" xlink:actuate="onLoad">
    <stop offset="0" style="stop-color: rgb(187, 44, 38);" />
    <stop offset="0.0098" style="stop-color: rgb(189, 47, 38);" />
    <stop offset="0.1368" style="stop-color: rgb(208, 87, 36);" />
    <stop offset="0.238" style="stop-color: rgb(220, 111, 35);" />
    <stop offset="0.3" style="stop-color: rgb(224, 120, 35);" />
    <stop offset="0.3053" style="stop-color: rgb(225, 122, 35);" />
    <stop offset="0.3616" style="stop-color: rgb(238, 139, 31);" />
    <stop offset="0.4232" style="stop-color: rgb(245, 149, 30);" />
    <stop offset="0.5" style="stop-color: rgb(247, 152, 29);" />
    <stop offset="0.5768" style="stop-color: rgb(245, 149, 30);" />
    <stop offset="0.6384" style="stop-color: rgb(238, 139, 31);" />
    <stop offset="0.6947" style="stop-color: rgb(225, 122, 35);" />
    <stop offset="0.7" style="stop-color: rgb(224, 120, 35);" />
    <stop offset="0.762" style="stop-color: rgb(220, 111, 35);" />
    <stop offset="0.8632" style="stop-color: rgb(208, 87, 36);" />
    <stop offset="0.9902" style="stop-color: rgb(189, 47, 38);" />
    <stop offset="1" style="stop-color: rgb(187, 44, 38);" />
  </linearGradient>
  <polygon fill="url(#SVGID_1_)" points="199.696 37.552 79.664 106.853 79.664 245.453 199.696 314.754 319.729 245.453 319.729 106.853" />
  <path d="M181.005 116.54c-8.01-25.896 5.403-47.69 5.403-47.69s-1.49 13.97 8.384 26.824c9.872 12.855 32.6 31.11 45.27 44.527 12.665 13.412 20.676 25.707 20.676 25.707-.744-19.003-39.12-51.23-43.777-55.7-4.654-4.472-8.57-7.825-8.57-17.514 0-9.685 5.032-17.14 5.032-17.14-.187 3.542.37 14.532 9.127 26.084 8.754 11.55 39.494 38.933 49.368 48.622 9.87 9.686 11.673 27.136 11.673 30.365 0 3.228-.744 8.694-.744 8.694 12.666-.127 9.688 12.665 9.688 12.665 11.675-5.34 15.025-16.145 15.025-16.145 5.59 37.26-22.728 50.672-22.728 50.672 4.597-23.97-20.986-24.715-24.22-24.715-3.227 0-8.565.87-8.565.87 9.437-14.903-10.555-20.866-27.82-20.866s-23.845 6.832-23.845 6.832c16.142-1.367 22.107 3.478 22.107 3.478s-7.453 5.96-7.453 13.785c0 11.552 13.786 8.445 13.786 8.445s-4.97 3.476-4.97 8.446c0 10.557 14.035 6.953 14.035 6.953-6.585 11.55 2.856 14.157 9.313 14.157s12.98-3.785 12.98-3.785c-16.58 37.256-72.22 30.115-72.22 30.115 25.957-7.95 24.84-24.34 24.84-24.34-4.1 5.34-11.426 3.354-11.426 3.354s6.332-5.215 6.332-14.78c0-14.282-15.4-33.162-41.855-33.162-5.215 0-15.145 1.494-15.145 1.494 13.66-22.606 40.734-29.437 40.734-29.437-6.586-6.58-21.737-7.325-21.737-7.325 14.78-11.054 40.985-12.67 40.985-12.67-44.46-9.437-66.194 19.25-66.194 19.25 11.177-.37 17.634 3.353 17.634 3.353-27.323 6.334-44.09 26.33-44.09 26.33s3.728-19.996-4.84-29.435c-8.57-9.438-25.46-7.08-25.46-7.08 23.595-23.72 40.858-21.484 40.858-31.297 0-14.032-17.76-21.855-17.76-21.855 18.382-4.97 31.547 1.988 31.547 1.988-9.69-8.696-7.95-33.038-7.95-33.038 18.505 24.84 26.66 24.533 45.206 35.27 18.88 10.93 26.578 22.853 26.578 22.853-1.426-15.087-25.213-33.158-25.213-33.158zm65.08 65.948c4.844 3.973 12.79 2.232 12.79 2.232-2.234-12.416-14.406-22.105-18.504-24.84-4.097-2.73-6.456-1.862-6.456-1.862-3.726 8.943 7.325 20.498 12.17 24.47z" />
</svg>