<?xml version="1.0" encoding="utf-8"?>
<svg version="1.1" id="Layer_1" xmlns="http://www.w3.org/2000/svg" xmlns:xlink="http://www.w3.org/1999/xlink" x="0" y="0" width="325" height="350" viewBox="37 0 325 350" enable-background="new 37 0 325 350" xml:space="preserve" preserveAspectRatio="xMidYMid meet" zoomAndPan="magnify" contentScriptType="application/ecmascript" contentStyleType="text/css">
  <polygon points="64.229 254.903 64.229 97.405 200.628 18.653 337.028 97.405 337.028 254.903 200.628 333.652" />
  <linearGradient id="SVGID_1_" gradientUnits="userSpaceOnUse" x1="92.3555" y1="267.0068" x2="308.9029" y2="85.302" xlink:type="simple" xlink:show="other" xlink:actuate="onLoad">
    <stop offset="0" style="stop-color: rgb(98, 110, 119);" />
    <stop offset="0.0069" style="stop-color: rgb(100, 112, 121);" />
    <stop offset="0.1352" style="stop-color: rgb(132, 150, 161);" />
    <stop offset="0.2374" style="stop-color: rgb(153, 173, 185);" />
    <stop offset="0.3" style="stop-color: rgb(160, 182, 194);" />
    <stop offset="0.3027" style="stop-color: rgb(161, 183, 195);" />
    <stop offset="0.3597" style="stop-color: rgb(173, 198, 212);" />
    <stop offset="0.4222" style="stop-color: rgb(181, 206, 222);" />
    <stop offset="0.5" style="stop-color: rgb(183, 209, 225);" />
    <stop offset="0.5778" style="stop-color: rgb(181, 206, 222);" />
    <stop offset="0.6403" style="stop-color: rgb(173, 198, 212);" />
    <stop offset="0.6973" style="stop-color: rgb(161, 183, 195);" />
    <stop offset="0.7" style="stop-color: rgb(160, 182, 194);" />
    <stop offset="0.7626" style="stop-color: rgb(153, 173, 185);" />
    <stop offset="0.8648" style="stop-color: rgb(132, 150, 161);" />
    <stop offset="0.9931" style="stop-color: rgb(100, 112, 121);" />
    <stop offset="1" style="stop-color: rgb(98, 110, 119);" />
  </linearGradient>
  <polygon fill="url(#SVGID_1_)" points="200.628 32.631 76.334 104.394 76.334 247.914 200.628 319.675 324.923 247.914 324.923 104.394" />
  <path d="M181.275 114.424C172.98 87.61 186.87 65.04 186.87 65.04s-1.544 14.466 8.68 27.778c10.226 13.312 33.76 32.215 46.876 46.106 13.118 13.89 21.415 26.62 21.415 26.62-.772-19.678-40.512-53.05-45.335-57.68-4.82-4.628-8.87-8.102-8.87-18.134 0-10.03 5.205-17.747 5.205-17.747-.193 3.667.388 15.047 9.453 27.01 9.065 11.96 40.896 40.314 51.12 50.347 10.225 10.033 12.09 28.102 12.09 31.444 0 3.344-.772 9.004-.772 9.004 13.12-.13 10.033 13.115 10.033 13.115 12.087-5.53 15.56-16.72 15.56-16.72 5.79 38.584-23.535 52.473-23.535 52.473 4.76-24.822-21.73-25.593-25.077-25.593s-8.872.9-8.872.9c9.774-15.432-10.93-21.605-28.81-21.605-17.874 0-24.69 7.072-24.69 7.072 16.72-1.414 22.893 3.604 22.893 3.604s-7.715 6.17-7.715 14.273c0 11.962 14.274 8.746 14.274 8.746s-5.146 3.6-5.146 8.744c0 10.933 14.534 7.2 14.534 7.2-6.82 11.96 2.955 14.66 9.642 14.66 6.69 0 13.44-3.92 13.44-3.92-17.167 38.58-74.782 31.187-74.782 31.187 26.877-8.232 25.72-25.204 25.72-25.204-4.243 5.528-11.833 3.47-11.833 3.47s6.56-5.4 6.56-15.304c0-14.79-15.947-34.34-43.34-34.34-5.4 0-15.688 1.548-15.688 1.548 14.146-23.408 42.18-30.482 42.18-30.482-6.815-6.814-22.504-7.585-22.504-7.585 15.304-11.446 42.44-13.118 42.44-13.118-46.042-9.776-68.547 19.93-68.547 19.93 11.575-.385 18.262 3.472 18.262 3.472-28.293 6.56-45.655 27.267-45.655 27.267s3.86-20.71-5.015-30.48c-8.874-9.775-26.363-7.332-26.363-7.332 24.434-24.562 42.31-22.247 42.31-32.407 0-14.53-18.39-22.633-18.39-22.633 19.033-5.145 32.665 2.06 32.665 2.06-10.03-9.004-8.23-34.212-8.23-34.212 19.163 25.723 27.604 25.406 46.812 36.523 19.548 11.318 27.522 23.663 27.522 23.663-1.482-15.624-26.11-34.336-26.11-34.336zm67.39 68.29c5.013 4.113 13.246 2.312 13.246 2.312-2.316-12.858-14.92-22.89-19.16-25.72-4.247-2.828-6.69-1.93-6.69-1.93-3.858 9.26 7.588 21.223 12.606 25.337z" />
</svg>