<?xml version="1.0" encoding="utf-8"?>
<svg version="1.1" id="Layer_1" x="0" y="0" width="354.91" height="485" viewBox="0 0 354.91 485" enable-background="new 0 0 375 500" xml:space="preserve" sodipodi:docname="R.svg" inkscape:version="1.1.1 (3bf5ae0d25, 2021-09-20)" xmlns:inkscape="http://www.inkscape.org/namespaces/inkscape" xmlns:sodipodi="http://sodipodi.sourceforge.net/DTD/sodipodi-0.dtd" xmlns="http://www.w3.org/2000/svg">
  <sodipodi:namedview id="namedview42" pagecolor="#ffffff" bordercolor="#666666" borderopacity="1.0" inkscape:pageshadow="2" inkscape:pageopacity="0.0" inkscape:pagecheckerboard="0" showgrid="false" inkscape:zoom="1.438" inkscape:cx="178.03" inkscape:cy="242.7" inkscape:window-width="1920" inkscape:window-height="986" inkscape:window-x="-11" inkscape:window-y="-11" inkscape:window-maximized="1" inkscape:current-layer="Layer_1" />
  <g id="g39" transform="translate(-9.766,-7.079)">
    <path d="M187.22 56.432c43.3 0 59.06-49.353 59.06-49.353l118.39 93.2s-7.54 178.82-7.77 185.49c-.56 15.72-7.1 30.47-11.28 40.74-15.11 36.94-72.24 116.75-148.23 165.57h-20.34C101.06 443.26 43.93 363.45 28.83 326.51c-4.196-10.27-10.737-25.02-11.287-40.74-.237-6.68-7.777-185.49-7.777-185.49L128.15 7.08s15.76 49.352 59.07 49.352z" id="path2" />
    <linearGradient id="SVGID_1_" gradientUnits="userSpaceOnUse" x1="26.257" y1="247.09" x2="348.17" y2="247.09" gradientTransform="matrix(1,0,0,-1,0,501)">
      <stop offset="0" style="stop-color: rgb(141, 116, 47);" id="stop4" />
      <stop offset="0.0286" style="stop-color: rgb(146, 121, 52);" id="stop6" />
      <stop offset="0.1967" style="stop-color: rgb(170, 145, 75);" id="stop8" />
      <stop offset="0.3" style="stop-color: rgb(179, 154, 84);" id="stop10" />
      <stop offset="0.3145" style="stop-color: rgb(185, 160, 89);" id="stop12" />
      <stop offset="0.3681" style="stop-color: rgb(202, 176, 104);" id="stop14" />
      <stop offset="0.4268" style="stop-color: rgb(212, 186, 113);" id="stop16" />
      <stop offset="0.5" style="stop-color: rgb(215, 189, 116);" id="stop18" />
      <stop offset="0.5732" style="stop-color: rgb(212, 186, 113);" id="stop20" />
      <stop offset="0.6319" style="stop-color: rgb(202, 176, 104);" id="stop22" />
      <stop offset="0.6855" style="stop-color: rgb(185, 160, 89);" id="stop24" />
      <stop offset="0.7" style="stop-color: rgb(179, 154, 84);" id="stop26" />
      <stop offset="0.8033" style="stop-color: rgb(170, 145, 75);" id="stop28" />
      <stop offset="0.9714" style="stop-color: rgb(146, 121, 52);" id="stop30" />
      <stop offset="1" style="stop-color: rgb(141, 116, 47);" id="stop32" />
    </linearGradient>
    <path fill="url(#SVGID_1_)" d="M181.83 476.5C94.47 417.26 43.61 329.91 40.62 312.56c-1.996-11.57-1.2-21.75 2.395-30.53 8.374 26.33 24.728 56.25 49.063 89.76 26.042 34.72 51.882 59.11 77.542 73.14h35.2c25.64-14.03 51.49-38.41 77.54-73.14 24.33-33.51 40.69-63.43 49.06-89.76 3.58 8.78 4.39 18.96 2.39 30.53-2.99 17.35-53.85 104.7-141.21 163.94zm5.39-397.912-14.96 44.282-52.66 31.11-46.67-11.96 32.31 37.1v62.23l-32.31 37.1 47.27-12.58 51.46 31.72 15.56 49.06 15.56-49.06 51.46-31.72 47.27 12.58-32.32-37.1v-62.23l32.32-37.1-46.68 11.96-52.65-31.11zM26.257 127.06c37.517 50.94 39.847 96.61 6.99 137l-1.008 1.22zm321.913 0-5.99 138.21-1-1.22c-32.85-40.38-30.52-86.05 6.99-136.99zM174.05 430.42c-56.64-39.08-97.133-93.94-121.463-164.55 31.596-43.83 24.09-96.66-22.512-158.48l-1.425-1.87 93.95-74.2c13.42 27.65 34.67 41.215 63.73 40.704h1.77c29.07.512 50.31-13.053 63.74-40.704l93.95 74.2-1.42 1.87c-46.61 61.82-54.11 114.65-22.52 158.48-24.34 70.61-64.82 125.47-121.47 164.55z" id="path35" style="fill: url(&quot;#SVGID_1_&quot;);" />
    <polygon fill="#ffffff" points="187.22 134.84 250.64 173.13 250.64 246.73 187.22 285.62 123.79 246.73 123.79 173.13" id="polygon37" />
  </g>
</svg>