<?xml version="1.0" encoding="utf-8"?>
<svg version="1.1" id="Layer_1" x="0" y="0" width="150" height="136.405" viewBox="0 0 150 136.405" enable-background="new 0 0 155 145" xml:space="preserve" xmlns="http://www.w3.org/2000/svg">
  <g id="g2" transform="translate(-2.453,-4.117)">
    <path fill="#000000" d="M28.366 52.156v30.342l-13.994-5.083c-.51-5.554-1.652-15.44-3.872-24.138-1.612-6.314-5.283-14.486-8.047-20.173l15.98-5.885V45.5zM136.473 27.22V45.5l-9.934 6.656v30.342l13.993-5.083c.51-5.554 1.65-15.44 3.873-24.138 1.61-6.314 5.282-14.486 8.047-20.173z" id="path1" />
    <polygon fill="#000000" points="53.299 68.86 34.989 56.593 34.989 97.89 77.453 140.522 119.916 97.89 119.916 56.593 101.606 68.86 101.606 100.815 77.453 125.237 53.299 100.815" id="polygon1" />
    <path fill="#000000" d="m77.453 28.292 24.154 24.422v8.175l28.243-18.923V12l-21.328-7.883c-4.646 8.67-14.465 18.854-31.07 18.854-16.603 0-26.423-10.183-31.067-18.853L25.055 12v29.967L53.3 60.89v-8.176z" id="path2" />
    <polygon fill="#000000" points="94.983 55.436 77.453 37.709 59.922 55.436 59.922 98.094 77.453 115.818 94.983 98.094" id="polygon2" />
  </g>
</svg>