<?xml version="1.0" encoding="utf-8"?>
<svg version="1.1" id="Layer_1" x="0" y="0" width="138.805" height="150" viewBox="0 0 138.805 150" enable-background="new 0 0 150 156" xml:space="preserve" xmlns="http://www.w3.org/2000/svg">
  <g id="g12" transform="translate(-5.486,-2.696)">
    <polygon fill="#5d5e61" points="5.486 38.362 38.603 22.505 50.486 2.696 99.291 2.696 111.175 22.505 144.291 38.362 139.565 69.312 139.565 95.283 74.889 152.696 10.212 95.283 10.212 69.312" id="polygon1" />
    <polygon points="12.301 41.965 42.953 27.286 53.993 8.889 95.784 8.889 106.824 27.286 137.477 41.965 133.372 68.842 133.372 92.5 74.889 144.417 16.405 92.5 16.405 68.842" id="polygon2" />
    <path fill="#5d5e61" d="M101.985 32.598 91.888 15.77H57.89L47.792 32.598l-27.92 13.37 3.414 22.35v21.09l51.603 45.81 51.602-45.81V68.32l3.414-22.35zM59.835 19.21H89.94l8.68 14.464-23.73 31.97-23.72-31.99zM76.61 71.075l45.003 18.063-45.005 39.953zm-3.44 58.016L28.163 89.14 73.17 71.075zM48.633 36.01 72.18 67.765 26.726 86.01V68.06l-3.068-20.09zm74.418 32.05v17.947l-45.45-18.24 23.563-31.747 24.955 11.95z" id="path2" />
    <path fill="#5d5e61" d="M74.89 48.796c-6.214 0-11.268-5.055-11.268-11.268 0-6.21 5.054-11.266 11.267-11.266 6.212 0 11.266 5.054 11.266 11.266 0 6.213-5.054 11.268-11.267 11.268z" id="path3" />
    <path fill="#ffffff" d="M74.89 45.355c-4.316 0-7.828-3.512-7.828-7.827s3.512-7.826 7.827-7.826c4.314 0 7.826 3.51 7.826 7.826s-3.512 7.827-7.827 7.827z" id="path4" />
    <path fill="#5d5e61" d="M43.066 71.845c-6.213 0-11.266-5.054-11.266-11.266 0-6.214 5.053-11.27 11.266-11.27s11.267 5.056 11.267 11.27c0 6.21-5.054 11.265-11.267 11.265z" id="path5" />
    <path fill="#ffffff" d="M43.066 68.404c-4.315 0-7.827-3.51-7.827-7.825 0-4.316 3.51-7.828 7.826-7.828 4.315 0 7.827 3.512 7.827 7.827 0 4.314-3.51 7.824-7.827 7.824z" id="path6" />
    <path fill="#5d5e61" d="M57.172 106.42c-6.214 0-11.267-5.055-11.267-11.268s5.053-11.267 11.267-11.267c6.212 0 11.267 5.054 11.267 11.267 0 6.213-5.056 11.268-11.268 11.268z" id="path7" />
    <path fill="#ffffff" d="M57.172 102.98c-4.315 0-7.827-3.513-7.827-7.828 0-4.314 3.512-7.826 7.827-7.826 4.314 0 7.826 3.512 7.826 7.826 0 4.316-3.512 7.827-7.826 7.827z" id="path8" />
    <path fill="#5d5e61" d="M106.71 71.845c6.214 0 11.267-5.054 11.267-11.266 0-6.214-5.053-11.27-11.266-11.27-6.212 0-11.266 5.056-11.266 11.27 0 6.21 5.054 11.265 11.267 11.265z" id="path9" />
    <path fill="#ffffff" d="M106.71 68.404c4.316 0 7.827-3.51 7.827-7.825 0-4.316-3.51-7.828-7.826-7.828-4.314 0-7.826 3.512-7.826 7.827 0 4.314 3.512 7.824 7.827 7.824z" id="path10" />
    <path fill="#5d5e61" d="M92.605 106.42c6.214 0 11.267-5.055 11.267-11.268S98.82 83.885 92.605 83.885c-6.212 0-11.267 5.054-11.267 11.267 0 6.213 5.056 11.268 11.267 11.268z" id="path11" />
    <path fill="#ffffff" d="M92.605 102.98c4.315 0 7.827-3.513 7.827-7.828 0-4.314-3.512-7.826-7.827-7.826-4.314 0-7.826 3.512-7.826 7.826 0 4.316 3.51 7.827 7.825 7.827z" id="path12" />
  </g>
</svg>