<?xml version="1.0" encoding="UTF-8"?><svg id="Layer_2" xmlns="http://www.w3.org/2000/svg" width="96.13534" height="92.76806" xmlns:xlink="http://www.w3.org/1999/xlink" viewBox="0 0 96.13534 92.76806"><defs><style>.cls-1{fill:#fff;}.cls-2{fill:url(#radial-gradient);}.cls-3{fill:url(#radial-gradient-2);}</style><radialGradient id="radial-gradient" cx="48.44598" cy="44.79166" fx="48.44598" fy="44.79166" r="58.80959" gradientTransform="translate(.44064 5.1481) rotate(.6412) scale(1 .87302)" gradientUnits="userSpaceOnUse"><stop offset=".03081" stop-color="#bf99c3"/><stop offset=".15619" stop-color="#ba94bf"/><stop offset=".30143" stop-color="#ae86b5"/><stop offset=".45649" stop-color="#9a6ea4"/><stop offset=".61731" stop-color="#7e4e8d"/><stop offset=".7587" stop-color="#612c75"/></radialGradient><radialGradient id="radial-gradient-2" cx="48.27756" cy="31.2572" fx="48.27756" fy="31.2572" r="66.33529" gradientUnits="userSpaceOnUse"><stop offset=".55113" stop-color="#612c75"/><stop offset=".56719" stop-color="#774587"/><stop offset=".59005" stop-color="#91639d"/><stop offset=".61421" stop-color="#a57bad"/><stop offset=".63994" stop-color="#b38cb9"/><stop offset=".66829" stop-color="#bc95c0"/><stop offset=".70439" stop-color="#bf99c3"/></radialGradient></defs><g id="Layer_1_copy_6"><path class="cls-2" d="M48.01017,14.30193l.2328-.1324c1.37678-2.95252,2.53572-6.02156,3.94482-8.95762.16508-.34396.48273-1.23628.86073-1.21298l32.54526,15.55941-2.03228,1.81845c-3.41759,3.70228-4.4299,8.63946-3.43522,13.53002.24889,1.22374.68917,2.40149.95767,3.62139,1.04135,4.73107,1.27989,10.1454.53567,14.93478-2.7089,17.43297-19.35524,27.20451-33.55846,34.78859-14.36691-7.79398-31.1304-17.58196-33.56192-35.41055-.60803-4.45827-.37725-9.58013.55677-13.98195.28778-1.35626.79557-2.68655,1.06339-4.03602,1.14744-5.78174-.58953-11.70352-5.48787-15.16288L43.17688,3.99897c.3746-.02291.59929.68138.75659,1.00482,1.46642,3.01533,2.67843,6.24418,4.0767,9.29814ZM52.69258,58.31979l3.33089-35.53513c-.22962-4.45507-4.68383-5.05348-7.94515-6.5854-2.14542,1.17775-5.50819,1.68273-6.92183,3.79355-1.53659,2.2944-.76448,4.53242-.54045,7.05717.92516,10.42649,1.88736,20.86224,2.9168,31.26979,3.00454-.59317,6.15824-.58168,9.15974.00002ZM37.38855,24.29241c-.08411-.09609-.7778.41068-.90743.49676-5.28283,3.50827-10.84055,6.46483-9.78695,13.88615l5.54078,24.53186c2.78824-2.10318,5.95272-3.61551,9.32629-4.53338l-4.17269-34.3814ZM64.04077,63.20929l5.49079-24.53359c.55839-4.06526-.98431-7.56588-4.20755-9.99409-1.80488-1.35969-3.99015-2.87936-5.89165-4.10101-.10515-.06756-.51843-.37524-.59555-.28818l-4.17226,34.38018c2.41.69493,4.75058,1.61147,6.91069,2.89216l2.46553,1.64454ZM31.23693,64.33998l-8.05867-27.04029-5.04688,5.25752c-1.81919,2.19437-1.89482,4.3371-1.66807,7.07205.66092,7.97147,4.11802,15.45905,9.52555,21.27889,1.45205-2.39239,3.02841-4.83148,5.24806-6.56817ZM72.99681,37.29942l-7.99863,26.91934.07441.19143c2.18275,1.75242,3.72979,4.12978,5.16402,6.49802,5.4324-5.83946,8.87956-13.38611,9.52521-21.38323.22595-2.79867.05981-4.92275-1.8197-7.12817l-4.94531-5.09739Z"/><path class="cls-3" d="M6.01182,22.02677c2.3903.66857,4.45618,3.36452,5.43845,5.55778.21918.4894.82688,2.04764.82529,2.50483-.00126.36207-5.32433,3.5134-5.75582,4.39824-2.07094-3.5864-3.88684-9.10679-.50792-12.46085ZM87.62057,23.56071c-1.78138,1.66495-3.17511,4.14431-3.66854,6.53035l5.75359,4.39655c1.73666-3.00484,3.38622-7.7003,1.63308-10.99551-.15645-.29407-.75747-1.16231-.9875-1.35687-.51299-.43389-2.31968,1.04138-2.73063,1.42547Z"/><path class="cls-1" d="M69.53155,38.67571l-5.49078,24.53357-2.46552-1.64453c-2.1601-1.2807-4.50067-2.1972-6.91071-2.89215l4.17224-34.38019c.07715-.08704.49042.22064.59558.28821,1.90149,1.22162,4.08679,2.74127,5.89166,4.10101,3.22321,2.42816,4.76593,5.92877,4.20752,9.99408ZM90.1209,41.46136c-.1532.04059-.16962-.10077-.24176-.17334-.72131-.72498-1.38177-1.97565-2.09692-2.79486-.47443-.54346-1.22797-1.28943-1.77112-1.76776-.18713-.16479-1.43201-1.19403-1.56311-1.09015.94226,3.1828,1.4502,6.66504,1.56165,9.98859.04694,1.40009.05164,2.97168,0,4.37048-.68756,18.60999-15.05273,29.8623-29.8103,38.41541-2.36377,1.37-5.00946,2.92401-7.46033,4.09412-.27881.13312-.53082.33533-.8606.23914-14.79669-7.83258-32.37134-17.93903-36.67511-35.46313-1.72571-7.02679-1.35199-14.68457.4696-21.64496-.12396-.12195-1.43457.99078-1.6106,1.14673-.47864.42407-1.0929,1.02637-1.51514,1.50336-.74542.84204-1.56195,2.34027-2.28955,3.01849-.07623.07104-.12061.19147-.25677.15784-3.87622-5.54645-8.3692-13.57349-4.5484-20.25696,1.09827-1.92108,2.01495-2.53448,3.909-3.4812C17.23418,11.78875,29.29711,6.23064,41.2141.38335c2.07355-.7453,4.28198-.43848,5.58771,1.44147.53381.76855.78357,1.68701,1.25885,2.48578.52014-.77332.74658-1.69556,1.27716-2.46747,1.37213-1.99646,3.63251-2.23395,5.78766-1.36578l36.47266,17.55255c2.22296,1.31622,3.71234,3.65167,4.2511,6.15692,1.34619,6.26007-2.30902,12.35529-5.72833,17.27454ZM12.27556,30.08941c.00159-.45721-.60614-2.01544-.82532-2.50488-.98224-2.19324-3.04816-4.88916-5.43842-5.55774-3.37891,3.35406-1.56305,8.87445.50793,12.46082.43146-.88483,5.75452-4.03613,5.7558-4.39819ZM83.56151,21.37682l2.03229-1.81848L53.04851,3.99895c-.37799-.02332-.69562.86902-.86072,1.21295-1.40912,2.9361-2.56805,6.00513-3.94482,8.95764l-.23279.13239c-1.39825-3.05396-2.61029-6.28284-4.07672-9.29816-.15729-.32343-.38196-1.02771-.75659-1.00482L10.63152,19.66015c4.89832,3.45941,6.63531,9.38116,5.48785,15.1629-.26782,1.34949-.77557,2.67975-1.06335,4.03601-.93402,4.40186-1.16479,9.52368-.55676,13.98193,2.43152,17.82861,19.19501,27.61658,33.56189,35.41058,14.20325-7.58411,30.84955-17.35565,33.55847-34.78857.7442-4.78943.50568-10.20374-.53564-14.93481-.26855-1.21991-.7088-2.39764-.9577-3.6214-.99469-4.89056.01764-9.8277,3.43524-13.52997ZM91.33867,23.49212c-.15643-.29407-.75745-1.16229-.98749-1.35687-.513-.4339-2.31964,1.04138-2.73059,1.42548-1.78143,1.66492-3.17511,4.14429-3.66858,6.53033l5.7536,4.39655c1.73669-3.00482,3.38623-7.70032,1.63306-10.99548ZM72.99682,37.29943l-7.99866,26.91931.0744.19147c2.1828,1.75238,3.7298,4.12976,5.16406,6.49799,5.43237-5.83948,8.87952-13.38611,9.52521-21.38324.22595-2.79865.05981-4.92273-1.8197-7.12817l-4.94531-5.09735ZM23.17827,37.29967l8.05865,27.04028c-2.21967,1.73669-3.79602,4.17578-5.24805,6.56818-5.40753-5.81982-8.86462-13.30743-9.52557-21.27887-.22675-2.73492-.15112-4.87769,1.66809-7.07208l5.04688-5.25751ZM56.02349,22.78466l-3.33093,35.53516c-3.00146-.58173-6.15515-.5932-9.15973-.00006-1.02942-10.40753-1.99164-20.84326-2.91681-31.26978-.224-2.52478-.99615-4.76276.54047-7.05719,1.41364-2.11078,4.77643-2.61578,6.92181-3.79352,3.26135,1.53192,7.71558,2.13031,7.94519,6.58539ZM36.48113,24.78918c-5.28284,3.50824-10.84058,6.46484-9.78699,13.88617l5.54083,24.53186c2.78821-2.10321,5.9527-3.61554,9.32629-4.53339l-4.17273-34.38141c-.08411-.09607-.77777.41071-.90741.49677Z"/></g></svg>