<?xml version="1.0" encoding="utf-8"?>
<svg xmlns="http://www.w3.org/2000/svg" version="1.1" id="Layer_1" x="0" y="0" width="300" height="300">
  <polygon points="280.235 117.507 258.166 108.342 246.917 103.671 200.065 70.299 189.562 50.632 181.822 36.141 173.428 50.263 150 89.679 126.572 50.263 118.178 36.141 110.438 50.632 99.934 70.299 53.082 103.671 41.834 108.342 19.765 117.507 0 125.715 19.512 134.508 38.19 142.925 40.005 143.743 41.996 143.743 51.442 143.743 93.863 210.637 94.488 211.623 95.338 212.422 122.832 238.294 143.652 257.886 150 263.859 156.348 257.886 177.168 238.294 204.662 212.422 205.512 211.623 206.137 210.637 248.558 143.743 258.004 143.743 259.995 143.743 261.81 142.925 280.488 134.508 300 125.715" />
  <linearGradient id="SVGID_1_" gradientUnits="userSpaceOnUse" x1="86.3473" y1="63.0321" x2="213.6527" y2="190.3376">
    <stop style="stop-color: rgb(191, 51, 28);" offset="0" />
    <stop style="stop-color: rgb(211, 100, 28);" offset="0.3" />
    <stop style="stop-color: rgb(246, 185, 29);" offset="0.5" />
    <stop style="stop-color: rgb(211, 100, 28);" offset="0.7" />
    <stop style="stop-color: rgb(191, 51, 28);" offset="1" />
  </linearGradient>
  <path fill="url(#SVGID_1_)" d="m276.683 126.062-18.68 8.417h-14.54l-45.15 71.196-27.493 25.872 7.436-65.794 41.87-69.792 22.27 15.863 12.216 5.073 22.07 9.164zm-140.775 30.032 5.49 9.153.74 6.527L150 241.35l7.864-69.577.738-6.527 5.49-9.153 32.55-54.257 23.485-5.876-27.207-19.38-11.53-21.585L150 107.81l-31.39-52.813-11.53 21.586L79.873 95.96l23.484 5.877 32.55 54.257zM79.873 95.96l-22.27 15.864-12.216 5.073-22.07 9.165 18.68 8.417h14.54l45.15 71.196 27.494 25.872-7.435-65.794L79.873 95.96z" />
</svg>