<?xml version="1.0" encoding="UTF-8" standalone="no"?><!DOCTYPE svg PUBLIC "-//W3C//DTD SVG 1.1//EN" "http://www.w3.org/Graphics/SVG/1.1/DTD/svg11.dtd"><svg width="100%" height="100%" viewBox="0 0 401 179" version="1.1" xmlns="http://www.w3.org/2000/svg" xmlns:xlink="http://www.w3.org/1999/xlink" xml:space="preserve" xmlns:serif="http://www.serif.com/" style="fill-rule:evenodd;clip-rule:evenodd;stroke-linejoin:round;stroke-miterlimit:2;"><g id="Layer_1_copy_3"><path d="M366.8,167.247l-100.511,0.064c-19.478,-1.193 -30.514,-10.505 -39.376,-27.256c-13.687,-33.397 -32.905,-65.907 -46.224,-99.271c-4.16,-10.419 -4.237,-19.454 -0.02,-29.935l186.204,-0.211c11.394,18.968 19.11,40.289 21.497,62.426c3.602,33.401 -5.566,65.248 -21.57,94.183Z" style="fill:url(#_Linear1);fill-rule:nonzero;"/><path d="M168.656,10.434c-3.853,11.738 -3.546,23.548 1.068,34.989c14.109,34.982 33.766,69.291 48.475,104.189c3.755,6.407 8.016,12.467 13.293,17.703l-82.658,0c7.999,-6.992 9.764,-15.165 6.437,-25.204l-46.506,-101.312l-29.094,53.558l32.051,0c-9.041,10.114 -19.015,19.388 -28.267,29.299c-3.586,3.841 -8.048,8.411 -9.566,13.628c-2.798,9.611 0.393,21.22 4.517,30.031l-68.319,0c6.289,-7.097 10.931,-14.998 15.122,-23.465c17.312,-34.971 31.357,-71.649 48.456,-106.738c3.22,-8.991 1.553,-17.98 -1.585,-26.678l96.575,0l0,0Z" style="fill:#85723e;fill-rule:nonzero;"/><path d="M72.675,0l298.009,0.728c4.177,4.641 6.137,6.648 10.514,14.224c28.889,50 23.115,104.864 -3.333,154.611c-1.949,3.666 -2.826,5.514 -5.028,8.732l-222.966,0.004c-8.883,-0.086 -14.491,-8.66 -9.815,-16.601c1.272,-2.16 4.763,-4.661 5.438,-6.37c0.832,-2.108 0.242,-5.409 0.54,-7.734l-20.018,-44.122c-1.092,-1.593 -4.499,-2.039 -6.091,-1.125c-1.437,0.826 -6.989,6.978 -8.633,8.657c-7.357,7.513 -17.375,16.746 -23.822,24.677c-1.343,1.652 -2.845,4.017 -3.122,6.156c-1.282,9.905 1.401,13.344 4.064,22.012c2.304,7.5 -3.725,13.919 -11.043,14.447c-21.323,-1.191 -44.269,1.531 -65.401,0.003c-4.808,-0.348 -9.736,-2.842 -11.356,-7.621c-2.788,-8.224 4.644,-12.736 8.558,-18.83c3.046,-4.743 5.184,-10.144 7.59,-15.183c13.375,-28.014 25.564,-56.649 38.242,-84.901c4.464,-9.948 11.753,-19.646 9.302,-31.232c-0.567,-2.679 -2.277,-5.46 -2.654,-8.307c-0.512,-3.867 1.024,-7.406 3.753,-9.712c2.014,-1.702 4.636,-2.511 7.273,-2.512Zm95.981,10.434l-96.575,-0c3.138,8.697 4.805,17.687 1.585,26.678c-17.099,35.089 -31.144,71.768 -48.456,106.738c-4.192,8.468 -8.833,16.368 -15.122,23.465l68.319,0c-4.123,-8.811 -7.314,-20.42 -4.517,-30.031c1.519,-5.217 5.981,-9.787 9.566,-13.628c9.252,-9.91 19.225,-19.185 28.267,-29.299l-32.051,0l29.094,-53.558l46.506,101.312c3.327,10.039 1.562,18.211 -6.437,25.204l82.658,0c-5.278,-5.236 -9.539,-11.297 -13.293,-17.703c-14.71,-34.898 -34.366,-69.207 -48.475,-104.189c-4.614,-11.441 -4.921,-23.251 -1.068,-34.989Zm198.144,156.813c16.004,-28.935 25.172,-60.782 21.57,-94.183c-2.387,-22.137 -10.104,-43.458 -21.497,-62.426l-186.204,0.211c-4.216,10.481 -4.139,19.516 0.02,29.935c13.319,33.364 32.537,65.874 46.224,99.271c8.862,16.752 19.898,26.064 39.376,27.256l100.511,-0.064Zm-22.953,-40.199c-5.066,0 -9.909,-0.77 -14.527,-2.309c-4.619,-1.54 -8.692,-4.073 -12.218,-7.599c-3.526,-3.526 -6.357,-8.071 -8.493,-13.633c-2.136,-5.563 -3.204,-12.367 -3.204,-20.413c0,-8.841 1.689,-17.11 5.066,-24.808c3.377,-7.698 8.021,-14.403 13.931,-20.115c5.91,-5.712 12.814,-10.206 20.711,-13.484c7.897,-3.278 16.315,-4.917 25.255,-4.917l0,5.96c-5.861,0 -11.1,0.993 -15.719,2.98c-4.619,1.987 -8.617,4.743 -11.995,8.27c-3.377,3.526 -6.159,7.723 -8.344,12.591c-2.185,4.867 -3.775,10.231 -4.768,16.092l13.261,-5.215l5.215,0c4.569,0 8.692,0.82 12.367,2.459c3.675,1.639 6.829,3.874 9.462,6.705c2.632,2.831 4.669,6.208 6.109,10.132c1.44,3.924 2.161,8.22 2.161,12.888c0,4.867 -0.869,9.387 -2.608,13.559c-1.738,4.172 -4.147,7.798 -7.227,10.877c-3.079,3.079 -6.705,5.513 -10.877,7.301c-4.172,1.788 -8.692,2.682 -13.559,2.682Zm-14.602,-59.153c-0.199,1.987 -0.373,3.998 -0.522,6.035c-0.149,2.036 -0.224,4.097 -0.224,6.184c0,14.205 1.341,24.337 4.023,30.396c2.682,6.059 6.556,9.089 11.622,9.089c2.086,0 3.899,-0.621 5.439,-1.863c1.54,-1.242 2.831,-2.881 3.874,-4.917c1.043,-2.036 1.813,-4.346 2.31,-6.928c0.497,-2.583 0.745,-5.165 0.745,-7.748c0,-10.529 -1.49,-18.203 -4.47,-23.02c-2.98,-4.818 -7.847,-7.227 -14.602,-7.227l-8.195,0Zm-102.661,57.067c6.953,-8.245 13.311,-16.142 19.072,-23.691c5.761,-7.549 10.678,-14.726 14.751,-21.53c4.073,-6.804 7.251,-13.162 9.536,-19.072c2.285,-5.91 3.427,-11.349 3.427,-16.316c0,-5.662 -1.341,-9.809 -4.023,-12.441c-2.682,-2.632 -5.861,-3.948 -9.536,-3.948c-2.384,0 -4.47,0.472 -6.258,1.416c-1.788,0.944 -3.228,2.185 -4.321,3.725c-1.093,1.54 -1.912,3.328 -2.459,5.364c-0.546,2.036 -0.819,4.147 -0.819,6.332c0,1.391 0.099,2.757 0.298,4.098c0.199,1.341 0.497,2.508 0.894,3.502l-0.447,0.447l-16.539,-20.86c3.576,-3.477 7.971,-6.382 13.186,-8.716c5.215,-2.334 11.001,-3.501 17.359,-3.501c4.47,0 8.766,0.571 12.888,1.713c4.122,1.142 7.773,2.831 10.952,5.066c3.179,2.235 5.712,5.016 7.599,8.344c1.887,3.328 2.831,7.226 2.831,11.697c0,5.265 -1.167,10.107 -3.501,14.528c-2.334,4.42 -5.513,8.99 -9.536,13.708c-4.023,4.718 -8.791,9.859 -14.304,15.421c-5.513,5.563 -11.448,12.119 -17.805,19.668l36.654,0l0.447,-0.149l7.45,-16.241l0.596,0l0,32.035l-68.093,0l-0.298,-0.596Z"/></g><defs><linearGradient id="_Linear1" x1="0" y1="0" x2="1" y2="0" gradientUnits="userSpaceOnUse" gradientTransform="matrix(218.53419,-108.77949,108.77949,218.53419,187.50343,131.97131)"><stop offset="0" style="stop-color:#85723e;stop-opacity:1"/><stop offset="0.11" style="stop-color:#85723e;stop-opacity:1"/><stop offset="0.13" style="stop-color:#947f48;stop-opacity:1"/><stop offset="0.19" style="stop-color:#b0985b;stop-opacity:1"/><stop offset="0.25" style="stop-color:#c5ab6b;stop-opacity:1"/><stop offset="0.32" style="stop-color:#d5b975;stop-opacity:1"/><stop offset="0.4" style="stop-color:#dec17c;stop-opacity:1"/><stop offset="0.51" style="stop-color:#e1c47e;stop-opacity:1"/><stop offset="0.65" style="stop-color:#dec17c;stop-opacity:1"/><stop offset="0.73" style="stop-color:#d5ba76;stop-opacity:1"/><stop offset="0.8" style="stop-color:#c7ad6c;stop-opacity:1"/><stop offset="0.86" style="stop-color:#b29a5d;stop-opacity:1"/><stop offset="0.91" style="stop-color:#98834b;stop-opacity:1"/><stop offset="0.94" style="stop-color:#85723e;stop-opacity:1"/><stop offset="1" style="stop-color:#85723e;stop-opacity:1"/></linearGradient></defs></svg>