<?xml version="1.0" encoding="UTF-8" standalone="no"?><!DOCTYPE svg PUBLIC "-//W3C//DTD SVG 1.1//EN" "http://www.w3.org/Graphics/SVG/1.1/DTD/svg11.dtd"><svg width="100%" height="100%" viewBox="0 0 401 179" version="1.1" xmlns="http://www.w3.org/2000/svg" xmlns:xlink="http://www.w3.org/1999/xlink" xml:space="preserve" xmlns:serif="http://www.serif.com/" style="fill-rule:evenodd;clip-rule:evenodd;stroke-linejoin:round;stroke-miterlimit:2;"><g id="Layer_1_copy"><path d="M366.8,167.247l-100.511,0.064c-19.478,-1.193 -30.514,-10.505 -39.376,-27.256c-13.687,-33.397 -32.905,-65.907 -46.224,-99.271c-4.16,-10.419 -4.237,-19.454 -0.02,-29.935l186.204,-0.211c11.394,18.968 19.11,40.289 21.497,62.426c3.602,33.401 -5.566,65.248 -21.57,94.183Zm-294.719,-156.813c3.138,8.697 4.805,17.687 1.585,26.678c-17.099,35.089 -31.144,71.768 -48.456,106.738c-4.192,8.468 -8.833,16.368 -15.122,23.465l68.319,0c-4.123,-8.811 -7.314,-20.42 -4.517,-30.031c1.519,-5.217 5.981,-9.787 9.566,-13.628c9.252,-9.91 19.225,-19.185 28.267,-29.299l-32.051,0l29.094,-53.558l46.506,101.312c3.327,10.039 1.562,18.211 -6.437,25.204l82.658,0c-5.278,-5.236 -9.539,-11.297 -13.293,-17.703c-14.71,-34.898 -34.366,-69.207 -48.475,-104.189c-4.614,-11.441 -4.921,-23.251 -1.068,-34.989l-96.575,0l0,-0Z" style="fill-rule:nonzero;"/><path d="M72.675,0l298.009,0.728c4.177,4.641 6.137,6.648 10.514,14.224c28.889,50 23.115,104.864 -3.333,154.611c-1.949,3.666 -2.826,5.514 -5.028,8.732l-222.966,0.004c-8.883,-0.086 -14.491,-8.66 -9.815,-16.601c1.272,-2.16 4.763,-4.661 5.438,-6.37c0.832,-2.108 0.242,-5.409 0.54,-7.734l-20.018,-44.122c-1.092,-1.593 -4.499,-2.039 -6.091,-1.125c-1.437,0.826 -6.989,6.978 -8.633,8.657c-7.357,7.513 -17.375,16.746 -23.822,24.677c-1.343,1.652 -2.845,4.017 -3.122,6.156c-1.282,9.905 1.401,13.344 4.064,22.012c2.304,7.5 -3.725,13.919 -11.043,14.447c-21.323,-1.191 -44.269,1.531 -65.401,0.003c-4.808,-0.348 -9.736,-2.842 -11.356,-7.621c-2.788,-8.224 4.644,-12.736 8.558,-18.83c3.046,-4.743 5.184,-10.144 7.59,-15.183c13.375,-28.014 25.564,-56.649 38.242,-84.901c4.464,-9.948 11.753,-19.646 9.302,-31.232c-0.567,-2.679 -2.277,-5.46 -2.654,-8.307c-0.512,-3.867 1.024,-7.406 3.753,-9.712c2.014,-1.702 4.636,-2.511 7.273,-2.512Zm95.981,10.434l-96.575,0c3.138,8.697 4.805,17.687 1.585,26.678c-17.099,35.089 -31.144,71.768 -48.456,106.738c-4.192,8.468 -8.833,16.368 -15.122,23.465l68.319,0c-4.123,-8.811 -7.314,-20.42 -4.517,-30.031c1.519,-5.217 5.981,-9.787 9.566,-13.628c9.252,-9.91 19.225,-19.185 28.267,-29.299l-32.051,0l29.094,-53.558l46.506,101.312c3.327,10.039 1.562,18.211 -6.437,25.204l82.658,0c-5.278,-5.236 -9.539,-11.297 -13.293,-17.703c-14.71,-34.898 -34.366,-69.207 -48.475,-104.189c-4.614,-11.441 -4.921,-23.251 -1.068,-34.989l0,-0Zm198.144,156.813c16.004,-28.935 25.172,-60.782 21.57,-94.183c-2.387,-22.137 -10.104,-43.458 -21.497,-62.426l-186.204,0.211c-4.216,10.481 -4.139,19.516 0.02,29.935c13.319,33.364 32.537,65.874 46.224,99.271c8.862,16.752 19.898,26.064 39.376,27.256l100.511,-0.064Z" style="fill:#fff;fill-rule:nonzero;"/><g transform="matrix(149,0,0,149,386.312293,125.558164)"></g><text x="225.094px" y="125.558px" style="font-family:'Beleren2016-Bold', 'Beleren2016', sans-serif;font-weight:700;font-size:149px;fill:#fff;">2<tspan x="298.7px " y="125.558px ">6</tspan></text></g></svg>