<?xml version="1.0" encoding="utf-8"?>
<svg width="660" height="660" viewBox="0 0 660 660" version="1.1" xmlns="http://www.w3.org/2000/svg" xml:space="preserve" style="fill-rule: evenodd; clip-rule: evenodd; stroke-linejoin: round; stroke-miterlimit: 2;" preserveAspectRatio="xMidYMid meet" zoomAndPan="magnify" contentScriptType="application/ecmascript" contentStyleType="text/css">
  <path d="M300-30C117.868-30-30 117.868-30 300s147.868 330 330 330 330-147.868 330-330S482.132-30 300-30zm0 30c165.575 0 300 134.425 300 300S465.575 600 300 600 0 465.575 0 300 134.425 0 300 0z" style="fill: white;" transform="matrix(1,0,0,1,30,30)" />
  <path id="polygon491" d="m287.69 495.642 42.307-73.734 42.3 73.734-42.3 73.734-42.306-73.734zm153.96 52.05 21.042-12.144v-24.276l-21.042-12.144-81.125-151.5 171.772-5.49 21.036 12.15 21.024-12.138v-24.294l-21.024-12.138-21.036 12.138-171.772-5.478 81.137-151.5 21.036-12.144v-24.276l-21.036-12.144-21.024 12.138-.012 24.282-90.623 146.016-90.63-146.016-.005-24.288-21.018-12.138-21.042 12.15v24.276l21.036 12.144 81.13 151.5-171.765 5.478-21.043-12.138L85.65 317.85v24.288l21.017 12.144 21.042-12.144 171.765 5.49-81.137 151.5-21.03 12.138-.006 24.282 21.036 12.138 21.03-12.138v-24.282l90.63-146.016 90.628 146.016v24.288l21.024 12.138zm10.65-98.232-42.696-73.5 84.995.234 42.7 73.488-85-.222zm-286.905-73.278 85-.228-42.7 73.494-85.002.234 42.702-73.5zm329.216-92.364-85.006.228 42.702-73.494 84.995-.234-42.69 73.5zM207.7 210.54l42.702 73.5-85-.234-42.703-73.494 85 .228zm164.603-46.182-42.3 73.728-42.3-73.728 42.3-73.734 42.3 73.734z" style="fill: white; fill-rule: nonzero;" />
</svg>