<?xml version="1.0" encoding="utf-8"?>
<svg width="660" height="660" version="1.1" xmlns="http://www.w3.org/2000/svg" xml:space="preserve" style="fill-rule: evenodd; clip-rule: evenodd; stroke-linejoin: round; stroke-miterlimit: 2;" preserveAspectRatio="xMidYMid meet" zoomAndPan="magnify" contentScriptType="application/ecmascript" contentStyleType="text/css">
  <path d="M300-30C117.868-30-30 117.868-30 300s147.868 330 330 330 330-147.868 330-330S482.132-30 300-30zm0 30c165.575 0 300 134.425 300 300S465.575 600 300 600 0 465.575 0 300 134.425 0 300 0z" transform="matrix(1,0,0,1,30,30)" />
  <path d="m295 351 1-195-132 195m-51 47-1-47L310 63h66v288c19 0 31-30 33-44h38l-13 90h-57v44c0 27 11 43 37 43h20v39H237l1-39h24c17 0 36-11 35-45v-43" style="fill-rule: nonzero;" transform="matrix(1,0,0,1,30,30)" />
</svg>