<?xml version="1.0" encoding="utf-8"?>
<svg width="714" height="714" viewBox="0 0 714 714" version="1.1" xmlns="http://www.w3.org/2000/svg" xml:space="preserve" style="fill-rule: evenodd; clip-rule: evenodd; stroke-linejoin: round; stroke-miterlimit: 2;" preserveAspectRatio="xMidYMid meet" zoomAndPan="magnify" contentScriptType="application/ecmascript" contentStyleType="text/css">
  <circle cx="300" cy="300" r="300" style="fill: rgb(235, 232, 219);" transform="matrix(1,0,0,1,57,57)" />
  <path d="M300-57C102.966-57-57 102.966-57 300s159.966 357 357 357 357-159.966 357-357S497.034-57 300-57zm0 57c165.575 0 300 134.425 300 300S465.575 600 300 600 0 465.575 0 300 134.425 0 300 0z" style="fill: rgb(38, 36, 30);" transform="matrix(1,0,0,1,57,57)" />
  <path d="m295 351 1-195-132 195m-51 47-1-47L310 63h66v288c19 0 31-30 33-44h38l-13 90h-57v44c0 27 11 43 37 43h20v39H237l1-39h24c17 0 36-11 35-45v-43" style="fill: rgb(38, 36, 30); fill-rule: nonzero;" transform="matrix(1,0,0,1,57,55)" />
</svg>