<?xml version="1.0" encoding="utf-8"?>
<svg width="714" height="714" viewBox="0 0 714 714" version="1.1" xmlns="http://www.w3.org/2000/svg" xml:space="preserve" style="fill-rule: evenodd; clip-rule: evenodd; stroke-linejoin: round; stroke-miterlimit: 2;" preserveAspectRatio="xMidYMid meet" zoomAndPan="magnify" contentScriptType="application/ecmascript" contentStyleType="text/css">
  <circle cx="300" cy="300" r="300" style="fill: rgb(235, 232, 219);" transform="matrix(1,0,0,1,57,57)" />
  <path d="M300-57C102.966-57-57 102.966-57 300s159.966 357 357 357 357-159.966 357-357S497.034-57 300-57zm0 57c165.575 0 300 134.425 300 300S465.575 600 300 600 0 465.575 0 300 134.425 0 300 0z" style="fill: rgb(38, 36, 30);" transform="matrix(1,0,0,1,57,57)" />
  <path d="M238 70h217l-1 43S330 330 328 524h-80c-8-138 147-385 147-385l-145 1c-42 0-54 29-64 59h-41l31-136h27c10 6 22 7 35 7z" style="fill: rgb(38, 36, 30); fill-rule: nonzero;" transform="matrix(1,0,0,1,57.5,57)" />
</svg>